<svg width="1200" height="675" viewBox="0 0 1200 675" fill="none" xmlns="http://www.w3.org/2000/svg">
<rect width="1200" height="675" fill="white"/>
<path d="M913.167 29.1556C773.625 29.1556 782.339 89.686 782.339 89.686L782.495 152.395H915.656V171.223H729.604C729.604 171.223 640.311 161.094 640.311 301.931C640.311 442.769 718.248 437.774 718.248 437.774H764.761V372.42C764.761 372.42 762.253 294.462 841.453 294.462H973.525C973.525 294.462 1047.73 295.662 1047.73 222.728V102.134C1047.73 102.134 1058.99 29.1556 913.167 29.1556ZM839.741 71.3246C852.99 71.3246 863.698 82.0355 863.698 95.2877C863.698 108.54 852.99 119.251 839.741 119.251C826.493 119.251 815.785 108.54 815.785 95.2877C815.785 82.0355 826.493 71.3246 839.741 71.3246Z" fill="url(#paint0_linear_6_2)"/>
<path d="M917.13 576.119C1056.67 576.119 1047.96 515.589 1047.96 515.589L1047.8 452.88H914.641V434.052H1100.69C1100.69 434.052 1189.98 444.181 1189.98 303.343C1189.99 162.506 1112.05 167.5 1112.05 167.5H1065.54V232.854C1065.54 232.854 1068.04 310.812 988.844 310.812H856.772C856.772 310.812 782.569 309.613 782.569 382.546V503.14C782.569 503.14 771.302 576.119 917.13 576.119ZM990.555 533.95C977.306 533.95 966.598 523.239 966.598 509.987C966.598 496.735 977.306 486.024 990.555 486.024C1003.8 486.024 1014.51 496.735 1014.51 509.987C1014.51 523.239 1003.8 533.95 990.555 533.95Z" fill="url(#paint1_linear_6_2)"/>
<path d="M92.0284 89.8182V148H79.7273V101.494H79.3864L66.0625 109.847V98.9375L80.4659 89.8182H92.0284ZM128.669 149.278C123.783 149.259 119.578 148.057 116.055 145.67C112.552 143.284 109.853 139.828 107.959 135.301C106.084 130.775 105.156 125.33 105.175 118.966C105.175 112.621 106.112 107.214 107.987 102.744C109.881 98.2746 112.58 94.875 116.084 92.5455C119.607 90.197 123.802 89.0227 128.669 89.0227C133.536 89.0227 137.722 90.197 141.226 92.5455C144.749 94.8939 147.457 98.303 149.351 102.773C151.245 107.223 152.182 112.621 152.163 118.966C152.163 125.348 151.216 130.803 149.322 135.33C147.447 139.856 144.758 143.312 141.254 145.699C137.75 148.085 133.555 149.278 128.669 149.278ZM128.669 139.08C132.002 139.08 134.663 137.403 136.652 134.051C138.641 130.699 139.625 125.67 139.607 118.966C139.607 114.553 139.152 110.879 138.243 107.943C137.353 105.008 136.084 102.801 134.436 101.324C132.807 99.8466 130.885 99.108 128.669 99.108C125.355 99.108 122.703 100.765 120.714 104.08C118.726 107.394 117.722 112.356 117.703 118.966C117.703 123.436 118.148 127.167 119.038 130.159C119.947 133.133 121.226 135.367 122.874 136.864C124.521 138.341 126.453 139.08 128.669 139.08ZM179.791 148V89.8182H202.746C207.159 89.8182 210.918 90.661 214.024 92.3466C217.13 94.0133 219.498 96.3333 221.126 99.3068C222.774 102.261 223.598 105.67 223.598 109.534C223.598 113.398 222.765 116.807 221.098 119.761C219.431 122.716 217.017 125.017 213.854 126.665C210.71 128.312 206.903 129.136 202.433 129.136H187.803V119.278H200.445C202.812 119.278 204.763 118.871 206.297 118.057C207.85 117.223 209.005 116.078 209.763 114.619C210.539 113.142 210.928 111.447 210.928 109.534C210.928 107.602 210.539 105.917 209.763 104.477C209.005 103.019 207.85 101.892 206.297 101.097C204.744 100.282 202.774 99.875 200.388 99.875H192.092V148H179.791ZM228.179 89.8182H241.957L255.224 114.875H255.793L269.06 89.8182H282.838L261.616 127.432V148H249.401V127.432L228.179 89.8182ZM291.013 99.9602V89.8182H338.797V99.9602H320.984V148H308.825V99.9602H291.013ZM346.666 148V89.8182H358.967V113.824H383.939V89.8182H396.212V148H383.939V123.966H358.967V148H346.666ZM459.82 118.909C459.82 125.254 458.617 130.652 456.212 135.102C453.825 139.553 450.568 142.953 446.439 145.301C442.329 147.631 437.708 148.795 432.575 148.795C427.405 148.795 422.765 147.621 418.655 145.273C414.545 142.924 411.297 139.525 408.911 135.074C406.524 130.623 405.331 125.235 405.331 118.909C405.331 112.564 406.524 107.167 408.911 102.716C411.297 98.2652 414.545 94.875 418.655 92.5455C422.765 90.197 427.405 89.0227 432.575 89.0227C437.708 89.0227 442.329 90.197 446.439 92.5455C450.568 94.875 453.825 98.2652 456.212 102.716C458.617 107.167 459.82 112.564 459.82 118.909ZM447.348 118.909C447.348 114.799 446.732 111.333 445.501 108.511C444.289 105.689 442.575 103.549 440.359 102.091C438.143 100.633 435.549 99.9034 432.575 99.9034C429.602 99.9034 427.007 100.633 424.791 102.091C422.575 103.549 420.852 105.689 419.621 108.511C418.409 111.333 417.803 114.799 417.803 118.909C417.803 123.019 418.409 126.485 419.621 129.307C420.852 132.129 422.575 134.269 424.791 135.727C427.007 137.186 429.602 137.915 432.575 137.915C435.549 137.915 438.143 137.186 440.359 135.727C442.575 134.269 444.289 132.129 445.501 129.307C446.732 126.485 447.348 123.019 447.348 118.909ZM517.597 89.8182V148H506.972L481.659 111.381H481.233V148H468.932V89.8182H479.727L504.841 126.409H505.352V89.8182H517.597Z" fill="url(#paint2_linear_6_2)"/>
<path d="M65.1392 283.805V278.727H100.594V283.805H85.7287V326H80.0043V283.805H65.1392ZM105.008 326V290.545H110.271V295.901H110.64C111.287 294.146 112.456 292.723 114.149 291.63C115.842 290.538 117.75 289.991 119.873 289.991C120.273 289.991 120.774 289.999 121.374 290.015C121.974 290.03 122.428 290.053 122.736 290.084V295.624C122.551 295.577 122.128 295.508 121.466 295.416C120.82 295.308 120.135 295.254 119.412 295.254C117.688 295.254 116.149 295.616 114.795 296.339C113.456 297.047 112.395 298.032 111.61 299.294C110.84 300.54 110.456 301.964 110.456 303.564V326H105.008ZM129.193 326V290.545H134.64V326H129.193ZM131.963 284.636C130.901 284.636 129.985 284.275 129.216 283.551C128.462 282.828 128.085 281.959 128.085 280.943C128.085 279.928 128.462 279.058 129.216 278.335C129.985 277.612 130.901 277.25 131.963 277.25C133.025 277.25 133.932 277.612 134.686 278.335C135.456 279.058 135.841 279.928 135.841 280.943C135.841 281.959 135.456 282.828 134.686 283.551C133.932 284.275 133.025 284.636 131.963 284.636ZM159.021 326.739C155.697 326.739 152.835 325.954 150.434 324.384C148.034 322.815 146.187 320.653 144.895 317.898C143.602 315.144 142.956 311.997 142.956 308.457C142.956 304.857 143.617 301.679 144.941 298.924C146.28 296.154 148.142 293.992 150.527 292.438C152.927 290.869 155.728 290.084 158.929 290.084C161.422 290.084 163.668 290.545 165.669 291.469C167.669 292.392 169.308 293.685 170.585 295.347C171.863 297.009 172.655 298.947 172.963 301.163H167.515C167.1 299.548 166.177 298.116 164.745 296.87C163.33 295.608 161.422 294.977 159.021 294.977C156.897 294.977 155.035 295.531 153.435 296.639C151.85 297.732 150.611 299.278 149.719 301.279C148.842 303.264 148.403 305.595 148.403 308.273C148.403 311.012 148.834 313.397 149.696 315.428C150.573 317.46 151.804 319.037 153.389 320.16C154.989 321.283 156.867 321.845 159.021 321.845C160.437 321.845 161.722 321.599 162.876 321.107C164.03 320.614 165.007 319.906 165.807 318.983C166.607 318.06 167.177 316.952 167.515 315.659H172.963C172.655 317.752 171.893 319.637 170.678 321.314C169.477 322.976 167.885 324.3 165.9 325.284C163.93 326.254 161.637 326.739 159.021 326.739ZM186.004 313.074L185.912 306.334H187.02L202.531 290.545H209.271L192.744 307.257H192.283L186.004 313.074ZM180.926 326V278.727H186.374V326H180.926ZM203.455 326L189.605 308.457L193.483 304.672L210.379 326H203.455ZM241.396 298.486L236.503 299.871C236.195 299.055 235.741 298.263 235.141 297.493C234.556 296.708 233.756 296.062 232.74 295.554C231.725 295.047 230.424 294.793 228.839 294.793C226.67 294.793 224.862 295.293 223.415 296.293C221.984 297.278 221.268 298.532 221.268 300.055C221.268 301.41 221.761 302.479 222.746 303.264C223.731 304.049 225.269 304.703 227.362 305.226L232.625 306.518C235.795 307.288 238.157 308.465 239.711 310.05C241.266 311.62 242.043 313.643 242.043 316.121C242.043 318.152 241.458 319.968 240.288 321.568C239.134 323.169 237.518 324.43 235.441 325.354C233.364 326.277 230.948 326.739 228.193 326.739C224.577 326.739 221.584 325.954 219.214 324.384C216.844 322.815 215.344 320.522 214.713 317.506L219.884 316.213C220.376 318.121 221.307 319.552 222.676 320.506C224.061 321.46 225.87 321.938 228.101 321.938C230.64 321.938 232.656 321.399 234.148 320.322C235.656 319.229 236.411 317.921 236.411 316.398C236.411 315.167 235.98 314.136 235.118 313.305C234.256 312.458 232.933 311.827 231.148 311.412L225.239 310.027C221.992 309.258 219.607 308.065 218.083 306.449C216.575 304.818 215.821 302.779 215.821 300.332C215.821 298.332 216.383 296.562 217.506 295.023C218.645 293.485 220.191 292.277 222.146 291.4C224.115 290.522 226.347 290.084 228.839 290.084C232.348 290.084 235.103 290.853 237.103 292.392C239.119 293.931 240.55 295.962 241.396 298.486ZM278.957 326.831C276.71 326.831 274.671 326.408 272.84 325.561C271.009 324.7 269.555 323.461 268.478 321.845C267.401 320.214 266.862 318.244 266.862 315.936C266.862 313.905 267.262 312.258 268.062 310.996C268.862 309.719 269.932 308.719 271.271 307.996C272.609 307.272 274.087 306.734 275.703 306.38C277.334 306.011 278.973 305.718 280.619 305.503C282.773 305.226 284.52 305.018 285.859 304.88C287.213 304.726 288.198 304.472 288.813 304.118C289.444 303.764 289.76 303.148 289.76 302.271V302.087C289.76 299.809 289.136 298.04 287.89 296.778C286.659 295.516 284.789 294.885 282.281 294.885C279.68 294.885 277.641 295.454 276.164 296.593C274.687 297.732 273.648 298.947 273.048 300.24L267.878 298.393C268.801 296.239 270.032 294.562 271.571 293.362C273.125 292.146 274.818 291.299 276.649 290.822C278.495 290.33 280.311 290.084 282.096 290.084C283.235 290.084 284.543 290.222 286.02 290.499C287.513 290.761 288.952 291.307 290.337 292.138C291.737 292.969 292.899 294.223 293.822 295.901C294.745 297.578 295.207 299.825 295.207 302.641V326H289.76V321.199H289.483C289.113 321.968 288.498 322.792 287.636 323.669C286.774 324.546 285.628 325.292 284.197 325.908C282.766 326.523 281.019 326.831 278.957 326.831ZM279.788 321.938C281.942 321.938 283.758 321.514 285.236 320.668C286.728 319.822 287.852 318.729 288.606 317.39C289.375 316.051 289.76 314.643 289.76 313.166V308.18C289.529 308.457 289.021 308.711 288.236 308.942C287.467 309.158 286.574 309.35 285.559 309.519C284.558 309.673 283.581 309.812 282.627 309.935C281.689 310.042 280.927 310.135 280.342 310.212C278.926 310.396 277.603 310.696 276.372 311.112C275.156 311.512 274.171 312.12 273.417 312.935C272.679 313.736 272.309 314.828 272.309 316.213C272.309 318.106 273.01 319.537 274.41 320.506C275.826 321.46 277.618 321.938 279.788 321.938ZM310.597 304.672V326H305.15V290.545H310.413V296.085H310.874C311.705 294.285 312.967 292.838 314.66 291.746C316.353 290.638 318.538 290.084 321.215 290.084C323.616 290.084 325.716 290.576 327.517 291.561C329.317 292.531 330.717 294.008 331.718 295.993C332.718 297.963 333.218 300.455 333.218 303.472V326H327.771V303.841C327.771 301.056 327.047 298.886 325.601 297.332C324.154 295.762 322.169 294.977 319.646 294.977C317.907 294.977 316.353 295.354 314.983 296.108C313.629 296.862 312.559 297.963 311.775 299.409C310.99 300.856 310.597 302.61 310.597 304.672ZM356.56 326.739C353.606 326.739 350.997 325.992 348.735 324.5C346.473 322.992 344.703 320.868 343.426 318.129C342.149 315.374 341.51 312.12 341.51 308.365C341.51 304.641 342.149 301.41 343.426 298.67C344.703 295.931 346.481 293.815 348.758 292.323C351.036 290.83 353.667 290.084 356.652 290.084C358.961 290.084 360.784 290.469 362.123 291.238C363.477 291.992 364.508 292.854 365.216 293.823C365.939 294.777 366.501 295.562 366.901 296.178H367.363V278.727H372.81V326H367.547V320.553H366.901C366.501 321.199 365.932 322.014 365.193 322.999C364.454 323.969 363.4 324.838 362.031 325.608C360.661 326.362 358.838 326.739 356.56 326.739ZM357.299 321.845C359.484 321.845 361.33 321.276 362.839 320.137C364.347 318.983 365.493 317.39 366.278 315.359C367.063 313.312 367.455 310.95 367.455 308.273C367.455 305.626 367.07 303.31 366.301 301.325C365.531 299.324 364.393 297.77 362.885 296.662C361.377 295.539 359.515 294.977 357.299 294.977C354.991 294.977 353.067 295.57 351.528 296.755C350.005 297.924 348.858 299.517 348.089 301.533C347.335 303.533 346.958 305.78 346.958 308.273C346.958 310.796 347.343 313.089 348.112 315.151C348.897 317.198 350.051 318.829 351.574 320.045C353.113 321.245 355.021 321.845 357.299 321.845ZM417.244 290.545V295.162H398.87V290.545H417.244ZM404.225 282.051H409.673V315.844C409.673 317.383 409.896 318.537 410.342 319.306C410.804 320.06 411.388 320.568 412.096 320.83C412.82 321.076 413.581 321.199 414.381 321.199C414.982 321.199 415.474 321.168 415.859 321.107C416.243 321.03 416.551 320.968 416.782 320.922L417.89 325.815C417.521 325.954 417.005 326.092 416.343 326.231C415.682 326.385 414.843 326.462 413.828 326.462C412.289 326.462 410.781 326.131 409.303 325.469C407.841 324.807 406.626 323.799 405.656 322.445C404.702 321.091 404.225 319.383 404.225 317.321V282.051ZM425.438 326V290.545H430.885V326H425.438ZM428.208 284.636C427.146 284.636 426.23 284.275 425.461 283.551C424.707 282.828 424.33 281.959 424.33 280.943C424.33 279.928 424.707 279.058 425.461 278.335C426.23 277.612 427.146 277.25 428.208 277.25C429.27 277.25 430.178 277.612 430.932 278.335C431.701 279.058 432.086 279.928 432.086 280.943C432.086 281.959 431.701 282.828 430.932 283.551C430.178 284.275 429.27 284.636 428.208 284.636ZM440.863 339.295V290.545H446.126V296.178H446.772C447.172 295.562 447.726 294.777 448.434 293.823C449.157 292.854 450.188 291.992 451.527 291.238C452.881 290.469 454.712 290.084 457.02 290.084C460.006 290.084 462.637 290.83 464.915 292.323C467.192 293.815 468.969 295.931 470.247 298.67C471.524 301.41 472.162 304.641 472.162 308.365C472.162 312.12 471.524 315.374 470.247 318.129C468.969 320.868 467.2 322.992 464.938 324.5C462.676 325.992 460.067 326.739 457.113 326.739C454.835 326.739 453.012 326.362 451.642 325.608C450.273 324.838 449.219 323.969 448.48 322.999C447.741 322.014 447.172 321.199 446.772 320.553H446.31V339.295H440.863ZM446.218 308.273C446.218 310.95 446.61 313.312 447.395 315.359C448.18 317.39 449.326 318.983 450.834 320.137C452.342 321.276 454.189 321.845 456.374 321.845C458.652 321.845 460.552 321.245 462.075 320.045C463.614 318.829 464.768 317.198 465.538 315.151C466.323 313.089 466.715 310.796 466.715 308.273C466.715 305.78 466.33 303.533 465.561 301.533C464.807 299.517 463.66 297.924 462.122 296.755C460.598 295.57 458.682 294.977 456.374 294.977C454.158 294.977 452.296 295.539 450.788 296.662C449.28 297.77 448.141 299.324 447.372 301.325C446.603 303.31 446.218 305.626 446.218 308.273ZM505.586 298.486L500.692 299.871C500.385 299.055 499.931 298.263 499.33 297.493C498.746 296.708 497.945 296.062 496.93 295.554C495.914 295.047 494.614 294.793 493.029 294.793C490.859 294.793 489.051 295.293 487.605 296.293C486.173 297.278 485.458 298.532 485.458 300.055C485.458 301.41 485.95 302.479 486.935 303.264C487.92 304.049 489.459 304.703 491.552 305.226L496.814 306.518C499.984 307.288 502.347 308.465 503.901 310.05C505.455 311.62 506.232 313.643 506.232 316.121C506.232 318.152 505.647 319.968 504.478 321.568C503.324 323.169 501.708 324.43 499.631 325.354C497.553 326.277 495.137 326.739 492.383 326.739C488.766 326.739 485.773 325.954 483.404 324.384C481.034 322.815 479.533 320.522 478.903 317.506L484.073 316.213C484.565 318.121 485.496 319.552 486.866 320.506C488.251 321.46 490.059 321.938 492.29 321.938C494.829 321.938 496.845 321.399 498.338 320.322C499.846 319.229 500.6 317.921 500.6 316.398C500.6 315.167 500.169 314.136 499.307 313.305C498.446 312.458 497.122 311.827 495.337 311.412L489.428 310.027C486.181 309.258 483.796 308.065 482.273 306.449C480.765 304.818 480.01 302.779 480.01 300.332C480.01 298.332 480.572 296.562 481.695 295.023C482.834 293.485 484.381 292.277 486.335 291.4C488.305 290.522 490.536 290.084 493.029 290.084C496.537 290.084 499.292 290.853 501.292 292.392C503.308 293.931 504.739 295.962 505.586 298.486Z" fill="#387EB8"/>
<rect x="47" y="434" width="566" height="83" fill="#387EB8"/>
<path d="M65.4034 494V457.636H87.2074V461.543H69.8068V473.83H85.5739V477.736H69.8068V494H65.4034ZM103.259 494.568C100.796 494.568 98.6361 493.982 96.7777 492.81C94.9311 491.638 93.487 489.999 92.4453 487.892C91.4155 485.785 90.9006 483.323 90.9006 480.506C90.9006 477.665 91.4155 475.185 92.4453 473.066C93.487 470.947 94.9311 469.302 96.7777 468.13C98.6361 466.958 100.796 466.372 103.259 466.372C105.721 466.372 107.875 466.958 109.722 468.13C111.58 469.302 113.024 470.947 114.054 473.066C115.096 475.185 115.616 477.665 115.616 480.506C115.616 483.323 115.096 485.785 114.054 487.892C113.024 489.999 111.58 491.638 109.722 492.81C107.875 493.982 105.721 494.568 103.259 494.568ZM103.259 490.804C105.129 490.804 106.668 490.325 107.875 489.366C109.082 488.407 109.976 487.146 110.556 485.584C111.136 484.021 111.426 482.329 111.426 480.506C111.426 478.683 111.136 476.984 110.556 475.41C109.976 473.835 109.082 472.563 107.875 471.592C106.668 470.622 105.129 470.136 103.259 470.136C101.388 470.136 99.8494 470.622 98.642 471.592C97.4347 472.563 96.541 473.835 95.9609 475.41C95.3809 476.984 95.0909 478.683 95.0909 480.506C95.0909 482.329 95.3809 484.021 95.9609 485.584C96.541 487.146 97.4347 488.407 98.642 489.366C99.8494 490.325 101.388 490.804 103.259 490.804ZM122.013 494V466.727H126.061V470.847H126.345C126.843 469.497 127.742 468.402 129.044 467.562C130.346 466.721 131.814 466.301 133.448 466.301C133.755 466.301 134.14 466.307 134.602 466.319C135.063 466.331 135.413 466.348 135.649 466.372V470.634C135.507 470.598 135.182 470.545 134.673 470.474C134.176 470.391 133.649 470.349 133.093 470.349C131.767 470.349 130.583 470.628 129.541 471.184C128.512 471.728 127.695 472.486 127.091 473.457C126.499 474.415 126.203 475.51 126.203 476.741V494H122.013ZM155.247 494V457.636H167.534C170.387 457.636 172.719 458.151 174.53 459.181C176.353 460.199 177.702 461.578 178.578 463.318C179.454 465.058 179.892 467 179.892 469.142C179.892 471.285 179.454 473.232 178.578 474.984C177.714 476.736 176.376 478.132 174.565 479.174C172.754 480.204 170.434 480.719 167.605 480.719H158.798V476.812H167.463C169.416 476.812 170.985 476.475 172.168 475.8C173.352 475.126 174.21 474.214 174.743 473.066C175.287 471.906 175.56 470.598 175.56 469.142C175.56 467.686 175.287 466.384 174.743 465.236C174.21 464.088 173.346 463.188 172.151 462.537C170.955 461.874 169.369 461.543 167.392 461.543H159.651V494H155.247ZM189.116 504.227C188.406 504.227 187.773 504.168 187.216 504.05C186.66 503.943 186.275 503.837 186.062 503.73L187.127 500.037C188.145 500.297 189.045 500.392 189.826 500.321C190.608 500.25 191.3 499.901 191.904 499.273C192.519 498.658 193.082 497.658 193.591 496.273L194.372 494.142L184.287 466.727H188.832L196.36 488.46H196.645L204.173 466.727H208.718L197.142 497.977C196.621 499.386 195.976 500.552 195.206 501.475C194.437 502.41 193.543 503.103 192.525 503.553C191.519 504.002 190.383 504.227 189.116 504.227ZM226.11 466.727V470.278H211.977V466.727H226.11ZM216.096 460.193H220.286V486.188C220.286 487.371 220.458 488.259 220.801 488.851C221.156 489.431 221.606 489.821 222.151 490.023C222.707 490.212 223.293 490.307 223.908 490.307C224.37 490.307 224.749 490.283 225.045 490.236C225.341 490.177 225.577 490.129 225.755 490.094L226.607 493.858C226.323 493.964 225.927 494.071 225.418 494.178C224.909 494.296 224.263 494.355 223.482 494.355C222.299 494.355 221.138 494.101 220.002 493.592C218.878 493.083 217.942 492.307 217.197 491.266C216.463 490.224 216.096 488.91 216.096 487.324V460.193ZM237.19 477.594V494H232.999V457.636H237.19V470.989H237.545C238.184 469.58 239.143 468.461 240.421 467.633C241.711 466.792 243.428 466.372 245.57 466.372C247.429 466.372 249.056 466.745 250.453 467.491C251.85 468.225 252.933 469.355 253.702 470.882C254.484 472.397 254.874 474.327 254.874 476.67V494H250.684V476.955C250.684 474.788 250.122 473.113 248.997 471.93C247.884 470.734 246.34 470.136 244.363 470.136C242.99 470.136 241.759 470.426 240.67 471.006C239.593 471.586 238.74 472.433 238.113 473.545C237.497 474.658 237.19 476.008 237.19 477.594ZM273.62 494.568C271.158 494.568 268.997 493.982 267.139 492.81C265.292 491.638 263.848 489.999 262.807 487.892C261.777 485.785 261.262 483.323 261.262 480.506C261.262 477.665 261.777 475.185 262.807 473.066C263.848 470.947 265.292 469.302 267.139 468.13C268.997 466.958 271.158 466.372 273.62 466.372C276.082 466.372 278.236 466.958 280.083 468.13C281.941 469.302 283.385 470.947 284.415 473.066C285.457 475.185 285.978 477.665 285.978 480.506C285.978 483.323 285.457 485.785 284.415 487.892C283.385 489.999 281.941 491.638 280.083 492.81C278.236 493.982 276.082 494.568 273.62 494.568ZM273.62 490.804C275.49 490.804 277.029 490.325 278.236 489.366C279.444 488.407 280.337 487.146 280.917 485.584C281.497 484.021 281.787 482.329 281.787 480.506C281.787 478.683 281.497 476.984 280.917 475.41C280.337 473.835 279.444 472.563 278.236 471.592C277.029 470.622 275.49 470.136 273.62 470.136C271.75 470.136 270.211 470.622 269.003 471.592C267.796 472.563 266.902 473.835 266.322 475.41C265.742 476.984 265.452 478.683 265.452 480.506C265.452 482.329 265.742 484.021 266.322 485.584C266.902 487.146 267.796 488.407 269.003 489.366C270.211 490.325 271.75 490.804 273.62 490.804ZM296.565 477.594V494H292.374V466.727H296.423V470.989H296.778C297.417 469.604 298.388 468.491 299.69 467.651C300.992 466.798 302.673 466.372 304.732 466.372C306.579 466.372 308.195 466.751 309.58 467.509C310.964 468.254 312.042 469.391 312.811 470.918C313.58 472.433 313.965 474.35 313.965 476.67V494H309.775V476.955C309.775 474.812 309.219 473.143 308.106 471.947C306.993 470.74 305.466 470.136 303.525 470.136C302.187 470.136 300.992 470.426 299.938 471.006C298.897 471.586 298.074 472.433 297.47 473.545C296.866 474.658 296.565 476.008 296.565 477.594ZM347.475 494H336.253V457.636H347.972C351.499 457.636 354.518 458.364 357.027 459.82C359.537 461.264 361.46 463.342 362.798 466.053C364.135 468.751 364.804 471.983 364.804 475.747C364.804 479.535 364.129 482.796 362.78 485.531C361.431 488.253 359.466 490.348 356.885 491.816C354.305 493.272 351.168 494 347.475 494ZM340.656 490.094H347.191C350.197 490.094 352.689 489.514 354.666 488.354C356.642 487.194 358.116 485.542 359.087 483.4C360.057 481.257 360.543 478.706 360.543 475.747C360.543 472.812 360.063 470.284 359.105 468.165C358.146 466.035 356.713 464.401 354.808 463.265C352.902 462.117 350.529 461.543 347.688 461.543H340.656V490.094ZM383.057 494.568C380.429 494.568 378.162 493.988 376.257 492.828C374.363 491.656 372.901 490.023 371.871 487.928C370.853 485.821 370.344 483.37 370.344 480.577C370.344 477.783 370.853 475.321 371.871 473.19C372.901 471.048 374.333 469.379 376.168 468.183C378.014 466.976 380.169 466.372 382.631 466.372C384.051 466.372 385.454 466.609 386.839 467.082C388.224 467.556 389.485 468.325 390.621 469.391C391.757 470.444 392.663 471.841 393.338 473.581C394.012 475.321 394.35 477.464 394.35 480.009V481.784H373.327V478.162H390.088C390.088 476.623 389.78 475.25 389.165 474.043C388.561 472.835 387.697 471.882 386.573 471.184C385.46 470.486 384.146 470.136 382.631 470.136C380.962 470.136 379.518 470.551 378.298 471.379C377.091 472.196 376.162 473.261 375.511 474.575C374.86 475.889 374.534 477.298 374.534 478.801V481.216C374.534 483.276 374.889 485.022 375.6 486.454C376.322 487.874 377.322 488.957 378.6 489.703C379.879 490.437 381.364 490.804 383.057 490.804C384.158 490.804 385.152 490.65 386.04 490.342C386.94 490.023 387.715 489.549 388.366 488.922C389.017 488.283 389.52 487.49 389.875 486.543L393.923 487.679C393.497 489.052 392.781 490.259 391.775 491.301C390.769 492.331 389.526 493.136 388.046 493.716C386.567 494.284 384.904 494.568 383.057 494.568ZM422.195 466.727L412.11 494H407.848L397.763 466.727H402.309L409.837 488.46H410.121L417.65 466.727H422.195ZM438.184 494.568C435.556 494.568 433.289 493.988 431.384 492.828C429.49 491.656 428.028 490.023 426.998 487.928C425.98 485.821 425.471 483.37 425.471 480.577C425.471 477.783 425.98 475.321 426.998 473.19C428.028 471.048 429.46 469.379 431.295 468.183C433.141 466.976 435.296 466.372 437.758 466.372C439.178 466.372 440.581 466.609 441.966 467.082C443.351 467.556 444.612 468.325 445.748 469.391C446.884 470.444 447.79 471.841 448.464 473.581C449.139 475.321 449.477 477.464 449.477 480.009V481.784H428.454V478.162H445.215C445.215 476.623 444.907 475.25 444.292 474.043C443.688 472.835 442.824 471.882 441.7 471.184C440.587 470.486 439.273 470.136 437.758 470.136C436.089 470.136 434.645 470.551 433.425 471.379C432.218 472.196 431.289 473.261 430.638 474.575C429.987 475.889 429.661 477.298 429.661 478.801V481.216C429.661 483.276 430.016 485.022 430.727 486.454C431.449 487.874 432.449 488.957 433.727 489.703C435.006 490.437 436.491 490.804 438.184 490.804C439.285 490.804 440.279 490.65 441.167 490.342C442.067 490.023 442.842 489.549 443.493 488.922C444.144 488.283 444.647 487.49 445.002 486.543L449.05 487.679C448.624 489.052 447.908 490.259 446.902 491.301C445.896 492.331 444.653 493.136 443.173 493.716C441.694 494.284 440.031 494.568 438.184 494.568ZM460.041 457.636V494H455.851V457.636H460.041ZM478.796 494.568C476.334 494.568 474.173 493.982 472.315 492.81C470.468 491.638 469.024 489.999 467.982 487.892C466.953 485.785 466.438 483.323 466.438 480.506C466.438 477.665 466.953 475.185 467.982 473.066C469.024 470.947 470.468 469.302 472.315 468.13C474.173 466.958 476.334 466.372 478.796 466.372C481.258 466.372 483.412 466.958 485.259 468.13C487.117 469.302 488.561 470.947 489.591 473.066C490.633 475.185 491.154 477.665 491.154 480.506C491.154 483.323 490.633 485.785 489.591 487.892C488.561 489.999 487.117 491.638 485.259 492.81C483.412 493.982 481.258 494.568 478.796 494.568ZM478.796 490.804C480.666 490.804 482.205 490.325 483.412 489.366C484.619 488.407 485.513 487.146 486.093 485.584C486.673 484.021 486.963 482.329 486.963 480.506C486.963 478.683 486.673 476.984 486.093 475.41C485.513 473.835 484.619 472.563 483.412 471.592C482.205 470.622 480.666 470.136 478.796 470.136C476.925 470.136 475.387 470.622 474.179 471.592C472.972 472.563 472.078 473.835 471.498 475.41C470.918 476.984 470.628 478.683 470.628 480.506C470.628 482.329 470.918 484.021 471.498 485.584C472.078 487.146 472.972 488.407 474.179 489.366C475.387 490.325 476.925 490.804 478.796 490.804ZM497.55 504.227V466.727H501.598V471.06H502.096C502.403 470.586 502.829 469.982 503.374 469.249C503.93 468.503 504.723 467.84 505.753 467.26C506.795 466.668 508.203 466.372 509.979 466.372C512.275 466.372 514.3 466.946 516.051 468.094C517.803 469.243 519.171 470.87 520.153 472.977C521.136 475.084 521.627 477.57 521.627 480.435C521.627 483.323 521.136 485.826 520.153 487.945C519.171 490.052 517.809 491.686 516.069 492.846C514.329 493.994 512.323 494.568 510.05 494.568C508.298 494.568 506.895 494.278 505.842 493.698C504.788 493.106 503.978 492.437 503.409 491.692C502.841 490.934 502.403 490.307 502.096 489.81H501.74V504.227H497.55ZM501.669 480.364C501.669 482.423 501.971 484.24 502.575 485.815C503.179 487.377 504.06 488.602 505.221 489.49C506.381 490.366 507.801 490.804 509.482 490.804C511.234 490.804 512.696 490.342 513.868 489.419C515.051 488.484 515.939 487.229 516.531 485.655C517.135 484.069 517.436 482.305 517.436 480.364C517.436 478.446 517.141 476.718 516.549 475.179C515.969 473.628 515.087 472.403 513.903 471.504C512.731 470.592 511.257 470.136 509.482 470.136C507.777 470.136 506.345 470.568 505.185 471.433C504.025 472.285 503.149 473.48 502.557 475.019C501.965 476.546 501.669 478.328 501.669 480.364ZM539.453 494.568C536.826 494.568 534.559 493.988 532.653 492.828C530.759 491.656 529.297 490.023 528.267 487.928C527.249 485.821 526.74 483.37 526.74 480.577C526.74 477.783 527.249 475.321 528.267 473.19C529.297 471.048 530.73 469.379 532.564 468.183C534.411 466.976 536.565 466.372 539.027 466.372C540.448 466.372 541.85 466.609 543.235 467.082C544.62 467.556 545.881 468.325 547.017 469.391C548.154 470.444 549.059 471.841 549.734 473.581C550.409 475.321 550.746 477.464 550.746 480.009V481.784H529.723V478.162H546.485C546.485 476.623 546.177 475.25 545.561 474.043C544.958 472.835 544.094 471.882 542.969 471.184C541.856 470.486 540.542 470.136 539.027 470.136C537.358 470.136 535.914 470.551 534.695 471.379C533.488 472.196 532.558 473.261 531.907 474.575C531.256 475.889 530.931 477.298 530.931 478.801V481.216C530.931 483.276 531.286 485.022 531.996 486.454C532.718 487.874 533.718 488.957 534.997 489.703C536.275 490.437 537.761 490.804 539.453 490.804C540.554 490.804 541.549 490.65 542.436 490.342C543.336 490.023 544.111 489.549 544.762 488.922C545.413 488.283 545.917 487.49 546.272 486.543L550.32 487.679C549.894 489.052 549.178 490.259 548.172 491.301C547.165 492.331 545.922 493.136 544.443 493.716C542.963 494.284 541.3 494.568 539.453 494.568ZM557.12 494V466.727H561.169V470.847H561.453C561.95 469.497 562.85 468.402 564.152 467.562C565.454 466.721 566.922 466.301 568.555 466.301C568.863 466.301 569.248 466.307 569.709 466.319C570.171 466.331 570.52 466.348 570.757 466.372V470.634C570.615 470.598 570.289 470.545 569.78 470.474C569.283 470.391 568.756 470.349 568.2 470.349C566.874 470.349 565.69 470.628 564.649 471.184C563.619 471.728 562.802 472.486 562.199 473.457C561.607 474.415 561.311 475.51 561.311 476.741V494H557.12ZM595.042 472.835L591.278 473.901C591.041 473.273 590.692 472.664 590.23 472.072C589.78 471.468 589.165 470.971 588.384 470.58C587.602 470.19 586.602 469.994 585.383 469.994C583.714 469.994 582.323 470.379 581.21 471.148C580.11 471.906 579.559 472.871 579.559 474.043C579.559 475.084 579.938 475.907 580.695 476.511C581.453 477.114 582.637 477.617 584.247 478.02L588.295 479.014C590.733 479.606 592.55 480.512 593.746 481.731C594.941 482.938 595.539 484.495 595.539 486.401C595.539 487.963 595.089 489.36 594.19 490.591C593.302 491.822 592.059 492.793 590.461 493.503C588.863 494.213 587.005 494.568 584.886 494.568C582.104 494.568 579.802 493.964 577.979 492.757C576.156 491.55 575.002 489.786 574.517 487.466L578.494 486.472C578.873 487.939 579.589 489.04 580.642 489.774C581.708 490.508 583.098 490.875 584.815 490.875C586.768 490.875 588.319 490.461 589.467 489.632C590.627 488.792 591.207 487.786 591.207 486.614C591.207 485.667 590.875 484.874 590.213 484.234C589.55 483.583 588.532 483.098 587.159 482.778L582.613 481.713C580.115 481.121 578.281 480.204 577.109 478.961C575.949 477.706 575.369 476.138 575.369 474.256C575.369 472.717 575.801 471.356 576.665 470.172C577.541 468.988 578.731 468.059 580.234 467.384C581.749 466.71 583.465 466.372 585.383 466.372C588.082 466.372 590.201 466.964 591.74 468.148C593.29 469.331 594.391 470.894 595.042 472.835Z" fill="#FFE052"/>
<defs>
<linearGradient id="paint0_linear_6_2" x1="5922.78" y1="4948.94" x2="33170.1" y2="31916.9" gradientUnits="userSpaceOnUse">
<stop stop-color="#387EB8"/>
<stop offset="1" stop-color="#366994"/>
</linearGradient>
<linearGradient id="paint1_linear_6_2" x1="8579.09" y1="8576.97" x2="37839.4" y2="36230" gradientUnits="userSpaceOnUse">
<stop stop-color="#FFE052"/>
<stop offset="1" stop-color="#FFC331"/>
</linearGradient>
<linearGradient id="paint2_linear_6_2" x1="292.5" y1="70" x2="292.5" y2="167" gradientUnits="userSpaceOnUse">
<stop stop-color="#387EB8"/>
<stop offset="1" stop-color="#FFE052"/>
</linearGradient>
</defs>
</svg>
