<svg width="1200" height="675" viewBox="0 0 1200 675" fill="none" xmlns="http://www.w3.org/2000/svg">
<rect width="1200" height="675" fill="#3B3B3B"/>
<path d="M84.5568 60.1818V63.0227H73.25V60.1818H84.5568ZM76.5455 54.9545H79.8977V75.75C79.8977 76.697 80.035 77.4072 80.3097 77.8807C80.5938 78.3447 80.9536 78.6572 81.3892 78.8182C81.8343 78.9697 82.303 79.0455 82.7955 79.0455C83.1648 79.0455 83.4678 79.0265 83.7045 78.9886C83.9413 78.9413 84.1307 78.9034 84.2727 78.875L84.9545 81.8864C84.7273 81.9716 84.41 82.0568 84.0028 82.142C83.5956 82.2367 83.0795 82.2841 82.4545 82.2841C81.5076 82.2841 80.5795 82.0805 79.6705 81.6733C78.7708 81.2661 78.0227 80.6458 77.4261 79.8125C76.839 78.9792 76.5455 77.928 76.5455 76.6591V54.9545ZM98.5128 82.4545C96.4105 82.4545 94.5971 81.9905 93.0724 81.0625C91.5573 80.125 90.3878 78.8182 89.5639 77.142C88.7495 75.4564 88.3423 73.4962 88.3423 71.2614C88.3423 69.0265 88.7495 67.0568 89.5639 65.3523C90.3878 63.6383 91.5336 62.303 93.0014 61.3466C94.4787 60.3807 96.2022 59.8977 98.1719 59.8977C99.3082 59.8977 100.43 60.0871 101.538 60.4659C102.646 60.8447 103.655 61.4602 104.564 62.3125C105.473 63.1553 106.197 64.2727 106.737 65.6648C107.277 67.0568 107.547 68.7708 107.547 70.8068V72.2273H90.7287V69.3295H104.138C104.138 68.0985 103.892 67 103.399 66.0341C102.916 65.0682 102.225 64.3059 101.325 63.7472C100.435 63.1884 99.384 62.9091 98.1719 62.9091C96.8366 62.9091 95.6813 63.2405 94.706 63.9034C93.7401 64.5568 92.9967 65.4091 92.4759 66.4602C91.955 67.5114 91.6946 68.6383 91.6946 69.8409V71.7727C91.6946 73.4205 91.9787 74.8172 92.5469 75.9631C93.1245 77.0994 93.9247 77.9659 94.9474 78.5625C95.9702 79.1496 97.1586 79.4432 98.5128 79.4432C99.3935 79.4432 100.189 79.3201 100.899 79.0739C101.619 78.8182 102.239 78.4394 102.76 77.9375C103.281 77.4261 103.683 76.7917 103.967 76.0341L107.206 76.9432C106.865 78.0417 106.292 79.0076 105.487 79.8409C104.682 80.6648 103.688 81.3087 102.504 81.7727C101.321 82.2273 99.9901 82.4545 98.5128 82.4545ZM115.999 68.875V82H112.646V60.1818H115.885V63.5909H116.169C116.68 62.483 117.457 61.5928 118.499 60.9205C119.54 60.2386 120.885 59.8977 122.533 59.8977C124.01 59.8977 125.303 60.2008 126.411 60.8068C127.518 61.4034 128.38 62.3125 128.996 63.5341C129.611 64.7462 129.919 66.2803 129.919 68.1364V82H126.567V68.3636C126.567 66.6496 126.122 65.3144 125.232 64.358C124.341 63.392 123.12 62.9091 121.567 62.9091C120.497 62.9091 119.54 63.1411 118.697 63.6051C117.864 64.0691 117.206 64.7462 116.723 65.6364C116.24 66.5265 115.999 67.6061 115.999 68.875ZM151.499 65.0682L148.488 65.9205C148.299 65.4186 148.019 64.9309 147.65 64.4574C147.29 63.9744 146.798 63.5767 146.173 63.2642C145.548 62.9517 144.747 62.7955 143.772 62.7955C142.437 62.7955 141.324 63.1032 140.434 63.7188C139.553 64.3248 139.113 65.0966 139.113 66.0341C139.113 66.8674 139.416 67.5256 140.022 68.0085C140.628 68.4915 141.575 68.8939 142.863 69.2159L146.102 70.0114C148.052 70.4848 149.506 71.2093 150.462 72.1847C151.419 73.1506 151.897 74.3958 151.897 75.9205C151.897 77.1705 151.537 78.2879 150.817 79.2727C150.107 80.2576 149.113 81.0341 147.835 81.6023C146.556 82.1705 145.069 82.4545 143.374 82.4545C141.149 82.4545 139.307 81.9716 137.849 81.0057C136.39 80.0398 135.467 78.6288 135.079 76.7727L138.261 75.9773C138.564 77.1515 139.137 78.0322 139.979 78.6193C140.832 79.2064 141.944 79.5 143.317 79.5C144.88 79.5 146.121 79.1686 147.039 78.5057C147.967 77.8333 148.431 77.0284 148.431 76.0909C148.431 75.3333 148.166 74.6989 147.636 74.1875C147.105 73.6667 146.291 73.2784 145.192 73.0227L141.556 72.1705C139.558 71.697 138.09 70.9631 137.153 69.9688C136.225 68.965 135.761 67.7102 135.761 66.2045C135.761 64.9735 136.106 63.8845 136.798 62.9375C137.498 61.9905 138.45 61.2472 139.653 60.7074C140.865 60.1676 142.238 59.8977 143.772 59.8977C145.931 59.8977 147.626 60.3712 148.857 61.3182C150.098 62.2652 150.978 63.5152 151.499 65.0682ZM165.807 82.4545C163.837 82.4545 162.109 81.9858 160.622 81.0483C159.145 80.1108 157.99 78.7992 157.156 77.1136C156.332 75.428 155.92 73.4583 155.92 71.2045C155.92 68.9318 156.332 66.9479 157.156 65.2528C157.99 63.5578 159.145 62.2415 160.622 61.304C162.109 60.3665 163.837 59.8977 165.807 59.8977C167.777 59.8977 169.5 60.3665 170.977 61.304C172.464 62.2415 173.619 63.5578 174.443 65.2528C175.277 66.9479 175.693 68.9318 175.693 71.2045C175.693 73.4583 175.277 75.428 174.443 77.1136C173.619 78.7992 172.464 80.1108 170.977 81.0483C169.5 81.9858 167.777 82.4545 165.807 82.4545ZM165.807 79.4432C167.303 79.4432 168.534 79.0597 169.5 78.2926C170.466 77.5256 171.181 76.517 171.645 75.267C172.109 74.017 172.341 72.6629 172.341 71.2045C172.341 69.7462 172.109 68.3873 171.645 67.1278C171.181 65.8684 170.466 64.8504 169.5 64.0739C168.534 63.2973 167.303 62.9091 165.807 62.9091C164.311 62.9091 163.08 63.2973 162.114 64.0739C161.148 64.8504 160.433 65.8684 159.969 67.1278C159.505 68.3873 159.273 69.7462 159.273 71.2045C159.273 72.6629 159.505 74.017 159.969 75.267C160.433 76.517 161.148 77.5256 162.114 78.2926C163.08 79.0597 164.311 79.4432 165.807 79.4432ZM180.81 82V60.1818H184.049V63.4773H184.276C184.674 62.3977 185.394 61.5218 186.435 60.8494C187.477 60.1771 188.651 59.8409 189.958 59.8409C190.204 59.8409 190.512 59.8456 190.881 59.8551C191.251 59.8646 191.53 59.8788 191.719 59.8977V63.3068C191.606 63.2784 191.345 63.2358 190.938 63.179C190.54 63.1127 190.119 63.0795 189.674 63.0795C188.613 63.0795 187.666 63.3021 186.833 63.7472C186.009 64.1828 185.356 64.7888 184.873 65.5653C184.399 66.3324 184.163 67.2083 184.163 68.1932V82H180.81ZM196.886 69.7273C196.886 66.1477 197.35 62.857 198.278 59.8551C199.216 56.8437 200.551 54.0739 202.284 51.5455H205.239C204.557 52.483 203.918 53.6383 203.321 55.0114C202.734 56.375 202.218 57.8759 201.773 59.5142C201.328 61.143 200.977 62.8286 200.722 64.571C200.475 66.3134 200.352 68.0322 200.352 69.7273C200.352 71.9811 200.57 74.268 201.006 76.5881C201.441 78.9081 202.028 81.0625 202.767 83.0511C203.506 85.0398 204.33 86.6591 205.239 87.9091H202.284C200.551 85.3807 199.216 82.6155 198.278 79.6136C197.35 76.6023 196.886 73.3068 196.886 69.7273ZM211.833 87.9091V51.5455H220.242V54.3295H215.015V85.125H220.242V87.9091H211.833ZM237.575 87.9091V51.5455H245.984V54.3295H240.757V85.125H245.984V87.9091H237.575ZM260.59 52.9091V82H257.067V56.6023H256.897L249.795 61.3182V57.7386L257.067 52.9091H260.59ZM272.295 78.0227L272.067 79.5568C271.906 80.6364 271.66 81.7917 271.329 83.0227C271.007 84.2538 270.671 85.4138 270.32 86.5028C269.97 87.5919 269.681 88.4583 269.454 89.1023H266.897C267.02 88.4962 267.181 87.696 267.38 86.7017C267.579 85.7074 267.778 84.5947 267.977 83.3636C268.185 82.142 268.355 80.892 268.488 79.6136L268.658 78.0227H272.295ZM289.699 82V79.4432L299.301 68.9318C300.428 67.7008 301.356 66.6307 302.085 65.7216C302.814 64.803 303.354 63.9413 303.705 63.1364C304.064 62.322 304.244 61.4697 304.244 60.5795C304.244 59.5568 303.998 58.6714 303.506 57.9233C303.023 57.1752 302.36 56.5975 301.517 56.1903C300.674 55.7831 299.727 55.5795 298.676 55.5795C297.559 55.5795 296.583 55.8116 295.75 56.2756C294.926 56.7301 294.287 57.3693 293.832 58.1932C293.387 59.017 293.165 59.983 293.165 61.0909H289.812C289.812 59.3864 290.205 57.8902 290.991 56.6023C291.777 55.3144 292.848 54.3106 294.202 53.5909C295.565 52.8712 297.095 52.5114 298.79 52.5114C300.494 52.5114 302.005 52.8712 303.321 53.5909C304.637 54.3106 305.67 55.2812 306.418 56.5028C307.166 57.7244 307.54 59.0833 307.54 60.5795C307.54 61.6496 307.346 62.696 306.957 63.7188C306.579 64.732 305.916 65.8636 304.969 67.1136C304.031 68.3542 302.729 69.8693 301.062 71.6591L294.528 78.6477V78.875H308.051V82H289.699ZM318.974 78.0227L318.747 79.5568C318.586 80.6364 318.34 81.7917 318.009 83.0227C317.687 84.2538 317.35 85.4138 317 86.5028C316.65 87.5919 316.361 88.4583 316.134 89.1023H313.577C313.7 88.4962 313.861 87.696 314.06 86.7017C314.259 85.7074 314.457 84.5947 314.656 83.3636C314.865 82.142 315.035 80.892 315.168 79.6136L315.338 78.0227H318.974ZM346.208 82.3977C344.333 82.3977 342.662 82.0758 341.194 81.4318C339.736 80.7879 338.576 79.893 337.714 78.7472C336.862 77.5919 336.397 76.2519 336.322 74.7273H339.901C339.977 75.6648 340.299 76.4744 340.867 77.1562C341.435 77.8286 342.179 78.3494 343.097 78.7188C344.016 79.0881 345.034 79.2727 346.151 79.2727C347.401 79.2727 348.509 79.0549 349.475 78.6193C350.441 78.1837 351.199 77.5777 351.748 76.8011C352.297 76.0246 352.572 75.125 352.572 74.1023C352.572 73.0322 352.307 72.09 351.776 71.2756C351.246 70.4517 350.469 69.8078 349.447 69.3438C348.424 68.8797 347.174 68.6477 345.697 68.6477H343.367V65.5227H345.697C346.852 65.5227 347.865 65.3144 348.737 64.8977C349.617 64.4811 350.304 63.8939 350.796 63.1364C351.298 62.3788 351.549 61.4886 351.549 60.4659C351.549 59.4811 351.331 58.6241 350.896 57.8949C350.46 57.1657 349.844 56.5975 349.049 56.1903C348.263 55.7831 347.335 55.5795 346.265 55.5795C345.261 55.5795 344.314 55.7642 343.424 56.1335C342.543 56.4934 341.824 57.0189 341.265 57.7102C340.706 58.392 340.403 59.2159 340.356 60.1818H336.947C337.004 58.6572 337.463 57.322 338.325 56.1761C339.186 55.0208 340.313 54.1212 341.705 53.4773C343.107 52.8333 344.646 52.5114 346.322 52.5114C348.121 52.5114 349.665 52.8759 350.952 53.6051C352.24 54.3248 353.23 55.2765 353.921 56.4602C354.612 57.6439 354.958 58.9223 354.958 60.2955C354.958 61.9337 354.527 63.3305 353.665 64.4858C352.813 65.6411 351.653 66.4413 350.185 66.8864V67.1136C352.022 67.4167 353.457 68.1979 354.489 69.4574C355.522 70.7074 356.038 72.2557 356.038 74.1023C356.038 75.6837 355.607 77.1042 354.745 78.3636C353.893 79.6136 352.728 80.5985 351.251 81.3182C349.773 82.0379 348.093 82.3977 346.208 82.3977ZM368.609 49.2727V85.6364H360.2V82.8523H365.427V52.0568H360.2V49.2727H368.609ZM381.396 78.0227L381.169 79.5568C381.008 80.6364 380.762 81.7917 380.43 83.0227C380.108 84.2538 379.772 85.4138 379.422 86.5028C379.071 87.5919 378.783 88.4583 378.555 89.1023H375.999C376.122 88.4962 376.283 87.696 376.482 86.7017C376.68 85.7074 376.879 84.5947 377.078 83.3636C377.286 82.142 377.457 80.892 377.589 79.6136L377.76 78.0227H381.396ZM234.216 133.636V97.2727H242.625V100.057H237.398V130.852H242.625V133.636H234.216ZM246.322 124.034V121.136L259.106 100.909H261.208V105.398H259.788L250.129 120.682V120.909H267.344V124.034H246.322ZM260.015 130V123.153V121.804V100.909H263.367V130H260.015ZM276.357 126.023L276.13 127.557C275.969 128.636 275.723 129.792 275.391 131.023C275.069 132.254 274.733 133.414 274.383 134.503C274.032 135.592 273.744 136.458 273.516 137.102H270.96C271.083 136.496 271.244 135.696 271.442 134.702C271.641 133.707 271.84 132.595 272.039 131.364C272.247 130.142 272.418 128.892 272.55 127.614L272.721 126.023H276.357ZM302.852 130.398C301.186 130.398 299.685 130.066 298.349 129.403C297.014 128.741 295.944 127.831 295.139 126.676C294.334 125.521 293.894 124.205 293.818 122.727H297.227C297.36 124.044 297.956 125.133 299.017 125.994C300.087 126.847 301.366 127.273 302.852 127.273C304.045 127.273 305.106 126.993 306.034 126.435C306.972 125.876 307.705 125.109 308.236 124.134C308.776 123.149 309.045 122.036 309.045 120.795C309.045 119.527 308.766 118.395 308.207 117.401C307.658 116.397 306.901 115.606 305.935 115.028C304.969 114.451 303.866 114.157 302.625 114.148C301.735 114.138 300.821 114.276 299.884 114.56C298.946 114.834 298.174 115.189 297.568 115.625L294.273 115.227L296.034 100.909H311.148V104.034H298.989L297.966 112.614H298.136C298.733 112.14 299.481 111.747 300.381 111.435C301.28 111.122 302.218 110.966 303.193 110.966C304.973 110.966 306.56 111.392 307.952 112.244C309.353 113.087 310.452 114.242 311.247 115.71C312.052 117.178 312.455 118.854 312.455 120.739C312.455 122.595 312.038 124.252 311.205 125.71C310.381 127.159 309.244 128.305 307.795 129.148C306.347 129.981 304.699 130.398 302.852 130.398ZM322.06 126.023L321.833 127.557C321.672 128.636 321.426 129.792 321.094 131.023C320.772 132.254 320.436 133.414 320.086 134.503C319.736 135.592 319.447 136.458 319.219 137.102H316.663C316.786 136.496 316.947 135.696 317.146 134.702C317.344 133.707 317.543 132.595 317.742 131.364C317.951 130.142 318.121 128.892 318.254 127.614L318.424 126.023H322.06ZM349.124 130.398C347.93 130.379 346.737 130.152 345.544 129.716C344.351 129.28 343.262 128.546 342.277 127.514C341.292 126.473 340.501 125.066 339.905 123.295C339.308 121.515 339.01 119.28 339.01 116.591C339.01 114.015 339.251 111.733 339.734 109.744C340.217 107.746 340.918 106.065 341.837 104.702C342.755 103.329 343.863 102.287 345.161 101.577C346.467 100.866 347.94 100.511 349.578 100.511C351.207 100.511 352.656 100.838 353.925 101.491C355.203 102.135 356.245 103.035 357.05 104.19C357.855 105.346 358.375 106.676 358.612 108.182H355.146C354.824 106.875 354.199 105.791 353.271 104.929C352.343 104.067 351.112 103.636 349.578 103.636C347.324 103.636 345.549 104.616 344.251 106.577C342.964 108.537 342.315 111.288 342.305 114.83H342.533C343.063 114.025 343.693 113.338 344.422 112.77C345.161 112.192 345.975 111.747 346.865 111.435C347.755 111.122 348.697 110.966 349.692 110.966C351.358 110.966 352.883 111.383 354.266 112.216C355.648 113.04 356.756 114.181 357.589 115.639C358.423 117.088 358.839 118.75 358.839 120.625C358.839 122.424 358.437 124.072 357.632 125.568C356.827 127.055 355.696 128.239 354.237 129.119C352.788 129.991 351.084 130.417 349.124 130.398ZM349.124 127.273C350.317 127.273 351.387 126.974 352.334 126.378C353.29 125.781 354.043 124.981 354.592 123.977C355.151 122.973 355.43 121.856 355.43 120.625C355.43 119.422 355.161 118.329 354.621 117.344C354.09 116.349 353.357 115.559 352.419 114.972C351.491 114.384 350.43 114.091 349.237 114.091C348.338 114.091 347.5 114.271 346.723 114.631C345.946 114.981 345.265 115.464 344.678 116.08C344.1 116.695 343.645 117.401 343.314 118.196C342.982 118.982 342.817 119.811 342.817 120.682C342.817 121.837 343.087 122.917 343.626 123.92C344.176 124.924 344.924 125.734 345.871 126.349C346.827 126.965 347.911 127.273 349.124 127.273ZM371.187 97.2727V133.636H362.778V130.852H368.005V100.057H362.778V97.2727H371.187ZM383.974 126.023L383.747 127.557C383.586 128.636 383.34 129.792 383.009 131.023C382.687 132.254 382.35 133.414 382 134.503C381.65 135.592 381.361 136.458 381.134 137.102H378.577C378.7 136.496 378.861 135.696 379.06 134.702C379.259 133.707 379.457 132.595 379.656 131.364C379.865 130.142 380.035 128.892 380.168 127.614L380.338 126.023H383.974ZM234.216 181.636V145.273H242.625V148.057H237.398V178.852H242.625V181.636H234.216ZM247.913 178L260.924 152.261V152.034H245.924V148.909H264.56V152.205L251.606 178H247.913ZM269.912 174.023L269.685 175.557C269.524 176.636 269.277 177.792 268.946 179.023C268.624 180.254 268.288 181.414 267.938 182.503C267.587 183.592 267.298 184.458 267.071 185.102H264.514C264.637 184.496 264.798 183.696 264.997 182.702C265.196 181.707 265.395 180.595 265.594 179.364C265.802 178.142 265.973 176.892 266.105 175.614L266.276 174.023H269.912ZM296.634 178.398C294.683 178.398 292.96 178.052 291.464 177.361C289.977 176.66 288.817 175.699 287.984 174.477C287.15 173.246 286.738 171.845 286.748 170.273C286.738 169.042 286.98 167.905 287.472 166.864C287.965 165.812 288.637 164.937 289.489 164.236C290.351 163.526 291.312 163.076 292.373 162.886V162.716C290.981 162.356 289.873 161.575 289.049 160.372C288.225 159.16 287.818 157.782 287.827 156.239C287.818 154.761 288.192 153.44 288.95 152.276C289.707 151.111 290.749 150.192 292.075 149.52C293.41 148.848 294.93 148.511 296.634 148.511C298.32 148.511 299.826 148.848 301.151 149.52C302.477 150.192 303.519 151.111 304.276 152.276C305.043 153.44 305.432 154.761 305.441 156.239C305.432 157.782 305.01 159.16 304.177 160.372C303.353 161.575 302.259 162.356 300.896 162.716V162.886C301.947 163.076 302.894 163.526 303.737 164.236C304.579 164.937 305.252 165.812 305.754 166.864C306.255 167.905 306.511 169.042 306.521 170.273C306.511 171.845 306.085 173.246 305.242 174.477C304.409 175.699 303.249 176.66 301.762 177.361C300.285 178.052 298.576 178.398 296.634 178.398ZM296.634 175.273C297.951 175.273 299.087 175.06 300.043 174.634C301 174.207 301.738 173.606 302.259 172.83C302.78 172.053 303.045 171.144 303.055 170.102C303.045 169.004 302.761 168.033 302.202 167.19C301.644 166.348 300.881 165.685 299.915 165.202C298.959 164.719 297.865 164.477 296.634 164.477C295.394 164.477 294.286 164.719 293.31 165.202C292.344 165.685 291.582 166.348 291.023 167.19C290.474 168.033 290.204 169.004 290.214 170.102C290.204 171.144 290.455 172.053 290.967 172.83C291.487 173.606 292.231 174.207 293.197 174.634C294.163 175.06 295.308 175.273 296.634 175.273ZM296.634 161.466C297.676 161.466 298.599 161.258 299.404 160.841C300.219 160.424 300.858 159.842 301.322 159.094C301.786 158.346 302.022 157.47 302.032 156.466C302.022 155.481 301.79 154.624 301.336 153.895C300.881 153.156 300.252 152.588 299.447 152.19C298.642 151.783 297.704 151.58 296.634 151.58C295.545 151.58 294.594 151.783 293.779 152.19C292.965 152.588 292.335 153.156 291.89 153.895C291.445 154.624 291.227 155.481 291.237 156.466C291.227 157.47 291.45 158.346 291.904 159.094C292.368 159.842 293.007 160.424 293.822 160.841C294.636 161.258 295.574 161.466 296.634 161.466ZM316.123 174.023L315.896 175.557C315.735 176.636 315.488 177.792 315.157 179.023C314.835 180.254 314.499 181.414 314.148 182.503C313.798 183.592 313.509 184.458 313.282 185.102H310.725C310.848 184.496 311.009 183.696 311.208 182.702C311.407 181.707 311.606 180.595 311.805 179.364C312.013 178.142 312.183 176.892 312.316 175.614L312.487 174.023H316.123ZM342.788 148.511C343.982 148.521 345.175 148.748 346.368 149.193C347.561 149.638 348.65 150.377 349.635 151.409C350.62 152.432 351.411 153.829 352.007 155.599C352.604 157.37 352.902 159.591 352.902 162.261C352.902 164.847 352.656 167.143 352.163 169.151C351.68 171.149 350.98 172.834 350.061 174.207C349.152 175.58 348.044 176.622 346.737 177.332C345.44 178.043 343.972 178.398 342.334 178.398C340.705 178.398 339.251 178.076 337.973 177.432C336.704 176.778 335.662 175.874 334.848 174.719C334.043 173.554 333.527 172.205 333.3 170.67H336.766C337.078 172.006 337.698 173.109 338.626 173.98C339.564 174.842 340.8 175.273 342.334 175.273C344.578 175.273 346.349 174.293 347.646 172.332C348.953 170.372 349.607 167.602 349.607 164.023H349.379C348.849 164.818 348.219 165.505 347.49 166.082C346.761 166.66 345.951 167.105 345.061 167.418C344.171 167.73 343.224 167.886 342.22 167.886C340.554 167.886 339.024 167.474 337.632 166.651C336.25 165.817 335.142 164.676 334.308 163.227C333.484 161.769 333.072 160.102 333.072 158.227C333.072 156.447 333.47 154.818 334.266 153.341C335.071 151.854 336.197 150.67 337.646 149.79C339.105 148.909 340.819 148.483 342.788 148.511ZM342.788 151.636C341.595 151.636 340.52 151.935 339.564 152.531C338.617 153.118 337.864 153.914 337.305 154.918C336.756 155.912 336.482 157.015 336.482 158.227C336.482 159.439 336.747 160.543 337.277 161.537C337.817 162.522 338.551 163.308 339.479 163.895C340.416 164.473 341.482 164.761 342.675 164.761C343.574 164.761 344.412 164.586 345.189 164.236C345.965 163.876 346.643 163.388 347.22 162.773C347.807 162.148 348.267 161.442 348.598 160.656C348.929 159.861 349.095 159.032 349.095 158.17C349.095 157.034 348.821 155.969 348.271 154.974C347.732 153.98 346.983 153.175 346.027 152.56C345.08 151.944 344 151.636 342.788 151.636ZM365.249 145.273V181.636H356.84V178.852H362.067V148.057H356.84V145.273H365.249ZM390.991 145.273V181.636H382.582V178.852H387.81V148.057H382.582V145.273H390.991ZM405.938 163.455C405.938 167.034 405.469 170.33 404.532 173.341C403.604 176.343 402.273 179.108 400.54 181.636H397.586C398.268 180.699 398.902 179.544 399.489 178.17C400.086 176.807 400.607 175.311 401.052 173.682C401.497 172.044 401.843 170.353 402.089 168.611C402.344 166.859 402.472 165.14 402.472 163.455C402.472 161.201 402.254 158.914 401.819 156.594C401.383 154.274 400.796 152.119 400.058 150.131C399.319 148.142 398.495 146.523 397.586 145.273H400.54C402.273 147.801 403.604 150.571 404.532 153.582C405.469 156.584 405.938 159.875 405.938 163.455Z" fill="white"/>
<path d="M223.716 87.9091V51.5455H232.125V54.3295H226.898V85.125H232.125V87.9091H223.716Z" fill="#2596FF"/>
<path d="M376.773 145.545V181.909H368.364V179.125H373.591V148.33H368.364V145.545H376.773Z" fill="#2596FF"/>
<path d="M853.239 96.9091V126H849.716V100.602H849.545L842.443 105.318V101.739L849.716 96.9091H853.239Z" fill="#2596FF"/>
<path d="M819.261 113.727C819.261 110.148 819.725 106.857 820.653 103.855C821.591 100.844 822.926 98.0739 824.659 95.5455H827.614C826.932 96.483 826.293 97.6383 825.696 99.0114C825.109 100.375 824.593 101.876 824.148 103.514C823.703 105.143 823.352 106.829 823.097 108.571C822.85 110.313 822.727 112.032 822.727 113.727C822.727 115.981 822.945 118.268 823.381 120.588C823.816 122.908 824.403 125.062 825.142 127.051C825.881 129.04 826.705 130.659 827.614 131.909H824.659C822.926 129.381 821.591 126.616 820.653 123.614C819.725 120.602 819.261 117.307 819.261 113.727ZM834.208 131.909V95.5455H842.617V98.3295H837.39V129.125H842.617V131.909H834.208ZM863.303 122.023L863.075 123.557C862.914 124.636 862.668 125.792 862.337 127.023C862.015 128.254 861.679 129.414 861.328 130.503C860.978 131.592 860.689 132.458 860.462 133.102H857.905C858.028 132.496 858.189 131.696 858.388 130.702C858.587 129.707 858.786 128.595 858.984 127.364C859.193 126.142 859.363 124.892 859.496 123.614L859.666 122.023H863.303ZM890.536 126.398C888.661 126.398 886.99 126.076 885.522 125.432C884.064 124.788 882.904 123.893 882.042 122.747C881.19 121.592 880.726 120.252 880.65 118.727H884.229C884.305 119.665 884.627 120.474 885.195 121.156C885.763 121.829 886.507 122.349 887.425 122.719C888.344 123.088 889.362 123.273 890.479 123.273C891.729 123.273 892.837 123.055 893.803 122.619C894.769 122.184 895.527 121.578 896.076 120.801C896.625 120.025 896.9 119.125 896.9 118.102C896.9 117.032 896.635 116.09 896.104 115.276C895.574 114.452 894.798 113.808 893.775 113.344C892.752 112.88 891.502 112.648 890.025 112.648H887.695V109.523H890.025C891.18 109.523 892.193 109.314 893.065 108.898C893.945 108.481 894.632 107.894 895.124 107.136C895.626 106.379 895.877 105.489 895.877 104.466C895.877 103.481 895.659 102.624 895.224 101.895C894.788 101.166 894.173 100.598 893.377 100.19C892.591 99.7831 891.663 99.5795 890.593 99.5795C889.589 99.5795 888.642 99.7642 887.752 100.134C886.871 100.493 886.152 101.019 885.593 101.71C885.034 102.392 884.731 103.216 884.684 104.182H881.275C881.332 102.657 881.791 101.322 882.653 100.176C883.514 99.0208 884.641 98.1212 886.033 97.4773C887.435 96.8333 888.974 96.5114 890.65 96.5114C892.449 96.5114 893.993 96.8759 895.281 97.6051C896.568 98.3248 897.558 99.2765 898.249 100.46C898.941 101.644 899.286 102.922 899.286 104.295C899.286 105.934 898.855 107.33 897.994 108.486C897.141 109.641 895.981 110.441 894.513 110.886V111.114C896.351 111.417 897.785 112.198 898.817 113.457C899.85 114.707 900.366 116.256 900.366 118.102C900.366 119.684 899.935 121.104 899.073 122.364C898.221 123.614 897.056 124.598 895.579 125.318C894.102 126.038 892.421 126.398 890.536 126.398ZM910.334 122.023L910.107 123.557C909.946 124.636 909.699 125.792 909.368 127.023C909.046 128.254 908.71 129.414 908.359 130.503C908.009 131.592 907.72 132.458 907.493 133.102H904.936C905.059 132.496 905.22 131.696 905.419 130.702C905.618 129.707 905.817 128.595 906.016 127.364C906.224 126.142 906.394 124.892 906.527 123.614L906.697 122.023H910.334ZM937.567 126.398C935.692 126.398 934.021 126.076 932.553 125.432C931.095 124.788 929.935 123.893 929.073 122.747C928.221 121.592 927.757 120.252 927.681 118.727H931.261C931.336 119.665 931.658 120.474 932.227 121.156C932.795 121.829 933.538 122.349 934.457 122.719C935.375 123.088 936.393 123.273 937.511 123.273C938.761 123.273 939.869 123.055 940.835 122.619C941.8 122.184 942.558 121.578 943.107 120.801C943.656 120.025 943.931 119.125 943.931 118.102C943.931 117.032 943.666 116.09 943.136 115.276C942.605 114.452 941.829 113.808 940.806 113.344C939.783 112.88 938.533 112.648 937.056 112.648H934.727V109.523H937.056C938.211 109.523 939.225 109.314 940.096 108.898C940.977 108.481 941.663 107.894 942.156 107.136C942.657 106.379 942.908 105.489 942.908 104.466C942.908 103.481 942.691 102.624 942.255 101.895C941.819 101.166 941.204 100.598 940.408 100.19C939.622 99.7831 938.694 99.5795 937.624 99.5795C936.621 99.5795 935.674 99.7642 934.783 100.134C933.903 100.493 933.183 101.019 932.624 101.71C932.066 102.392 931.763 103.216 931.715 104.182H928.306C928.363 102.657 928.822 101.322 929.684 100.176C930.546 99.0208 931.673 98.1212 933.065 97.4773C934.466 96.8333 936.005 96.5114 937.681 96.5114C939.48 96.5114 941.024 96.8759 942.312 97.6051C943.6 98.3248 944.589 99.2765 945.281 100.46C945.972 101.644 946.317 102.922 946.317 104.295C946.317 105.934 945.887 107.33 945.025 108.486C944.173 109.641 943.013 110.441 941.545 110.886V111.114C943.382 111.417 944.817 112.198 945.849 113.457C946.881 114.707 947.397 116.256 947.397 118.102C947.397 119.684 946.966 121.104 946.104 122.364C945.252 123.614 944.087 124.598 942.61 125.318C941.133 126.038 939.452 126.398 937.567 126.398ZM959.968 93.2727V129.636H951.559V126.852H956.786V96.0568H951.559V93.2727H959.968ZM974.915 111.455C974.915 115.034 974.446 118.33 973.509 121.341C972.58 124.343 971.25 127.108 969.517 129.636H966.562C967.244 128.699 967.879 127.544 968.466 126.17C969.063 124.807 969.583 123.311 970.028 121.682C970.473 120.044 970.819 118.353 971.065 116.611C971.321 114.859 971.449 113.14 971.449 111.455C971.449 109.201 971.231 106.914 970.795 104.594C970.36 102.274 969.773 100.119 969.034 98.1307C968.295 96.142 967.472 94.5227 966.562 93.2727H969.517C971.25 95.8011 972.58 98.571 973.509 101.582C974.446 104.584 974.915 107.875 974.915 111.455Z" fill="white"/>
<path d="M84.5568 244.182V247.023H73.25V244.182H84.5568ZM76.5455 238.955H79.8977V259.75C79.8977 260.697 80.035 261.407 80.3097 261.881C80.5938 262.345 80.9536 262.657 81.3892 262.818C81.8343 262.97 82.303 263.045 82.7955 263.045C83.1648 263.045 83.4678 263.027 83.7045 262.989C83.9413 262.941 84.1307 262.903 84.2727 262.875L84.9545 265.886C84.7273 265.972 84.41 266.057 84.0028 266.142C83.5956 266.237 83.0795 266.284 82.4545 266.284C81.5076 266.284 80.5795 266.08 79.6705 265.673C78.7708 265.266 78.0227 264.646 77.4261 263.812C76.839 262.979 76.5455 261.928 76.5455 260.659V238.955ZM98.5128 266.455C96.4105 266.455 94.5971 265.991 93.0724 265.062C91.5573 264.125 90.3878 262.818 89.5639 261.142C88.7495 259.456 88.3423 257.496 88.3423 255.261C88.3423 253.027 88.7495 251.057 89.5639 249.352C90.3878 247.638 91.5336 246.303 93.0014 245.347C94.4787 244.381 96.2022 243.898 98.1719 243.898C99.3082 243.898 100.43 244.087 101.538 244.466C102.646 244.845 103.655 245.46 104.564 246.312C105.473 247.155 106.197 248.273 106.737 249.665C107.277 251.057 107.547 252.771 107.547 254.807V256.227H90.7287V253.33H104.138C104.138 252.098 103.892 251 103.399 250.034C102.916 249.068 102.225 248.306 101.325 247.747C100.435 247.188 99.384 246.909 98.1719 246.909C96.8366 246.909 95.6813 247.241 94.706 247.903C93.7401 248.557 92.9967 249.409 92.4759 250.46C91.955 251.511 91.6946 252.638 91.6946 253.841V255.773C91.6946 257.42 91.9787 258.817 92.5469 259.963C93.1245 261.099 93.9247 261.966 94.9474 262.562C95.9702 263.15 97.1586 263.443 98.5128 263.443C99.3935 263.443 100.189 263.32 100.899 263.074C101.619 262.818 102.239 262.439 102.76 261.938C103.281 261.426 103.683 260.792 103.967 260.034L107.206 260.943C106.865 262.042 106.292 263.008 105.487 263.841C104.682 264.665 103.688 265.309 102.504 265.773C101.321 266.227 99.9901 266.455 98.5128 266.455ZM115.999 252.875V266H112.646V244.182H115.885V247.591H116.169C116.68 246.483 117.457 245.593 118.499 244.92C119.54 244.239 120.885 243.898 122.533 243.898C124.01 243.898 125.303 244.201 126.411 244.807C127.518 245.403 128.38 246.312 128.996 247.534C129.611 248.746 129.919 250.28 129.919 252.136V266H126.567V252.364C126.567 250.65 126.122 249.314 125.232 248.358C124.341 247.392 123.12 246.909 121.567 246.909C120.497 246.909 119.54 247.141 118.697 247.605C117.864 248.069 117.206 248.746 116.723 249.636C116.24 250.527 115.999 251.606 115.999 252.875ZM151.499 249.068L148.488 249.92C148.299 249.419 148.019 248.931 147.65 248.457C147.29 247.974 146.798 247.577 146.173 247.264C145.548 246.952 144.747 246.795 143.772 246.795C142.437 246.795 141.324 247.103 140.434 247.719C139.553 248.325 139.113 249.097 139.113 250.034C139.113 250.867 139.416 251.526 140.022 252.009C140.628 252.491 141.575 252.894 142.863 253.216L146.102 254.011C148.052 254.485 149.506 255.209 150.462 256.185C151.419 257.151 151.897 258.396 151.897 259.92C151.897 261.17 151.537 262.288 150.817 263.273C150.107 264.258 149.113 265.034 147.835 265.602C146.556 266.17 145.069 266.455 143.374 266.455C141.149 266.455 139.307 265.972 137.849 265.006C136.39 264.04 135.467 262.629 135.079 260.773L138.261 259.977C138.564 261.152 139.137 262.032 139.979 262.619C140.832 263.206 141.944 263.5 143.317 263.5C144.88 263.5 146.121 263.169 147.039 262.506C147.967 261.833 148.431 261.028 148.431 260.091C148.431 259.333 148.166 258.699 147.636 258.188C147.105 257.667 146.291 257.278 145.192 257.023L141.556 256.17C139.558 255.697 138.09 254.963 137.153 253.969C136.225 252.965 135.761 251.71 135.761 250.205C135.761 248.973 136.106 247.884 136.798 246.938C137.498 245.991 138.45 245.247 139.653 244.707C140.865 244.168 142.238 243.898 143.772 243.898C145.931 243.898 147.626 244.371 148.857 245.318C150.098 246.265 150.978 247.515 151.499 249.068ZM165.807 266.455C163.837 266.455 162.109 265.986 160.622 265.048C159.145 264.111 157.99 262.799 157.156 261.114C156.332 259.428 155.92 257.458 155.92 255.205C155.92 252.932 156.332 250.948 157.156 249.253C157.99 247.558 159.145 246.241 160.622 245.304C162.109 244.366 163.837 243.898 165.807 243.898C167.777 243.898 169.5 244.366 170.977 245.304C172.464 246.241 173.619 247.558 174.443 249.253C175.277 250.948 175.693 252.932 175.693 255.205C175.693 257.458 175.277 259.428 174.443 261.114C173.619 262.799 172.464 264.111 170.977 265.048C169.5 265.986 167.777 266.455 165.807 266.455ZM165.807 263.443C167.303 263.443 168.534 263.06 169.5 262.293C170.466 261.526 171.181 260.517 171.645 259.267C172.109 258.017 172.341 256.663 172.341 255.205C172.341 253.746 172.109 252.387 171.645 251.128C171.181 249.868 170.466 248.85 169.5 248.074C168.534 247.297 167.303 246.909 165.807 246.909C164.311 246.909 163.08 247.297 162.114 248.074C161.148 248.85 160.433 249.868 159.969 251.128C159.505 252.387 159.273 253.746 159.273 255.205C159.273 256.663 159.505 258.017 159.969 259.267C160.433 260.517 161.148 261.526 162.114 262.293C163.08 263.06 164.311 263.443 165.807 263.443ZM180.81 266V244.182H184.049V247.477H184.276C184.674 246.398 185.394 245.522 186.435 244.849C187.477 244.177 188.651 243.841 189.958 243.841C190.204 243.841 190.512 243.846 190.881 243.855C191.251 243.865 191.53 243.879 191.719 243.898V247.307C191.606 247.278 191.345 247.236 190.938 247.179C190.54 247.113 190.119 247.08 189.674 247.08C188.613 247.08 187.666 247.302 186.833 247.747C186.009 248.183 185.356 248.789 184.873 249.565C184.399 250.332 184.163 251.208 184.163 252.193V266H180.81ZM196.886 253.727C196.886 250.148 197.35 246.857 198.278 243.855C199.216 240.844 200.551 238.074 202.284 235.545H205.239C204.557 236.483 203.918 237.638 203.321 239.011C202.734 240.375 202.218 241.876 201.773 243.514C201.328 245.143 200.977 246.829 200.722 248.571C200.475 250.313 200.352 252.032 200.352 253.727C200.352 255.981 200.57 258.268 201.006 260.588C201.441 262.908 202.028 265.062 202.767 267.051C203.506 269.04 204.33 270.659 205.239 271.909H202.284C200.551 269.381 199.216 266.616 198.278 263.614C197.35 260.602 196.886 257.307 196.886 253.727ZM211.833 271.909V235.545H220.242V238.33H215.015V269.125H220.242V271.909H211.833ZM257.348 236.909V266H253.825V240.602H253.655L246.553 245.318V241.739L253.825 236.909H257.348ZM269.053 262.023L268.825 263.557C268.664 264.636 268.418 265.792 268.087 267.023C267.765 268.254 267.429 269.414 267.078 270.503C266.728 271.592 266.439 272.458 266.212 273.102H263.655C263.778 272.496 263.939 271.696 264.138 270.702C264.337 269.707 264.536 268.595 264.734 267.364C264.943 266.142 265.113 264.892 265.246 263.614L265.416 262.023H269.053ZM286.457 266V263.443L296.059 252.932C297.186 251.701 298.114 250.631 298.843 249.722C299.572 248.803 300.112 247.941 300.462 247.136C300.822 246.322 301.002 245.47 301.002 244.58C301.002 243.557 300.756 242.671 300.263 241.923C299.781 241.175 299.118 240.598 298.275 240.19C297.432 239.783 296.485 239.58 295.434 239.58C294.317 239.58 293.341 239.812 292.508 240.276C291.684 240.73 291.045 241.369 290.59 242.193C290.145 243.017 289.923 243.983 289.923 245.091H286.57C286.57 243.386 286.963 241.89 287.749 240.602C288.535 239.314 289.605 238.311 290.96 237.591C292.323 236.871 293.853 236.511 295.548 236.511C297.252 236.511 298.763 236.871 300.079 237.591C301.395 238.311 302.427 239.281 303.175 240.503C303.924 241.724 304.298 243.083 304.298 244.58C304.298 245.65 304.103 246.696 303.715 247.719C303.336 248.732 302.674 249.864 301.727 251.114C300.789 252.354 299.487 253.869 297.82 255.659L291.286 262.648V262.875H304.809V266H286.457ZM315.732 262.023L315.505 263.557C315.344 264.636 315.098 265.792 314.766 267.023C314.444 268.254 314.108 269.414 313.758 270.503C313.407 271.592 313.119 272.458 312.891 273.102H310.335C310.458 272.496 310.619 271.696 310.817 270.702C311.016 269.707 311.215 268.595 311.414 267.364C311.622 266.142 311.793 264.892 311.925 263.614L312.096 262.023H315.732ZM342.966 266.398C341.091 266.398 339.42 266.076 337.952 265.432C336.493 264.788 335.333 263.893 334.472 262.747C333.619 261.592 333.155 260.252 333.08 258.727H336.659C336.735 259.665 337.057 260.474 337.625 261.156C338.193 261.829 338.937 262.349 339.855 262.719C340.774 263.088 341.792 263.273 342.909 263.273C344.159 263.273 345.267 263.055 346.233 262.619C347.199 262.184 347.956 261.578 348.506 260.801C349.055 260.025 349.33 259.125 349.33 258.102C349.33 257.032 349.064 256.09 348.534 255.276C348.004 254.452 347.227 253.808 346.205 253.344C345.182 252.88 343.932 252.648 342.455 252.648H340.125V249.523H342.455C343.61 249.523 344.623 249.314 345.494 248.898C346.375 248.481 347.062 247.894 347.554 247.136C348.056 246.379 348.307 245.489 348.307 244.466C348.307 243.481 348.089 242.624 347.653 241.895C347.218 241.166 346.602 240.598 345.807 240.19C345.021 239.783 344.093 239.58 343.023 239.58C342.019 239.58 341.072 239.764 340.182 240.134C339.301 240.493 338.581 241.019 338.023 241.71C337.464 242.392 337.161 243.216 337.114 244.182H333.705C333.761 242.657 334.221 241.322 335.082 240.176C335.944 239.021 337.071 238.121 338.463 237.477C339.865 236.833 341.403 236.511 343.08 236.511C344.879 236.511 346.422 236.876 347.71 237.605C348.998 238.325 349.988 239.277 350.679 240.46C351.37 241.644 351.716 242.922 351.716 244.295C351.716 245.934 351.285 247.33 350.423 248.486C349.571 249.641 348.411 250.441 346.943 250.886V251.114C348.78 251.417 350.215 252.198 351.247 253.457C352.279 254.707 352.795 256.256 352.795 258.102C352.795 259.684 352.365 261.104 351.503 262.364C350.651 263.614 349.486 264.598 348.009 265.318C346.531 266.038 344.85 266.398 342.966 266.398ZM374.912 262.023L374.685 263.557C374.524 264.636 374.277 265.792 373.946 267.023C373.624 268.254 373.288 269.414 372.938 270.503C372.587 271.592 372.298 272.458 372.071 273.102H369.514C369.637 272.496 369.798 271.696 369.997 270.702C370.196 269.707 370.395 268.595 370.594 267.364C370.802 266.142 370.973 264.892 371.105 263.614L371.276 262.023H374.912ZM243.08 308.034V305.136L255.864 284.909H257.966V289.398H256.545L246.886 304.682V304.909H264.102V308.034H243.08ZM256.773 314V307.153V305.804V284.909H260.125V314H256.773ZM273.115 310.023L272.888 311.557C272.727 312.636 272.481 313.792 272.149 315.023C271.827 316.254 271.491 317.414 271.141 318.503C270.79 319.592 270.501 320.458 270.274 321.102H267.717C267.84 320.496 268.001 319.696 268.2 318.702C268.399 317.707 268.598 316.595 268.797 315.364C269.005 314.142 269.176 312.892 269.308 311.614L269.479 310.023H273.115ZM299.61 314.398C297.943 314.398 296.442 314.066 295.107 313.403C293.772 312.741 292.702 311.831 291.897 310.676C291.092 309.521 290.652 308.205 290.576 306.727H293.985C294.118 308.044 294.714 309.133 295.775 309.994C296.845 310.847 298.123 311.273 299.61 311.273C300.803 311.273 301.864 310.993 302.792 310.435C303.729 309.876 304.463 309.109 304.994 308.134C305.533 307.149 305.803 306.036 305.803 304.795C305.803 303.527 305.524 302.395 304.965 301.401C304.416 300.397 303.658 299.606 302.692 299.028C301.727 298.451 300.623 298.157 299.383 298.148C298.493 298.138 297.579 298.276 296.641 298.56C295.704 298.834 294.932 299.189 294.326 299.625L291.031 299.227L292.792 284.909H307.906V288.034H295.746L294.724 296.614H294.894C295.491 296.14 296.239 295.747 297.138 295.435C298.038 295.122 298.976 294.966 299.951 294.966C301.731 294.966 303.317 295.392 304.71 296.244C306.111 297.087 307.21 298.242 308.005 299.71C308.81 301.178 309.212 302.854 309.212 304.739C309.212 306.595 308.796 308.252 307.962 309.71C307.138 311.159 306.002 312.305 304.553 313.148C303.104 313.981 301.457 314.398 299.61 314.398ZM318.818 310.023L318.591 311.557C318.43 312.636 318.184 313.792 317.852 315.023C317.53 316.254 317.194 317.414 316.844 318.503C316.493 319.592 316.205 320.458 315.977 321.102H313.42C313.544 320.496 313.705 319.696 313.903 318.702C314.102 317.707 314.301 316.595 314.5 315.364C314.708 314.142 314.879 312.892 315.011 311.614L315.182 310.023H318.818ZM345.881 314.398C344.688 314.379 343.495 314.152 342.302 313.716C341.109 313.28 340.02 312.546 339.035 311.514C338.05 310.473 337.259 309.066 336.663 307.295C336.066 305.515 335.768 303.28 335.768 300.591C335.768 298.015 336.009 295.733 336.492 293.744C336.975 291.746 337.676 290.065 338.594 288.702C339.513 287.329 340.621 286.287 341.918 285.577C343.225 284.866 344.698 284.511 346.336 284.511C347.965 284.511 349.414 284.838 350.683 285.491C351.961 286.135 353.003 287.035 353.808 288.19C354.612 289.346 355.133 290.676 355.37 292.182H351.904C351.582 290.875 350.957 289.791 350.029 288.929C349.101 288.067 347.87 287.636 346.336 287.636C344.082 287.636 342.307 288.616 341.009 290.577C339.721 292.537 339.073 295.288 339.063 298.83H339.29C339.821 298.025 340.451 297.338 341.18 296.77C341.918 296.192 342.733 295.747 343.623 295.435C344.513 295.122 345.455 294.966 346.45 294.966C348.116 294.966 349.641 295.383 351.023 296.216C352.406 297.04 353.514 298.181 354.347 299.639C355.181 301.088 355.597 302.75 355.597 304.625C355.597 306.424 355.195 308.072 354.39 309.568C353.585 311.055 352.453 312.239 350.995 313.119C349.546 313.991 347.842 314.417 345.881 314.398ZM345.881 311.273C347.075 311.273 348.145 310.974 349.092 310.378C350.048 309.781 350.801 308.981 351.35 307.977C351.909 306.973 352.188 305.856 352.188 304.625C352.188 303.422 351.918 302.329 351.379 301.344C350.848 300.349 350.114 299.559 349.177 298.972C348.249 298.384 347.188 298.091 345.995 298.091C345.095 298.091 344.257 298.271 343.481 298.631C342.704 298.981 342.022 299.464 341.435 300.08C340.858 300.695 340.403 301.401 340.072 302.196C339.74 302.982 339.575 303.811 339.575 304.682C339.575 305.837 339.844 306.917 340.384 307.92C340.933 308.924 341.682 309.734 342.629 310.349C343.585 310.965 344.669 311.273 345.881 311.273ZM377.49 310.023L377.263 311.557C377.102 312.636 376.856 313.792 376.524 315.023C376.202 316.254 375.866 317.414 375.516 318.503C375.165 319.592 374.876 320.458 374.649 321.102H372.092C372.215 320.496 372.376 319.696 372.575 318.702C372.774 317.707 372.973 316.595 373.172 315.364C373.38 314.142 373.551 312.892 373.683 311.614L373.854 310.023H377.49ZM244.67 362L257.682 336.261V336.034H242.682V332.909H261.318V336.205L248.364 362H244.67ZM266.67 358.023L266.442 359.557C266.281 360.636 266.035 361.792 265.704 363.023C265.382 364.254 265.046 365.414 264.695 366.503C264.345 367.592 264.056 368.458 263.829 369.102H261.272C261.395 368.496 261.556 367.696 261.755 366.702C261.954 365.707 262.153 364.595 262.352 363.364C262.56 362.142 262.73 360.892 262.863 359.614L263.033 358.023H266.67ZM293.392 362.398C291.441 362.398 289.718 362.052 288.222 361.361C286.735 360.66 285.575 359.699 284.741 358.477C283.908 357.246 283.496 355.845 283.506 354.273C283.496 353.042 283.738 351.905 284.23 350.864C284.723 349.812 285.395 348.937 286.247 348.236C287.109 347.526 288.07 347.076 289.131 346.886V346.716C287.739 346.356 286.631 345.575 285.807 344.372C284.983 343.16 284.576 341.782 284.585 340.239C284.576 338.761 284.95 337.44 285.707 336.276C286.465 335.111 287.507 334.192 288.832 333.52C290.168 332.848 291.688 332.511 293.392 332.511C295.078 332.511 296.583 332.848 297.909 333.52C299.235 334.192 300.277 335.111 301.034 336.276C301.801 337.44 302.189 338.761 302.199 340.239C302.189 341.782 301.768 343.16 300.935 344.372C300.111 345.575 299.017 346.356 297.653 346.716V346.886C298.705 347.076 299.652 347.526 300.494 348.236C301.337 348.937 302.009 349.812 302.511 350.864C303.013 351.905 303.269 353.042 303.278 354.273C303.269 355.845 302.843 357.246 302 358.477C301.167 359.699 300.007 360.66 298.52 361.361C297.043 362.052 295.333 362.398 293.392 362.398ZM293.392 359.273C294.708 359.273 295.845 359.06 296.801 358.634C297.758 358.207 298.496 357.606 299.017 356.83C299.538 356.053 299.803 355.144 299.812 354.102C299.803 353.004 299.519 352.033 298.96 351.19C298.402 350.348 297.639 349.685 296.673 349.202C295.717 348.719 294.623 348.477 293.392 348.477C292.152 348.477 291.044 348.719 290.068 349.202C289.102 349.685 288.34 350.348 287.781 351.19C287.232 352.033 286.962 353.004 286.972 354.102C286.962 355.144 287.213 356.053 287.724 356.83C288.245 357.606 288.989 358.207 289.955 358.634C290.92 359.06 292.066 359.273 293.392 359.273ZM293.392 345.466C294.434 345.466 295.357 345.258 296.162 344.841C296.976 344.424 297.616 343.842 298.08 343.094C298.544 342.346 298.78 341.47 298.79 340.466C298.78 339.481 298.548 338.624 298.094 337.895C297.639 337.156 297.009 336.588 296.205 336.19C295.4 335.783 294.462 335.58 293.392 335.58C292.303 335.58 291.351 335.783 290.537 336.19C289.723 336.588 289.093 337.156 288.648 337.895C288.203 338.624 287.985 339.481 287.994 340.466C287.985 341.47 288.207 342.346 288.662 343.094C289.126 343.842 289.765 344.424 290.58 344.841C291.394 345.258 292.331 345.466 293.392 345.466ZM312.881 358.023L312.653 359.557C312.492 360.636 312.246 361.792 311.915 363.023C311.593 364.254 311.257 365.414 310.906 366.503C310.556 367.592 310.267 368.458 310.04 369.102H307.483C307.606 368.496 307.767 367.696 307.966 366.702C308.165 365.707 308.364 364.595 308.562 363.364C308.771 362.142 308.941 360.892 309.074 359.614L309.244 358.023H312.881ZM339.546 332.511C340.739 332.521 341.933 332.748 343.126 333.193C344.319 333.638 345.408 334.377 346.393 335.409C347.378 336.432 348.168 337.829 348.765 339.599C349.362 341.37 349.66 343.591 349.66 346.261C349.66 348.847 349.414 351.143 348.921 353.151C348.438 355.149 347.737 356.834 346.819 358.207C345.91 359.58 344.802 360.622 343.495 361.332C342.198 362.043 340.73 362.398 339.092 362.398C337.463 362.398 336.009 362.076 334.731 361.432C333.462 360.778 332.42 359.874 331.606 358.719C330.801 357.554 330.285 356.205 330.058 354.67H333.523C333.836 356.006 334.456 357.109 335.384 357.98C336.322 358.842 337.558 359.273 339.092 359.273C341.336 359.273 343.107 358.293 344.404 356.332C345.711 354.372 346.364 351.602 346.364 348.023H346.137C345.607 348.818 344.977 349.505 344.248 350.082C343.519 350.66 342.709 351.105 341.819 351.418C340.929 351.73 339.982 351.886 338.978 351.886C337.311 351.886 335.782 351.474 334.39 350.651C333.007 349.817 331.899 348.676 331.066 347.227C330.242 345.769 329.83 344.102 329.83 342.227C329.83 340.447 330.228 338.818 331.023 337.341C331.828 335.854 332.955 334.67 334.404 333.79C335.862 332.909 337.576 332.483 339.546 332.511ZM339.546 335.636C338.353 335.636 337.278 335.935 336.322 336.531C335.375 337.118 334.622 337.914 334.063 338.918C333.514 339.912 333.239 341.015 333.239 342.227C333.239 343.439 333.504 344.543 334.035 345.537C334.575 346.522 335.308 347.308 336.237 347.895C337.174 348.473 338.239 348.761 339.433 348.761C340.332 348.761 341.17 348.586 341.947 348.236C342.723 347.876 343.4 347.388 343.978 346.773C344.565 346.148 345.024 345.442 345.356 344.656C345.687 343.861 345.853 343.032 345.853 342.17C345.853 341.034 345.578 339.969 345.029 338.974C344.489 337.98 343.741 337.175 342.785 336.56C341.838 335.944 340.758 335.636 339.546 335.636ZM395.757 331.545V367.909H387.348V365.125H392.575V334.33H387.348V331.545H395.757ZM410.704 349.727C410.704 353.307 410.235 356.602 409.298 359.614C408.37 362.616 407.039 365.381 405.306 367.909H402.352C403.033 366.972 403.668 365.816 404.255 364.443C404.852 363.08 405.372 361.583 405.817 359.955C406.263 358.316 406.608 356.626 406.854 354.884C407.11 353.132 407.238 351.413 407.238 349.727C407.238 347.473 407.02 345.187 406.585 342.866C406.149 340.546 405.562 338.392 404.823 336.403C404.085 334.415 403.261 332.795 402.352 331.545H405.306C407.039 334.074 408.37 336.844 409.298 339.855C410.235 342.857 410.704 346.148 410.704 349.727Z" fill="white"/>
<path d="M223.716 271.909V235.545H232.125V238.33H226.898V269.125H232.125V271.909H223.716Z" fill="#2596FF"/>
<path d="M378.773 331.545V367.909H370.364V365.125H375.591V334.33H370.364V331.545H378.773Z" fill="#2596FF"/>
<path d="M853.239 280.909V310H849.716V284.602H849.545L842.443 289.318V285.739L849.716 280.909H853.239Z" fill="#2596FF"/>
<path d="M223.716 271.909V235.545H232.125V238.33H226.898V269.125H232.125V271.909H223.716Z" fill="#2596FF"/>
<path d="M238.716 271.909V235.545H247.125V238.33H241.898V269.125H247.125V271.909H238.716Z" fill="#FF2525"/>
<path d="M238.716 317.909V281.545H247.125V284.33H241.898V315.125H247.125V317.909H238.716Z" fill="#FF2525"/>
<path d="M238.716 365.909V329.545H247.125V332.33H241.898V363.125H247.125V365.909H238.716Z" fill="#FF2525"/>
<path d="M362.773 233.545V269.909H354.364V267.125H359.591V236.33H354.364V233.545H362.773Z" fill="#FF2525"/>
<path d="M363.773 281.545V317.909H355.364V315.125H360.591V284.33H355.364V281.545H363.773Z" fill="#FF2525"/>
<path d="M361.773 329.545V365.909H353.364V363.125H358.591V332.33H353.364V329.545H361.773Z" fill="#FF2525"/>
<path d="M819.261 297.727C819.261 294.148 819.725 290.857 820.653 287.855C821.591 284.844 822.926 282.074 824.659 279.545H827.614C826.932 280.483 826.293 281.638 825.696 283.011C825.109 284.375 824.593 285.876 824.148 287.514C823.703 289.143 823.352 290.829 823.097 292.571C822.85 294.313 822.727 296.032 822.727 297.727C822.727 299.981 822.945 302.268 823.381 304.588C823.816 306.908 824.403 309.062 825.142 311.051C825.881 313.04 826.705 314.659 827.614 315.909H824.659C822.926 313.381 821.591 310.616 820.653 307.614C819.725 304.602 819.261 301.307 819.261 297.727ZM834.208 315.909V279.545H842.617V282.33H837.39V313.125H842.617V315.909H834.208ZM863.303 306.023L863.075 307.557C862.914 308.636 862.668 309.792 862.337 311.023C862.015 312.254 861.679 313.414 861.328 314.503C860.978 315.592 860.689 316.458 860.462 317.102H857.905C858.028 316.496 858.189 315.696 858.388 314.702C858.587 313.707 858.786 312.595 858.984 311.364C859.193 310.142 859.363 308.892 859.496 307.614L859.666 306.023H863.303ZM908.263 306.023L908.036 307.557C907.875 308.636 907.629 309.792 907.298 311.023C906.976 312.254 906.639 313.414 906.289 314.503C905.939 315.592 905.65 316.458 905.423 317.102H902.866C902.989 316.496 903.15 315.696 903.349 314.702C903.548 313.707 903.746 312.595 903.945 311.364C904.154 310.142 904.324 308.892 904.457 307.614L904.627 306.023H908.263ZM935.497 310.398C933.622 310.398 931.951 310.076 930.483 309.432C929.025 308.788 927.865 307.893 927.003 306.747C926.151 305.592 925.687 304.252 925.611 302.727H929.19C929.266 303.665 929.588 304.474 930.156 305.156C930.724 305.829 931.468 306.349 932.386 306.719C933.305 307.088 934.323 307.273 935.44 307.273C936.69 307.273 937.798 307.055 938.764 306.619C939.73 306.184 940.488 305.578 941.037 304.801C941.586 304.025 941.861 303.125 941.861 302.102C941.861 301.032 941.596 300.09 941.065 299.276C940.535 298.452 939.759 297.808 938.736 297.344C937.713 296.88 936.463 296.648 934.986 296.648H932.656V293.523H934.986C936.141 293.523 937.154 293.314 938.026 292.898C938.906 292.481 939.593 291.894 940.085 291.136C940.587 290.379 940.838 289.489 940.838 288.466C940.838 287.481 940.62 286.624 940.185 285.895C939.749 285.166 939.134 284.598 938.338 284.19C937.552 283.783 936.624 283.58 935.554 283.58C934.55 283.58 933.603 283.764 932.713 284.134C931.832 284.493 931.113 285.019 930.554 285.71C929.995 286.392 929.692 287.216 929.645 288.182H926.236C926.293 286.657 926.752 285.322 927.614 284.176C928.475 283.021 929.602 282.121 930.994 281.477C932.396 280.833 933.935 280.511 935.611 280.511C937.41 280.511 938.954 280.876 940.241 281.605C941.529 282.325 942.519 283.277 943.21 284.46C943.902 285.644 944.247 286.922 944.247 288.295C944.247 289.934 943.816 291.33 942.955 292.486C942.102 293.641 940.942 294.441 939.474 294.886V295.114C941.312 295.417 942.746 296.198 943.778 297.457C944.811 298.707 945.327 300.256 945.327 302.102C945.327 303.684 944.896 305.104 944.034 306.364C943.182 307.614 942.017 308.598 940.54 309.318C939.063 310.038 937.382 310.398 935.497 310.398ZM957.898 277.273V313.636H949.489V310.852H954.716V280.057H949.489V277.273H957.898ZM972.844 295.455C972.844 299.034 972.376 302.33 971.438 305.341C970.51 308.343 969.18 311.108 967.447 313.636H964.492C965.174 312.699 965.808 311.544 966.396 310.17C966.992 308.807 967.513 307.311 967.958 305.682C968.403 304.044 968.749 302.353 968.995 300.611C969.251 298.859 969.379 297.14 969.379 295.455C969.379 293.201 969.161 290.914 968.725 288.594C968.29 286.274 967.702 284.119 966.964 282.131C966.225 280.142 965.401 278.523 964.492 277.273H967.447C969.18 279.801 970.51 282.571 971.438 285.582C972.376 288.584 972.844 291.875 972.844 295.455Z" fill="white"/>
<path d="M853.239 280.909V310H849.716V284.602H849.545L842.443 289.318V285.739L849.716 280.909H853.239Z" fill="#2596FF"/>
<path d="M890.841 310.398C888.966 310.398 887.295 310.076 885.827 309.432C884.368 308.788 883.208 307.893 882.347 306.747C881.494 305.592 881.03 304.252 880.955 302.727H884.534C884.61 303.665 884.932 304.474 885.5 305.156C886.068 305.829 886.812 306.349 887.73 306.719C888.649 307.088 889.667 307.273 890.784 307.273C892.034 307.273 893.142 307.055 894.108 306.619C895.074 306.184 895.831 305.578 896.381 304.801C896.93 304.025 897.205 303.125 897.205 302.102C897.205 301.032 896.939 300.09 896.409 299.276C895.879 298.452 895.102 297.808 894.08 297.344C893.057 296.88 891.807 296.648 890.33 296.648H888V293.523H890.33C891.485 293.523 892.498 293.314 893.369 292.898C894.25 292.481 894.937 291.894 895.429 291.136C895.931 290.379 896.182 289.489 896.182 288.466C896.182 287.481 895.964 286.624 895.528 285.895C895.093 285.166 894.477 284.598 893.682 284.19C892.896 283.783 891.968 283.58 890.898 283.58C889.894 283.58 888.947 283.764 888.057 284.134C887.176 284.493 886.456 285.019 885.898 285.71C885.339 286.392 885.036 287.216 884.989 288.182H881.58C881.636 286.657 882.096 285.322 882.957 284.176C883.819 283.021 884.946 282.121 886.338 281.477C887.74 280.833 889.278 280.511 890.955 280.511C892.754 280.511 894.297 280.876 895.585 281.605C896.873 282.325 897.863 283.277 898.554 284.46C899.245 285.644 899.591 286.922 899.591 288.295C899.591 289.934 899.16 291.33 898.298 292.486C897.446 293.641 896.286 294.441 894.818 294.886V295.114C896.655 295.417 898.09 296.198 899.122 297.457C900.154 298.707 900.67 300.256 900.67 302.102C900.67 303.684 900.24 305.104 899.378 306.364C898.526 307.614 897.361 308.598 895.884 309.318C894.406 310.038 892.725 310.398 890.841 310.398Z" fill="#FF2525"/>
<rect x="240" y="418" width="126" height="135" fill="#25E572"/>
<path d="M86.5568 428.182V431.023H75.25V428.182H86.5568ZM78.5455 422.955H81.8977V443.75C81.8977 444.697 82.035 445.407 82.3097 445.881C82.5938 446.345 82.9536 446.657 83.3892 446.818C83.8343 446.97 84.303 447.045 84.7955 447.045C85.1648 447.045 85.4678 447.027 85.7045 446.989C85.9413 446.941 86.1307 446.903 86.2727 446.875L86.9545 449.886C86.7273 449.972 86.41 450.057 86.0028 450.142C85.5956 450.237 85.0795 450.284 84.4545 450.284C83.5076 450.284 82.5795 450.08 81.6705 449.673C80.7708 449.266 80.0227 448.646 79.4261 447.812C78.839 446.979 78.5455 445.928 78.5455 444.659V422.955ZM100.513 450.455C98.4105 450.455 96.5971 449.991 95.0724 449.062C93.5573 448.125 92.3878 446.818 91.5639 445.142C90.7495 443.456 90.3423 441.496 90.3423 439.261C90.3423 437.027 90.7495 435.057 91.5639 433.352C92.3878 431.638 93.5336 430.303 95.0014 429.347C96.4787 428.381 98.2022 427.898 100.172 427.898C101.308 427.898 102.43 428.087 103.538 428.466C104.646 428.845 105.655 429.46 106.564 430.312C107.473 431.155 108.197 432.273 108.737 433.665C109.277 435.057 109.547 436.771 109.547 438.807V440.227H92.7287V437.33H106.138C106.138 436.098 105.892 435 105.399 434.034C104.916 433.068 104.225 432.306 103.325 431.747C102.435 431.188 101.384 430.909 100.172 430.909C98.8366 430.909 97.6813 431.241 96.706 431.903C95.7401 432.557 94.9967 433.409 94.4759 434.46C93.955 435.511 93.6946 436.638 93.6946 437.841V439.773C93.6946 441.42 93.9787 442.817 94.5469 443.963C95.1245 445.099 95.9247 445.966 96.9474 446.562C97.9702 447.15 99.1586 447.443 100.513 447.443C101.393 447.443 102.189 447.32 102.899 447.074C103.619 446.818 104.239 446.439 104.76 445.938C105.281 445.426 105.683 444.792 105.967 444.034L109.206 444.943C108.865 446.042 108.292 447.008 107.487 447.841C106.682 448.665 105.688 449.309 104.504 449.773C103.321 450.227 101.99 450.455 100.513 450.455ZM117.999 436.875V450H114.646V428.182H117.885V431.591H118.169C118.68 430.483 119.457 429.593 120.499 428.92C121.54 428.239 122.885 427.898 124.533 427.898C126.01 427.898 127.303 428.201 128.411 428.807C129.518 429.403 130.38 430.312 130.996 431.534C131.611 432.746 131.919 434.28 131.919 436.136V450H128.567V436.364C128.567 434.65 128.122 433.314 127.232 432.358C126.341 431.392 125.12 430.909 123.567 430.909C122.497 430.909 121.54 431.141 120.697 431.605C119.864 432.069 119.206 432.746 118.723 433.636C118.24 434.527 117.999 435.606 117.999 436.875ZM153.499 433.068L150.488 433.92C150.299 433.419 150.019 432.931 149.65 432.457C149.29 431.974 148.798 431.577 148.173 431.264C147.548 430.952 146.747 430.795 145.772 430.795C144.437 430.795 143.324 431.103 142.434 431.719C141.553 432.325 141.113 433.097 141.113 434.034C141.113 434.867 141.416 435.526 142.022 436.009C142.628 436.491 143.575 436.894 144.863 437.216L148.102 438.011C150.052 438.485 151.506 439.209 152.462 440.185C153.419 441.151 153.897 442.396 153.897 443.92C153.897 445.17 153.537 446.288 152.817 447.273C152.107 448.258 151.113 449.034 149.835 449.602C148.556 450.17 147.069 450.455 145.374 450.455C143.149 450.455 141.307 449.972 139.849 449.006C138.39 448.04 137.467 446.629 137.079 444.773L140.261 443.977C140.564 445.152 141.137 446.032 141.979 446.619C142.832 447.206 143.944 447.5 145.317 447.5C146.88 447.5 148.121 447.169 149.039 446.506C149.967 445.833 150.431 445.028 150.431 444.091C150.431 443.333 150.166 442.699 149.636 442.188C149.105 441.667 148.291 441.278 147.192 441.023L143.556 440.17C141.558 439.697 140.09 438.963 139.153 437.969C138.225 436.965 137.761 435.71 137.761 434.205C137.761 432.973 138.106 431.884 138.798 430.938C139.498 429.991 140.45 429.247 141.653 428.707C142.865 428.168 144.238 427.898 145.772 427.898C147.931 427.898 149.626 428.371 150.857 429.318C152.098 430.265 152.978 431.515 153.499 433.068ZM167.807 450.455C165.837 450.455 164.109 449.986 162.622 449.048C161.145 448.111 159.99 446.799 159.156 445.114C158.332 443.428 157.92 441.458 157.92 439.205C157.92 436.932 158.332 434.948 159.156 433.253C159.99 431.558 161.145 430.241 162.622 429.304C164.109 428.366 165.837 427.898 167.807 427.898C169.777 427.898 171.5 428.366 172.977 429.304C174.464 430.241 175.619 431.558 176.443 433.253C177.277 434.948 177.693 436.932 177.693 439.205C177.693 441.458 177.277 443.428 176.443 445.114C175.619 446.799 174.464 448.111 172.977 449.048C171.5 449.986 169.777 450.455 167.807 450.455ZM167.807 447.443C169.303 447.443 170.534 447.06 171.5 446.293C172.466 445.526 173.181 444.517 173.645 443.267C174.109 442.017 174.341 440.663 174.341 439.205C174.341 437.746 174.109 436.387 173.645 435.128C173.181 433.868 172.466 432.85 171.5 432.074C170.534 431.297 169.303 430.909 167.807 430.909C166.311 430.909 165.08 431.297 164.114 432.074C163.148 432.85 162.433 433.868 161.969 435.128C161.505 436.387 161.273 437.746 161.273 439.205C161.273 440.663 161.505 442.017 161.969 443.267C162.433 444.517 163.148 445.526 164.114 446.293C165.08 447.06 166.311 447.443 167.807 447.443ZM182.81 450V428.182H186.049V431.477H186.276C186.674 430.398 187.394 429.522 188.435 428.849C189.477 428.177 190.651 427.841 191.958 427.841C192.204 427.841 192.512 427.846 192.881 427.855C193.251 427.865 193.53 427.879 193.719 427.898V431.307C193.606 431.278 193.345 431.236 192.938 431.179C192.54 431.113 192.119 431.08 191.674 431.08C190.613 431.08 189.666 431.302 188.833 431.747C188.009 432.183 187.356 432.789 186.873 433.565C186.399 434.332 186.163 435.208 186.163 436.193V450H182.81ZM198.886 437.727C198.886 434.148 199.35 430.857 200.278 427.855C201.216 424.844 202.551 422.074 204.284 419.545H207.239C206.557 420.483 205.918 421.638 205.321 423.011C204.734 424.375 204.218 425.876 203.773 427.514C203.328 429.143 202.977 430.829 202.722 432.571C202.475 434.313 202.352 436.032 202.352 437.727C202.352 439.981 202.57 442.268 203.006 444.588C203.441 446.908 204.028 449.062 204.767 451.051C205.506 453.04 206.33 454.659 207.239 455.909H204.284C202.551 453.381 201.216 450.616 200.278 447.614C199.35 444.602 198.886 441.307 198.886 437.727ZM213.833 455.909V419.545H222.242V422.33H217.015V453.125H222.242V455.909H213.833ZM259.348 420.909V450H255.825V424.602H255.655L248.553 429.318V425.739L255.825 420.909H259.348ZM271.053 446.023L270.825 447.557C270.664 448.636 270.418 449.792 270.087 451.023C269.765 452.254 269.429 453.414 269.078 454.503C268.728 455.592 268.439 456.458 268.212 457.102H265.655C265.778 456.496 265.939 455.696 266.138 454.702C266.337 453.707 266.536 452.595 266.734 451.364C266.943 450.142 267.113 448.892 267.246 447.614L267.416 446.023H271.053ZM288.457 450V447.443L298.059 436.932C299.186 435.701 300.114 434.631 300.843 433.722C301.572 432.803 302.112 431.941 302.462 431.136C302.822 430.322 303.002 429.47 303.002 428.58C303.002 427.557 302.756 426.671 302.263 425.923C301.781 425.175 301.118 424.598 300.275 424.19C299.432 423.783 298.485 423.58 297.434 423.58C296.317 423.58 295.341 423.812 294.508 424.276C293.684 424.73 293.045 425.369 292.59 426.193C292.145 427.017 291.923 427.983 291.923 429.091H288.57C288.57 427.386 288.963 425.89 289.749 424.602C290.535 423.314 291.605 422.311 292.96 421.591C294.323 420.871 295.853 420.511 297.548 420.511C299.252 420.511 300.763 420.871 302.079 421.591C303.395 422.311 304.427 423.281 305.175 424.503C305.924 425.724 306.298 427.083 306.298 428.58C306.298 429.65 306.103 430.696 305.715 431.719C305.336 432.732 304.674 433.864 303.727 435.114C302.789 436.354 301.487 437.869 299.82 439.659L293.286 446.648V446.875H306.809V450H288.457ZM317.732 446.023L317.505 447.557C317.344 448.636 317.098 449.792 316.766 451.023C316.444 452.254 316.108 453.414 315.758 454.503C315.407 455.592 315.119 456.458 314.891 457.102H312.335C312.458 456.496 312.619 455.696 312.817 454.702C313.016 453.707 313.215 452.595 313.414 451.364C313.622 450.142 313.793 448.892 313.925 447.614L314.096 446.023H317.732ZM344.966 450.398C343.091 450.398 341.42 450.076 339.952 449.432C338.493 448.788 337.333 447.893 336.472 446.747C335.619 445.592 335.155 444.252 335.08 442.727H338.659C338.735 443.665 339.057 444.474 339.625 445.156C340.193 445.829 340.937 446.349 341.855 446.719C342.774 447.088 343.792 447.273 344.909 447.273C346.159 447.273 347.267 447.055 348.233 446.619C349.199 446.184 349.956 445.578 350.506 444.801C351.055 444.025 351.33 443.125 351.33 442.102C351.33 441.032 351.064 440.09 350.534 439.276C350.004 438.452 349.227 437.808 348.205 437.344C347.182 436.88 345.932 436.648 344.455 436.648H342.125V433.523H344.455C345.61 433.523 346.623 433.314 347.494 432.898C348.375 432.481 349.062 431.894 349.554 431.136C350.056 430.379 350.307 429.489 350.307 428.466C350.307 427.481 350.089 426.624 349.653 425.895C349.218 425.166 348.602 424.598 347.807 424.19C347.021 423.783 346.093 423.58 345.023 423.58C344.019 423.58 343.072 423.764 342.182 424.134C341.301 424.493 340.581 425.019 340.023 425.71C339.464 426.392 339.161 427.216 339.114 428.182H335.705C335.761 426.657 336.221 425.322 337.082 424.176C337.944 423.021 339.071 422.121 340.463 421.477C341.865 420.833 343.403 420.511 345.08 420.511C346.879 420.511 348.422 420.876 349.71 421.605C350.998 422.325 351.988 423.277 352.679 424.46C353.37 425.644 353.716 426.922 353.716 428.295C353.716 429.934 353.285 431.33 352.423 432.486C351.571 433.641 350.411 434.441 348.943 434.886V435.114C350.78 435.417 352.215 436.198 353.247 437.457C354.279 438.707 354.795 440.256 354.795 442.102C354.795 443.684 354.365 445.104 353.503 446.364C352.651 447.614 351.486 448.598 350.009 449.318C348.531 450.038 346.85 450.398 344.966 450.398ZM376.912 446.023L376.685 447.557C376.524 448.636 376.277 449.792 375.946 451.023C375.624 452.254 375.288 453.414 374.938 454.503C374.587 455.592 374.298 456.458 374.071 457.102H371.514C371.637 456.496 371.798 455.696 371.997 454.702C372.196 453.707 372.395 452.595 372.594 451.364C372.802 450.142 372.973 448.892 373.105 447.614L373.276 446.023H376.912ZM245.08 492.034V489.136L257.864 468.909H259.966V473.398H258.545L248.886 488.682V488.909H266.102V492.034H245.08ZM258.773 498V491.153V489.804V468.909H262.125V498H258.773ZM275.115 494.023L274.888 495.557C274.727 496.636 274.481 497.792 274.149 499.023C273.827 500.254 273.491 501.414 273.141 502.503C272.79 503.592 272.501 504.458 272.274 505.102H269.717C269.84 504.496 270.001 503.696 270.2 502.702C270.399 501.707 270.598 500.595 270.797 499.364C271.005 498.142 271.176 496.892 271.308 495.614L271.479 494.023H275.115ZM301.61 498.398C299.943 498.398 298.442 498.066 297.107 497.403C295.772 496.741 294.702 495.831 293.897 494.676C293.092 493.521 292.652 492.205 292.576 490.727H295.985C296.118 492.044 296.714 493.133 297.775 493.994C298.845 494.847 300.123 495.273 301.61 495.273C302.803 495.273 303.864 494.993 304.792 494.435C305.729 493.876 306.463 493.109 306.994 492.134C307.533 491.149 307.803 490.036 307.803 488.795C307.803 487.527 307.524 486.395 306.965 485.401C306.416 484.397 305.658 483.606 304.692 483.028C303.727 482.451 302.623 482.157 301.383 482.148C300.493 482.138 299.579 482.276 298.641 482.56C297.704 482.834 296.932 483.189 296.326 483.625L293.031 483.227L294.792 468.909H309.906V472.034H297.746L296.724 480.614H296.894C297.491 480.14 298.239 479.747 299.138 479.435C300.038 479.122 300.976 478.966 301.951 478.966C303.731 478.966 305.317 479.392 306.71 480.244C308.111 481.087 309.21 482.242 310.005 483.71C310.81 485.178 311.212 486.854 311.212 488.739C311.212 490.595 310.796 492.252 309.962 493.71C309.138 495.159 308.002 496.305 306.553 497.148C305.104 497.981 303.457 498.398 301.61 498.398ZM320.818 494.023L320.591 495.557C320.43 496.636 320.184 497.792 319.852 499.023C319.53 500.254 319.194 501.414 318.844 502.503C318.493 503.592 318.205 504.458 317.977 505.102H315.42C315.544 504.496 315.705 503.696 315.903 502.702C316.102 501.707 316.301 500.595 316.5 499.364C316.708 498.142 316.879 496.892 317.011 495.614L317.182 494.023H320.818ZM347.881 498.398C346.688 498.379 345.495 498.152 344.302 497.716C343.109 497.28 342.02 496.546 341.035 495.514C340.05 494.473 339.259 493.066 338.663 491.295C338.066 489.515 337.768 487.28 337.768 484.591C337.768 482.015 338.009 479.733 338.492 477.744C338.975 475.746 339.676 474.065 340.594 472.702C341.513 471.329 342.621 470.287 343.918 469.577C345.225 468.866 346.698 468.511 348.336 468.511C349.965 468.511 351.414 468.838 352.683 469.491C353.961 470.135 355.003 471.035 355.808 472.19C356.612 473.346 357.133 474.676 357.37 476.182H353.904C353.582 474.875 352.957 473.791 352.029 472.929C351.101 472.067 349.87 471.636 348.336 471.636C346.082 471.636 344.307 472.616 343.009 474.577C341.721 476.537 341.073 479.288 341.063 482.83H341.29C341.821 482.025 342.451 481.338 343.18 480.77C343.918 480.192 344.733 479.747 345.623 479.435C346.513 479.122 347.455 478.966 348.45 478.966C350.116 478.966 351.641 479.383 353.023 480.216C354.406 481.04 355.514 482.181 356.347 483.639C357.181 485.088 357.597 486.75 357.597 488.625C357.597 490.424 357.195 492.072 356.39 493.568C355.585 495.055 354.453 496.239 352.995 497.119C351.546 497.991 349.842 498.417 347.881 498.398ZM347.881 495.273C349.075 495.273 350.145 494.974 351.092 494.378C352.048 493.781 352.801 492.981 353.35 491.977C353.909 490.973 354.188 489.856 354.188 488.625C354.188 487.422 353.918 486.329 353.379 485.344C352.848 484.349 352.114 483.559 351.177 482.972C350.249 482.384 349.188 482.091 347.995 482.091C347.095 482.091 346.257 482.271 345.481 482.631C344.704 482.981 344.022 483.464 343.435 484.08C342.858 484.695 342.403 485.401 342.072 486.196C341.74 486.982 341.575 487.811 341.575 488.682C341.575 489.837 341.844 490.917 342.384 491.92C342.933 492.924 343.682 493.734 344.629 494.349C345.585 494.965 346.669 495.273 347.881 495.273ZM379.49 494.023L379.263 495.557C379.102 496.636 378.856 497.792 378.524 499.023C378.202 500.254 377.866 501.414 377.516 502.503C377.165 503.592 376.876 504.458 376.649 505.102H374.092C374.215 504.496 374.376 503.696 374.575 502.702C374.774 501.707 374.973 500.595 375.172 499.364C375.38 498.142 375.551 496.892 375.683 495.614L375.854 494.023H379.49ZM246.67 546L259.682 520.261V520.034H244.682V516.909H263.318V520.205L250.364 546H246.67ZM268.67 542.023L268.442 543.557C268.281 544.636 268.035 545.792 267.704 547.023C267.382 548.254 267.046 549.414 266.695 550.503C266.345 551.592 266.056 552.458 265.829 553.102H263.272C263.395 552.496 263.556 551.696 263.755 550.702C263.954 549.707 264.153 548.595 264.352 547.364C264.56 546.142 264.73 544.892 264.863 543.614L265.033 542.023H268.67ZM295.392 546.398C293.441 546.398 291.718 546.052 290.222 545.361C288.735 544.66 287.575 543.699 286.741 542.477C285.908 541.246 285.496 539.845 285.506 538.273C285.496 537.042 285.738 535.905 286.23 534.864C286.723 533.812 287.395 532.937 288.247 532.236C289.109 531.526 290.07 531.076 291.131 530.886V530.716C289.739 530.356 288.631 529.575 287.807 528.372C286.983 527.16 286.576 525.782 286.585 524.239C286.576 522.761 286.95 521.44 287.707 520.276C288.465 519.111 289.507 518.192 290.832 517.52C292.168 516.848 293.688 516.511 295.392 516.511C297.078 516.511 298.583 516.848 299.909 517.52C301.235 518.192 302.277 519.111 303.034 520.276C303.801 521.44 304.189 522.761 304.199 524.239C304.189 525.782 303.768 527.16 302.935 528.372C302.111 529.575 301.017 530.356 299.653 530.716V530.886C300.705 531.076 301.652 531.526 302.494 532.236C303.337 532.937 304.009 533.812 304.511 534.864C305.013 535.905 305.269 537.042 305.278 538.273C305.269 539.845 304.843 541.246 304 542.477C303.167 543.699 302.007 544.66 300.52 545.361C299.043 546.052 297.333 546.398 295.392 546.398ZM295.392 543.273C296.708 543.273 297.845 543.06 298.801 542.634C299.758 542.207 300.496 541.606 301.017 540.83C301.538 540.053 301.803 539.144 301.812 538.102C301.803 537.004 301.519 536.033 300.96 535.19C300.402 534.348 299.639 533.685 298.673 533.202C297.717 532.719 296.623 532.477 295.392 532.477C294.152 532.477 293.044 532.719 292.068 533.202C291.102 533.685 290.34 534.348 289.781 535.19C289.232 536.033 288.962 537.004 288.972 538.102C288.962 539.144 289.213 540.053 289.724 540.83C290.245 541.606 290.989 542.207 291.955 542.634C292.92 543.06 294.066 543.273 295.392 543.273ZM295.392 529.466C296.434 529.466 297.357 529.258 298.162 528.841C298.976 528.424 299.616 527.842 300.08 527.094C300.544 526.346 300.78 525.47 300.79 524.466C300.78 523.481 300.548 522.624 300.094 521.895C299.639 521.156 299.009 520.588 298.205 520.19C297.4 519.783 296.462 519.58 295.392 519.58C294.303 519.58 293.351 519.783 292.537 520.19C291.723 520.588 291.093 521.156 290.648 521.895C290.203 522.624 289.985 523.481 289.994 524.466C289.985 525.47 290.207 526.346 290.662 527.094C291.126 527.842 291.765 528.424 292.58 528.841C293.394 529.258 294.331 529.466 295.392 529.466ZM314.881 542.023L314.653 543.557C314.492 544.636 314.246 545.792 313.915 547.023C313.593 548.254 313.257 549.414 312.906 550.503C312.556 551.592 312.267 552.458 312.04 553.102H309.483C309.606 552.496 309.767 551.696 309.966 550.702C310.165 549.707 310.364 548.595 310.562 547.364C310.771 546.142 310.941 544.892 311.074 543.614L311.244 542.023H314.881ZM341.546 516.511C342.739 516.521 343.933 516.748 345.126 517.193C346.319 517.638 347.408 518.377 348.393 519.409C349.378 520.432 350.168 521.829 350.765 523.599C351.362 525.37 351.66 527.591 351.66 530.261C351.66 532.847 351.414 535.143 350.921 537.151C350.438 539.149 349.737 540.834 348.819 542.207C347.91 543.58 346.802 544.622 345.495 545.332C344.198 546.043 342.73 546.398 341.092 546.398C339.463 546.398 338.009 546.076 336.731 545.432C335.462 544.778 334.42 543.874 333.606 542.719C332.801 541.554 332.285 540.205 332.058 538.67H335.523C335.836 540.006 336.456 541.109 337.384 541.98C338.322 542.842 339.558 543.273 341.092 543.273C343.336 543.273 345.107 542.293 346.404 540.332C347.711 538.372 348.364 535.602 348.364 532.023H348.137C347.607 532.818 346.977 533.505 346.248 534.082C345.519 534.66 344.709 535.105 343.819 535.418C342.929 535.73 341.982 535.886 340.978 535.886C339.311 535.886 337.782 535.474 336.39 534.651C335.007 533.817 333.899 532.676 333.066 531.227C332.242 529.769 331.83 528.102 331.83 526.227C331.83 524.447 332.228 522.818 333.023 521.341C333.828 519.854 334.955 518.67 336.404 517.79C337.862 516.909 339.576 516.483 341.546 516.511ZM341.546 519.636C340.353 519.636 339.278 519.935 338.322 520.531C337.375 521.118 336.622 521.914 336.063 522.918C335.514 523.912 335.239 525.015 335.239 526.227C335.239 527.439 335.504 528.543 336.035 529.537C336.575 530.522 337.308 531.308 338.237 531.895C339.174 532.473 340.239 532.761 341.433 532.761C342.332 532.761 343.17 532.586 343.947 532.236C344.723 531.876 345.4 531.388 345.978 530.773C346.565 530.148 347.024 529.442 347.356 528.656C347.687 527.861 347.853 527.032 347.853 526.17C347.853 525.034 347.578 523.969 347.029 522.974C346.489 521.98 345.741 521.175 344.785 520.56C343.838 519.944 342.758 519.636 341.546 519.636ZM397.757 515.545V551.909H389.348V549.125H394.575V518.33H389.348V515.545H397.757ZM412.704 533.727C412.704 537.307 412.235 540.602 411.298 543.614C410.37 546.616 409.039 549.381 407.306 551.909H404.352C405.033 550.972 405.668 549.816 406.255 548.443C406.852 547.08 407.372 545.583 407.817 543.955C408.263 542.316 408.608 540.626 408.854 538.884C409.11 537.132 409.238 535.413 409.238 533.727C409.238 531.473 409.02 529.187 408.585 526.866C408.149 524.546 407.562 522.392 406.823 520.403C406.085 518.415 405.261 516.795 404.352 515.545H407.306C409.039 518.074 410.37 520.844 411.298 523.855C412.235 526.857 412.704 530.148 412.704 533.727Z" fill="white"/>
<path d="M225.716 455.909V419.545H234.125V422.33H228.898V453.125H234.125V455.909H225.716Z" fill="#2596FF"/>
<path d="M380.773 515.545V551.909H372.364V549.125H377.591V518.33H372.364V515.545H380.773Z" fill="#2596FF"/>
<path d="M855.239 464.909V494H851.716V468.602H851.545L844.443 473.318V469.739L851.716 464.909H855.239Z" fill="#2596FF"/>
<path d="M225.716 455.909V419.545H234.125V422.33H228.898V453.125H234.125V455.909H225.716Z" fill="#2596FF"/>
<path d="M240.716 455.909V419.545H249.125V422.33H243.898V453.125H249.125V455.909H240.716Z" fill="#FF2525"/>
<path d="M240.716 501.909V465.545H249.125V468.33H243.898V499.125H249.125V501.909H240.716Z" fill="#FF2525"/>
<path d="M240.716 549.909V513.545H249.125V516.33H243.898V547.125H249.125V549.909H240.716Z" fill="#FF2525"/>
<path d="M364.773 417.545V453.909H356.364V451.125H361.591V420.33H356.364V417.545H364.773Z" fill="#FF2525"/>
<path d="M365.773 465.545V501.909H357.364V499.125H362.591V468.33H357.364V465.545H365.773Z" fill="#FF2525"/>
<path d="M363.773 513.545V549.909H355.364V547.125H360.591V516.33H355.364V513.545H363.773Z" fill="#FF2525"/>
<path d="M821.261 481.727C821.261 478.148 821.725 474.857 822.653 471.855C823.591 468.844 824.926 466.074 826.659 463.545H829.614C828.932 464.483 828.293 465.638 827.696 467.011C827.109 468.375 826.593 469.876 826.148 471.514C825.703 473.143 825.352 474.829 825.097 476.571C824.85 478.313 824.727 480.032 824.727 481.727C824.727 483.981 824.945 486.268 825.381 488.588C825.816 490.908 826.403 493.062 827.142 495.051C827.881 497.04 828.705 498.659 829.614 499.909H826.659C824.926 497.381 823.591 494.616 822.653 491.614C821.725 488.602 821.261 485.307 821.261 481.727ZM836.208 499.909V463.545H844.617V466.33H839.39V497.125H844.617V499.909H836.208ZM865.303 490.023L865.075 491.557C864.914 492.636 864.668 493.792 864.337 495.023C864.015 496.254 863.679 497.414 863.328 498.503C862.978 499.592 862.689 500.458 862.462 501.102H859.905C860.028 500.496 860.189 499.696 860.388 498.702C860.587 497.707 860.786 496.595 860.984 495.364C861.193 494.142 861.363 492.892 861.496 491.614L861.666 490.023H865.303ZM910.263 490.023L910.036 491.557C909.875 492.636 909.629 493.792 909.298 495.023C908.976 496.254 908.639 497.414 908.289 498.503C907.939 499.592 907.65 500.458 907.423 501.102H904.866C904.989 500.496 905.15 499.696 905.349 498.702C905.548 497.707 905.746 496.595 905.945 495.364C906.154 494.142 906.324 492.892 906.457 491.614L906.627 490.023H910.263ZM956.929 463.545V499.909H948.52V497.125H953.747V466.33H948.52V463.545H956.929ZM971.876 481.727C971.876 485.307 971.407 488.602 970.469 491.614C969.541 494.616 968.211 497.381 966.478 499.909H963.523C964.205 498.972 964.84 497.816 965.427 496.443C966.023 495.08 966.544 493.583 966.989 491.955C967.434 490.316 967.78 488.626 968.026 486.884C968.282 485.132 968.41 483.413 968.41 481.727C968.41 479.473 968.192 477.187 967.756 474.866C967.321 472.546 966.734 470.392 965.995 468.403C965.256 466.415 964.433 464.795 963.523 463.545H966.478C968.211 466.074 969.541 468.844 970.469 471.855C971.407 474.857 971.876 478.148 971.876 481.727Z" fill="white"/>
<path d="M855.239 464.909V494H851.716V468.602H851.545L844.443 473.318V469.739L851.716 464.909H855.239Z" fill="#2596FF"/>
<path d="M892.841 494.398C890.966 494.398 889.295 494.076 887.827 493.432C886.368 492.788 885.208 491.893 884.347 490.747C883.494 489.592 883.03 488.252 882.955 486.727H886.534C886.61 487.665 886.932 488.474 887.5 489.156C888.068 489.829 888.812 490.349 889.73 490.719C890.649 491.088 891.667 491.273 892.784 491.273C894.034 491.273 895.142 491.055 896.108 490.619C897.074 490.184 897.831 489.578 898.381 488.801C898.93 488.025 899.205 487.125 899.205 486.102C899.205 485.032 898.939 484.09 898.409 483.276C897.879 482.452 897.102 481.808 896.08 481.344C895.057 480.88 893.807 480.648 892.33 480.648H890V477.523H892.33C893.485 477.523 894.498 477.314 895.369 476.898C896.25 476.481 896.937 475.894 897.429 475.136C897.931 474.379 898.182 473.489 898.182 472.466C898.182 471.481 897.964 470.624 897.528 469.895C897.093 469.166 896.477 468.598 895.682 468.19C894.896 467.783 893.968 467.58 892.898 467.58C891.894 467.58 890.947 467.764 890.057 468.134C889.176 468.493 888.456 469.019 887.898 469.71C887.339 470.392 887.036 471.216 886.989 472.182H883.58C883.636 470.657 884.096 469.322 884.957 468.176C885.819 467.021 886.946 466.121 888.338 465.477C889.74 464.833 891.278 464.511 892.955 464.511C894.754 464.511 896.297 464.876 897.585 465.605C898.873 466.325 899.863 467.277 900.554 468.46C901.245 469.644 901.591 470.922 901.591 472.295C901.591 473.934 901.16 475.33 900.298 476.486C899.446 477.641 898.286 478.441 896.818 478.886V479.114C898.655 479.417 900.09 480.198 901.122 481.457C902.154 482.707 902.67 484.256 902.67 486.102C902.67 487.684 902.24 489.104 901.378 490.364C900.526 491.614 899.361 492.598 897.884 493.318C896.406 494.038 894.725 494.398 892.841 494.398Z" fill="#FF2525"/>
<path d="M937.841 494.398C935.966 494.398 934.295 494.076 932.827 493.432C931.368 492.788 930.208 491.893 929.347 490.747C928.494 489.592 928.03 488.252 927.955 486.727H931.534C931.61 487.665 931.932 488.474 932.5 489.156C933.068 489.829 933.812 490.349 934.73 490.719C935.649 491.088 936.667 491.273 937.784 491.273C939.034 491.273 940.142 491.055 941.108 490.619C942.074 490.184 942.831 489.578 943.381 488.801C943.93 488.025 944.205 487.125 944.205 486.102C944.205 485.032 943.939 484.09 943.409 483.276C942.879 482.452 942.102 481.808 941.08 481.344C940.057 480.88 938.807 480.648 937.33 480.648H935V477.523H937.33C938.485 477.523 939.498 477.314 940.369 476.898C941.25 476.481 941.937 475.894 942.429 475.136C942.931 474.379 943.182 473.489 943.182 472.466C943.182 471.481 942.964 470.624 942.528 469.895C942.093 469.166 941.477 468.598 940.682 468.19C939.896 467.783 938.968 467.58 937.898 467.58C936.894 467.58 935.947 467.764 935.057 468.134C934.176 468.493 933.456 469.019 932.898 469.71C932.339 470.392 932.036 471.216 931.989 472.182H928.58C928.636 470.657 929.096 469.322 929.957 468.176C930.819 467.021 931.946 466.121 933.338 465.477C934.74 464.833 936.278 464.511 937.955 464.511C939.754 464.511 941.297 464.876 942.585 465.605C943.873 466.325 944.863 467.277 945.554 468.46C946.245 469.644 946.591 470.922 946.591 472.295C946.591 473.934 946.16 475.33 945.298 476.486C944.446 477.641 943.286 478.441 941.818 478.886V479.114C943.655 479.417 945.09 480.198 946.122 481.457C947.154 482.707 947.67 484.256 947.67 486.102C947.67 487.684 947.24 489.104 946.378 490.364C945.526 491.614 944.361 492.598 942.884 493.318C941.406 494.038 939.725 494.398 937.841 494.398Z" fill="#25E572"/>
</svg>
