<svg width="1200" height="675" viewBox="0 0 1200 675" fill="none" xmlns="http://www.w3.org/2000/svg">
<rect width="1200" height="675" fill="#1E1E1E"/>
<rect width="1200" height="675" fill="url(#paint0_linear_0_1)"/>
<g clip-path="url(#clip0_0_1)">
<path d="M633.376 146.189L620.816 159.33C641.749 181.232 641.749 216.9 620.816 238.801C599.882 260.703 565.79 260.703 544.857 238.801C523.924 216.9 523.924 181.232 544.857 159.33L578.35 124.288L582.537 119.282V93L531.699 146.189C525.019 153.108 519.716 161.343 516.097 170.419C512.478 179.495 510.615 189.232 510.615 199.066C510.615 208.9 512.478 218.636 516.097 227.712C519.716 236.788 525.019 245.024 531.699 251.942C538.311 258.931 546.183 264.479 554.858 268.266C563.532 272.052 572.839 274.001 582.238 274.001C591.638 274.001 600.944 272.052 609.619 268.266C618.294 264.479 626.165 258.931 632.777 251.942C661.486 222.532 661.486 174.974 633.376 146.189Z" fill="#EE4C2C"/>
<path d="M608.255 142.435C613.541 142.435 617.825 137.952 617.825 132.423C617.825 126.893 613.541 122.411 608.255 122.411C602.97 122.411 598.686 126.893 598.686 132.423C598.686 137.952 602.97 142.435 608.255 142.435Z" fill="#EE4C2C"/>
</g>
<path d="M226.21 247V137.909H263.071C271.629 137.909 278.625 139.454 284.058 142.543C289.527 145.597 293.575 149.734 296.203 154.955C298.831 160.175 300.145 165.999 300.145 172.426C300.145 178.854 298.831 184.695 296.203 189.951C293.611 195.207 289.598 199.397 284.165 202.522C278.732 205.612 271.771 207.156 263.284 207.156H236.864V195.438H262.858C268.717 195.438 273.423 194.425 276.974 192.401C280.525 190.377 283.099 187.643 284.697 184.198C286.331 180.718 287.148 176.794 287.148 172.426C287.148 168.058 286.331 164.152 284.697 160.707C283.099 157.263 280.507 154.564 276.92 152.611C273.334 150.622 268.575 149.628 262.645 149.628H239.42V247H226.21Z" fill="white"/>
<path d="M312.835 137.909H327.963L358.219 188.832H359.497L389.753 137.909H404.881L365.463 202.043V247H352.253V202.043L312.835 137.909Z" fill="white"/>
<path d="M416.244 149.628V137.909H498.062V149.628H463.759V247H450.548V149.628H416.244Z" fill="white"/>
<path d="M682.21 247V137.909H719.071C727.594 137.909 734.589 139.365 740.058 142.277C745.527 145.153 749.575 149.113 752.203 154.156C754.831 159.198 756.145 164.933 756.145 171.361C756.145 177.788 754.831 183.488 752.203 188.46C749.575 193.431 745.545 197.337 740.112 200.178C734.678 202.984 727.736 204.386 719.284 204.386H689.455V192.455H718.858C724.682 192.455 729.369 191.602 732.92 189.898C736.507 188.193 739.099 185.778 740.697 182.653C742.331 179.493 743.148 175.729 743.148 171.361C743.148 166.993 742.331 163.175 740.697 159.908C739.064 156.641 736.454 154.12 732.867 152.344C729.281 150.533 724.54 149.628 718.645 149.628H695.42V247H682.21ZM733.56 197.994L760.406 247H745.065L718.645 197.994H733.56Z" fill="white"/>
<path d="M865.994 172H852.784C852.003 168.2 850.636 164.862 848.683 161.986C846.765 159.109 844.421 156.695 841.651 154.741C838.917 152.753 835.881 151.261 832.543 150.267C829.205 149.273 825.724 148.776 822.102 148.776C815.497 148.776 809.513 150.445 804.151 153.783C798.825 157.121 794.581 162.039 791.42 168.538C788.295 175.036 786.733 183.009 786.733 192.455C786.733 201.901 788.295 209.873 791.42 216.371C794.581 222.87 798.825 227.788 804.151 231.126C809.513 234.464 815.497 236.134 822.102 236.134C825.724 236.134 829.205 235.636 832.543 234.642C835.881 233.648 838.917 232.174 841.651 230.221C844.421 228.232 846.765 225.8 848.683 222.923C850.636 220.011 852.003 216.673 852.784 212.909H865.994C865 218.484 863.189 223.474 860.561 227.877C857.933 232.281 854.666 236.027 850.76 239.116C846.854 242.17 842.468 244.496 837.603 246.094C832.773 247.692 827.607 248.491 822.102 248.491C812.798 248.491 804.524 246.219 797.28 241.673C790.036 237.128 784.336 230.665 780.181 222.284C776.026 213.903 773.949 203.96 773.949 192.455C773.949 180.949 776.026 171.006 780.181 162.625C784.336 154.244 790.036 147.781 797.28 143.236C804.524 138.69 812.798 136.418 822.102 136.418C827.607 136.418 832.773 137.217 837.603 138.815C842.468 140.413 846.854 142.756 850.76 145.846C854.666 148.9 857.933 152.629 860.561 157.032C863.189 161.4 865 166.389 865.994 172Z" fill="white"/>
<path d="M888.21 247V137.909H901.42V186.489H959.588V137.909H972.798V247H959.588V198.207H901.42V247H888.21Z" fill="white"/>
<path d="M291.078 528.787C291.664 529.21 291.957 529.699 291.957 530.252C291.957 530.415 291.941 530.529 291.908 530.594C291.257 533.523 289.971 536.307 288.051 538.943C286.13 541.548 283.526 543.68 280.238 545.34C276.983 547 273.126 547.83 268.666 547.83C263.653 547.83 259.161 546.577 255.189 544.07C251.218 541.564 248.093 538.016 245.814 533.426C243.568 528.803 242.445 523.449 242.445 517.361C242.445 511.827 243.568 506.912 245.814 502.615C248.093 498.318 251.218 494.982 255.189 492.605C259.161 490.229 263.637 489.041 268.617 489.041C271.156 489.041 273.581 489.415 275.893 490.164C278.204 490.88 280.222 491.873 281.947 493.143C283.705 494.412 285.023 495.844 285.902 497.439V492.264C285.902 491.515 286.13 490.929 286.586 490.506C287.074 490.05 287.644 489.822 288.295 489.822C288.946 489.822 289.499 490.05 289.955 490.506C290.443 490.929 290.688 491.531 290.688 492.312V506.619C290.688 507.368 290.46 507.938 290.004 508.328C289.581 508.719 289.06 508.914 288.441 508.914C287.855 508.914 287.351 508.719 286.928 508.328C286.505 507.905 286.228 507.335 286.098 506.619C285.609 503.982 284.535 501.655 282.875 499.637C281.247 497.618 279.213 496.056 276.771 494.949C274.33 493.81 271.661 493.24 268.764 493.24C264.369 493.24 260.544 494.282 257.289 496.365C254.034 498.449 251.527 501.346 249.77 505.057C248.012 508.768 247.133 512.983 247.133 517.703C247.133 523.009 248.109 527.632 250.062 531.57C252.048 535.477 254.685 538.471 257.973 540.555C261.26 542.605 264.841 543.631 268.715 543.631C273.337 543.631 277.243 542.378 280.434 539.871C283.624 537.365 285.886 533.898 287.221 529.471C287.546 528.559 288.197 528.104 289.174 528.104C289.857 528.104 290.492 528.331 291.078 528.787ZM342.152 519.07C341.697 518.615 341.469 517.98 341.469 517.166V511.307C337.107 511.307 333.249 512.169 329.896 513.895C326.544 515.587 324.216 518.061 322.914 521.316V542.996H339.32C339.939 542.996 340.411 543.191 340.736 543.582C341.094 543.973 341.273 544.445 341.273 544.998C341.273 545.519 341.094 545.991 340.736 546.414C340.378 546.805 339.89 547 339.271 547H309.486C308.77 547 308.217 546.805 307.826 546.414C307.436 545.991 307.24 545.503 307.24 544.949C307.24 544.428 307.419 543.973 307.777 543.582C308.135 543.191 308.64 542.996 309.291 542.996H318.227V512.381L312.27 513.602C312.139 513.634 311.944 513.65 311.684 513.65C311.065 513.65 310.577 513.455 310.219 513.064C309.893 512.674 309.73 512.218 309.73 511.697C309.73 511.242 309.861 510.851 310.121 510.525C310.382 510.167 310.74 509.939 311.195 509.842L319.545 508.182C319.968 508.084 320.342 508.035 320.668 508.035C321.384 508.035 321.856 508.263 322.084 508.719C322.344 509.174 322.491 509.858 322.523 510.77L322.719 515.848C326.43 510.151 332.81 507.303 341.859 507.303C343.422 507.303 344.529 507.547 345.18 508.035C345.831 508.523 346.156 509.256 346.156 510.232V516.971C346.156 517.85 345.912 518.533 345.424 519.021C344.968 519.477 344.415 519.705 343.764 519.705C343.145 519.705 342.608 519.493 342.152 519.07ZM396.84 524.051V523.074C396.84 519.266 396.091 516.352 394.594 514.334C393.129 512.316 390.574 511.307 386.928 511.307C384.877 511.307 382.989 511.486 381.264 511.844C379.571 512.169 377.862 512.723 376.137 513.504C376.007 516.01 375.714 517.898 375.258 519.168C374.802 520.438 374.021 521.072 372.914 521.072C371.97 521.072 371.238 520.747 370.717 520.096C370.229 519.445 369.984 518.598 369.984 517.557C369.984 515.604 370.701 513.846 372.133 512.283C373.565 510.721 375.567 509.5 378.139 508.621C380.71 507.742 383.656 507.303 386.977 507.303C390.72 507.303 393.65 508.003 395.766 509.402C397.914 510.802 399.411 512.82 400.258 515.457C401.104 518.061 401.527 521.349 401.527 525.32V540.555C401.527 541.694 401.755 542.475 402.211 542.898C402.667 543.289 403.285 543.484 404.066 543.484C404.913 543.484 405.808 543.24 406.752 542.752C407.696 542.231 408.445 541.678 408.998 541.092C409.356 540.701 409.747 540.506 410.17 540.506C410.658 540.506 411.081 540.717 411.439 541.141C411.798 541.564 411.977 542.036 411.977 542.557C411.977 543.045 411.814 543.452 411.488 543.777C410.447 544.884 409.242 545.763 407.875 546.414C406.54 547.033 405.141 547.342 403.676 547.342C402.016 547.342 400.616 546.951 399.477 546.17C398.337 545.356 397.572 543.794 397.182 541.482C395.587 543.273 393.34 544.77 390.443 545.975C387.579 547.179 384.454 547.781 381.068 547.781C377.423 547.781 374.574 546.788 372.523 544.803C370.473 542.785 369.447 540.099 369.447 536.746C369.447 533.361 370.521 530.805 372.67 529.08C374.818 527.355 377.455 526.215 380.58 525.662C383.738 525.109 387.969 524.653 393.275 524.295L396.84 524.051ZM390.053 542.215C392.82 541.108 395.082 539.627 396.84 537.771V527.42L394.838 527.615C389.499 528.136 385.495 528.641 382.826 529.129C380.189 529.585 378.09 530.398 376.527 531.57C374.965 532.742 374.184 534.467 374.184 536.746C374.184 539.22 374.851 541.027 376.186 542.166C377.553 543.273 379.359 543.826 381.605 543.826C384.503 543.826 387.318 543.289 390.053 542.215ZM434.34 524.832C432.549 523.27 431.654 521.121 431.654 518.387C431.654 514.383 433.152 511.535 436.146 509.842C439.174 508.149 442.917 507.303 447.377 507.303C450.209 507.303 452.943 507.742 455.58 508.621C458.217 509.467 460.023 510.525 461 511.795V509.988C460.967 509.24 461.163 508.654 461.586 508.23C462.009 507.775 462.497 507.547 463.051 507.547C463.604 507.547 464.076 507.758 464.467 508.182C464.857 508.605 465.053 509.191 465.053 509.939L464.955 519.754C464.89 520.372 464.711 520.828 464.418 521.121C464.125 521.414 463.653 521.561 463.002 521.561C462.188 521.561 461.667 521.251 461.439 520.633C461.212 520.014 461.081 518.94 461.049 517.41C460.17 515.359 458.493 513.829 456.02 512.82C453.578 511.811 450.583 511.307 447.035 511.307C440.134 511.307 436.684 513.423 436.684 517.654C436.684 519.152 437.139 520.372 438.051 521.316C438.962 522.228 440.574 522.944 442.885 523.465L455.531 526.004C458.689 526.622 461.114 527.745 462.807 529.373C464.532 531.001 465.395 533.491 465.395 536.844C465.395 540.49 463.946 543.24 461.049 545.096C458.184 546.919 454.327 547.83 449.477 547.83C446.417 547.83 443.568 547.374 440.932 546.463C438.327 545.551 436.13 544.07 434.34 542.02V544.949C434.34 545.633 434.161 546.154 433.803 546.512C433.477 546.837 433.07 547 432.582 547C432.061 547 431.605 546.821 431.215 546.463C430.824 546.105 430.629 545.649 430.629 545.096L430.727 534.061C430.727 533.214 430.906 532.579 431.264 532.156C431.622 531.733 432.029 531.521 432.484 531.521C433.038 531.521 433.461 531.684 433.754 532.01C434.079 532.335 434.242 533.019 434.242 534.061C434.242 535.883 434.893 537.544 436.195 539.041C437.53 540.538 439.337 541.71 441.615 542.557C443.894 543.403 446.417 543.826 449.184 543.826C452.895 543.826 455.727 543.257 457.68 542.117C459.665 540.945 460.658 539.171 460.658 536.795C460.658 535.135 460.219 533.8 459.34 532.791C458.461 531.749 456.98 531.033 454.896 530.643L441.908 528.104C438.653 527.485 436.13 526.395 434.34 524.832ZM521.938 542.996V520.633C521.938 517.671 521.189 515.376 519.691 513.748C518.227 512.12 516.046 511.307 513.148 511.307C510.186 511.307 507.501 511.893 505.092 513.064C502.715 514.204 500.86 515.669 499.525 517.459C498.191 519.249 497.523 521.007 497.523 522.732V542.996H502.65C503.399 542.996 503.969 543.191 504.359 543.582C504.783 543.973 504.994 544.428 504.994 544.949C504.994 545.503 504.766 545.991 504.311 546.414C503.887 546.805 503.301 547 502.553 547H487.758C487.042 547 486.488 546.788 486.098 546.365C485.707 545.942 485.512 545.454 485.512 544.9C485.512 544.38 485.691 543.94 486.049 543.582C486.407 543.191 486.911 542.996 487.562 542.996H492.836V493.729L485.609 494.168C485.056 494.201 484.6 494.054 484.242 493.729C483.884 493.37 483.705 492.931 483.705 492.41C483.705 491.954 483.835 491.515 484.096 491.092C484.389 490.669 484.796 490.441 485.316 490.408L494.545 489.48C495.066 489.415 495.391 489.383 495.521 489.383C496.856 489.383 497.523 490.018 497.523 491.287V515.799C498.337 514.204 499.525 512.771 501.088 511.502C502.65 510.2 504.457 509.174 506.508 508.426C508.591 507.677 510.723 507.303 512.904 507.303C517.494 507.303 520.928 508.491 523.207 510.867C525.486 513.243 526.625 516.613 526.625 520.975V542.996H531.947C532.566 542.996 533.038 543.191 533.363 543.582C533.721 543.973 533.9 544.428 533.9 544.949C533.9 545.503 533.721 545.991 533.363 546.414C533.005 546.805 532.501 547 531.85 547H515.004C514.288 547 513.734 546.788 513.344 546.365C512.953 545.942 512.758 545.454 512.758 544.9C512.758 544.38 512.937 543.94 513.295 543.582C513.653 543.191 514.158 542.996 514.809 542.996H521.938ZM654.359 528.787C654.945 529.21 655.238 529.699 655.238 530.252C655.238 530.415 655.222 530.529 655.189 530.594C654.538 533.523 653.253 536.307 651.332 538.943C649.411 541.548 646.807 543.68 643.52 545.34C640.264 547 636.407 547.83 631.947 547.83C626.934 547.83 622.442 546.577 618.471 544.07C614.499 541.564 611.374 538.016 609.096 533.426C606.85 528.803 605.727 523.449 605.727 517.361C605.727 511.827 606.85 506.912 609.096 502.615C611.374 498.318 614.499 494.982 618.471 492.605C622.442 490.229 626.918 489.041 631.898 489.041C634.438 489.041 636.863 489.415 639.174 490.164C641.485 490.88 643.503 491.873 645.229 493.143C646.986 494.412 648.305 495.844 649.184 497.439V492.264C649.184 491.515 649.411 490.929 649.867 490.506C650.355 490.05 650.925 489.822 651.576 489.822C652.227 489.822 652.781 490.05 653.236 490.506C653.725 490.929 653.969 491.531 653.969 492.312V506.619C653.969 507.368 653.741 507.938 653.285 508.328C652.862 508.719 652.341 508.914 651.723 508.914C651.137 508.914 650.632 508.719 650.209 508.328C649.786 507.905 649.509 507.335 649.379 506.619C648.891 503.982 647.816 501.655 646.156 499.637C644.529 497.618 642.494 496.056 640.053 494.949C637.611 493.81 634.942 493.24 632.045 493.24C627.65 493.24 623.826 494.282 620.57 496.365C617.315 498.449 614.809 501.346 613.051 505.057C611.293 508.768 610.414 512.983 610.414 517.703C610.414 523.009 611.391 527.632 613.344 531.57C615.329 535.477 617.966 538.471 621.254 540.555C624.542 542.605 628.122 543.631 631.996 543.631C636.618 543.631 640.525 542.378 643.715 539.871C646.905 537.365 649.167 533.898 650.502 529.471C650.827 528.559 651.479 528.104 652.455 528.104C653.139 528.104 653.773 528.331 654.359 528.787ZM671.986 538.26C670.261 535.2 669.398 531.635 669.398 527.566C669.398 523.465 670.261 519.884 671.986 516.824C673.712 513.764 676.137 511.421 679.262 509.793C682.387 508.133 686 507.303 690.102 507.303C694.203 507.303 697.816 508.133 700.941 509.793C704.066 511.421 706.492 513.764 708.217 516.824C709.942 519.884 710.805 523.465 710.805 527.566C710.805 531.635 709.942 535.2 708.217 538.26C706.492 541.32 704.066 543.68 700.941 545.34C697.816 547 694.203 547.83 690.102 547.83C686 547.83 682.387 547 679.262 545.34C676.137 543.68 673.712 541.32 671.986 538.26ZM676.479 519.168C675.274 521.609 674.672 524.409 674.672 527.566C674.672 530.757 675.274 533.589 676.479 536.062C677.715 538.504 679.49 540.408 681.801 541.775C684.145 543.143 686.911 543.826 690.102 543.826C693.292 543.826 696.042 543.143 698.354 541.775C700.697 540.408 702.471 538.504 703.676 536.062C704.913 533.589 705.531 530.757 705.531 527.566C705.531 524.409 704.913 521.609 703.676 519.168C702.471 516.694 700.697 514.773 698.354 513.406C696.042 512.007 693.292 511.307 690.102 511.307C686.911 511.307 684.145 512.007 681.801 513.406C679.49 514.773 677.715 516.694 676.479 519.168ZM738.246 509.5V534.354C738.246 537.186 739.044 539.48 740.639 541.238C742.266 542.964 744.659 543.826 747.816 543.826C749.737 543.826 751.706 543.468 753.725 542.752C755.743 542.036 757.549 541.059 759.145 539.822C760.772 538.585 761.944 537.218 762.66 535.721V512.527L757.924 513.504C757.631 513.602 757.338 513.65 757.045 513.65C756.361 513.65 755.808 513.439 755.385 513.016C754.962 512.592 754.75 512.104 754.75 511.551C754.75 511.095 754.896 510.704 755.189 510.379C755.515 510.021 755.987 509.777 756.605 509.646L765.102 507.938C765.362 507.872 765.557 507.84 765.688 507.84C766.176 507.84 766.566 508.003 766.859 508.328C767.185 508.654 767.348 509.044 767.348 509.5V542.85L774.574 542.312H774.867C775.518 542.312 776.007 542.475 776.332 542.801C776.658 543.126 776.82 543.533 776.82 544.021C776.82 544.51 776.658 544.965 776.332 545.389C776.007 545.779 775.551 546.04 774.965 546.17L765.883 547.146H765.541C764.89 547.146 764.353 546.951 763.93 546.561C763.507 546.137 763.279 545.519 763.246 544.705L763.002 540.457C761.57 542.573 759.438 544.331 756.605 545.73C753.773 547.13 750.827 547.83 747.768 547.83C744.838 547.83 742.299 547.26 740.15 546.121C738.002 544.982 736.358 543.387 735.219 541.336C734.112 539.285 733.559 536.909 733.559 534.207V512.527L728.773 513.504C728.578 513.569 728.301 513.602 727.943 513.602C727.292 513.602 726.755 513.39 726.332 512.967C725.909 512.544 725.697 512.055 725.697 511.502C725.697 511.046 725.844 510.656 726.137 510.33C726.43 510.005 726.869 509.777 727.455 509.646L736 507.938C736.26 507.872 736.456 507.84 736.586 507.84C737.074 507.84 737.465 508.003 737.758 508.328C738.083 508.654 738.246 509.044 738.246 509.5ZM826.527 519.07C826.072 518.615 825.844 517.98 825.844 517.166V511.307C821.482 511.307 817.624 512.169 814.271 513.895C810.919 515.587 808.591 518.061 807.289 521.316V542.996H823.695C824.314 542.996 824.786 543.191 825.111 543.582C825.469 543.973 825.648 544.445 825.648 544.998C825.648 545.519 825.469 545.991 825.111 546.414C824.753 546.805 824.265 547 823.646 547H793.861C793.145 547 792.592 546.805 792.201 546.414C791.811 545.991 791.615 545.503 791.615 544.949C791.615 544.428 791.794 543.973 792.152 543.582C792.51 543.191 793.015 542.996 793.666 542.996H802.602V512.381L796.645 513.602C796.514 513.634 796.319 513.65 796.059 513.65C795.44 513.65 794.952 513.455 794.594 513.064C794.268 512.674 794.105 512.218 794.105 511.697C794.105 511.242 794.236 510.851 794.496 510.525C794.757 510.167 795.115 509.939 795.57 509.842L803.92 508.182C804.343 508.084 804.717 508.035 805.043 508.035C805.759 508.035 806.231 508.263 806.459 508.719C806.719 509.174 806.866 509.858 806.898 510.77L807.094 515.848C810.805 510.151 817.185 507.303 826.234 507.303C827.797 507.303 828.904 507.547 829.555 508.035C830.206 508.523 830.531 509.256 830.531 510.232V516.971C830.531 517.85 830.287 518.533 829.799 519.021C829.343 519.477 828.79 519.705 828.139 519.705C827.52 519.705 826.983 519.493 826.527 519.07ZM858.168 524.832C856.378 523.27 855.482 521.121 855.482 518.387C855.482 514.383 856.98 511.535 859.975 509.842C863.002 508.149 866.745 507.303 871.205 507.303C874.037 507.303 876.771 507.742 879.408 508.621C882.045 509.467 883.852 510.525 884.828 511.795V509.988C884.796 509.24 884.991 508.654 885.414 508.23C885.837 507.775 886.326 507.547 886.879 507.547C887.432 507.547 887.904 507.758 888.295 508.182C888.686 508.605 888.881 509.191 888.881 509.939L888.783 519.754C888.718 520.372 888.539 520.828 888.246 521.121C887.953 521.414 887.481 521.561 886.83 521.561C886.016 521.561 885.495 521.251 885.268 520.633C885.04 520.014 884.91 518.94 884.877 517.41C883.998 515.359 882.322 513.829 879.848 512.82C877.406 511.811 874.411 511.307 870.863 511.307C863.962 511.307 860.512 513.423 860.512 517.654C860.512 519.152 860.967 520.372 861.879 521.316C862.79 522.228 864.402 522.944 866.713 523.465L879.359 526.004C882.517 526.622 884.942 527.745 886.635 529.373C888.36 531.001 889.223 533.491 889.223 536.844C889.223 540.49 887.774 543.24 884.877 545.096C882.012 546.919 878.155 547.83 873.305 547.83C870.245 547.83 867.396 547.374 864.76 546.463C862.156 545.551 859.958 544.07 858.168 542.02V544.949C858.168 545.633 857.989 546.154 857.631 546.512C857.305 546.837 856.898 547 856.41 547C855.889 547 855.434 546.821 855.043 546.463C854.652 546.105 854.457 545.649 854.457 545.096L854.555 534.061C854.555 533.214 854.734 532.579 855.092 532.156C855.45 531.733 855.857 531.521 856.312 531.521C856.866 531.521 857.289 531.684 857.582 532.01C857.908 532.335 858.07 533.019 858.07 534.061C858.07 535.883 858.721 537.544 860.023 539.041C861.358 540.538 863.165 541.71 865.443 542.557C867.722 543.403 870.245 543.826 873.012 543.826C876.723 543.826 879.555 543.257 881.508 542.117C883.493 540.945 884.486 539.171 884.486 536.795C884.486 535.135 884.047 533.8 883.168 532.791C882.289 531.749 880.808 531.033 878.725 530.643L865.736 528.104C862.481 527.485 859.958 526.395 858.168 524.832ZM915.15 538.211C913.295 535.086 912.367 531.391 912.367 527.127C912.367 523.09 913.327 519.575 915.248 516.58C917.201 513.585 919.805 511.29 923.061 509.695C926.348 508.1 929.978 507.303 933.949 507.303C937.335 507.303 940.346 507.938 942.982 509.207C945.652 510.444 947.735 512.283 949.232 514.725C950.762 517.166 951.527 520.128 951.527 523.611C951.527 524.848 951.186 525.874 950.502 526.688C949.818 527.469 948.907 527.859 947.768 527.859L917.055 528.104C917.217 533.247 918.845 537.153 921.938 539.822C925.03 542.492 929.083 543.826 934.096 543.826C936.537 543.826 938.93 543.387 941.273 542.508C943.65 541.596 945.766 540.262 947.621 538.504C948.305 537.951 948.972 537.674 949.623 537.674C950.209 537.674 950.681 537.885 951.039 538.309C951.397 538.732 951.576 539.236 951.576 539.822C951.576 540.538 951.283 541.222 950.697 541.873C949.005 543.696 946.563 545.145 943.373 546.219C940.215 547.293 937.253 547.83 934.486 547.83C930.124 547.83 926.267 547 922.914 545.34C919.594 543.68 917.006 541.303 915.15 538.211ZM944.35 515.164C942.559 512.592 939.125 511.307 934.047 511.307C929.294 511.307 925.437 512.462 922.475 514.773C919.545 517.085 917.787 520.324 917.201 524.49L947.377 524.295C947.149 520.779 946.14 517.736 944.35 515.164Z" fill="white"/>
<path d="M386.443 386.683C386.232 386.894 385.939 387 385.564 387H376.946C376.556 387 376.246 386.894 376.019 386.683C375.807 386.471 375.701 386.219 375.701 385.926C375.701 385.649 375.807 385.413 376.019 385.218C376.23 385.006 376.523 384.9 376.897 384.9H380.145V363.025L373.87 377.479C373.707 377.853 373.479 378.146 373.187 378.357C372.894 378.553 372.584 378.65 372.259 378.65C371.95 378.65 371.665 378.569 371.404 378.406C371.144 378.227 370.94 377.959 370.794 377.601L364.275 363.123V384.9H367.205C367.596 384.9 367.897 385.006 368.108 385.218C368.32 385.413 368.426 385.649 368.426 385.926C368.426 386.219 368.312 386.471 368.084 386.683C367.872 386.894 367.571 387 367.181 387H358.709C358.318 387 358.017 386.902 357.806 386.707C357.594 386.495 357.488 386.243 357.488 385.95C357.488 385.674 357.594 385.429 357.806 385.218C358.017 385.006 358.31 384.9 358.685 384.9H361.932V360.511H359.026C358.652 360.511 358.359 360.413 358.147 360.218C357.936 360.006 357.83 359.762 357.83 359.485C357.83 359.192 357.936 358.94 358.147 358.729C358.375 358.517 358.676 358.411 359.051 358.411H363.885C364.373 358.411 364.747 358.696 365.008 359.266L372.356 375.452L379.437 359.144C379.518 358.932 379.656 358.761 379.852 358.631C380.047 358.484 380.275 358.411 380.535 358.411H385.223C385.613 358.411 385.914 358.517 386.126 358.729C386.354 358.94 386.468 359.192 386.468 359.485C386.468 359.762 386.354 360.006 386.126 360.218C385.914 360.413 385.621 360.511 385.247 360.511H382.488V384.9H385.613C385.988 384.9 386.272 385.006 386.468 385.218C386.679 385.413 386.785 385.649 386.785 385.926C386.785 386.219 386.671 386.471 386.443 386.683ZM407.146 375.525V375.037C407.146 373.133 406.772 371.676 406.023 370.667C405.291 369.658 404.013 369.153 402.19 369.153C401.165 369.153 400.221 369.243 399.358 369.422C398.512 369.585 397.658 369.861 396.795 370.252C396.73 371.505 396.583 372.449 396.355 373.084C396.128 373.719 395.737 374.036 395.184 374.036C394.712 374.036 394.345 373.873 394.085 373.548C393.841 373.222 393.719 372.799 393.719 372.278C393.719 371.302 394.077 370.423 394.793 369.642C395.509 368.86 396.51 368.25 397.796 367.811C399.082 367.371 400.555 367.151 402.215 367.151C404.087 367.151 405.551 367.501 406.609 368.201C407.684 368.901 408.432 369.91 408.855 371.229C409.279 372.531 409.49 374.174 409.49 376.16V383.777C409.49 384.347 409.604 384.738 409.832 384.949C410.06 385.145 410.369 385.242 410.76 385.242C411.183 385.242 411.631 385.12 412.103 384.876C412.575 384.616 412.949 384.339 413.226 384.046C413.405 383.851 413.6 383.753 413.812 383.753C414.056 383.753 414.267 383.859 414.446 384.07C414.625 384.282 414.715 384.518 414.715 384.778C414.715 385.022 414.633 385.226 414.471 385.389C413.95 385.942 413.348 386.382 412.664 386.707C411.997 387.016 411.297 387.171 410.564 387.171C409.734 387.171 409.035 386.976 408.465 386.585C407.895 386.178 407.513 385.397 407.317 384.241C406.52 385.136 405.397 385.885 403.948 386.487C402.516 387.09 400.953 387.391 399.261 387.391C397.438 387.391 396.014 386.894 394.988 385.901C393.963 384.892 393.45 383.549 393.45 381.873C393.45 380.18 393.987 378.903 395.062 378.04C396.136 377.177 397.454 376.608 399.017 376.331C400.595 376.054 402.711 375.826 405.364 375.647L407.146 375.525ZM403.753 384.607C405.136 384.054 406.268 383.313 407.146 382.386V377.21L406.146 377.308C403.476 377.568 401.474 377.82 400.14 378.064C398.821 378.292 397.771 378.699 396.99 379.285C396.209 379.871 395.818 380.734 395.818 381.873C395.818 383.11 396.152 384.013 396.819 384.583C397.503 385.136 398.406 385.413 399.529 385.413C400.978 385.413 402.386 385.145 403.753 384.607ZM423.382 382.605C422.47 381.043 422.015 379.196 422.015 377.063C422.015 375.045 422.503 373.287 423.479 371.79C424.472 370.293 425.807 369.145 427.483 368.348C429.16 367.55 431.015 367.151 433.05 367.151C435.621 367.151 437.664 367.64 439.178 368.616C440.691 369.593 441.448 371.131 441.448 373.23C441.448 373.816 441.318 374.288 441.058 374.646C440.813 375.005 440.455 375.184 439.983 375.184C439.511 375.184 439.186 374.891 439.007 374.305C438.828 373.702 438.657 372.685 438.494 371.253L438.372 370.252C437.558 369.845 436.744 369.56 435.931 369.397C435.133 369.235 434.295 369.153 433.416 369.153C431.528 369.153 429.9 369.471 428.533 370.105C427.182 370.74 426.149 371.652 425.433 372.84C424.716 374.012 424.358 375.42 424.358 377.063C424.358 379.814 425.115 381.897 426.629 383.313C428.159 384.713 430.21 385.413 432.781 385.413C434.279 385.413 435.532 385.21 436.541 384.803C437.55 384.396 438.559 383.729 439.568 382.801C439.845 382.54 440.179 382.41 440.569 382.41C440.813 382.41 441.017 382.492 441.18 382.654C441.342 382.817 441.424 383.069 441.424 383.411C441.424 383.769 441.277 384.111 440.984 384.437C440.138 385.364 438.934 386.097 437.371 386.634C435.825 387.155 434.36 387.415 432.977 387.415C430.812 387.415 428.899 387 427.239 386.17C425.579 385.34 424.293 384.152 423.382 382.605ZM469.695 384.998V373.816C469.695 372.335 469.321 371.188 468.572 370.374C467.84 369.56 466.749 369.153 465.301 369.153C463.82 369.153 462.477 369.446 461.272 370.032C460.084 370.602 459.157 371.334 458.489 372.229C457.822 373.125 457.488 374.004 457.488 374.866V384.998H460.052C460.426 384.998 460.711 385.096 460.906 385.291C461.118 385.486 461.224 385.714 461.224 385.975C461.224 386.251 461.11 386.495 460.882 386.707C460.67 386.902 460.377 387 460.003 387H452.605C452.247 387 451.971 386.894 451.775 386.683C451.58 386.471 451.482 386.227 451.482 385.95C451.482 385.69 451.572 385.47 451.751 385.291C451.93 385.096 452.182 384.998 452.508 384.998H455.145V360.364L451.531 360.584C451.255 360.6 451.027 360.527 450.848 360.364C450.669 360.185 450.579 359.965 450.579 359.705C450.579 359.477 450.644 359.257 450.774 359.046C450.921 358.834 451.124 358.72 451.385 358.704L455.999 358.24C456.259 358.208 456.422 358.191 456.487 358.191C457.155 358.191 457.488 358.509 457.488 359.144V371.399C457.895 370.602 458.489 369.886 459.271 369.251C460.052 368.6 460.955 368.087 461.98 367.713C463.022 367.339 464.088 367.151 465.179 367.151C467.474 367.151 469.191 367.745 470.33 368.934C471.469 370.122 472.039 371.806 472.039 373.987V384.998H474.7C475.009 384.998 475.245 385.096 475.408 385.291C475.587 385.486 475.677 385.714 475.677 385.975C475.677 386.251 475.587 386.495 475.408 386.707C475.229 386.902 474.977 387 474.651 387H466.229C465.87 387 465.594 386.894 465.398 386.683C465.203 386.471 465.105 386.227 465.105 385.95C465.105 385.69 465.195 385.47 465.374 385.291C465.553 385.096 465.805 384.998 466.131 384.998H469.695ZM493.548 361.854C493.157 361.463 492.962 360.991 492.962 360.438C492.962 359.868 493.157 359.388 493.548 358.997C493.955 358.606 494.435 358.411 494.988 358.411C495.542 358.411 496.014 358.606 496.404 358.997C496.795 359.388 496.99 359.868 496.99 360.438C496.99 360.991 496.795 361.463 496.404 361.854C496.03 362.244 495.558 362.439 494.988 362.439C494.419 362.439 493.938 362.244 493.548 361.854ZM505.462 386.707C505.283 386.902 505.039 387 504.729 387H485.296C484.938 387 484.661 386.894 484.466 386.683C484.271 386.471 484.173 386.227 484.173 385.95C484.173 385.69 484.262 385.47 484.441 385.291C484.62 385.096 484.873 384.998 485.198 384.998H494.28V369.446L486.15 370.545L485.979 370.569C485.67 370.569 485.426 370.472 485.247 370.276C485.068 370.065 484.979 369.821 484.979 369.544C484.979 369.3 485.044 369.088 485.174 368.909C485.304 368.714 485.499 368.6 485.76 368.567L495.477 367.225C495.525 367.208 495.615 367.2 495.745 367.2C496.006 367.2 496.217 367.273 496.38 367.42C496.543 367.55 496.624 367.737 496.624 367.981V384.998H504.754C505.063 384.998 505.299 385.104 505.462 385.315C505.641 385.511 505.73 385.739 505.73 385.999C505.73 386.276 505.641 386.512 505.462 386.707ZM530.193 384.998V373.816C530.193 372.335 529.819 371.188 529.07 370.374C528.338 369.56 527.247 369.153 525.799 369.153C524.318 369.153 522.975 369.438 521.771 370.008C520.582 370.577 519.655 371.294 518.987 372.156C518.32 373.019 517.986 373.873 517.986 374.72V384.998H520.55C520.924 384.998 521.209 385.096 521.404 385.291C521.616 385.486 521.722 385.714 521.722 385.975C521.722 386.251 521.608 386.495 521.38 386.707C521.168 386.902 520.875 387 520.501 387H513.104C512.745 387 512.469 386.894 512.273 386.683C512.078 386.471 511.98 386.227 511.98 385.95C511.98 385.69 512.07 385.47 512.249 385.291C512.428 385.096 512.68 384.998 513.006 384.998H515.643V369.69L513.006 370.228C512.843 370.276 512.68 370.301 512.518 370.301C512.241 370.301 512.013 370.211 511.834 370.032C511.655 369.853 511.565 369.633 511.565 369.373C511.565 369.145 511.631 368.942 511.761 368.763C511.891 368.567 512.094 368.437 512.371 368.372L516.375 367.566C516.603 367.534 516.749 367.518 516.814 367.518C517.417 367.518 517.734 367.835 517.767 368.47L517.889 371.399C518.296 370.602 518.898 369.886 519.695 369.251C520.493 368.6 521.412 368.087 522.454 367.713C523.496 367.339 524.57 367.151 525.677 367.151C527.972 367.151 529.689 367.745 530.828 368.934C531.967 370.122 532.537 371.806 532.537 373.987V384.998H535.198C535.507 384.998 535.743 385.096 535.906 385.291C536.085 385.486 536.175 385.714 536.175 385.975C536.175 386.251 536.085 386.495 535.906 386.707C535.727 386.902 535.475 387 535.149 387H526.727C526.368 387 526.092 386.894 525.896 386.683C525.701 386.471 525.604 386.227 525.604 385.95C525.604 385.69 525.693 385.47 525.872 385.291C526.051 385.096 526.303 384.998 526.629 384.998H530.193ZM545.208 382.605C544.28 381.043 543.816 379.196 543.816 377.063C543.816 375.045 544.297 373.287 545.257 371.79C546.233 370.293 547.535 369.145 549.163 368.348C550.807 367.55 552.622 367.151 554.607 367.151C556.3 367.151 557.806 367.469 559.124 368.104C560.459 368.722 561.5 369.642 562.249 370.862C563.014 372.083 563.396 373.564 563.396 375.306C563.396 375.924 563.226 376.437 562.884 376.844C562.542 377.234 562.086 377.43 561.517 377.43L546.16 377.552C546.242 380.123 547.055 382.076 548.602 383.411C550.148 384.746 552.174 385.413 554.681 385.413C555.901 385.413 557.098 385.193 558.27 384.754C559.458 384.298 560.516 383.631 561.443 382.752C561.785 382.475 562.119 382.337 562.444 382.337C562.737 382.337 562.973 382.443 563.152 382.654C563.331 382.866 563.421 383.118 563.421 383.411C563.421 383.769 563.274 384.111 562.981 384.437C562.135 385.348 560.914 386.072 559.319 386.609C557.741 387.146 556.259 387.415 554.876 387.415C552.695 387.415 550.766 387 549.09 386.17C547.43 385.34 546.136 384.152 545.208 382.605ZM559.808 371.082C558.912 369.796 557.195 369.153 554.656 369.153C552.28 369.153 550.351 369.731 548.87 370.887C547.405 372.042 546.526 373.662 546.233 375.745L561.321 375.647C561.207 373.89 560.703 372.368 559.808 371.082ZM602.361 358.729C602.589 358.517 602.89 358.411 603.265 358.411H614.812C615.203 358.411 615.504 358.517 615.716 358.729C615.944 358.94 616.058 359.192 616.058 359.485C616.058 359.762 615.944 360.006 615.716 360.218C615.504 360.413 615.211 360.511 614.837 360.511H611.126V384.9H622.283C622.592 384.868 622.828 384.795 622.991 384.681C623.154 384.567 623.252 384.339 623.284 383.997L624.114 377.259C624.163 376.917 624.301 376.657 624.529 376.478C624.757 376.299 625.026 376.209 625.335 376.209C625.677 376.209 625.97 376.315 626.214 376.526C626.458 376.738 626.58 377.031 626.58 377.405V377.552L625.848 385.389C625.783 385.861 625.595 386.251 625.286 386.561C624.993 386.854 624.594 387 624.09 387H602.239C601.849 387 601.539 386.902 601.312 386.707C601.1 386.495 600.994 386.243 600.994 385.95C600.994 385.674 601.1 385.429 601.312 385.218C601.539 385.006 601.84 384.9 602.215 384.9H608.782V360.511H603.24C602.866 360.511 602.573 360.413 602.361 360.218C602.15 360.006 602.044 359.762 602.044 359.485C602.044 359.192 602.15 358.94 602.361 358.729ZM636.028 382.605C635.101 381.043 634.637 379.196 634.637 377.063C634.637 375.045 635.117 373.287 636.077 371.79C637.054 370.293 638.356 369.145 639.983 368.348C641.627 367.55 643.442 367.151 645.428 367.151C647.12 367.151 648.626 367.469 649.944 368.104C651.279 368.722 652.321 369.642 653.069 370.862C653.834 372.083 654.217 373.564 654.217 375.306C654.217 375.924 654.046 376.437 653.704 376.844C653.362 377.234 652.907 377.43 652.337 377.43L636.98 377.552C637.062 380.123 637.876 382.076 639.422 383.411C640.968 384.746 642.994 385.413 645.501 385.413C646.722 385.413 647.918 385.193 649.09 384.754C650.278 384.298 651.336 383.631 652.264 382.752C652.605 382.475 652.939 382.337 653.265 382.337C653.558 382.337 653.794 382.443 653.973 382.654C654.152 382.866 654.241 383.118 654.241 383.411C654.241 383.769 654.095 384.111 653.802 384.437C652.955 385.348 651.735 386.072 650.14 386.609C648.561 387.146 647.08 387.415 645.696 387.415C643.515 387.415 641.587 387 639.91 386.17C638.25 385.34 636.956 384.152 636.028 382.605ZM650.628 371.082C649.733 369.796 648.016 369.153 645.477 369.153C643.1 369.153 641.172 369.731 639.69 370.887C638.226 372.042 637.347 373.662 637.054 375.745L652.142 375.647C652.028 373.89 651.523 372.368 650.628 371.082ZM679.607 375.525V375.037C679.607 373.133 679.233 371.676 678.484 370.667C677.752 369.658 676.474 369.153 674.651 369.153C673.626 369.153 672.682 369.243 671.819 369.422C670.973 369.585 670.118 369.861 669.256 370.252C669.191 371.505 669.044 372.449 668.816 373.084C668.589 373.719 668.198 374.036 667.645 374.036C667.173 374.036 666.806 373.873 666.546 373.548C666.302 373.222 666.18 372.799 666.18 372.278C666.18 371.302 666.538 370.423 667.254 369.642C667.97 368.86 668.971 368.25 670.257 367.811C671.543 367.371 673.016 367.151 674.676 367.151C676.548 367.151 678.012 367.501 679.07 368.201C680.145 368.901 680.893 369.91 681.316 371.229C681.74 372.531 681.951 374.174 681.951 376.16V383.777C681.951 384.347 682.065 384.738 682.293 384.949C682.521 385.145 682.83 385.242 683.221 385.242C683.644 385.242 684.091 385.12 684.563 384.876C685.035 384.616 685.41 384.339 685.687 384.046C685.866 383.851 686.061 383.753 686.272 383.753C686.517 383.753 686.728 383.859 686.907 384.07C687.086 384.282 687.176 384.518 687.176 384.778C687.176 385.022 687.094 385.226 686.932 385.389C686.411 385.942 685.809 386.382 685.125 386.707C684.458 387.016 683.758 387.171 683.025 387.171C682.195 387.171 681.495 386.976 680.926 386.585C680.356 386.178 679.974 385.397 679.778 384.241C678.981 385.136 677.858 385.885 676.409 386.487C674.977 387.09 673.414 387.391 671.722 387.391C669.899 387.391 668.475 386.894 667.449 385.901C666.424 384.892 665.911 383.549 665.911 381.873C665.911 380.18 666.448 378.903 667.522 378.04C668.597 377.177 669.915 376.608 671.478 376.331C673.056 376.054 675.172 375.826 677.825 375.647L679.607 375.525ZM676.214 384.607C677.597 384.054 678.729 383.313 679.607 382.386V377.21L678.606 377.308C675.937 377.568 673.935 377.82 672.601 378.064C671.282 378.292 670.232 378.699 669.451 379.285C668.67 379.871 668.279 380.734 668.279 381.873C668.279 383.11 668.613 384.013 669.28 384.583C669.964 385.136 670.867 385.413 671.99 385.413C673.439 385.413 674.847 385.145 676.214 384.607ZM712.811 373.035C712.583 372.807 712.469 372.49 712.469 372.083V369.153C710.288 369.153 708.359 369.585 706.683 370.447C705.006 371.294 703.842 372.531 703.191 374.158V384.998H711.395C711.704 384.998 711.94 385.096 712.103 385.291C712.282 385.486 712.371 385.722 712.371 385.999C712.371 386.259 712.282 386.495 712.103 386.707C711.924 386.902 711.679 387 711.37 387H696.478C696.119 387 695.843 386.902 695.647 386.707C695.452 386.495 695.354 386.251 695.354 385.975C695.354 385.714 695.444 385.486 695.623 385.291C695.802 385.096 696.054 384.998 696.38 384.998H700.848V369.69L697.869 370.301C697.804 370.317 697.706 370.325 697.576 370.325C697.267 370.325 697.023 370.228 696.844 370.032C696.681 369.837 696.6 369.609 696.6 369.349C696.6 369.121 696.665 368.925 696.795 368.763C696.925 368.584 697.104 368.47 697.332 368.421L701.507 367.591C701.718 367.542 701.906 367.518 702.068 367.518C702.426 367.518 702.662 367.632 702.776 367.859C702.907 368.087 702.98 368.429 702.996 368.885L703.094 371.424C704.949 368.576 708.139 367.151 712.664 367.151C713.445 367.151 713.999 367.273 714.324 367.518C714.65 367.762 714.812 368.128 714.812 368.616V371.985C714.812 372.425 714.69 372.767 714.446 373.011C714.218 373.239 713.942 373.353 713.616 373.353C713.307 373.353 713.038 373.247 712.811 373.035ZM742.107 384.998V373.816C742.107 372.335 741.733 371.188 740.984 370.374C740.252 369.56 739.161 369.153 737.713 369.153C736.232 369.153 734.889 369.438 733.685 370.008C732.496 370.577 731.569 371.294 730.901 372.156C730.234 373.019 729.9 373.873 729.9 374.72V384.998H732.464C732.838 384.998 733.123 385.096 733.318 385.291C733.53 385.486 733.636 385.714 733.636 385.975C733.636 386.251 733.522 386.495 733.294 386.707C733.082 386.902 732.789 387 732.415 387H725.018C724.66 387 724.383 386.894 724.188 386.683C723.992 386.471 723.895 386.227 723.895 385.95C723.895 385.69 723.984 385.47 724.163 385.291C724.342 385.096 724.594 384.998 724.92 384.998H727.557V369.69L724.92 370.228C724.757 370.276 724.594 370.301 724.432 370.301C724.155 370.301 723.927 370.211 723.748 370.032C723.569 369.853 723.479 369.633 723.479 369.373C723.479 369.145 723.545 368.942 723.675 368.763C723.805 368.567 724.008 368.437 724.285 368.372L728.289 367.566C728.517 367.534 728.663 367.518 728.729 367.518C729.331 367.518 729.648 367.835 729.681 368.47L729.803 371.399C730.21 370.602 730.812 369.886 731.609 369.251C732.407 368.6 733.326 368.087 734.368 367.713C735.41 367.339 736.484 367.151 737.591 367.151C739.886 367.151 741.603 367.745 742.742 368.934C743.882 370.122 744.451 371.806 744.451 373.987V384.998H747.112C747.422 384.998 747.658 385.096 747.82 385.291C747.999 385.486 748.089 385.714 748.089 385.975C748.089 386.251 747.999 386.495 747.82 386.707C747.641 386.902 747.389 387 747.063 387H738.641C738.283 387 738.006 386.894 737.811 386.683C737.615 386.471 737.518 386.227 737.518 385.95C737.518 385.69 737.607 385.47 737.786 385.291C737.965 385.096 738.217 384.998 738.543 384.998H742.107ZM766.009 361.854C765.618 361.463 765.423 360.991 765.423 360.438C765.423 359.868 765.618 359.388 766.009 358.997C766.416 358.606 766.896 358.411 767.449 358.411C768.003 358.411 768.475 358.606 768.865 358.997C769.256 359.388 769.451 359.868 769.451 360.438C769.451 360.991 769.256 361.463 768.865 361.854C768.491 362.244 768.019 362.439 767.449 362.439C766.88 362.439 766.399 362.244 766.009 361.854ZM777.923 386.707C777.744 386.902 777.5 387 777.19 387H757.757C757.399 387 757.122 386.894 756.927 386.683C756.731 386.471 756.634 386.227 756.634 385.95C756.634 385.69 756.723 385.47 756.902 385.291C757.081 385.096 757.334 384.998 757.659 384.998H766.741V369.446L758.611 370.545L758.44 370.569C758.131 370.569 757.887 370.472 757.708 370.276C757.529 370.065 757.439 369.821 757.439 369.544C757.439 369.3 757.505 369.088 757.635 368.909C757.765 368.714 757.96 368.6 758.221 368.567L767.938 367.225C767.986 367.208 768.076 367.2 768.206 367.2C768.466 367.2 768.678 367.273 768.841 367.42C769.004 367.55 769.085 367.737 769.085 367.981V384.998H777.215C777.524 384.998 777.76 385.104 777.923 385.315C778.102 385.511 778.191 385.739 778.191 385.999C778.191 386.276 778.102 386.512 777.923 386.707ZM802.654 384.998V373.816C802.654 372.335 802.28 371.188 801.531 370.374C800.799 369.56 799.708 369.153 798.26 369.153C796.779 369.153 795.436 369.438 794.231 370.008C793.043 370.577 792.116 371.294 791.448 372.156C790.781 373.019 790.447 373.873 790.447 374.72V384.998H793.011C793.385 384.998 793.67 385.096 793.865 385.291C794.077 385.486 794.183 385.714 794.183 385.975C794.183 386.251 794.069 386.495 793.841 386.707C793.629 386.902 793.336 387 792.962 387H785.564C785.206 387 784.93 386.894 784.734 386.683C784.539 386.471 784.441 386.227 784.441 385.95C784.441 385.69 784.531 385.47 784.71 385.291C784.889 385.096 785.141 384.998 785.467 384.998H788.104V369.69L785.467 370.228C785.304 370.276 785.141 370.301 784.979 370.301C784.702 370.301 784.474 370.211 784.295 370.032C784.116 369.853 784.026 369.633 784.026 369.373C784.026 369.145 784.091 368.942 784.222 368.763C784.352 368.567 784.555 368.437 784.832 368.372L788.836 367.566C789.064 367.534 789.21 367.518 789.275 367.518C789.878 367.518 790.195 367.835 790.228 368.47L790.35 371.399C790.757 370.602 791.359 369.886 792.156 369.251C792.954 368.6 793.873 368.087 794.915 367.713C795.957 367.339 797.031 367.151 798.138 367.151C800.433 367.151 802.15 367.745 803.289 368.934C804.428 370.122 804.998 371.806 804.998 373.987V384.998H807.659C807.968 384.998 808.204 385.096 808.367 385.291C808.546 385.486 808.636 385.714 808.636 385.975C808.636 386.251 808.546 386.495 808.367 386.707C808.188 386.902 807.936 387 807.61 387H799.188C798.829 387 798.553 386.894 798.357 386.683C798.162 386.471 798.064 386.227 798.064 385.95C798.064 385.69 798.154 385.47 798.333 385.291C798.512 385.096 798.764 384.998 799.09 384.998H802.654ZM821.453 381.189C821.046 381.548 820.843 381.938 820.843 382.361C820.843 382.768 820.932 383.118 821.111 383.411C821.29 383.688 821.64 383.916 822.161 384.095C822.698 384.257 823.471 384.339 824.48 384.339H826.751C828.753 384.339 830.364 384.485 831.585 384.778C832.806 385.055 833.742 385.584 834.393 386.365C835.044 387.146 835.369 388.286 835.369 389.783C835.369 391.053 834.897 392.119 833.953 392.981C833.025 393.844 831.797 394.487 830.267 394.91C828.753 395.333 827.125 395.545 825.384 395.545C823.187 395.545 821.388 395.162 819.988 394.397C818.589 393.649 817.889 392.379 817.889 390.589C817.889 389.417 818.157 388.392 818.694 387.513C819.231 386.65 819.931 386.007 820.794 385.584C820.029 385.21 819.451 384.786 819.061 384.314C818.686 383.826 818.499 383.216 818.499 382.483C818.499 381.897 818.694 381.344 819.085 380.823C819.476 380.286 819.948 379.855 820.501 379.529C821.054 379.188 821.567 378.984 822.039 378.919C820.639 378.349 819.59 377.674 818.89 376.893C818.19 376.095 817.84 375.029 817.84 373.694C817.84 372.262 818.19 371.058 818.89 370.081C819.606 369.088 820.558 368.356 821.746 367.884C822.951 367.396 824.277 367.151 825.726 367.151C826.832 367.151 827.89 367.314 828.899 367.64C829.909 367.965 830.796 368.445 831.561 369.08L835.271 366.614C836.281 365.931 837.265 365.589 838.226 365.589C839.17 365.589 839.642 366.004 839.642 366.834C839.642 367.208 839.381 367.509 838.86 367.737C838.356 367.965 837.534 368.079 836.395 368.079L832.269 369.886C833.196 371.041 833.66 372.352 833.66 373.816C833.66 375.949 832.977 377.511 831.609 378.504C830.258 379.497 828.208 379.993 825.457 379.993C824.627 379.993 823.854 380.099 823.138 380.311C822.438 380.522 821.876 380.815 821.453 381.189ZM821.673 377.063C822.682 377.812 823.968 378.187 825.53 378.187C827.239 378.187 828.631 377.869 829.705 377.234C830.779 376.6 831.316 375.509 831.316 373.963C831.316 372.303 830.787 371.09 829.729 370.325C828.672 369.544 827.321 369.153 825.677 369.153C824.065 369.153 822.747 369.536 821.722 370.301C820.696 371.066 820.184 372.221 820.184 373.768C820.184 375.2 820.68 376.299 821.673 377.063ZM830.56 386.438C829.681 386.211 828.436 386.097 826.824 386.097H822.332C822.023 386.211 821.705 386.495 821.38 386.951C821.054 387.391 820.778 387.887 820.55 388.44C820.338 389.01 820.232 389.523 820.232 389.979C820.232 391.329 820.639 392.257 821.453 392.762C822.283 393.283 823.577 393.543 825.335 393.543C827.386 393.543 829.176 393.25 830.706 392.664C832.252 392.078 833.025 391.15 833.025 389.881C833.025 388.872 832.83 388.099 832.439 387.562C832.065 387.024 831.438 386.65 830.56 386.438Z" fill="#EE4C2C"/>
<defs>
<linearGradient id="paint0_linear_0_1" x1="0" y1="0" x2="1200" y2="675" gradientUnits="userSpaceOnUse">
<stop stop-color="#3D3D3D"/>
<stop offset="1"/>
</linearGradient>
<clipPath id="clip0_0_1">
<rect width="173" height="181" fill="white" transform="translate(496 93)"/>
</clipPath>
</defs>
</svg>
