<svg data-v-fde0c5aa="" xmlns="http://www.w3.org/2000/svg" viewBox="0 0 300 300" class="iconLeftSlogan"><!----><defs data-v-fde0c5aa=""><!----></defs><rect data-v-fde0c5aa="" fill="transparent" x="0" y="0" width="300px" height="300px" class="logo-background-square"></rect><defs data-v-fde0c5aa=""><!----></defs><g data-v-fde0c5aa="" id="dc55ea93-cdb2-4109-81a3-b87c476d9976" fill="#000000" transform="matrix(3.49536611583523,0,0,3.49536611583523,116.13073370565311,103.28118021985844)"><path d="M7.32 14.35L7.32 13.03L2.77 13.03L2.77 10.05L7.15 10.05L7.15 8.74L2.77 8.74L2.77 5.89L7.32 5.89L7.32 4.58L1.20 4.58L1.20 14.35ZM15.72 14.35L15.72 13.12L11.19 13.12L15.58 8.47L15.58 7.13L9.63 7.13L9.63 8.36L13.87 8.36L9.48 13.01L9.48 14.35ZM17.91 17.15L19.43 17.15L19.43 13.12L19.52 13.12C19.94 13.99 20.64 14.52 21.70 14.52C23.39 14.52 24.49 13.22 24.49 10.74C24.49 8.26 23.39 6.96 21.70 6.96C20.64 6.96 19.94 7.49 19.52 8.36L19.43 8.36L19.43 7.13L17.91 7.13ZM21.07 13.27C20.19 13.27 19.43 12.82 19.43 11.94L19.43 9.53C19.43 8.65 20.19 8.20 21.07 8.20C22.22 8.20 22.88 8.97 22.88 10.15L22.88 11.33C22.88 12.50 22.22 13.27 21.07 13.27ZM29.85 5.81C30.60 5.81 30.88 5.45 30.88 4.98L30.88 4.69C30.88 4.23 30.60 3.86 29.83 3.86C29.08 3.86 28.80 4.23 28.80 4.69L28.80 4.98C28.80 5.45 29.08 5.81 29.85 5.81ZM26.61 14.35L32.91 14.35L32.91 13.12L30.60 13.12L30.60 7.13L26.61 7.13L26.61 8.36L29.08 8.36L29.08 13.12L26.61 13.12ZM37.95 14.52C39.44 14.52 40.45 13.86 40.94 13.02L39.98 12.18C39.58 12.85 38.91 13.29 37.98 13.29C36.74 13.29 35.98 12.49 35.98 11.35L35.98 11.12L41.16 11.12L41.16 10.54C41.16 8.41 39.87 6.96 37.84 6.96C35.78 6.96 34.44 8.43 34.44 10.75C34.44 13.05 35.74 14.52 37.95 14.52ZM37.84 8.12C38.91 8.12 39.61 8.86 39.61 10.00L39.61 10.14L35.98 10.14L35.98 10.04C35.98 8.92 36.75 8.12 37.84 8.12Z"></path></g><defs data-v-fde0c5aa=""><linearGradient data-v-fde0c5aa="" gradientTransform="rotate(25)" id="2e8a66e6-79e0-4c91-ac2f-75fa76440d15" x1="0%" y1="0%" x2="100%" y2="0%"><stop data-v-fde0c5aa="" offset="0%" stop-color="#5106FF" stop-opacity="1"></stop><stop data-v-fde0c5aa="" offset="100%" stop-color="#61CBF2" stop-opacity="1"></stop></linearGradient></defs><g data-v-fde0c5aa="" id="d0451fe9-d472-441b-9371-557cc77b1a4c" stroke="none" fill="url(#2e8a66e6-79e0-4c91-ac2f-75fa76440d15)" transform="matrix(0.8895327520502232,0,0,0.8895327520502232,28.451196456583457,105.60653213531518)"><g clip-rule="evenodd"><path d="M12.983 10.59l17.018 88.223-5.872-59.049 29.021-1.892-.054-9.883L64.549 1 53.622 18.977z"></path><path d="M59.389 54.548l5.16-53.541-8.74 39.716-19.612 1.045 1.57 20.462-7.766 36.583 12.057-39.899z"></path><path d="M62.8 67.182l.549-10.453-15.979 3.755-.032 11.797-17.337 26.532 21.68-27.616zM65.711 62.394l14.841-4.731 1.509-12.532-15.899 2.095zM72.07 44.502l10.988-1.417 1.581-10.278-8.079-.373L64.549 1l8.43 30.967z"></path><path d="M87.413 31.294l1.256-9.506-9.544-2.694L64.549 1l14.483 22.437-.422 7z"></path></g></g><defs data-v-fde0c5aa=""><!----></defs><g data-v-fde0c5aa="" id="c563425b-84c5-4550-a148-416e9f316a9a" fill="#000000" transform="matrix(0.5657370777835111,0,0,0.5657370777835111,120.0309899416706,171.58606852681075)"><path d="M0.52 3.51C0.52 3.72 0.59 3.79 0.78 3.79L1.60 3.77C1.69 3.77 1.74 6.61 1.74 8.55L1.74 10.42C1.74 11.30 1.72 12.18 1.68 12.18L1.08 12.18C0.85 12.18 0.78 12.19 0.78 12.39C0.78 12.63 0.83 12.68 1.02 12.68C1.15 12.68 1.97 12.64 2.39 12.64C2.81 12.64 3.58 12.68 3.91 12.68C4.07 12.68 4.10 12.61 4.10 12.40C4.10 12.24 4.07 12.18 3.91 12.18L3.09 12.18C3.02 12.18 2.94 9.18 2.94 8.37C2.94 8.30 2.94 8.26 3.05 8.26C3.44 8.26 4.05 8.27 4.34 8.27C6.58 8.32 6.72 10.00 6.72 11.68L6.72 12.49C6.72 12.61 6.78 12.64 6.87 12.64C6.87 12.64 8.32 12.68 8.79 12.68C8.96 12.68 9.02 12.64 9.02 12.53C9.02 12.24 8.96 12.18 8.81 12.18L8.16 12.18C8.06 12.18 8.04 12.14 8.01 11.31C7.92 8.99 6.55 8.34 5.64 8.05C5.50 8.01 5.53 8.01 5.64 7.95C6.23 7.69 7.55 6.94 7.55 5.63C7.55 3.63 5.85 3.21 4.45 3.21C4.13 3.21 2.84 3.29 2.42 3.29C2.00 3.29 1.02 3.26 0.80 3.26C0.62 3.26 0.52 3.28 0.52 3.51ZM2.94 7.80L2.94 4.40C2.94 4.05 2.97 3.68 3.01 3.68C3.22 3.65 3.50 3.65 3.72 3.65C5.03 3.65 6.27 4.47 6.27 5.82C6.27 6.99 5.73 7.57 5.07 7.88C5.03 7.90 4.98 7.90 4.91 7.90C4.44 7.88 3.72 7.88 3.12 7.87C2.95 7.87 2.94 7.85 2.94 7.80ZM16.49 12.39C16.49 12.63 16.52 12.68 16.72 12.68C17.04 12.68 18.00 12.64 18.42 12.64C18.84 12.64 23.35 12.68 23.67 12.68C23.80 12.68 23.95 12.66 23.95 12.49C23.95 12.07 24.00 11.23 24.00 10.53C24.00 10.39 23.84 10.39 23.72 10.39C23.60 10.39 23.48 10.39 23.48 10.51C23.46 11.06 23.46 11.41 23.44 11.76C23.41 12.01 23.41 12.04 23.31 12.04C23.16 12.04 20.52 12.08 19.03 12.08C18.96 12.08 18.91 10.11 18.87 8.26C18.87 8.06 18.91 8.09 19.05 8.09L21.34 8.09C22.04 8.09 22.06 8.20 22.06 8.30L22.06 9.00C22.06 9.14 22.25 9.14 22.36 9.14C22.46 9.14 22.58 9.13 22.58 9.02C22.58 8.83 22.55 8.33 22.55 7.83C22.55 7.32 22.58 6.83 22.58 6.71C22.58 6.59 22.44 6.58 22.34 6.58C22.23 6.58 22.06 6.59 22.06 6.72L22.06 7.45C22.06 7.62 21.62 7.63 21.34 7.63L19.00 7.63C18.89 7.63 18.87 7.63 18.87 7.45C18.86 6.75 18.84 6.06 18.84 5.46C18.84 5.12 18.84 3.71 18.93 3.71C20.16 3.71 22.67 3.75 22.67 3.81C22.67 3.99 22.62 4.83 22.62 4.89C22.62 5.04 22.69 5.10 22.88 5.10C23.07 5.10 23.14 5.08 23.14 4.94C23.14 3.85 23.20 3.36 23.20 3.09C23.20 2.91 23.11 2.90 22.92 2.90C22.72 2.90 22.72 2.95 22.69 3.11C22.68 3.25 22.75 3.25 21.84 3.25C21.22 3.25 19.08 3.29 18.31 3.29C17.82 3.29 16.88 3.25 16.79 3.25C16.66 3.25 16.60 3.30 16.60 3.49C16.60 3.72 16.67 3.74 16.84 3.74L17.50 3.74C17.56 3.74 17.63 4.79 17.63 5.71C17.63 5.80 17.68 8.27 17.68 9.83L17.68 11.17C17.68 11.84 17.65 12.18 17.63 12.18L16.77 12.18C16.55 12.18 16.49 12.21 16.49 12.39ZM31.82 12.39C31.82 12.63 31.82 12.68 32.02 12.68C32.19 12.68 32.51 12.64 33.08 12.64C33.70 12.64 34.24 12.68 34.40 12.68C34.57 12.68 34.57 12.61 34.57 12.40C34.57 12.24 34.57 12.18 34.40 12.18L33.32 12.18C33.32 12.18 33.31 12.18 33.31 12.17C33.32 11.87 34.09 9.90 34.44 9.02C34.51 8.83 34.52 8.79 34.73 8.79L37.56 8.79C37.70 8.79 37.70 8.81 37.77 9.03C38.04 9.77 38.75 11.89 38.75 12.17C38.75 12.18 38.74 12.18 38.74 12.18L37.97 12.18C37.74 12.18 37.73 12.19 37.73 12.39C37.73 12.63 37.74 12.68 37.91 12.68C38.23 12.68 39.10 12.64 39.52 12.64C39.94 12.64 40.61 12.68 40.82 12.68C40.96 12.68 40.98 12.61 40.98 12.40C40.98 12.24 40.96 12.18 40.82 12.18L40.33 12.18C40.24 12.18 39.21 9.34 38.65 7.78L36.97 3.07C36.96 3.00 36.89 2.94 36.81 2.94C36.68 2.94 36.58 3.16 36.50 3.35C36.34 3.71 36.11 3.84 35.99 4.13L34.51 7.57C34.33 8.01 32.62 12.18 32.49 12.18L32.07 12.18C31.85 12.18 31.82 12.19 31.82 12.39ZM34.72 8.33C34.72 8.30 34.75 8.23 34.79 8.13L36.16 4.77C36.20 4.66 36.23 4.61 36.26 4.61C36.27 4.61 36.29 4.63 36.33 4.77L37.49 8.18C37.52 8.25 37.53 8.29 37.53 8.32C37.53 8.36 37.51 8.37 37.41 8.37L34.90 8.37C34.72 8.37 34.72 8.34 34.72 8.33ZM48.66 12.46C48.66 12.63 48.68 12.70 48.86 12.70C49.01 12.70 50.25 12.64 50.64 12.64C51.49 12.64 52.37 12.70 53.23 12.70C55.85 12.70 58.24 11.07 58.24 7.91C58.24 4.89 55.90 3.07 52.86 3.07C52.30 3.07 51.04 3.23 50.01 3.23C49.53 3.23 49.07 3.22 49.01 3.22C48.83 3.22 48.82 3.32 48.82 3.49C48.82 3.68 48.89 3.70 49.01 3.70L49.98 3.67C50.01 3.67 50.01 4.20 50.01 4.72C50.01 5.91 49.92 12.21 49.84 12.21L48.94 12.21C48.76 12.21 48.66 12.22 48.66 12.46ZM51.24 11.40C51.24 9.46 51.24 7.52 51.25 5.60C51.25 5.03 51.30 3.61 51.34 3.60C51.63 3.53 52.22 3.51 52.57 3.51C55.13 3.51 56.74 5.75 56.74 7.73C56.74 8.95 56.70 12.25 52.02 12.25C51.76 12.25 51.35 12.25 51.25 12.21C51.24 12.19 51.24 11.79 51.24 11.40ZM76.01 12.39C76.01 12.63 76.01 12.68 76.20 12.68C76.37 12.68 76.69 12.64 77.27 12.64C77.88 12.64 78.43 12.68 78.58 12.68C78.75 12.68 78.75 12.61 78.75 12.40C78.75 12.24 78.75 12.18 78.58 12.18L77.50 12.18C77.50 12.18 77.49 12.18 77.49 12.17C77.50 11.87 78.27 9.90 78.62 9.02C78.69 8.83 78.71 8.79 78.92 8.79L81.75 8.79C81.89 8.79 81.89 8.81 81.96 9.03C82.22 9.77 82.94 11.89 82.94 12.17C82.94 12.18 82.92 12.18 82.92 12.18L82.15 12.18C81.93 12.18 81.91 12.19 81.91 12.39C81.91 12.63 81.93 12.68 82.10 12.68C82.42 12.68 83.29 12.64 83.71 12.64C84.13 12.64 84.80 12.68 85.01 12.68C85.15 12.68 85.16 12.61 85.16 12.40C85.16 12.24 85.15 12.18 85.01 12.18L84.52 12.18C84.42 12.18 83.40 9.34 82.84 7.78L81.16 3.07C81.14 3.00 81.07 2.94 80.99 2.94C80.86 2.94 80.77 3.16 80.68 3.35C80.53 3.71 80.29 3.84 80.18 4.13L78.69 7.57C78.51 8.01 76.80 12.18 76.68 12.18L76.26 12.18C76.03 12.18 76.01 12.19 76.01 12.39ZM78.90 8.33C78.90 8.30 78.93 8.23 78.97 8.13L80.35 4.77C80.39 4.66 80.42 4.61 80.44 4.61C80.46 4.61 80.47 4.63 80.51 4.77L81.68 8.18C81.70 8.25 81.72 8.29 81.72 8.32C81.72 8.36 81.69 8.37 81.59 8.37L79.09 8.37C78.90 8.37 78.90 8.34 78.90 8.33ZM92.92 12.39C92.92 12.63 92.95 12.68 93.14 12.68C93.46 12.68 94.43 12.64 94.85 12.64C95.27 12.64 99.62 12.68 99.95 12.68C100.21 12.68 100.28 12.66 100.30 12.49C100.35 12.08 100.59 10.72 100.59 10.60C100.59 10.47 100.44 10.44 100.27 10.43C100.17 10.42 100.09 10.46 100.07 10.56L99.90 11.76C99.86 12.05 99.85 12.03 99.62 12.04C99.47 12.05 96.96 12.12 95.54 12.12C95.49 12.12 95.45 11.38 95.45 10.54L95.45 6.66C95.45 5.40 95.47 3.70 95.56 3.70L96.54 3.70C96.78 3.70 96.81 3.63 96.81 3.44C96.81 3.23 96.80 3.19 96.56 3.19C96.24 3.19 95.30 3.23 94.88 3.23C94.46 3.23 93.52 3.19 93.30 3.19C93.07 3.19 93.02 3.22 93.02 3.44C93.02 3.65 93.06 3.70 93.25 3.70L94.08 3.70C94.12 3.70 94.15 4.23 94.15 4.90L94.15 8.13C94.15 10.07 94.12 12.18 94.04 12.18L93.20 12.18C92.97 12.18 92.92 12.21 92.92 12.39ZM108.21 12.39C108.21 12.63 108.23 12.68 108.43 12.68C108.75 12.68 109.72 12.64 110.14 12.64C110.56 12.64 114.91 12.68 115.23 12.68C115.50 12.68 115.57 12.66 115.58 12.49C115.64 12.08 115.88 10.72 115.88 10.60C115.88 10.47 115.72 10.44 115.56 10.43C115.46 10.42 115.37 10.46 115.36 10.56L115.19 11.76C115.15 12.05 115.14 12.03 114.91 12.04C114.76 12.05 112.25 12.12 110.82 12.12C110.78 12.12 110.74 11.38 110.74 10.54L110.74 6.66C110.74 5.40 110.75 3.70 110.85 3.70L111.83 3.70C112.07 3.70 112.10 3.63 112.10 3.44C112.10 3.23 112.08 3.19 111.85 3.19C111.52 3.19 110.59 3.23 110.17 3.23C109.75 3.23 108.81 3.19 108.58 3.19C108.36 3.19 108.30 3.22 108.30 3.44C108.30 3.65 108.35 3.70 108.54 3.70L109.37 3.70C109.41 3.70 109.44 4.23 109.44 4.90L109.44 8.13C109.44 10.07 109.41 12.18 109.33 12.18L108.49 12.18C108.26 12.18 108.21 12.21 108.21 12.39ZM133.15 12.39C133.15 12.63 133.15 12.68 133.35 12.68C133.52 12.68 133.84 12.64 134.41 12.64C135.03 12.64 135.58 12.68 135.73 12.68C135.90 12.68 135.90 12.61 135.90 12.40C135.90 12.24 135.90 12.18 135.73 12.18L134.65 12.18C134.65 12.18 134.64 12.18 134.64 12.17C134.65 11.87 135.42 9.90 135.77 9.02C135.84 8.83 135.86 8.79 136.07 8.79L138.89 8.79C139.03 8.79 139.03 8.81 139.10 9.03C139.37 9.77 140.08 11.89 140.08 12.17C140.08 12.18 140.07 12.18 140.07 12.18L139.30 12.18C139.08 12.18 139.06 12.19 139.06 12.39C139.06 12.63 139.08 12.68 139.24 12.68C139.57 12.68 140.43 12.64 140.85 12.64C141.27 12.64 141.95 12.68 142.16 12.68C142.30 12.68 142.31 12.61 142.31 12.40C142.31 12.24 142.30 12.18 142.16 12.18L141.67 12.18C141.57 12.18 140.55 9.34 139.99 7.78L138.31 3.07C138.29 3.00 138.22 2.94 138.14 2.94C138.01 2.94 137.91 3.16 137.83 3.35C137.68 3.71 137.44 3.84 137.33 4.13L135.84 7.57C135.66 8.01 133.95 12.18 133.83 12.18L133.41 12.18C133.18 12.18 133.15 12.19 133.15 12.39ZM136.05 8.33C136.05 8.30 136.08 8.23 136.12 8.13L137.49 4.77C137.54 4.66 137.56 4.61 137.59 4.61C137.61 4.61 137.62 4.63 137.66 4.77L138.82 8.18C138.85 8.25 138.87 8.29 138.87 8.32C138.87 8.36 138.84 8.37 138.74 8.37L136.23 8.37C136.05 8.37 136.05 8.34 136.05 8.33ZM150.07 3.51C150.07 3.75 150.15 3.79 150.32 3.79L151.17 3.77C151.23 3.77 151.28 5.52 151.28 7.11L151.28 11.63C151.28 11.93 151.27 12.18 151.24 12.18L150.51 12.18C150.29 12.18 150.22 12.19 150.22 12.39C150.22 12.63 150.25 12.68 150.44 12.68C150.57 12.68 151.52 12.64 151.94 12.64C152.12 12.64 152.64 12.67 153.29 12.67C154.84 12.67 157.25 12.43 157.25 10.23C157.25 8.27 155.43 7.94 154.74 7.84C154.66 7.83 154.64 7.83 154.64 7.81C154.64 7.80 154.69 7.78 154.76 7.76C155.40 7.52 156.84 6.90 156.84 5.54C156.84 3.81 155.37 3.25 153.69 3.25C153.12 3.25 152.52 3.29 151.97 3.29C151.55 3.29 150.54 3.26 150.32 3.26C150.14 3.26 150.07 3.28 150.07 3.51ZM152.52 8.19C152.52 8.12 152.52 8.08 152.63 8.08L153.10 8.08C153.72 8.08 154.36 8.09 154.74 8.22C155.61 8.51 155.93 9.16 155.93 10.14C155.93 11.17 155.47 12.18 153.45 12.18L152.61 12.18C152.53 12.18 152.52 9.02 152.52 8.19ZM152.52 7.59L152.52 6.92C152.52 5.87 152.53 3.71 152.57 3.68C152.63 3.65 152.94 3.63 153.15 3.63C154.56 3.63 155.58 4.41 155.58 5.77C155.58 6.92 154.85 7.46 154.22 7.66C154.14 7.69 154.04 7.70 153.96 7.70C153.87 7.70 153.73 7.69 153.50 7.69L152.70 7.69C152.52 7.69 152.52 7.67 152.52 7.59ZM165.35 8.15C165.35 11.17 167.69 12.80 169.95 12.80C172.73 12.80 174.71 10.89 174.71 8.06C174.71 5.33 172.96 3.11 170.16 3.11C167.55 3.11 165.35 5.10 165.35 8.15ZM166.75 7.77C166.75 5.64 168.04 3.58 170.02 3.58C172.26 3.58 173.33 5.81 173.33 7.94C173.33 10.08 172.23 12.32 169.96 12.32C167.97 12.32 166.75 10.28 166.75 7.77ZM182.81 3.51C182.81 3.75 182.90 3.77 183.06 3.77L183.60 3.77C183.65 3.77 183.65 4.12 183.65 4.55C183.65 5.66 183.64 8.96 183.64 9.42C183.64 11.13 183.89 12.80 186.75 12.80C187.82 12.80 188.99 12.38 189.64 12.00C189.90 11.86 190.19 11.72 190.27 11.72C190.54 11.72 190.81 12.74 191.14 12.74C191.46 12.74 191.48 12.35 191.48 12.25C191.48 11.96 191.53 10.08 191.58 8.16C191.63 6.12 191.62 3.77 191.73 3.77L192.05 3.77C192.28 3.77 192.35 3.75 192.35 3.56C192.35 3.32 192.30 3.26 192.11 3.26C191.97 3.26 191.44 3.30 191.02 3.30C190.60 3.30 189.80 3.26 189.57 3.26C189.39 3.26 189.29 3.28 189.29 3.51C189.29 3.75 189.41 3.77 189.57 3.77L190.27 3.77C190.34 3.77 190.36 4.30 190.36 4.87L190.36 9.14C190.36 11.19 190.36 11.12 190.02 11.34C189.63 11.61 188.82 12.08 187.64 12.08C185.67 12.08 184.87 11.17 184.87 9.41C184.87 8.82 184.94 3.77 185.05 3.77L185.96 3.77C186.19 3.77 186.23 3.75 186.23 3.56C186.23 3.32 186.21 3.26 186.02 3.26C185.70 3.26 184.81 3.30 184.39 3.30C183.97 3.30 183.29 3.26 183.06 3.26C182.88 3.26 182.81 3.28 182.81 3.51ZM200.12 5.01C200.12 5.17 200.30 5.17 200.42 5.17C200.58 5.17 200.62 5.15 200.63 4.97L200.75 3.89C200.76 3.81 201.31 3.75 202.06 3.75L204.05 3.75C204.11 3.75 204.13 4.35 204.13 4.97C204.13 6.43 204.08 12.18 203.95 12.18L203.08 12.18C202.86 12.18 202.82 12.19 202.82 12.39C202.82 12.63 202.83 12.68 203.03 12.68C203.35 12.68 204.33 12.64 204.75 12.64C205.17 12.64 206.11 12.68 206.43 12.68C206.60 12.68 206.63 12.61 206.63 12.40C206.63 12.24 206.60 12.18 206.43 12.18L205.44 12.18C205.41 12.18 205.41 11.76 205.41 11.31C205.41 9.56 205.49 5.96 205.49 5.92C205.51 5.18 205.51 3.75 205.60 3.75L207.21 3.75C207.93 3.75 208.75 3.78 208.75 3.85C208.75 3.99 208.71 4.90 208.71 4.97C208.71 5.12 208.78 5.17 208.96 5.17C209.16 5.17 209.23 5.17 209.23 5.03C209.23 3.93 209.29 3.40 209.29 3.14C209.29 2.94 209.20 2.94 209.01 2.94C208.85 2.94 208.80 2.98 208.78 3.16C208.78 3.23 208.14 3.28 207.30 3.28L202.30 3.28C201.64 3.28 200.83 3.28 200.83 3.21L200.83 3.07C200.83 2.94 200.70 2.94 200.61 2.94C200.38 2.94 200.35 3.00 200.34 3.19C200.28 3.89 200.12 4.97 200.12 5.01ZM226.70 12.39C226.70 12.63 226.74 12.68 226.94 12.68C227.26 12.68 228.02 12.64 228.73 12.64C229.39 12.64 230.19 12.68 230.41 12.68C230.58 12.68 230.61 12.61 230.61 12.40C230.61 12.24 230.58 12.18 230.41 12.18L229.45 12.18C229.35 12.18 229.32 9.55 229.32 7.76L229.32 5.87C229.32 5.14 229.35 3.70 229.45 3.70L230.36 3.70C230.58 3.70 230.61 3.68 230.61 3.49C230.61 3.25 230.58 3.19 230.41 3.19C230.09 3.19 229.42 3.23 228.76 3.23C227.95 3.23 227.23 3.19 227.01 3.19C226.83 3.19 226.76 3.21 226.76 3.44C226.76 3.68 226.84 3.70 227.01 3.70L227.93 3.70C227.98 3.70 228.05 4.79 228.05 5.71L228.05 7.08C228.05 8.92 228.03 12.18 227.92 12.18L227.00 12.18C226.77 12.18 226.70 12.19 226.70 12.39ZM238.24 5.01C238.24 5.17 238.42 5.17 238.55 5.17C238.70 5.17 238.74 5.15 238.76 4.97L238.87 3.89C238.88 3.81 239.43 3.75 240.18 3.75L242.17 3.75C242.23 3.75 242.26 4.35 242.26 4.97C242.26 6.43 242.20 12.18 242.07 12.18L241.21 12.18C240.98 12.18 240.94 12.19 240.94 12.39C240.94 12.63 240.95 12.68 241.15 12.68C241.47 12.68 242.45 12.64 242.87 12.64C243.29 12.64 244.23 12.68 244.55 12.68C244.72 12.68 244.75 12.61 244.75 12.40C244.75 12.24 244.72 12.18 244.55 12.18L243.56 12.18C243.53 12.18 243.53 11.76 243.53 11.31C243.53 9.56 243.61 5.96 243.61 5.92C243.63 5.18 243.63 3.75 243.73 3.75L245.34 3.75C246.05 3.75 246.88 3.78 246.88 3.85C246.88 3.99 246.83 4.90 246.83 4.97C246.83 5.12 246.90 5.17 247.09 5.17C247.28 5.17 247.35 5.17 247.35 5.03C247.35 3.93 247.41 3.40 247.41 3.14C247.41 2.94 247.32 2.94 247.13 2.94C246.97 2.94 246.92 2.98 246.90 3.16C246.90 3.23 246.26 3.28 245.42 3.28L240.42 3.28C239.76 3.28 238.95 3.28 238.95 3.21L238.95 3.07C238.95 2.94 238.83 2.94 238.73 2.94C238.50 2.94 238.48 3.00 238.46 3.19C238.41 3.89 238.24 4.97 238.24 5.01Z"></path></g></svg>