<svg xmlns="http://www.w3.org/2000/svg" class="iconLeftSlogan" viewBox="0 0 300 300"><rect width="300" height="300" x="0" y="0" fill="transparent" class="logo-background-square"/><g id="9368f867-1b91-45dc-884d-627c724737f5" fill="#000"><path d="M7.32 14.35L7.32 13.03L2.77 13.03L2.77 10.05L7.15 10.05L7.15 8.74L2.77 8.74L2.77 5.89L7.32 5.89L7.32 4.58L1.20 4.58L1.20 14.35ZM15.72 14.35L15.72 13.12L11.19 13.12L15.58 8.47L15.58 7.13L9.63 7.13L9.63 8.36L13.87 8.36L9.48 13.01L9.48 14.35ZM17.91 17.15L19.43 17.15L19.43 13.12L19.52 13.12C19.94 13.99 20.64 14.52 21.70 14.52C23.39 14.52 24.49 13.22 24.49 10.74C24.49 8.26 23.39 6.96 21.70 6.96C20.64 6.96 19.94 7.49 19.52 8.36L19.43 8.36L19.43 7.13L17.91 7.13ZM21.07 13.27C20.19 13.27 19.43 12.82 19.43 11.94L19.43 9.53C19.43 8.65 20.19 8.20 21.07 8.20C22.22 8.20 22.88 8.97 22.88 10.15L22.88 11.33C22.88 12.50 22.22 13.27 21.07 13.27ZM29.85 5.81C30.60 5.81 30.88 5.45 30.88 4.98L30.88 4.69C30.88 4.23 30.60 3.86 29.83 3.86C29.08 3.86 28.80 4.23 28.80 4.69L28.80 4.98C28.80 5.45 29.08 5.81 29.85 5.81ZM26.61 14.35L32.91 14.35L32.91 13.12L30.60 13.12L30.60 7.13L26.61 7.13L26.61 8.36L29.08 8.36L29.08 13.12L26.61 13.12ZM37.95 14.52C39.44 14.52 40.45 13.86 40.94 13.02L39.98 12.18C39.58 12.85 38.91 13.29 37.98 13.29C36.74 13.29 35.98 12.49 35.98 11.35L35.98 11.12L41.16 11.12L41.16 10.54C41.16 8.41 39.87 6.96 37.84 6.96C35.78 6.96 34.44 8.43 34.44 10.75C34.44 13.05 35.74 14.52 37.95 14.52ZM37.84 8.12C38.91 8.12 39.61 8.86 39.61 10.00L39.61 10.14L35.98 10.14L35.98 10.04C35.98 8.92 36.75 8.12 37.84 8.12Z" transform="matrix(3.4719033517922666,0,0,3.4719033517922666,117.09646105329949,103.52765654762696)"/></g><defs><linearGradient id="b7af63ee-eba4-4f06-b3c4-22a73e16ca43" x1="0%" x2="100%" y1="0%" y2="0%" gradientTransform="rotate(25)"><stop offset="0%" stop-color="#5106FF" stop-opacity="1"/><stop offset="100%" stop-color="#61CBF2" stop-opacity="1"/></linearGradient></defs><g id="ab492948-f008-478f-8da6-5bf2ef5b7ca6" fill="url(#b7af63ee-eba4-4f06-b3c4-22a73e16ca43)" stroke="none" transform="matrix(0.9019204071875546,0,0,0.9019204071875546,28.29036753239275,104.98830760227756)"><g clip-rule="evenodd"><path d="M12.983 10.59l17.018 88.223-5.872-59.049 29.021-1.892-.054-9.883L64.549 1 53.622 18.977z"/><path d="M59.389 54.548l5.16-53.541-8.74 39.716-19.612 1.045 1.57 20.462-7.766 36.583 12.057-39.899z"/><path d="M62.8 67.182l.549-10.453-15.979 3.755-.032 11.797-17.337 26.532 21.68-27.616zM65.711 62.394l14.841-4.731 1.509-12.532-15.899 2.095zM72.07 44.502l10.988-1.417 1.581-10.278-8.079-.373L64.549 1l8.43 30.967z"/><path d="M87.413 31.294l1.256-9.506-9.544-2.694L64.549 1l14.483 22.437-.422 7z"/></g></g><g id="367731b2-3dab-4716-a8ab-23849b29c897" fill="#000"><path d="M7.07 11.97C6.87 11.97 6.79 12.08 6.78 12.31C6.78 12.32 6.78 12.38 6.76 12.43C6.75 12.49 6.75 12.59 6.73 12.71C6.72 12.84 6.71 13.01 6.69 13.20L2.60 13.20L2.60 4.47C2.77 4.47 2.91 4.45 3.05 4.45C3.19 4.45 3.30 4.44 3.37 4.44L3.50 4.44C3.68 4.42 3.78 4.34 3.78 4.19L3.78 3.92L2.60 3.92L1.89 3.92L0.70 3.92L0.70 4.19C0.70 4.34 0.80 4.42 0.98 4.44L1.12 4.44C1.19 4.44 1.29 4.45 1.43 4.45C1.57 4.45 1.72 4.47 1.89 4.47L1.89 13.26C1.72 13.26 1.57 13.27 1.43 13.27C1.29 13.27 1.19 13.29 1.12 13.29L0.98 13.29C0.80 13.30 0.70 13.38 0.70 13.54L0.70 13.82L1.89 13.82L7.17 13.82L7.29 13.82L7.42 13.82L7.42 13.55L7.42 12.99L7.42 11.97L7.14 11.97ZM18.61 6.73C18.12 6.73 17.67 6.83 17.28 7.00C16.88 7.17 16.56 7.41 16.30 7.71C16.03 8.02 15.82 8.39 15.68 8.81C15.54 9.23 15.46 9.69 15.46 10.19C15.46 10.78 15.54 11.31 15.69 11.77C15.85 12.24 16.06 12.61 16.34 12.94C16.62 13.26 16.95 13.50 17.35 13.66C17.74 13.83 18.17 13.90 18.65 13.90C18.91 13.90 19.18 13.89 19.43 13.83C19.68 13.78 19.94 13.71 20.16 13.62C20.38 13.54 20.59 13.44 20.78 13.31C20.96 13.19 21.11 13.06 21.22 12.92L21.04 12.70C21.01 12.66 20.96 12.63 20.90 12.63C20.86 12.63 20.78 12.66 20.68 12.74C20.58 12.82 20.44 12.91 20.26 13.01C20.09 13.10 19.87 13.17 19.61 13.26C19.36 13.34 19.05 13.38 18.70 13.38C18.31 13.38 17.96 13.31 17.64 13.17C17.32 13.03 17.05 12.84 16.83 12.57C16.60 12.31 16.44 11.97 16.31 11.58C16.18 11.19 16.13 10.71 16.13 10.19L16.13 10.07L21.15 10.07C21.22 10.07 21.27 10.05 21.29 10.01C21.32 9.97 21.35 9.90 21.35 9.80C21.35 9.31 21.28 8.88 21.14 8.50C21 8.12 20.82 7.78 20.57 7.53C20.33 7.28 20.03 7.08 19.70 6.94C19.36 6.80 19.00 6.73 18.61 6.73ZM18.62 7.24C18.94 7.24 19.22 7.29 19.49 7.41C19.75 7.52 19.98 7.67 20.16 7.88C20.34 8.09 20.50 8.33 20.59 8.62C20.69 8.92 20.75 9.25 20.75 9.63L16.16 9.63C16.20 9.27 16.28 8.93 16.41 8.64C16.53 8.34 16.70 8.09 16.91 7.88C17.12 7.67 17.37 7.52 17.65 7.41C17.93 7.29 18.26 7.24 18.62 7.24ZM35.18 13.29L35.08 13.29L34.86 13.29C34.76 13.29 34.65 13.27 34.54 13.27L34.54 9.28C34.54 8.89 34.50 8.55 34.40 8.23C34.30 7.91 34.16 7.64 33.98 7.42C33.80 7.20 33.56 7.03 33.28 6.92C33.00 6.79 32.68 6.73 32.30 6.73C31.79 6.73 31.35 6.83 30.94 7.01C30.53 7.20 30.16 7.48 29.79 7.84L29.90 8.05C29.95 8.13 30.02 8.18 30.11 8.18C30.18 8.18 30.28 8.12 30.38 8.02C30.48 7.92 30.62 7.84 30.79 7.73C30.95 7.62 31.14 7.52 31.37 7.42C31.61 7.32 31.89 7.28 32.23 7.28C32.77 7.28 33.19 7.45 33.47 7.80C33.75 8.15 33.88 8.64 33.88 9.28L33.88 10.01C33.10 10.02 32.42 10.09 31.86 10.21C31.30 10.32 30.84 10.47 30.48 10.65C30.11 10.84 29.86 11.06 29.69 11.31C29.53 11.56 29.44 11.83 29.44 12.12C29.44 12.45 29.50 12.73 29.60 12.95C29.71 13.17 29.85 13.36 30.02 13.50C30.18 13.64 30.39 13.75 30.62 13.82C30.84 13.89 31.07 13.93 31.30 13.93C31.58 13.93 31.85 13.90 32.09 13.85C32.33 13.79 32.54 13.71 32.75 13.61C32.96 13.51 33.15 13.38 33.35 13.23C33.53 13.08 33.71 12.91 33.91 12.73L34.01 13.62C34.03 13.75 34.13 13.82 34.27 13.82L34.29 13.82L34.54 13.82L35.46 13.82L35.46 13.54C35.46 13.38 35.36 13.30 35.18 13.29ZM33.88 12.26C33.71 12.43 33.56 12.60 33.39 12.74C33.22 12.88 33.04 13.01 32.84 13.12C32.65 13.23 32.44 13.30 32.21 13.36C31.99 13.41 31.74 13.44 31.47 13.44C31.29 13.44 31.11 13.43 30.94 13.37C30.77 13.31 30.63 13.24 30.51 13.13C30.38 13.02 30.27 12.88 30.20 12.71C30.11 12.54 30.09 12.35 30.09 12.11C30.09 11.86 30.16 11.63 30.31 11.44C30.46 11.24 30.69 11.09 31.00 10.95C31.30 10.81 31.70 10.70 32.17 10.61C32.65 10.53 33.22 10.47 33.88 10.46ZM48.29 6.80C48.10 6.76 47.92 6.73 47.71 6.73C47.17 6.73 46.70 6.89 46.33 7.21C45.95 7.53 45.65 7.98 45.43 8.54L45.37 7.07C45.37 6.99 45.35 6.93 45.32 6.90C45.29 6.87 45.23 6.86 45.15 6.86L44.80 6.86L44.80 6.86L43.79 6.86L43.79 7.13C43.79 7.31 43.89 7.36 44.06 7.38C44.14 7.38 44.23 7.38 44.80 7.41L44.80 13.26C44.23 13.29 44.14 13.29 44.06 13.29C43.89 13.30 43.79 13.36 43.79 13.54L43.79 13.82L44.80 13.82L45.46 13.82L45.46 13.82L46.47 13.82L46.47 13.54C46.47 13.36 46.37 13.30 46.20 13.29C46.12 13.29 46.03 13.29 45.46 13.26L45.46 9.30C45.67 8.68 45.95 8.20 46.28 7.88C46.62 7.56 47.05 7.39 47.59 7.39C47.73 7.39 47.85 7.41 47.96 7.42C48.08 7.43 48.19 7.45 48.26 7.48C48.34 7.50 48.38 7.53 48.44 7.55C48.50 7.56 48.54 7.57 48.57 7.57C48.65 7.57 48.69 7.53 48.71 7.46L48.79 7.00C48.64 6.92 48.47 6.85 48.29 6.80ZM64.11 13.29L64.04 13.29L63.92 13.29C63.88 13.29 63.81 13.27 63.71 13.27C63.62 13.27 63.50 13.26 63.38 13.26L63.38 9.37C63.38 8.96 63.32 8.60 63.22 8.27C63.13 7.95 62.99 7.67 62.79 7.45C62.59 7.22 62.36 7.06 62.06 6.93C61.77 6.80 61.43 6.75 61.05 6.75C60.54 6.75 60.06 6.87 59.64 7.11C59.22 7.36 58.86 7.67 58.53 8.08L58.48 7.03C58.46 6.92 58.39 6.86 58.27 6.86L57.90 6.86L56.90 6.86L56.90 7.13C56.90 7.28 56.98 7.36 57.16 7.38L57.25 7.38C57.27 7.38 57.30 7.39 57.34 7.39L57.55 7.39C57.65 7.39 57.78 7.41 57.90 7.41L57.90 13.26C57.74 13.26 57.60 13.29 57.48 13.29L57.26 13.29L57.16 13.29C56.98 13.30 56.90 13.38 56.90 13.54L56.90 13.82L57.90 13.82L58.56 13.82L59.57 13.82L59.57 13.54C59.57 13.38 59.49 13.30 59.30 13.29L59.22 13.29L59.12 13.29C59.08 13.29 59.01 13.27 58.91 13.27C58.81 13.27 58.69 13.26 58.56 13.26L58.56 8.60C58.87 8.19 59.22 7.87 59.61 7.63C60.00 7.39 60.42 7.28 60.89 7.28C61.50 7.28 61.96 7.46 62.26 7.83C62.55 8.20 62.71 8.71 62.71 9.37L62.71 13.82L63.38 13.82L64.39 13.82L64.39 13.54C64.39 13.38 64.29 13.30 64.11 13.29ZM88.76 7.63C88.28 7.04 87.61 6.73 86.76 6.73C86.24 6.73 85.79 6.86 85.37 7.11C84.97 7.36 84.60 7.69 84.29 8.11L84.22 7.03C84.22 6.96 84.21 6.92 84.17 6.89C84.13 6.86 84.07 6.86 84.01 6.86L83.65 6.86L82.64 6.86L82.64 7.13C82.64 7.28 82.74 7.36 82.92 7.38L82.99 7.38C83.02 7.38 83.06 7.39 83.10 7.39L83.31 7.39C83.41 7.39 83.52 7.41 83.65 7.41L83.65 15.72C83.50 15.72 83.36 15.75 83.24 15.75L83.01 15.75L82.92 15.75C82.74 15.76 82.64 15.85 82.64 16.00L82.64 16.28L83.65 16.28L84.32 16.28L85.33 16.28L85.33 16.00C85.33 15.85 85.23 15.76 85.05 15.75L84.98 15.75L84.87 15.75C84.83 15.75 84.76 15.74 84.66 15.74C84.56 15.74 84.45 15.72 84.32 15.72L84.32 12.88C84.57 13.22 84.87 13.48 85.22 13.65C85.57 13.82 85.97 13.90 86.45 13.90C86.94 13.90 87.36 13.80 87.74 13.62C88.12 13.44 88.44 13.19 88.69 12.87C88.94 12.54 89.15 12.15 89.28 11.72C89.42 11.28 89.47 10.79 89.47 10.29C89.47 9.10 89.24 8.22 88.76 7.63ZM88.63 11.55C88.54 11.93 88.37 12.25 88.16 12.53C87.95 12.81 87.70 13.01 87.39 13.16C87.08 13.31 86.72 13.38 86.31 13.38C85.89 13.38 85.53 13.30 85.20 13.13C84.88 12.96 84.59 12.70 84.32 12.29L84.32 8.64C84.62 8.20 84.94 7.87 85.32 7.63C85.69 7.39 86.11 7.28 86.58 7.28C87.29 7.28 87.84 7.52 88.21 8.01C88.59 8.50 88.79 9.25 88.79 10.29C88.79 10.75 88.75 11.17 88.63 11.55ZM102.24 6.80C102.06 6.76 101.88 6.73 101.67 6.73C101.12 6.73 100.66 6.89 100.28 7.21C99.90 7.53 99.61 7.98 99.39 8.54L99.33 7.07C99.33 6.99 99.30 6.93 99.27 6.90C99.25 6.87 99.19 6.86 99.11 6.86L98.76 6.86L98.76 6.86L97.75 6.86L97.75 7.13C97.75 7.31 97.85 7.36 98.01 7.38C98.10 7.38 98.18 7.38 98.76 7.41L98.76 13.26C98.18 13.29 98.10 13.29 98.01 13.29C97.85 13.30 97.75 13.36 97.75 13.54L97.75 13.82L98.76 13.82L99.41 13.82L99.41 13.82L100.42 13.82L100.42 13.54C100.42 13.36 100.32 13.30 100.16 13.29C100.07 13.29 99.99 13.29 99.41 13.26L99.41 9.30C99.62 8.68 99.90 8.20 100.24 7.88C100.58 7.56 101.01 7.39 101.54 7.39C101.68 7.39 101.81 7.41 101.92 7.42C102.03 7.43 102.14 7.45 102.21 7.48C102.30 7.50 102.34 7.53 102.40 7.55C102.45 7.56 102.49 7.57 102.52 7.57C102.61 7.57 102.65 7.53 102.66 7.46L102.75 7.00C102.59 6.92 102.42 6.85 102.24 6.80ZM113.74 6.73C113.23 6.73 112.78 6.83 112.39 7.00C112 7.17 111.66 7.41 111.38 7.71C111.10 8.02 110.91 8.40 110.77 8.85C110.63 9.30 110.54 9.79 110.54 10.33C110.54 10.88 110.63 11.37 110.77 11.80C110.91 12.24 111.10 12.63 111.38 12.94C111.66 13.24 112 13.48 112.39 13.65C112.78 13.82 113.23 13.90 113.74 13.90C114.24 13.90 114.67 13.82 115.07 13.65C115.46 13.48 115.79 13.24 116.06 12.94C116.33 12.63 116.55 12.24 116.69 11.80C116.83 11.37 116.90 10.88 116.90 10.33C116.90 9.79 116.83 9.30 116.69 8.85C116.55 8.40 116.33 8.02 116.06 7.71C115.79 7.41 115.46 7.17 115.07 7.00C114.67 6.83 114.24 6.73 113.74 6.73ZM113.74 13.38C113.32 13.38 112.95 13.31 112.64 13.17C112.34 13.03 112.07 12.82 111.86 12.56C111.65 12.29 111.51 11.97 111.40 11.59C111.29 11.21 111.24 10.79 111.24 10.33C111.24 9.87 111.29 9.45 111.40 9.07C111.51 8.69 111.65 8.37 111.86 8.11C112.07 7.84 112.34 7.62 112.64 7.48C112.95 7.34 113.32 7.27 113.74 7.27C114.16 7.27 114.51 7.34 114.81 7.48C115.12 7.62 115.39 7.84 115.60 8.11C115.81 8.37 115.96 8.69 116.06 9.07C116.16 9.45 116.21 9.87 116.21 10.33C116.21 10.79 116.16 11.21 116.06 11.59C115.96 11.97 115.81 12.29 115.60 12.56C115.39 12.82 115.12 13.03 114.81 13.17C114.51 13.31 114.16 13.38 113.74 13.38ZM127.76 6.73C127.39 6.73 127.05 6.79 126.74 6.90C126.43 7.01 126.18 7.15 125.96 7.35C125.73 7.55 125.57 7.77 125.45 8.05C125.34 8.33 125.27 8.64 125.27 8.97C125.27 9.39 125.37 9.76 125.55 10.08C125.73 10.40 125.99 10.65 126.32 10.85C126.18 10.92 126.07 11.00 125.96 11.10C125.85 11.20 125.76 11.28 125.69 11.40C125.62 11.51 125.57 11.61 125.52 11.72C125.48 11.83 125.47 11.93 125.47 12.03C125.47 12.29 125.52 12.49 125.66 12.64C125.80 12.80 125.99 12.89 126.22 12.98C125.80 13.12 125.45 13.33 125.22 13.59C124.98 13.86 124.85 14.18 124.85 14.55C124.85 14.80 124.92 15.05 125.05 15.27C125.17 15.50 125.36 15.69 125.61 15.86C125.86 16.03 126.17 16.17 126.53 16.27C126.90 16.37 127.33 16.42 127.82 16.42C128.30 16.42 128.74 16.35 129.14 16.23C129.53 16.10 129.84 15.95 130.12 15.74C130.40 15.53 130.61 15.29 130.75 15.02C130.89 14.76 130.96 14.49 130.96 14.20C130.96 13.89 130.90 13.64 130.76 13.44C130.62 13.24 130.42 13.12 130.20 13.01C129.98 12.89 129.70 12.82 129.40 12.78C129.11 12.74 128.81 12.71 128.51 12.70C128.20 12.68 127.89 12.66 127.60 12.64C127.30 12.63 127.04 12.61 126.81 12.56C126.59 12.50 126.39 12.43 126.25 12.32C126.11 12.21 126.04 12.05 126.04 11.86C126.04 11.72 126.10 11.56 126.21 11.41C126.32 11.26 126.48 11.13 126.67 11.02C126.99 11.14 127.36 11.19 127.76 11.19C128.13 11.19 128.46 11.14 128.77 11.03C129.08 10.92 129.33 10.78 129.56 10.58C129.78 10.39 129.93 10.16 130.06 9.88C130.19 9.60 130.24 9.31 130.24 8.97C130.24 8.72 130.21 8.48 130.14 8.26C130.07 8.04 129.96 7.84 129.84 7.66L130.90 7.57C131.03 7.56 131.10 7.50 131.10 7.39L131.10 7.15L129.30 7.15C129.09 7.01 128.86 6.92 128.60 6.85C128.35 6.78 128.07 6.73 127.76 6.73ZM130.35 14.29C130.35 14.53 130.28 14.74 130.16 14.94C130.03 15.13 129.85 15.33 129.63 15.47C129.40 15.61 129.14 15.72 128.83 15.81C128.52 15.89 128.18 15.92 127.83 15.92C127.46 15.92 127.12 15.88 126.83 15.81C126.53 15.74 126.27 15.62 126.07 15.50C125.87 15.37 125.72 15.22 125.61 15.05C125.50 14.88 125.45 14.69 125.45 14.48C125.45 14.31 125.50 14.17 125.55 14.03C125.61 13.89 125.69 13.76 125.80 13.65C125.92 13.54 126.03 13.43 126.18 13.34C126.34 13.26 126.50 13.17 126.69 13.10C126.92 13.15 127.18 13.17 127.46 13.19C127.74 13.20 127.99 13.22 128.27 13.23C128.55 13.24 128.80 13.26 129.05 13.29C129.30 13.31 129.53 13.38 129.72 13.45C129.92 13.52 130.06 13.62 130.17 13.76C130.28 13.90 130.35 14.07 130.35 14.29ZM127.76 10.74C127.47 10.74 127.22 10.70 126.98 10.61C126.74 10.53 126.55 10.40 126.38 10.25C126.21 10.09 126.10 9.91 126.01 9.70C125.93 9.49 125.89 9.25 125.89 8.99C125.89 8.72 125.93 8.48 126.01 8.26C126.10 8.04 126.21 7.87 126.38 7.71C126.55 7.56 126.74 7.43 126.98 7.35C127.22 7.27 127.47 7.22 127.76 7.22C128.06 7.22 128.32 7.27 128.55 7.35C128.77 7.43 128.97 7.56 129.14 7.71C129.30 7.87 129.43 8.04 129.51 8.26C129.60 8.48 129.64 8.71 129.64 8.97C129.64 9.24 129.60 9.49 129.51 9.70C129.43 9.91 129.30 10.09 129.15 10.25C129.00 10.40 128.80 10.53 128.56 10.61C128.32 10.70 128.06 10.74 127.76 10.74ZM143.88 6.80C143.70 6.76 143.51 6.73 143.30 6.73C142.76 6.73 142.30 6.89 141.92 7.21C141.54 7.53 141.25 7.98 141.02 8.54L140.97 7.07C140.97 6.99 140.94 6.93 140.91 6.90C140.88 6.87 140.83 6.86 140.74 6.86L140.39 6.86L140.39 6.86L139.38 6.86L139.38 7.13C139.38 7.31 139.48 7.36 139.65 7.38C139.73 7.38 139.82 7.38 140.39 7.41L140.39 13.26C139.82 13.29 139.73 13.29 139.65 13.29C139.48 13.30 139.38 13.36 139.38 13.54L139.38 13.82L140.39 13.82L141.05 13.82L141.05 13.82L142.06 13.82L142.06 13.54C142.06 13.36 141.96 13.30 141.79 13.29C141.71 13.29 141.62 13.29 141.05 13.26L141.05 9.30C141.26 8.68 141.54 8.20 141.88 7.88C142.21 7.56 142.65 7.39 143.18 7.39C143.32 7.39 143.44 7.41 143.56 7.42C143.67 7.43 143.78 7.45 143.85 7.48C143.93 7.50 143.98 7.53 144.03 7.55C144.09 7.56 144.13 7.57 144.16 7.57C144.24 7.57 144.28 7.53 144.30 7.46L144.38 7.00C144.23 6.92 144.06 6.85 143.88 6.80ZM157.85 13.29L157.75 13.29L157.53 13.29C157.43 13.29 157.32 13.27 157.21 13.27L157.21 9.28C157.21 8.89 157.16 8.55 157.07 8.23C156.97 7.91 156.83 7.64 156.65 7.42C156.46 7.20 156.23 7.03 155.95 6.92C155.67 6.79 155.34 6.73 154.97 6.73C154.46 6.73 154.01 6.83 153.61 7.01C153.20 7.20 152.82 7.48 152.46 7.84L152.57 8.05C152.61 8.13 152.68 8.18 152.78 8.18C152.85 8.18 152.95 8.12 153.05 8.02C153.15 7.92 153.29 7.84 153.45 7.73C153.62 7.62 153.80 7.52 154.04 7.42C154.28 7.32 154.56 7.28 154.90 7.28C155.44 7.28 155.86 7.45 156.14 7.80C156.42 8.15 156.55 8.64 156.55 9.28L156.55 10.01C155.76 10.02 155.09 10.09 154.53 10.21C153.97 10.32 153.51 10.47 153.15 10.65C152.78 10.84 152.53 11.06 152.36 11.31C152.19 11.56 152.11 11.83 152.11 12.12C152.11 12.45 152.17 12.73 152.26 12.95C152.38 13.17 152.52 13.36 152.68 13.50C152.85 13.64 153.06 13.75 153.29 13.82C153.51 13.89 153.73 13.93 153.97 13.93C154.25 13.93 154.52 13.90 154.76 13.85C154.99 13.79 155.20 13.71 155.41 13.61C155.62 13.51 155.82 13.38 156.02 13.23C156.20 13.08 156.38 12.91 156.58 12.73L156.67 13.62C156.70 13.75 156.80 13.82 156.94 13.82L156.95 13.82L157.21 13.82L158.13 13.82L158.13 13.54C158.13 13.38 158.03 13.30 157.85 13.29ZM156.55 12.26C156.38 12.43 156.23 12.60 156.06 12.74C155.89 12.88 155.71 13.01 155.51 13.12C155.32 13.23 155.11 13.30 154.88 13.36C154.66 13.41 154.41 13.44 154.14 13.44C153.96 13.44 153.78 13.43 153.61 13.37C153.44 13.31 153.30 13.24 153.17 13.13C153.05 13.02 152.94 12.88 152.87 12.71C152.78 12.54 152.75 12.35 152.75 12.11C152.75 11.86 152.82 11.63 152.98 11.44C153.13 11.24 153.36 11.09 153.66 10.95C153.97 10.81 154.36 10.70 154.84 10.61C155.32 10.53 155.89 10.47 156.55 10.46ZM177.24 13.29L177.16 13.29L177.06 13.29C177.02 13.29 176.95 13.27 176.85 13.27C176.75 13.27 176.62 13.26 176.50 13.26L176.50 9.37C176.50 8.95 176.44 8.57 176.34 8.25C176.25 7.92 176.11 7.64 175.91 7.42C175.71 7.20 175.48 7.03 175.20 6.92C174.92 6.80 174.62 6.75 174.27 6.75C174.03 6.75 173.78 6.78 173.56 6.85C173.33 6.92 173.12 7.01 172.93 7.15C172.73 7.29 172.55 7.46 172.40 7.67C172.24 7.88 172.13 8.13 172.05 8.43C171.93 7.90 171.74 7.48 171.43 7.18C171.12 6.89 170.72 6.75 170.21 6.75C169.99 6.75 169.78 6.76 169.58 6.83C169.39 6.89 169.20 6.99 169.02 7.10C168.85 7.21 168.69 7.36 168.53 7.52C168.38 7.67 168.24 7.84 168.10 8.04L168.04 7.03C168.03 6.92 167.96 6.86 167.83 6.86L167.47 6.86L166.46 6.86L166.46 7.13C166.46 7.28 166.54 7.36 166.73 7.38L166.81 7.38C166.84 7.38 166.87 7.39 166.91 7.39L167.12 7.39C167.22 7.39 167.34 7.41 167.47 7.41L167.47 13.26C167.30 13.26 167.16 13.29 167.05 13.29L166.82 13.29L166.73 13.29C166.54 13.30 166.46 13.38 166.46 13.54L166.46 13.82L167.47 13.82L168.13 13.82L169.13 13.82L169.13 13.54C169.13 13.38 169.05 13.30 168.87 13.29L168.78 13.29L168.69 13.29C168.64 13.29 168.57 13.27 168.48 13.27C168.38 13.27 168.25 13.26 168.13 13.26L168.13 8.55C168.38 8.15 168.67 7.84 168.99 7.62C169.32 7.39 169.67 7.28 170.04 7.28C170.56 7.28 170.95 7.45 171.22 7.81C171.49 8.18 171.63 8.69 171.63 9.37L171.63 13.82L172.30 13.82L172.30 13.82L173.31 13.82L173.31 13.54C173.31 13.38 173.21 13.30 173.03 13.29L172.96 13.29L172.84 13.29C172.80 13.29 172.73 13.27 172.63 13.27C172.54 13.27 172.42 13.26 172.30 13.26L172.30 9.37C172.30 9.02 172.34 8.72 172.44 8.46C172.54 8.19 172.68 7.97 172.84 7.80C173.01 7.63 173.21 7.49 173.43 7.41C173.66 7.32 173.89 7.28 174.13 7.28C174.68 7.28 175.10 7.46 175.39 7.81C175.69 8.18 175.84 8.68 175.84 9.37L175.84 13.82L176.50 13.82L177.51 13.82L177.51 13.54C177.51 13.38 177.42 13.30 177.24 13.29ZM196.60 13.29L196.52 13.29L196.42 13.29C196.38 13.29 196.31 13.27 196.21 13.27C196.11 13.27 195.99 13.26 195.86 13.26L195.86 9.37C195.86 8.95 195.80 8.57 195.71 8.25C195.61 7.92 195.47 7.64 195.27 7.42C195.08 7.20 194.84 7.03 194.56 6.92C194.28 6.80 193.98 6.75 193.63 6.75C193.40 6.75 193.14 6.78 192.92 6.85C192.70 6.92 192.49 7.01 192.29 7.15C192.09 7.29 191.91 7.46 191.76 7.67C191.60 7.88 191.49 8.13 191.41 8.43C191.30 7.90 191.10 7.48 190.79 7.18C190.48 6.89 190.08 6.75 189.57 6.75C189.35 6.75 189.14 6.76 188.94 6.83C188.75 6.89 188.57 6.99 188.38 7.10C188.22 7.21 188.05 7.36 187.89 7.52C187.74 7.67 187.60 7.84 187.46 8.04L187.40 7.03C187.39 6.92 187.32 6.86 187.19 6.86L186.83 6.86L185.82 6.86L185.82 7.13C185.82 7.28 185.91 7.36 186.09 7.38L186.17 7.38C186.20 7.38 186.23 7.39 186.27 7.39L186.48 7.39C186.58 7.39 186.70 7.41 186.83 7.41L186.83 13.26C186.66 13.26 186.52 13.29 186.41 13.29L186.19 13.29L186.09 13.29C185.91 13.30 185.82 13.38 185.82 13.54L185.82 13.82L186.83 13.82L187.49 13.82L188.50 13.82L188.50 13.54C188.50 13.38 188.41 13.30 188.23 13.29L188.15 13.29L188.05 13.29C188.01 13.29 187.94 13.27 187.84 13.27C187.74 13.27 187.61 13.26 187.49 13.26L187.49 8.55C187.74 8.15 188.03 7.84 188.36 7.62C188.68 7.39 189.03 7.28 189.41 7.28C189.92 7.28 190.32 7.45 190.58 7.81C190.85 8.18 190.99 8.69 190.99 9.37L190.99 13.82L191.66 13.82L191.66 13.82L192.67 13.82L192.67 13.54C192.67 13.38 192.57 13.30 192.39 13.29L192.32 13.29L192.21 13.29C192.16 13.29 192.09 13.27 192.00 13.27C191.90 13.27 191.79 13.26 191.66 13.26L191.66 9.37C191.66 9.02 191.70 8.72 191.80 8.46C191.90 8.19 192.04 7.97 192.21 7.80C192.37 7.63 192.57 7.49 192.79 7.41C193.02 7.32 193.26 7.28 193.49 7.28C194.04 7.28 194.46 7.46 194.75 7.81C195.05 8.18 195.20 8.68 195.20 9.37L195.20 13.82L195.86 13.82L196.87 13.82L196.87 13.54C196.87 13.38 196.78 13.30 196.60 13.29ZM206.07 4.89C206.12 4.94 206.19 4.98 206.26 5.01C206.33 5.04 206.42 5.07 206.50 5.07C206.58 5.07 206.67 5.04 206.74 5.01C206.81 4.98 206.88 4.94 206.93 4.89C206.99 4.83 207.05 4.76 207.07 4.69C207.10 4.62 207.13 4.54 207.13 4.45C207.13 4.37 207.10 4.30 207.07 4.21C207.05 4.14 206.99 4.07 206.93 4.02C206.88 3.96 206.81 3.91 206.74 3.88C206.67 3.85 206.58 3.84 206.50 3.84C206.42 3.84 206.33 3.85 206.26 3.88C206.19 3.91 206.12 3.96 206.07 4.02C206.01 4.07 205.97 4.14 205.94 4.21C205.91 4.28 205.88 4.37 205.88 4.45C205.88 4.54 205.91 4.62 205.94 4.69C205.97 4.76 206.01 4.83 206.07 4.89ZM207.56 13.29L207.49 13.29L207.38 13.29C207.34 13.29 207.27 13.27 207.17 13.27C207.07 13.27 206.96 13.26 206.84 13.26L206.84 6.85L206.16 6.85L205.16 6.85L205.16 7.13C205.16 7.28 205.25 7.36 205.44 7.38L205.51 7.38C205.53 7.38 205.58 7.39 205.62 7.39L205.83 7.39C205.93 7.39 206.04 7.41 206.16 7.41L206.16 13.26C206.01 13.26 205.87 13.29 205.76 13.29L205.52 13.29L205.44 13.29C205.25 13.30 205.16 13.38 205.16 13.54L205.16 13.82L206.16 13.82L206.84 13.82L207.84 13.82L207.84 13.54C207.84 13.38 207.75 13.30 207.56 13.29ZM223.34 13.29L223.27 13.29L223.16 13.29C223.12 13.29 223.05 13.27 222.95 13.27C222.85 13.27 222.74 13.26 222.61 13.26L222.61 9.37C222.61 8.96 222.56 8.60 222.46 8.27C222.36 7.95 222.22 7.67 222.03 7.45C221.83 7.22 221.59 7.06 221.30 6.93C221.00 6.80 220.67 6.75 220.29 6.75C219.77 6.75 219.30 6.87 218.88 7.11C218.46 7.36 218.09 7.67 217.77 8.08L217.71 7.03C217.70 6.92 217.63 6.86 217.50 6.86L217.14 6.86L216.13 6.86L216.13 7.13C216.13 7.28 216.22 7.36 216.40 7.38L216.48 7.38C216.51 7.38 216.54 7.39 216.58 7.39L216.79 7.39C216.89 7.39 217.01 7.41 217.14 7.41L217.14 13.26C216.97 13.26 216.83 13.29 216.72 13.29L216.50 13.29L216.40 13.29C216.22 13.30 216.13 13.38 216.13 13.54L216.13 13.82L217.14 13.82L217.80 13.82L218.81 13.82L218.81 13.54C218.81 13.38 218.72 13.30 218.54 13.29L218.46 13.29L218.36 13.29C218.32 13.29 218.25 13.27 218.15 13.27C218.05 13.27 217.92 13.26 217.80 13.26L217.80 8.60C218.11 8.19 218.46 7.87 218.85 7.63C219.24 7.39 219.66 7.28 220.12 7.28C220.74 7.28 221.20 7.46 221.49 7.83C221.79 8.20 221.94 8.71 221.94 9.37L221.94 13.82L222.61 13.82L223.62 13.82L223.62 13.54C223.62 13.38 223.52 13.30 223.34 13.29ZM234.54 6.73C234.16 6.73 233.83 6.79 233.52 6.90C233.21 7.01 232.96 7.15 232.74 7.35C232.51 7.55 232.34 7.77 232.23 8.05C232.12 8.33 232.05 8.64 232.05 8.97C232.05 9.39 232.15 9.76 232.33 10.08C232.51 10.40 232.76 10.65 233.10 10.85C232.96 10.92 232.85 11.00 232.74 11.10C232.62 11.20 232.54 11.28 232.47 11.40C232.40 11.51 232.34 11.61 232.30 11.72C232.26 11.83 232.25 11.93 232.25 12.03C232.25 12.29 232.30 12.49 232.44 12.64C232.58 12.80 232.76 12.89 233.00 12.98C232.58 13.12 232.23 13.33 231.99 13.59C231.76 13.86 231.63 14.18 231.63 14.55C231.63 14.80 231.70 15.05 231.83 15.27C231.95 15.50 232.13 15.69 232.39 15.86C232.64 16.03 232.95 16.17 233.31 16.27C233.67 16.37 234.11 16.42 234.60 16.42C235.07 16.42 235.52 16.35 235.91 16.23C236.31 16.10 236.61 15.95 236.89 15.74C237.17 15.53 237.38 15.29 237.52 15.02C237.66 14.76 237.73 14.49 237.73 14.20C237.73 13.89 237.68 13.64 237.54 13.44C237.40 13.24 237.20 13.12 236.98 13.01C236.75 12.89 236.47 12.82 236.18 12.78C235.89 12.74 235.59 12.71 235.28 12.70C234.98 12.68 234.67 12.66 234.37 12.64C234.08 12.63 233.81 12.61 233.59 12.56C233.37 12.50 233.17 12.43 233.03 12.32C232.89 12.21 232.82 12.05 232.82 11.86C232.82 11.72 232.88 11.56 232.99 11.41C233.10 11.26 233.25 11.13 233.45 11.02C233.77 11.14 234.14 11.19 234.54 11.19C234.91 11.19 235.24 11.14 235.55 11.03C235.86 10.92 236.11 10.78 236.33 10.58C236.56 10.39 236.71 10.16 236.84 9.88C236.96 9.60 237.02 9.31 237.02 8.97C237.02 8.72 236.99 8.48 236.92 8.26C236.85 8.04 236.74 7.84 236.61 7.66L237.68 7.57C237.80 7.56 237.87 7.50 237.87 7.39L237.87 7.15L236.08 7.15C235.87 7.01 235.63 6.92 235.38 6.85C235.13 6.78 234.85 6.73 234.54 6.73ZM237.13 14.29C237.13 14.53 237.06 14.74 236.94 14.94C236.81 15.13 236.63 15.33 236.40 15.47C236.18 15.61 235.91 15.72 235.61 15.81C235.30 15.89 234.96 15.92 234.61 15.92C234.23 15.92 233.90 15.88 233.60 15.81C233.31 15.74 233.04 15.62 232.85 15.50C232.65 15.37 232.50 15.22 232.39 15.05C232.27 14.88 232.23 14.69 232.23 14.48C232.23 14.31 232.27 14.17 232.33 14.03C232.39 13.89 232.47 13.76 232.58 13.65C232.69 13.54 232.81 13.43 232.96 13.34C233.11 13.26 233.28 13.17 233.46 13.10C233.70 13.15 233.95 13.17 234.23 13.19C234.51 13.20 234.77 13.22 235.05 13.23C235.33 13.24 235.58 13.26 235.83 13.29C236.08 13.31 236.31 13.38 236.50 13.45C236.70 13.52 236.84 13.62 236.95 13.76C237.06 13.90 237.13 14.07 237.13 14.29ZM234.54 10.74C234.25 10.74 234.00 10.70 233.76 10.61C233.52 10.53 233.32 10.40 233.16 10.25C232.99 10.09 232.88 9.91 232.79 9.70C232.71 9.49 232.67 9.25 232.67 8.99C232.67 8.72 232.71 8.48 232.79 8.26C232.88 8.04 232.99 7.87 233.16 7.71C233.32 7.56 233.52 7.43 233.76 7.35C234.00 7.27 234.25 7.22 234.54 7.22C234.84 7.22 235.10 7.27 235.33 7.35C235.55 7.43 235.75 7.56 235.91 7.71C236.08 7.87 236.21 8.04 236.29 8.26C236.38 8.48 236.42 8.71 236.42 8.97C236.42 9.24 236.38 9.49 236.29 9.70C236.21 9.91 236.08 10.09 235.93 10.25C235.77 10.40 235.58 10.53 235.34 10.61C235.10 10.70 234.84 10.74 234.54 10.74Z" transform="matrix(0.5849696666109034,0,0,0.5849696666109034,120.85326648134921,170.82451244186063)"/></g></svg>