<svg data-v-423bf9ae="" xmlns="http://www.w3.org/2000/svg" viewBox="0 0 263 107" class="iconLeftSlogan"><!----><!----><!----><g data-v-423bf9ae="" id="ad064b61-8b9f-4eb8-9d1b-7864237f8764" fill="#2e3034" transform="matrix(4.629629616002596,0,0,4.629629616002596,98.2286053678054,-13.88888837117063)"><path d="M7.31 9.16L7.31 9.16Q7.31 9.55 7.25 9.94L7.25 9.94L1.97 9.94L1.97 9.94Q2.07 11.00 2.68 11.59L2.68 11.59L2.68 11.59Q3.29 12.18 4.26 12.18L4.26 12.18L4.26 12.18Q5.03 12.18 5.54 11.91L5.54 11.91L5.54 11.91Q6.05 11.65 6.23 11.14L6.23 11.14L7.17 11.63L7.17 11.63Q6.75 12.38 6.05 12.77L6.05 12.77L6.05 12.77Q5.35 13.16 4.26 13.16L4.26 13.16L4.26 13.16Q2.67 13.16 1.77 12.19L1.77 12.19L1.77 12.19Q0.87 11.23 0.87 9.52L0.87 9.52L0.87 9.52Q0.87 7.81 1.73 6.85L1.73 6.85L1.73 6.85Q2.59 5.88 4.17 5.88L4.17 5.88L4.17 5.88Q5.15 5.88 5.87 6.31L5.87 6.31L5.87 6.31Q6.58 6.75 6.94 7.49L6.94 7.49L6.94 7.49Q7.31 8.23 7.31 9.16L7.31 9.16ZM4.17 6.86L4.17 6.86Q3.25 6.86 2.68 7.41L2.68 7.41L2.68 7.41Q2.11 7.95 1.99 8.95L1.99 8.95L6.23 8.95L6.23 8.95Q6.12 7.97 5.59 7.41L5.59 7.41L5.59 7.41Q5.05 6.86 4.17 6.86L4.17 6.86ZM8.93 13.02L8.93 12.17L12.60 7.87L13.48 6.96L12.24 6.99L8.97 6.99L8.97 6.02L14.73 6.02L14.73 6.87L11.06 11.17L10.19 12.08L11.55 12.05L14.84 12.05L14.84 13.02L8.93 13.02ZM20.36 5.88L20.36 5.88Q21.83 5.88 22.69 6.85L22.69 6.85L22.69 6.85Q23.55 7.83 23.55 9.52L23.55 9.52L23.55 9.52Q23.55 11.21 22.69 12.19L22.69 12.19L22.69 12.19Q21.83 13.16 20.36 13.16L20.36 13.16L20.36 13.16Q19.59 13.16 18.98 12.82L18.98 12.82L18.98 12.82Q18.37 12.49 18.03 11.93L18.03 11.93L18.03 15.96L16.91 15.96L16.91 6.02L17.89 6.02L17.96 7.24L17.96 7.24Q18.27 6.62 18.91 6.25L18.91 6.25L18.91 6.25Q19.54 5.88 20.36 5.88L20.36 5.88ZM20.23 12.18L20.23 12.18Q21.25 12.18 21.84 11.46L21.84 11.46L21.84 11.46Q22.43 10.74 22.43 9.52L22.43 9.52L22.43 9.52Q22.43 8.30 21.84 7.58L21.84 7.58L21.84 7.58Q21.25 6.86 20.23 6.86L20.23 6.86L20.23 6.86Q19.22 6.86 18.63 7.56L18.63 7.56L18.63 7.56Q18.03 8.26 18.03 9.44L18.03 9.44L18.03 9.60L18.03 9.60Q18.03 10.78 18.63 11.48L18.63 11.48L18.63 11.48Q19.22 12.18 20.23 12.18L20.23 12.18ZM26.29 4.68L26.29 4.68Q25.91 4.68 25.68 4.44L25.68 4.44L25.68 4.44Q25.45 4.21 25.45 3.84L25.45 3.84L25.45 3.84Q25.45 3.46 25.68 3.23L25.68 3.23L25.68 3.23Q25.91 3.00 26.29 3.00L26.29 3.00L26.29 3.00Q26.67 3.00 26.90 3.23L26.90 3.23L26.90 3.23Q27.13 3.46 27.13 3.84L27.13 3.84L27.13 3.84Q27.13 4.21 26.90 4.44L26.90 4.44L26.90 4.44Q26.67 4.68 26.29 4.68L26.29 4.68ZM26.85 6.02L26.85 13.02L25.73 13.02L25.73 6.02L26.85 6.02ZM35.46 9.16L35.46 9.16Q35.46 9.55 35.41 9.94L35.41 9.94L30.13 9.94L30.13 9.94Q30.23 11.00 30.84 11.59L30.84 11.59L30.84 11.59Q31.44 12.18 32.41 12.18L32.41 12.18L32.41 12.18Q33.18 12.18 33.69 11.91L33.69 11.91L33.69 11.91Q34.20 11.65 34.38 11.14L34.38 11.14L35.32 11.63L35.32 11.63Q34.90 12.38 34.20 12.77L34.20 12.77L34.20 12.77Q33.50 13.16 32.41 13.16L32.41 13.16L32.41 13.16Q30.83 13.16 29.93 12.19L29.93 12.19L29.93 12.19Q29.02 11.23 29.02 9.52L29.02 9.52L29.02 9.52Q29.02 7.81 29.88 6.85L29.88 6.85L29.88 6.85Q30.74 5.88 32.33 5.88L32.33 5.88L32.33 5.88Q33.31 5.88 34.02 6.31L34.02 6.31L34.02 6.31Q34.73 6.75 35.10 7.49L35.10 7.49L35.10 7.49Q35.46 8.23 35.46 9.16L35.46 9.16ZM32.33 6.86L32.33 6.86Q31.40 6.86 30.84 7.41L30.84 7.41L30.84 7.41Q30.27 7.95 30.14 8.95L30.14 8.95L34.38 8.95L34.38 8.95Q34.27 7.97 33.74 7.41L33.74 7.41L33.74 7.41Q33.21 6.86 32.33 6.86L32.33 6.86Z"></path></g><!----><g data-v-423bf9ae="" id="636b49db-6cfc-4d9f-ba9f-782129fde6c7" transform="matrix(1.0868111504448785,0,0,1.0868111504448785,-13.255261890115804,-0.23894260335429607)" stroke="none" fill="#488eff"><g clip-rule="evenodd"><path d="M12.983 10.59l17.018 88.223-5.872-59.049 29.021-1.892-.054-9.883L64.549 1 53.622 18.977z"></path><path d="M59.389 54.548l5.16-53.541-8.74 39.716-19.612 1.045 1.57 20.462-7.766 36.583 12.057-39.899z"></path><path d="M62.8 67.182l.549-10.453-15.979 3.755-.032 11.797-17.337 26.532 21.68-27.616zM65.711 62.394l14.841-4.731 1.509-12.532-15.899 2.095zM72.07 44.502l10.988-1.417 1.581-10.278-8.079-.373L64.549 1l8.43 30.967z"></path><path d="M87.413 31.294l1.256-9.506-9.544-2.694L64.549 1l14.483 22.437-.422 7z"></path></g></g><!----><g data-v-423bf9ae="" id="5c5bfd7b-3b30-4970-b7c0-72680384706f" fill="#2e3034" transform="matrix(0.3049175607764686,0,0,0.3049175607764686,101.70143388808071,58.539446294276495)"><path d="M10.95 7.63L10.95 7.63L10.95 7.63Q10.95 8.40 10.56 9.10L10.56 9.10L10.56 9.10Q10.18 9.80 9.53 10.32L9.53 10.32L9.53 10.32Q8.88 10.85 8.00 11.16L8.00 11.16L8.00 11.16Q7.13 11.47 6.15 11.47L6.15 11.47L6.15 11.47Q5.80 11.47 5.59 11.38L5.59 11.38L5.59 11.38Q5.39 11.28 5.14 11.02L5.14 11.02L5.14 11.02Q4.44 12.54 4.00 13.82L4.00 13.82L4.00 13.82Q3.56 15.11 3.30 16.31L3.30 16.31L3.30 16.31Q2.77 16.18 2.44 15.87L2.44 15.87L2.44 15.87Q2.10 15.55 1.82 15.08L1.82 15.08L1.82 15.08Q1.96 14.81 2.16 14.38L2.16 14.38L2.16 14.38Q2.35 13.94 2.63 13.31L2.63 13.31L2.63 13.31Q2.91 12.67 3.28 11.78L3.28 11.78L3.28 11.78Q3.65 10.89 4.16 9.70L4.16 9.70L4.16 9.70Q4.38 9.16 4.55 8.75L4.55 8.75L4.55 8.75Q4.72 8.34 4.84 7.99L4.84 7.99L4.84 7.99Q4.97 7.63 5.08 7.28L5.08 7.28L5.08 7.28Q5.18 6.93 5.29 6.51L5.29 6.51L5.29 6.51Q4.63 6.72 4.08 7L4.08 7L4.08 7Q3.53 7.28 3.16 7.59L3.16 7.59L3.16 7.59Q3.04 7.50 2.91 7.34L2.91 7.34L2.91 7.34Q2.77 7.17 2.66 6.96L2.66 6.96L2.66 6.96Q2.55 6.76 2.46 6.55L2.46 6.55L2.46 6.55Q2.38 6.34 2.37 6.17L2.37 6.17L2.37 6.17Q2.77 5.89 3.37 5.66L3.37 5.66L3.37 5.66Q3.98 5.42 4.66 5.24L4.66 5.24L4.66 5.24Q5.35 5.07 6.08 4.97L6.08 4.97L6.08 4.97Q6.82 4.87 7.49 4.87L7.49 4.87L7.49 4.87Q8.29 4.87 8.93 5.07L8.93 5.07L8.93 5.07Q9.58 5.28 10.02 5.64L10.02 5.64L10.02 5.64Q10.47 6.01 10.71 6.51L10.71 6.51L10.71 6.51Q10.95 7.01 10.95 7.63ZM8.46 5.95L8.46 5.95L8.46 5.95Q7.92 5.95 7.36 6.03L7.36 6.03L7.53 6.29L7.53 6.29Q7.39 6.47 7.18 6.83L7.18 6.83L7.18 6.83Q6.97 7.20 6.72 7.71L6.72 7.71L6.72 7.71Q6.47 8.22 6.17 8.85L6.17 8.85L6.17 8.85Q5.87 9.48 5.53 10.18L5.53 10.18L5.53 10.18Q6.62 10.18 7.52 9.97L7.52 9.97L7.52 9.97Q8.41 9.77 9.05 9.41L9.05 9.41L9.05 9.41Q9.69 9.06 10.04 8.58L10.04 8.58L10.04 8.58Q10.40 8.11 10.40 7.56L10.40 7.56L10.40 7.56Q10.40 6.83 9.91 6.39L9.91 6.39L9.91 6.39Q9.42 5.95 8.46 5.95ZM26.92 7.46L26.92 7.46L26.92 7.46Q26.92 8.13 26.62 8.73L26.62 8.73L26.62 8.73Q26.32 9.32 25.79 9.79L25.79 9.79L25.79 9.79Q25.26 10.26 24.54 10.58L24.54 10.58L24.54 10.58Q23.83 10.91 22.99 11.02L22.99 11.02L22.99 11.02Q23.20 11.65 23.50 12.31L23.50 12.31L23.50 12.31Q23.80 12.98 24.15 13.59L24.15 13.59L24.15 13.59Q24.50 14.21 24.88 14.73L24.88 14.73L24.88 14.73Q25.26 15.25 25.62 15.58L25.62 15.58L25.62 15.58Q25.55 15.72 25.42 15.86L25.42 15.86L25.42 15.86Q25.28 16.00 25.11 16.12L25.11 16.12L25.11 16.12Q24.93 16.24 24.74 16.32L24.74 16.32L24.74 16.32Q24.56 16.39 24.39 16.39L24.39 16.39L24.39 16.39Q24.08 16.39 23.80 16.10L23.80 16.10L23.80 16.10Q23.52 15.81 23.23 15.17L23.23 15.17L23.23 15.17Q22.95 14.53 22.63 13.52L22.63 13.52L22.63 13.52Q22.32 12.50 21.94 11.07L21.94 11.07L21.94 11.07Q21.78 11.07 21.63 11.07L21.63 11.07L21.63 11.07Q21.48 11.07 21.39 11.05L21.39 11.05L21.39 11.05Q21.29 10.99 21.18 10.85L21.18 10.85L21.18 10.85Q20.80 11.66 20.51 12.38L20.51 12.38L20.51 12.38Q20.22 13.09 19.98 13.76L19.98 13.76L19.98 13.76Q19.75 14.42 19.58 15.04L19.58 15.04L19.58 15.04Q19.40 15.67 19.28 16.31L19.28 16.31L19.28 16.31Q18.80 16.20 18.45 15.90L18.45 15.90L18.45 15.90Q18.10 15.61 17.79 15.08L17.79 15.08L17.79 15.08Q17.85 14.95 17.91 14.83L17.91 14.83L17.91 14.83Q17.98 14.71 18.07 14.50L18.07 14.50L18.07 14.50Q18.17 14.28 18.32 13.94L18.32 13.94L18.32 13.94Q18.47 13.61 18.71 13.05L18.71 13.05L18.71 13.05Q18.96 12.49 19.30 11.68L19.30 11.68L19.30 11.68Q19.64 10.86 20.13 9.70L20.13 9.70L20.13 9.70Q20.36 9.18 20.52 8.79L20.52 8.79L20.52 8.79Q20.68 8.40 20.80 8.04L20.80 8.04L20.80 8.04Q20.93 7.69 21.04 7.33L21.04 7.33L21.04 7.33Q21.14 6.97 21.25 6.51L21.25 6.51L21.25 6.51Q20.61 6.73 20.05 7.01L20.05 7.01L20.05 7.01Q19.50 7.28 19.14 7.59L19.14 7.59L19.14 7.59Q19.01 7.50 18.88 7.34L18.88 7.34L18.88 7.34Q18.75 7.17 18.63 6.96L18.63 6.96L18.63 6.96Q18.52 6.76 18.44 6.55L18.44 6.55L18.44 6.55Q18.35 6.34 18.34 6.17L18.34 6.17L18.34 6.17Q18.76 5.89 19.37 5.66L19.37 5.66L19.37 5.66Q19.98 5.42 20.66 5.24L20.66 5.24L20.66 5.24Q21.35 5.07 22.06 4.97L22.06 4.97L22.06 4.97Q22.78 4.87 23.39 4.87L23.39 4.87L23.39 4.87Q25.07 4.87 26.00 5.56L26.00 5.56L26.00 5.56Q26.92 6.26 26.92 7.46ZM23.34 6.02L23.51 6.29L23.51 6.29Q23.41 6.41 23.20 6.79L23.20 6.79L23.20 6.79Q22.99 7.17 22.71 7.69L22.71 7.69L22.71 7.69Q22.44 8.22 22.14 8.83L22.14 8.83L22.14 8.83Q21.84 9.45 21.56 10.05L21.56 10.05L21.56 10.05Q22.61 10.05 23.49 9.86L23.49 9.86L23.49 9.86Q24.37 9.66 25.02 9.30L25.02 9.30L25.02 9.30Q25.66 8.95 26.02 8.46L26.02 8.46L26.02 8.46Q26.38 7.98 26.38 7.39L26.38 7.39L26.38 7.39Q26.38 6.69 25.87 6.32L25.87 6.32L25.87 6.32Q25.37 5.95 24.32 5.95L24.32 5.95L24.32 5.95Q24.08 5.95 23.84 5.97L23.84 5.97L23.84 5.97Q23.60 5.99 23.34 6.02L23.34 6.02ZM40.42 4.98L40.42 4.98L40.42 4.98Q40.68 5.10 40.96 5.27L40.96 5.27L40.96 5.27Q41.24 5.45 41.48 5.63L41.48 5.63L41.48 5.63Q41.72 5.81 41.88 5.98L41.88 5.98L41.88 5.98Q42.04 6.16 42.06 6.27L42.06 6.27L42.06 6.27Q41.82 6.22 41.58 6.20L41.58 6.20L41.58 6.20Q41.34 6.17 41.15 6.17L41.15 6.17L41.15 6.17Q40.52 6.17 39.89 6.48L39.89 6.48L39.89 6.48Q39.27 6.79 38.71 7.32L38.71 7.32L38.71 7.32Q38.15 7.85 37.67 8.57L37.67 8.57L37.67 8.57Q37.20 9.28 36.85 10.09L36.85 10.09L36.85 10.09Q36.51 10.91 36.32 11.77L36.32 11.77L36.32 11.77Q36.12 12.64 36.12 13.48L36.12 13.48L36.12 13.48Q36.12 14.57 36.48 15.11L36.48 15.11L36.48 15.11Q36.85 15.64 37.55 15.64L37.55 15.64L37.55 15.64Q37.88 15.64 38.28 15.51L38.28 15.51L38.28 15.51Q38.67 15.37 39.07 15.13L39.07 15.13L39.07 15.13Q39.48 14.90 39.87 14.56L39.87 14.56L39.87 14.56Q40.26 14.22 40.60 13.82L40.60 13.82L40.60 13.82Q41.09 13.23 41.48 12.48L41.48 12.48L41.48 12.48Q41.87 11.73 42.15 10.89L42.15 10.89L42.15 10.89Q42.42 10.05 42.57 9.16L42.57 9.16L42.57 9.16Q42.71 8.27 42.71 7.42L42.71 7.42L42.71 7.42Q42.71 7.08 42.70 6.85L42.70 6.85L42.70 6.85Q42.69 6.62 42.66 6.46L42.66 6.46L42.66 6.46Q42.64 6.30 42.63 6.20L42.63 6.20L42.63 6.20Q42.62 6.10 42.60 6.03L42.60 6.03L42.60 6.03Q42.77 6.12 42.97 6.24L42.97 6.24L42.97 6.24Q43.18 6.36 43.35 6.59L43.35 6.59L43.35 6.59Q43.53 6.82 43.64 7.20L43.64 7.20L43.64 7.20Q43.76 7.57 43.76 8.18L43.76 8.18L43.76 8.18Q43.76 9.16 43.53 10.10L43.53 10.10L43.53 10.10Q43.30 11.05 42.89 11.90L42.89 11.90L42.89 11.90Q42.48 12.75 41.92 13.50L41.92 13.50L41.92 13.50Q41.36 14.24 40.71 14.80L40.71 14.80L40.71 14.80Q39.87 15.54 38.92 15.95L38.92 15.95L38.92 15.95Q37.97 16.35 37.09 16.35L37.09 16.35L37.09 16.35Q35.80 16.35 35.12 15.53L35.12 15.53L35.12 15.53Q34.44 14.71 34.44 13.12L34.44 13.12L34.44 13.12Q34.44 12.26 34.63 11.31L34.63 11.31L34.63 11.31Q34.82 10.36 35.16 9.44L35.16 9.44L35.16 9.44Q35.50 8.51 35.98 7.68L35.98 7.68L35.98 7.68Q36.46 6.85 37.02 6.21L37.02 6.21L37.02 6.21Q37.59 5.57 38.24 5.19L38.24 5.19L38.24 5.19Q38.89 4.82 39.58 4.82L39.58 4.82L39.58 4.82Q39.80 4.82 40.00 4.85L40.00 4.85L40.00 4.85Q40.19 4.89 40.42 4.98ZM58.84 10.72L58.84 10.72L58.84 10.72Q59.21 10.72 59.42 10.98L59.42 10.98L59.42 10.98Q59.63 11.23 59.63 11.68L59.63 11.68L59.63 11.68Q59.63 11.79 59.61 11.91L59.61 11.91L59.61 11.91Q59.60 12.03 59.57 12.11L59.57 12.11L59.57 12.11Q59.28 12.04 58.93 12.03L58.93 12.03L58.93 12.03Q58.84 12.64 58.48 13.32L58.48 13.32L58.48 13.32Q58.11 14 57.60 14.60L57.60 14.60L57.60 14.60Q57.08 15.19 56.46 15.64L56.46 15.64L56.46 15.64Q55.85 16.09 55.24 16.24L55.24 16.24L55.24 16.24Q53.37 16.20 52.51 15.27L52.51 15.27L52.51 15.27Q51.65 14.34 51.65 12.36L51.65 12.36L51.65 12.36Q51.65 10.92 52.18 9.57L52.18 9.57L52.18 9.57Q52.71 8.22 53.59 7.17L53.59 7.17L53.59 7.17Q54.47 6.12 55.61 5.48L55.61 5.48L55.61 5.48Q56.76 4.84 57.99 4.84L57.99 4.84L57.99 4.84Q58.95 4.84 59.49 5.25L59.49 5.25L59.49 5.25Q60.03 5.66 60.03 6.40L60.03 6.40L60.03 6.40Q60.03 6.89 59.80 7.31L59.80 7.31L59.80 7.31Q59.57 7.73 59.04 8.22L59.04 8.22L59.04 8.22Q58.72 8.12 58.48 7.88L58.48 7.88L58.48 7.88Q58.24 7.63 58.18 7.31L58.18 7.31L58.18 7.31Q58.66 6.96 58.86 6.66L58.86 6.66L58.86 6.66Q59.05 6.37 59.05 5.96L59.05 5.96L59.05 5.96Q59.05 5.32 58.28 5.32L58.28 5.32L58.28 5.32Q57.65 5.32 56.93 5.79L56.93 5.79L56.93 5.79Q56.21 6.26 55.48 7.14L55.48 7.14L55.48 7.14Q54.45 8.39 53.97 9.71L53.97 9.71L53.97 9.71Q53.49 11.03 53.49 12.68L53.49 12.68L53.49 12.68Q53.49 13.30 53.62 13.80L53.62 13.80L53.62 13.80Q53.75 14.31 53.96 14.69L53.96 14.69L53.96 14.69Q54.17 15.06 54.45 15.29L54.45 15.29L54.45 15.29Q54.74 15.51 55.08 15.54L55.08 15.54L55.08 15.54Q55.52 15.44 55.97 15.09L55.97 15.09L55.97 15.09Q56.42 14.73 56.79 14.25L56.79 14.25L56.79 14.25Q57.16 13.76 57.42 13.21L57.42 13.21L57.42 13.21Q57.68 12.66 57.74 12.15L57.74 12.15L57.74 12.15Q57.34 12.24 56.99 12.31L56.99 12.31L56.99 12.31Q56.63 12.39 56.31 12.39L56.31 12.39L56.31 12.39Q55.89 12.39 55.57 12.18L55.57 12.18L55.57 12.18Q55.26 11.97 55.15 11.61L55.15 11.61L55.15 11.61Q55.40 11.47 55.88 11.31L55.88 11.31L55.88 11.31Q56.36 11.16 56.91 11.03L56.91 11.03L56.91 11.03Q57.46 10.89 57.98 10.81L57.98 10.81L57.98 10.81Q58.51 10.72 58.84 10.72ZM76.71 7.46L76.71 7.46L76.71 7.46Q76.71 8.13 76.40 8.73L76.40 8.73L76.40 8.73Q76.10 9.32 75.57 9.79L75.57 9.79L75.57 9.79Q75.04 10.26 74.33 10.58L74.33 10.58L74.33 10.58Q73.61 10.91 72.77 11.02L72.77 11.02L72.77 11.02Q72.98 11.65 73.28 12.31L73.28 12.31L73.28 12.31Q73.58 12.98 73.93 13.59L73.93 13.59L73.93 13.59Q74.28 14.21 74.66 14.73L74.66 14.73L74.66 14.73Q75.04 15.25 75.40 15.58L75.40 15.58L75.40 15.58Q75.33 15.72 75.20 15.86L75.20 15.86L75.20 15.86Q75.07 16.00 74.89 16.12L74.89 16.12L74.89 16.12Q74.72 16.24 74.53 16.32L74.53 16.32L74.53 16.32Q74.34 16.39 74.17 16.39L74.17 16.39L74.17 16.39Q73.86 16.39 73.58 16.10L73.58 16.10L73.58 16.10Q73.30 15.81 73.02 15.17L73.02 15.17L73.02 15.17Q72.73 14.53 72.41 13.52L72.41 13.52L72.41 13.52Q72.10 12.50 71.72 11.07L71.72 11.07L71.72 11.07Q71.57 11.07 71.41 11.07L71.41 11.07L71.41 11.07Q71.26 11.07 71.18 11.05L71.18 11.05L71.18 11.05Q71.08 10.99 70.97 10.85L70.97 10.85L70.97 10.85Q70.59 11.66 70.29 12.38L70.29 12.38L70.29 12.38Q70.00 13.09 69.77 13.76L69.77 13.76L69.77 13.76Q69.54 14.42 69.36 15.04L69.36 15.04L69.36 15.04Q69.19 15.67 69.06 16.31L69.06 16.31L69.06 16.31Q68.59 16.20 68.24 15.90L68.24 15.90L68.24 15.90Q67.89 15.61 67.58 15.08L67.58 15.08L67.58 15.08Q67.63 14.95 67.70 14.83L67.70 14.83L67.70 14.83Q67.76 14.71 67.86 14.50L67.86 14.50L67.86 14.50Q67.96 14.28 68.10 13.94L68.10 13.94L68.10 13.94Q68.25 13.61 68.49 13.05L68.49 13.05L68.49 13.05Q68.74 12.49 69.08 11.68L69.08 11.68L69.08 11.68Q69.43 10.86 69.92 9.70L69.92 9.70L69.92 9.70Q70.14 9.18 70.30 8.79L70.30 8.79L70.30 8.79Q70.46 8.40 70.59 8.04L70.59 8.04L70.59 8.04Q70.71 7.69 70.82 7.33L70.82 7.33L70.82 7.33Q70.92 6.97 71.04 6.51L71.04 6.51L71.04 6.51Q70.39 6.73 69.84 7.01L69.84 7.01L69.84 7.01Q69.29 7.28 68.92 7.59L68.92 7.59L68.92 7.59Q68.80 7.50 68.66 7.34L68.66 7.34L68.66 7.34Q68.53 7.17 68.42 6.96L68.42 6.96L68.42 6.96Q68.31 6.76 68.22 6.55L68.22 6.55L68.22 6.55Q68.14 6.34 68.12 6.17L68.12 6.17L68.12 6.17Q68.54 5.89 69.15 5.66L69.15 5.66L69.15 5.66Q69.76 5.42 70.45 5.24L70.45 5.24L70.45 5.24Q71.13 5.07 71.85 4.97L71.85 4.97L71.85 4.97Q72.56 4.87 73.18 4.87L73.18 4.87L73.18 4.87Q74.86 4.87 75.78 5.56L75.78 5.56L75.78 5.56Q76.71 6.26 76.71 7.46ZM73.12 6.02L73.29 6.29L73.29 6.29Q73.19 6.41 72.98 6.79L72.98 6.79L72.98 6.79Q72.77 7.17 72.50 7.69L72.50 7.69L72.50 7.69Q72.23 8.22 71.92 8.83L71.92 8.83L71.92 8.83Q71.62 9.45 71.34 10.05L71.34 10.05L71.34 10.05Q72.39 10.05 73.28 9.86L73.28 9.86L73.28 9.86Q74.16 9.66 74.80 9.30L74.80 9.30L74.80 9.30Q75.45 8.95 75.80 8.46L75.80 8.46L75.80 8.46Q76.16 7.98 76.16 7.39L76.16 7.39L76.16 7.39Q76.16 6.69 75.66 6.32L75.66 6.32L75.66 6.32Q75.15 5.95 74.10 5.95L74.10 5.95L74.10 5.95Q73.86 5.95 73.63 5.97L73.63 5.97L73.63 5.97Q73.39 5.99 73.12 6.02L73.12 6.02ZM84.49 16.24L84.49 16.24L84.49 16.24Q83.82 16.04 83.56 15.85L83.56 15.85L83.56 15.85Q83.30 15.65 83.30 15.36L83.30 15.36L83.30 15.36Q83.30 15.13 83.43 14.73L83.43 14.73L83.43 14.73Q83.55 14.32 83.80 13.77L83.80 13.77L83.80 13.77Q84.04 13.22 84.38 12.54L84.38 12.54L84.38 12.54Q84.73 11.87 85.16 11.10L85.16 11.10L85.16 11.10Q84.80 11.09 84.51 11.08L84.51 11.08L84.51 11.08Q84.22 11.07 84.04 11.07L84.04 11.07L84.04 11.07Q84.13 10.86 84.52 10.71L84.52 10.71L84.52 10.71Q84.91 10.56 85.55 10.44L85.55 10.44L85.55 10.44Q86.10 9.53 86.72 8.71L86.72 8.71L86.72 8.71Q87.35 7.88 87.98 7.19L87.98 7.19L87.98 7.19Q88.61 6.50 89.24 5.97L89.24 5.97L89.24 5.97Q89.87 5.45 90.44 5.14L90.44 5.14L90.44 5.14Q90.45 5.04 90.46 4.97L90.46 4.97L90.46 4.97Q90.47 4.90 90.47 4.87L90.47 4.87L90.47 4.87Q90.66 4.87 90.99 4.97L90.99 4.97L90.99 4.97Q91.32 5.07 91.64 5.21L91.64 5.21L91.64 5.21Q91.95 5.35 92.20 5.49L92.20 5.49L92.20 5.49Q92.44 5.64 92.47 5.74L92.47 5.74L92.47 5.74Q92.01 6.55 91.56 8.17L91.56 8.17L91.56 8.17Q91.11 9.79 90.82 12.04L90.82 12.04L90.82 12.04Q90.75 12.60 90.70 13.31L90.70 13.31L90.70 13.31Q90.65 14.03 90.65 14.91L90.65 14.91L90.65 14.91Q90.65 15.22 90.65 15.54L90.65 15.54L90.65 15.54Q90.65 15.86 90.68 16.21L90.68 16.21L90.68 16.21Q90.65 16.23 90.62 16.23L90.62 16.23L90.62 16.23Q90.59 16.23 90.51 16.23L90.51 16.23L90.51 16.23Q90.31 16.23 90.05 16.16L90.05 16.16L90.05 16.16Q89.80 16.10 89.55 16.01L89.55 16.01L89.55 16.01Q89.31 15.92 89.13 15.81L89.13 15.81L89.13 15.81Q88.96 15.69 88.91 15.61L88.91 15.61L88.91 15.61Q88.90 15.43 88.90 15.25L88.90 15.25L88.90 15.25Q88.90 15.08 88.90 14.88L88.90 14.88L88.90 14.88Q88.90 14.01 88.96 13.12L88.96 13.12L88.96 13.12Q89.03 12.22 89.18 11.27L89.18 11.27L89.18 11.27Q88.98 11.26 88.66 11.23L88.66 11.23L88.66 11.23Q88.34 11.21 87.94 11.20L87.94 11.20L87.94 11.20Q87.54 11.19 87.09 11.16L87.09 11.16L87.09 11.16Q86.63 11.14 86.20 11.13L86.20 11.13L86.20 11.13Q85.86 11.76 85.57 12.38L85.57 12.38L85.57 12.38Q85.27 13.01 85.06 13.64L85.06 13.64L85.06 13.64Q84.83 14.31 84.68 14.98L84.68 14.98L84.68 14.98Q84.53 15.65 84.49 16.24ZM89.89 7.83L89.89 7.83L89.89 7.83Q89.95 7.63 90.03 7.29L90.03 7.29L90.03 7.29Q90.10 6.94 90.17 6.57L90.17 6.57L90.17 6.57Q89.82 6.69 89.40 7.03L89.40 7.03L89.40 7.03Q88.97 7.36 88.52 7.86L88.52 7.86L88.52 7.86Q88.06 8.36 87.59 8.98L87.59 8.98L87.59 8.98Q87.12 9.60 86.69 10.30L86.69 10.30L86.69 10.30Q87.86 10.21 89.36 10.18L89.36 10.18L89.36 10.18Q89.47 9.59 89.61 9.01L89.61 9.01L89.61 9.01Q89.74 8.43 89.89 7.83ZM105.63 16.21L105.63 16.21L105.63 16.21Q105.60 16.23 105.57 16.23L105.57 16.23L105.57 16.23Q105.55 16.23 105.46 16.23L105.46 16.23L105.46 16.23Q105.27 16.23 105.01 16.16L105.01 16.16L105.01 16.16Q104.75 16.10 104.50 16.01L104.50 16.01L104.50 16.01Q104.26 15.92 104.08 15.81L104.08 15.81L104.08 15.81Q103.91 15.69 103.87 15.61L103.87 15.61L103.87 15.61Q103.85 15.41 103.85 15.20L103.85 15.20L103.85 15.20Q103.85 14.99 103.85 14.80L103.85 14.80L103.85 14.80Q103.85 13.23 104.08 11.52L104.08 11.52L104.08 11.52Q104.31 9.81 104.85 7.83L104.85 7.83L104.85 7.83Q104.90 7.63 104.97 7.33L104.97 7.33L104.97 7.33Q105.03 7.03 105.10 6.68L105.10 6.68L105.10 6.68Q104.76 6.94 104.30 7.53L104.30 7.53L104.30 7.53Q103.84 8.11 103.33 8.90L103.33 8.90L103.33 8.90Q102.82 9.69 102.30 10.63L102.30 10.63L102.30 10.63Q101.79 11.58 101.37 12.55L101.37 12.55L101.37 12.55Q100.95 13.52 100.65 14.48L100.65 14.48L100.65 14.48Q100.35 15.43 100.28 16.24L100.28 16.24L100.28 16.24Q99.61 16.04 99.35 15.85L99.35 15.85L99.35 15.85Q99.09 15.65 99.09 15.37L99.09 15.37L99.09 15.37Q99.09 15.12 99.25 14.66L99.25 14.66L99.25 14.66Q99.40 14.20 99.68 13.57L99.68 13.57L99.68 13.57Q99.96 12.94 100.37 12.16L100.37 12.16L100.37 12.16Q100.77 11.38 101.26 10.49L101.26 10.49L101.26 10.49Q101.82 9.46 102.36 8.57L102.36 8.57L102.36 8.57Q102.90 7.67 103.42 6.94L103.42 6.94L103.42 6.94Q103.94 6.22 104.43 5.68L104.43 5.68L104.43 5.68Q104.93 5.15 105.42 4.87L105.42 4.87L105.42 4.87Q105.62 4.87 105.94 4.97L105.94 4.97L105.94 4.97Q106.27 5.07 106.59 5.21L106.59 5.21L106.59 5.21Q106.90 5.35 107.15 5.49L107.15 5.49L107.15 5.49Q107.39 5.64 107.42 5.74L107.42 5.74L107.42 5.74Q107.23 6.13 106.96 6.92L106.96 6.92L106.96 6.92Q106.69 7.70 106.42 8.69L106.42 8.69L106.42 8.69Q106.15 9.69 105.90 10.80L105.90 10.80L105.90 10.80Q105.66 11.91 105.52 12.94L105.52 12.94L105.52 12.94Q105.84 12.17 106.27 11.33L106.27 11.33L106.27 11.33Q106.69 10.50 107.17 9.68L107.17 9.68L107.17 9.68Q107.65 8.86 108.14 8.09L108.14 8.09L108.14 8.09Q108.64 7.32 109.12 6.69L109.12 6.69L109.12 6.69Q109.59 6.05 110.00 5.57L110.00 5.57L110.00 5.57Q110.42 5.10 110.74 4.87L110.74 4.87L110.74 4.87Q110.94 4.87 111.27 4.97L111.27 4.97L111.27 4.97Q111.59 5.07 111.91 5.21L111.91 5.21L111.91 5.21Q112.22 5.35 112.47 5.49L112.47 5.49L112.47 5.49Q112.71 5.64 112.74 5.74L112.74 5.74L112.74 5.74Q112.29 6.54 111.96 7.69L111.96 7.69L111.96 7.69Q111.62 8.83 111.39 10.09L111.39 10.09L111.39 10.09Q111.16 11.35 111.04 12.59L111.04 12.59L111.04 12.59Q110.92 13.83 110.92 14.81L110.92 14.81L110.92 14.81Q110.92 15.13 110.92 15.48L110.92 15.48L110.92 15.48Q110.92 15.83 110.95 16.21L110.95 16.21L110.95 16.21Q110.75 16.21 110.48 16.16L110.48 16.16L110.48 16.16Q110.21 16.11 109.95 16.03L109.95 16.03L109.95 16.03Q109.69 15.95 109.48 15.84L109.48 15.84L109.48 15.84Q109.27 15.74 109.19 15.61L109.19 15.61L109.19 15.61Q109.17 15.41 109.17 15.20L109.17 15.20L109.17 15.20Q109.17 14.99 109.17 14.80L109.17 14.80L109.17 14.80Q109.17 13.23 109.40 11.52L109.40 11.52L109.40 11.52Q109.63 9.81 110.17 7.83L110.17 7.83L110.17 7.83Q110.22 7.63 110.29 7.29L110.29 7.29L110.29 7.29Q110.36 6.96 110.43 6.59L110.43 6.59L110.43 6.59Q110.04 6.79 109.54 7.34L109.54 7.34L109.54 7.34Q109.05 7.90 108.53 8.69L108.53 8.69L108.53 8.69Q108.02 9.48 107.53 10.44L107.53 10.44L107.53 10.44Q107.03 11.41 106.63 12.41L106.63 12.41L106.63 12.41Q106.23 13.41 105.96 14.40L105.96 14.40L105.96 14.40Q105.69 15.39 105.63 16.21ZM125.82 16.21L125.82 16.21L125.82 16.21Q125.79 16.23 125.76 16.23L125.76 16.23L125.76 16.23Q125.73 16.23 125.65 16.23L125.65 16.23L125.65 16.23Q125.45 16.23 125.19 16.16L125.19 16.16L125.19 16.16Q124.94 16.10 124.69 16.01L124.69 16.01L124.69 16.01Q124.45 15.92 124.27 15.81L124.27 15.81L124.27 15.81Q124.10 15.69 124.05 15.61L124.05 15.61L124.05 15.61Q124.04 15.41 124.04 15.20L124.04 15.20L124.04 15.20Q124.04 14.99 124.04 14.80L124.04 14.80L124.04 14.80Q124.04 13.23 124.27 11.52L124.27 11.52L124.27 11.52Q124.50 9.81 125.03 7.83L125.03 7.83L125.03 7.83Q125.09 7.63 125.15 7.33L125.15 7.33L125.15 7.33Q125.22 7.03 125.29 6.68L125.29 6.68L125.29 6.68Q124.95 6.94 124.49 7.53L124.49 7.53L124.49 7.53Q124.03 8.11 123.52 8.90L123.52 8.90L123.52 8.90Q123.00 9.69 122.49 10.63L122.49 10.63L122.49 10.63Q121.98 11.58 121.56 12.55L121.56 12.55L121.56 12.55Q121.14 13.52 120.84 14.48L120.84 14.48L120.84 14.48Q120.54 15.43 120.47 16.24L120.47 16.24L120.47 16.24Q119.80 16.04 119.54 15.85L119.54 15.85L119.54 15.85Q119.28 15.65 119.28 15.37L119.28 15.37L119.28 15.37Q119.28 15.12 119.43 14.66L119.43 14.66L119.43 14.66Q119.59 14.20 119.87 13.57L119.87 13.57L119.87 13.57Q120.15 12.94 120.55 12.16L120.55 12.16L120.55 12.16Q120.96 11.38 121.45 10.49L121.45 10.49L121.45 10.49Q122.01 9.46 122.55 8.57L122.55 8.57L122.55 8.57Q123.09 7.67 123.61 6.94L123.61 6.94L123.61 6.94Q124.12 6.22 124.62 5.68L124.62 5.68L124.62 5.68Q125.12 5.15 125.61 4.87L125.61 4.87L125.61 4.87Q125.80 4.87 126.13 4.97L126.13 4.97L126.13 4.97Q126.46 5.07 126.78 5.21L126.78 5.21L126.78 5.21Q127.09 5.35 127.34 5.49L127.34 5.49L127.34 5.49Q127.58 5.64 127.61 5.74L127.61 5.74L127.61 5.74Q127.41 6.13 127.15 6.92L127.15 6.92L127.15 6.92Q126.88 7.70 126.61 8.69L126.61 8.69L126.61 8.69Q126.34 9.69 126.09 10.80L126.09 10.80L126.09 10.80Q125.85 11.91 125.71 12.94L125.71 12.94L125.71 12.94Q126.03 12.17 126.45 11.33L126.45 11.33L126.45 11.33Q126.88 10.50 127.36 9.68L127.36 9.68L127.36 9.68Q127.83 8.86 128.33 8.09L128.33 8.09L128.33 8.09Q128.83 7.32 129.30 6.69L129.30 6.69L129.30 6.69Q129.78 6.05 130.19 5.57L130.19 5.57L130.19 5.57Q130.61 5.10 130.93 4.87L130.93 4.87L130.93 4.87Q131.12 4.87 131.45 4.97L131.45 4.97L131.45 4.97Q131.78 5.07 132.10 5.21L132.10 5.21L132.10 5.21Q132.41 5.35 132.66 5.49L132.66 5.49L132.66 5.49Q132.90 5.64 132.93 5.74L132.93 5.74L132.93 5.74Q132.48 6.54 132.15 7.69L132.15 7.69L132.15 7.69Q131.81 8.83 131.58 10.09L131.58 10.09L131.58 10.09Q131.35 11.35 131.23 12.59L131.23 12.59L131.23 12.59Q131.11 13.83 131.11 14.81L131.11 14.81L131.11 14.81Q131.11 15.13 131.11 15.48L131.11 15.48L131.11 15.48Q131.11 15.83 131.14 16.21L131.14 16.21L131.14 16.21Q130.94 16.21 130.67 16.16L130.67 16.16L130.67 16.16Q130.40 16.11 130.14 16.03L130.14 16.03L130.14 16.03Q129.88 15.95 129.67 15.84L129.67 15.84L129.67 15.84Q129.46 15.74 129.37 15.61L129.37 15.61L129.37 15.61Q129.36 15.41 129.36 15.20L129.36 15.20L129.36 15.20Q129.36 14.99 129.36 14.80L129.36 14.80L129.36 14.80Q129.36 13.23 129.59 11.52L129.59 11.52L129.59 11.52Q129.82 9.81 130.35 7.83L130.35 7.83L130.35 7.83Q130.41 7.63 130.48 7.29L130.48 7.29L130.48 7.29Q130.55 6.96 130.62 6.59L130.62 6.59L130.62 6.59Q130.23 6.79 129.73 7.34L129.73 7.34L129.73 7.34Q129.23 7.90 128.72 8.69L128.72 8.69L128.72 8.69Q128.21 9.48 127.72 10.44L127.72 10.44L127.72 10.44Q127.22 11.41 126.82 12.41L126.82 12.41L126.82 12.41Q126.42 13.41 126.15 14.40L126.15 14.40L126.15 14.40Q125.87 15.39 125.82 16.21ZM140.56 14.38L140.56 14.38L140.56 14.38Q140.56 13.87 140.72 13.07L140.72 13.07L140.72 13.07Q140.88 12.26 141.14 11.33L141.14 11.33L141.14 11.33Q141.40 10.40 141.74 9.43L141.74 9.43L141.74 9.43Q142.07 8.46 142.42 7.60L142.42 7.60L142.42 7.60Q142.77 6.75 143.11 6.10L143.11 6.10L143.11 6.10Q143.44 5.46 143.71 5.18L143.71 5.18L143.71 5.18Q143.85 5.19 144.08 5.29L144.08 5.29L144.08 5.29Q144.31 5.38 144.55 5.50L144.55 5.50L144.55 5.50Q144.79 5.63 144.98 5.78L144.98 5.78L144.98 5.78Q145.18 5.92 145.24 6.05L145.24 6.05L145.24 6.05Q144.83 6.41 144.43 7.15L144.43 7.15L144.43 7.15Q144.03 7.88 143.66 8.82L143.66 8.82L143.66 8.82Q143.29 9.76 142.97 10.80L142.97 10.80L142.97 10.80Q142.65 11.84 142.41 12.82L142.41 12.82L142.41 12.82Q142.17 13.80 142.04 14.64L142.04 14.64L142.04 14.64Q141.90 15.48 141.90 16.00L141.90 16.00L141.90 16.00Q141.90 16.24 141.95 16.30L141.95 16.30L141.95 16.30Q141.64 16.28 141.50 16.19L141.50 16.19L141.50 16.19Q141.36 16.10 141.28 16.00L141.28 16.00L141.28 16.00Q141.20 15.89 141.14 15.79L141.14 15.79L141.14 15.79Q141.08 15.68 140.95 15.62L140.95 15.62L140.95 15.62Q140.85 15.58 140.78 15.43L140.78 15.43L140.78 15.43Q140.71 15.27 140.66 15.09L140.66 15.09L140.66 15.09Q140.62 14.90 140.59 14.70L140.59 14.70L140.59 14.70Q140.56 14.50 140.56 14.38ZM152.80 16.24L152.80 16.24L152.80 16.24Q152.00 16.00 151.72 15.79L151.72 15.79L151.72 15.79Q151.44 15.57 151.44 15.19L151.44 15.19L151.44 15.19Q151.44 14.77 151.63 14.01L151.63 14.01L151.63 14.01Q151.83 13.24 152.14 12.31L152.14 12.31L152.14 12.31Q152.46 11.37 152.87 10.35L152.87 10.35L152.87 10.35Q153.27 9.32 153.69 8.39L153.69 8.39L153.69 8.39Q154.11 7.45 154.51 6.67L154.51 6.67L154.51 6.67Q154.91 5.89 155.22 5.46L155.22 5.46L155.12 4.87L155.12 4.87Q155.32 4.87 155.67 4.97L155.67 4.97L155.67 4.97Q156.02 5.07 156.37 5.21L156.37 5.21L156.37 5.21Q156.73 5.35 157.00 5.49L157.00 5.49L157.00 5.49Q157.28 5.64 157.30 5.74L157.30 5.74L157.30 5.74Q157.23 6.08 157.19 6.76L157.19 6.76L157.19 6.76Q157.15 7.43 157.15 8.20L157.15 8.20L157.15 8.20Q157.15 9.73 157.27 11.19L157.27 11.19L157.27 11.19Q157.39 12.66 157.82 14.17L157.82 14.17L157.82 14.17Q158.05 13.05 158.31 11.94L158.31 11.94L158.31 11.94Q158.56 10.82 158.84 9.81L158.84 9.81L158.84 9.81Q159.12 8.79 159.40 7.92L159.40 7.92L159.40 7.92Q159.68 7.06 159.94 6.40L159.94 6.40L159.94 6.40Q160.20 5.75 160.43 5.38L160.43 5.38L160.43 5.38Q160.65 5.01 160.83 4.98L160.83 4.98L160.83 4.98Q160.99 5.01 161.17 5.10L161.17 5.10L161.17 5.10Q161.35 5.19 161.52 5.32L161.52 5.32L161.52 5.32Q161.69 5.45 161.83 5.60L161.83 5.60L161.83 5.60Q161.97 5.75 162.05 5.91L162.05 5.91L162.05 5.91Q161.60 6.09 161.16 6.76L161.16 6.76L161.16 6.76Q160.72 7.43 160.32 8.39L160.32 8.39L160.32 8.39Q159.92 9.35 159.58 10.47L159.58 10.47L159.58 10.47Q159.24 11.59 158.98 12.68L158.98 12.68L158.98 12.68Q158.72 13.76 158.57 14.69L158.57 14.69L158.57 14.69Q158.42 15.61 158.41 16.17L158.41 16.17L158.41 16.17Q158.41 16.20 158.42 16.21L158.42 16.21L158.42 16.21Q158.38 16.23 158.33 16.23L158.33 16.23L158.33 16.23Q158.28 16.23 158.24 16.23L158.24 16.23L158.24 16.23Q157.60 16.23 157.10 16.07L157.10 16.07L157.10 16.07Q156.60 15.90 156.45 15.61L156.45 15.61L156.45 15.61Q156.16 14.43 155.96 13.34L155.96 13.34L155.96 13.34Q155.76 12.25 155.63 11.16L155.63 11.16L155.63 11.16Q155.50 10.07 155.42 8.95L155.42 8.95L155.42 8.95Q155.34 7.84 155.30 6.62L155.30 6.62L155.30 6.62Q155.04 7.04 154.74 7.72L154.74 7.72L154.74 7.72Q154.45 8.40 154.17 9.21L154.17 9.21L154.17 9.21Q153.89 10.02 153.63 10.92L153.63 10.92L153.63 10.92Q153.37 11.82 153.17 12.67L153.17 12.67L153.17 12.67Q152.98 13.52 152.87 14.29L152.87 14.29L152.87 14.29Q152.75 15.05 152.75 15.61L152.75 15.61L152.75 15.61Q152.75 15.90 152.76 16.03L152.76 16.03L152.76 16.03Q152.77 16.16 152.80 16.24ZM175.87 10.72L175.87 10.72L175.87 10.72Q176.23 10.72 176.44 10.98L176.44 10.98L176.44 10.98Q176.65 11.23 176.65 11.68L176.65 11.68L176.65 11.68Q176.65 11.79 176.64 11.91L176.64 11.91L176.64 11.91Q176.62 12.03 176.60 12.11L176.60 12.11L176.60 12.11Q176.30 12.04 175.95 12.03L175.95 12.03L175.95 12.03Q175.87 12.64 175.50 13.32L175.50 13.32L175.50 13.32Q175.14 14 174.62 14.60L174.62 14.60L174.62 14.60Q174.10 15.19 173.49 15.64L173.49 15.64L173.49 15.64Q172.87 16.09 172.27 16.24L172.27 16.24L172.27 16.24Q170.39 16.20 169.53 15.27L169.53 15.27L169.53 15.27Q168.67 14.34 168.67 12.36L168.67 12.36L168.67 12.36Q168.67 10.92 169.20 9.57L169.20 9.57L169.20 9.57Q169.74 8.22 170.62 7.17L170.62 7.17L170.62 7.17Q171.50 6.12 172.64 5.48L172.64 5.48L172.64 5.48Q173.78 4.84 175.01 4.84L175.01 4.84L175.01 4.84Q175.98 4.84 176.52 5.25L176.52 5.25L176.52 5.25Q177.06 5.66 177.06 6.40L177.06 6.40L177.06 6.40Q177.06 6.89 176.83 7.31L176.83 7.31L176.83 7.31Q176.60 7.73 176.06 8.22L176.06 8.22L176.06 8.22Q175.74 8.12 175.50 7.88L175.50 7.88L175.50 7.88Q175.27 7.63 175.21 7.31L175.21 7.31L175.21 7.31Q175.69 6.96 175.88 6.66L175.88 6.66L175.88 6.66Q176.08 6.37 176.08 5.96L176.08 5.96L176.08 5.96Q176.08 5.32 175.31 5.32L175.31 5.32L175.31 5.32Q174.68 5.32 173.96 5.79L173.96 5.79L173.96 5.79Q173.24 6.26 172.51 7.14L172.51 7.14L172.51 7.14Q171.47 8.39 171.00 9.71L171.00 9.71L171.00 9.71Q170.52 11.03 170.52 12.68L170.52 12.68L170.52 12.68Q170.52 13.30 170.65 13.80L170.65 13.80L170.65 13.80Q170.77 14.31 170.98 14.69L170.98 14.69L170.98 14.69Q171.19 15.06 171.48 15.29L171.48 15.29L171.48 15.29Q171.77 15.51 172.10 15.54L172.10 15.54L172.10 15.54Q172.55 15.44 173.00 15.09L173.00 15.09L173.00 15.09Q173.45 14.73 173.82 14.25L173.82 14.25L173.82 14.25Q174.19 13.76 174.45 13.21L174.45 13.21L174.45 13.21Q174.71 12.66 174.76 12.15L174.76 12.15L174.76 12.15Q174.37 12.24 174.01 12.31L174.01 12.31L174.01 12.31Q173.66 12.39 173.33 12.39L173.33 12.39L173.33 12.39Q172.91 12.39 172.60 12.18L172.60 12.18L172.60 12.18Q172.28 11.97 172.17 11.61L172.17 11.61L172.17 11.61Q172.42 11.47 172.91 11.31L172.91 11.31L172.91 11.31Q173.39 11.16 173.94 11.03L173.94 11.03L173.94 11.03Q174.48 10.89 175.01 10.81L175.01 10.81L175.01 10.81Q175.53 10.72 175.87 10.72ZM183.04 17.54L183.04 17.54L183.04 17.54Q182.95 17.47 182.88 17.31L182.88 17.31L182.88 17.31Q182.81 17.15 182.81 17.01L182.81 17.01L182.81 17.01Q183.51 16.41 183.81 15.86L183.81 15.86L183.81 15.86Q184.11 15.32 184.11 14.67L184.11 14.67L184.11 14.67Q184.11 14.25 184.08 13.95L184.08 13.95L184.08 13.95Q184.04 13.65 183.95 13.26L183.95 13.26L183.95 13.26Q184.30 13.29 184.64 13.38L184.64 13.38L184.64 13.38Q184.98 13.47 185.25 13.60L185.25 13.60L185.25 13.60Q185.53 13.73 185.71 13.91L185.71 13.91L185.71 13.91Q185.89 14.08 185.93 14.25L185.93 14.25L185.93 14.25Q185.28 16.58 183.04 17.54ZM207.68 6.69L207.68 6.69L207.68 6.69Q207.12 6.69 206.81 6.38L206.81 6.38L206.81 6.38Q206.51 6.06 206.51 5.61L206.51 5.61L206.51 5.61Q206.51 5.50 206.55 5.35L206.55 5.35L206.55 5.35Q206.58 5.19 206.64 5.08L206.64 5.08L206.64 5.08Q206.82 5.17 207.18 5.20L207.18 5.20L207.18 5.20Q207.54 5.24 208.01 5.24L208.01 5.24L208.01 5.24Q208.73 5.24 209.63 5.17L209.63 5.17L209.63 5.17Q210.53 5.11 211.36 5.04L211.36 5.04L211.36 5.04Q212.18 4.97 212.81 4.91L212.81 4.91L212.81 4.91Q213.44 4.84 213.63 4.84L213.63 4.84L213.63 4.84Q214.14 4.84 214.38 5.23L214.38 5.23L214.38 5.23Q214.61 5.61 214.72 6.26L214.72 6.26L214.72 6.26Q214.35 6.23 214.00 6.21L214.00 6.21L214.00 6.21Q213.64 6.19 213.39 6.19L213.39 6.19L213.39 6.19Q212.94 6.19 212.49 6.22L212.49 6.22L212.49 6.22Q212.03 6.24 211.57 6.30L211.57 6.30L211.57 6.30Q211.37 6.71 211.13 7.26L211.13 7.26L211.13 7.26Q210.90 7.81 210.67 8.41L210.67 8.41L210.67 8.41Q210.43 9.02 210.22 9.61L210.22 9.61L210.22 9.61Q210.01 10.21 209.86 10.68L209.86 10.68L209.86 10.68Q209.55 11.61 209.32 12.39L209.32 12.39L209.32 12.39Q209.09 13.17 208.92 13.85L208.92 13.85L208.92 13.85Q208.74 14.53 208.61 15.15L208.61 15.15L208.61 15.15Q208.49 15.76 208.39 16.35L208.39 16.35L208.39 16.35Q207.45 16.21 206.82 15.18L206.82 15.18L206.82 15.18Q206.93 14.74 207.09 14.23L207.09 14.23L207.09 14.23Q207.26 13.72 207.47 13.07L207.47 13.07L207.47 13.07Q207.69 12.42 207.98 11.59L207.98 11.59L207.98 11.59Q208.28 10.77 208.66 9.72L208.66 9.72L208.66 9.72Q208.80 9.32 208.95 8.90L208.95 8.90L208.95 8.90Q209.10 8.47 209.25 8.05L209.25 8.05L209.25 8.05Q209.40 7.63 209.52 7.24L209.52 7.24L209.52 7.24Q209.64 6.85 209.72 6.52L209.72 6.52L209.72 6.52Q209.13 6.59 208.61 6.64L208.61 6.64L208.61 6.64Q208.08 6.69 207.68 6.69ZM225.60 14.36L225.60 14.36L225.60 14.36Q225.60 13.78 225.79 12.85L225.79 12.85L225.79 12.85Q225.99 11.93 226.31 10.88L226.31 10.88L226.31 10.88Q225.39 10.95 224.46 11.06L224.46 11.06L224.46 11.06Q223.52 11.17 222.84 11.19L222.84 11.19L222.84 11.19Q222.21 12.66 221.84 13.89L221.84 13.89L221.84 13.89Q221.47 15.13 221.26 16.31L221.26 16.31L221.26 16.31Q220.72 16.18 220.37 15.87L220.37 15.87L220.37 15.87Q220.02 15.55 219.73 15.08L219.73 15.08L219.73 15.08Q219.84 14.85 219.99 14.50L219.99 14.50L219.99 14.50Q220.14 14.15 220.34 13.66L220.34 13.66L220.34 13.66Q220.54 13.16 220.80 12.50L220.80 12.50L220.80 12.50Q221.06 11.83 221.40 10.95L221.40 10.95L221.40 10.95Q220.93 10.75 220.78 10.40L220.78 10.40L220.78 10.40Q220.85 10.35 221.09 10.28L221.09 10.28L221.09 10.28Q221.34 10.22 221.70 10.15L221.70 10.15L221.89 9.70L221.89 9.70Q222.18 8.95 222.37 8.43L222.37 8.43L222.37 8.43Q222.56 7.91 222.69 7.41L222.69 7.41L222.69 7.41Q222.82 6.92 222.94 6.31L222.94 6.31L222.94 6.31Q223.06 5.71 223.23 4.79L223.23 4.79L223.23 4.79Q223.82 4.90 224.30 5.31L224.30 5.31L224.30 5.31Q224.78 5.71 225.13 6.29L225.13 6.29L225.13 6.29Q225.01 6.45 224.83 6.79L224.83 6.79L224.83 6.79Q224.64 7.13 224.43 7.59L224.43 7.59L224.43 7.59Q224.21 8.06 223.96 8.64L223.96 8.64L223.96 8.64Q223.71 9.23 223.41 9.87L223.41 9.87L223.41 9.87Q224.28 9.76 225.17 9.66L225.17 9.66L225.17 9.66Q226.06 9.56 226.74 9.52L226.74 9.52L226.74 9.52Q227.00 8.79 227.27 8.10L227.27 8.10L227.27 8.10Q227.54 7.41 227.81 6.83L227.81 6.83L227.81 6.83Q228.07 6.26 228.32 5.82L228.32 5.82L228.32 5.82Q228.56 5.39 228.76 5.18L228.76 5.18L228.76 5.18Q228.90 5.19 229.13 5.29L229.13 5.29L229.13 5.29Q229.36 5.38 229.60 5.50L229.60 5.50L229.60 5.50Q229.84 5.63 230.03 5.78L230.03 5.78L230.03 5.78Q230.23 5.92 230.30 6.05L230.30 6.05L230.30 6.05Q230.05 6.29 229.80 6.66L229.80 6.66L229.80 6.66Q229.54 7.04 229.30 7.53L229.30 7.53L229.30 7.53Q229.05 8.02 228.82 8.60L228.82 8.60L228.82 8.60Q228.58 9.17 228.37 9.79L228.37 9.79L228.37 9.79Q228.65 10.04 228.65 10.42L228.65 10.42L228.65 10.42Q228.65 10.68 228.54 10.91L228.54 10.91L228.54 10.91Q228.41 10.88 228.28 10.87L228.28 10.87L228.28 10.87Q228.16 10.86 228.02 10.85L228.02 10.85L228.02 10.85Q227.78 11.61 227.58 12.35L227.58 12.35L227.58 12.35Q227.39 13.09 227.25 13.76L227.25 13.76L227.25 13.76Q227.12 14.43 227.05 14.99L227.05 14.99L227.05 14.99Q226.97 15.55 226.97 15.93L226.97 15.93L226.97 15.93Q226.97 16.07 226.98 16.16L226.98 16.16L226.98 16.16Q226.98 16.24 227.00 16.30L227.00 16.30L227.00 16.30Q226.69 16.28 226.55 16.19L226.55 16.19L226.55 16.19Q226.41 16.10 226.34 16.00L226.34 16.00L226.34 16.00Q226.27 15.89 226.21 15.79L226.21 15.79L226.21 15.79Q226.16 15.68 226.03 15.62L226.03 15.62L226.03 15.62Q225.93 15.58 225.85 15.43L225.85 15.43L225.85 15.43Q225.76 15.27 225.71 15.08L225.71 15.08L225.71 15.08Q225.65 14.88 225.62 14.69L225.62 14.69L225.62 14.69Q225.60 14.49 225.60 14.36ZM242.37 9.21L242.37 9.21L242.37 9.21Q242.83 9.21 243.09 9.46L243.09 9.46L243.09 9.46Q243.35 9.72 243.35 10.16L243.35 10.16L243.35 10.16Q243.35 10.28 243.33 10.39L243.33 10.39L243.33 10.39Q243.31 10.51 243.28 10.60L243.28 10.60L243.28 10.60Q243.10 10.57 242.87 10.55L242.87 10.55L242.87 10.55Q242.65 10.53 242.34 10.53L242.34 10.53L242.34 10.53Q241.74 10.53 241.12 10.63L241.12 10.63L241.12 10.63Q240.51 10.74 239.95 10.81L239.95 10.81L239.95 10.81Q239.62 11.55 239.36 12.24L239.36 12.24L239.36 12.24Q239.09 12.94 238.90 13.51L238.90 13.51L238.90 13.51Q238.71 14.08 238.61 14.50L238.61 14.50L238.61 14.50Q238.50 14.92 238.49 15.13L238.49 15.13L238.49 15.13Q239.62 14.90 240.78 14.73L240.78 14.73L240.78 14.73Q241.93 14.56 243.21 14.48L243.21 14.48L243.21 14.48Q243.36 14.71 243.47 14.99L243.47 14.99L243.47 14.99Q243.57 15.27 243.57 15.60L243.57 15.60L243.57 15.60Q243.57 15.68 243.57 15.78L243.57 15.78L243.57 15.78Q243.57 15.88 243.54 15.97L243.54 15.97L243.54 15.97Q243.15 15.96 242.72 15.95L242.72 15.95L242.72 15.95Q242.28 15.95 241.58 15.95L241.58 15.95L241.58 15.95Q241.12 15.95 240.71 15.97L240.71 15.97L240.71 15.97Q240.30 15.99 239.88 16.03L239.88 16.03L239.88 16.03Q239.46 16.07 238.99 16.14L238.99 16.14L238.99 16.14Q238.52 16.21 237.93 16.31L237.93 16.31L237.93 16.31Q237.29 16.06 236.68 15.08L236.68 15.08L236.68 15.08Q236.92 14.57 237.35 13.54L237.35 13.54L237.35 13.54Q237.78 12.52 238.43 10.79L238.43 10.79L238.43 10.79Q237.80 10.60 237.61 10.09L237.61 10.09L237.61 10.09Q237.68 10.02 238.01 9.92L238.01 9.92L238.01 9.92Q238.35 9.81 238.84 9.70L238.84 9.70L238.84 9.70Q239.05 9.16 239.20 8.75L239.20 8.75L239.20 8.75Q239.34 8.34 239.46 7.99L239.46 7.99L239.46 7.99Q239.57 7.63 239.66 7.29L239.66 7.29L239.66 7.29Q239.75 6.94 239.83 6.54L239.83 6.54L239.83 6.54Q239.34 6.51 239.06 6.27L239.06 6.27L239.06 6.27Q238.78 6.02 238.78 5.63L238.78 5.63L238.78 5.63Q238.78 5.52 238.82 5.36L238.82 5.36L238.82 5.36Q238.85 5.21 238.90 5.10L238.90 5.10L238.90 5.10Q239.18 5.14 239.44 5.15L239.44 5.15L239.44 5.15Q239.69 5.17 240.11 5.17L240.11 5.17L240.11 5.17Q241.00 5.17 241.77 5.12L241.77 5.12L241.77 5.12Q242.54 5.07 243.16 5.01L243.16 5.01L243.16 5.01Q243.78 4.96 244.23 4.91L244.23 4.91L244.23 4.91Q244.68 4.86 244.92 4.86L244.92 4.86L244.92 4.86Q245.24 4.86 245.49 5.19L245.49 5.19L245.49 5.19Q245.74 5.53 245.87 6.15L245.87 6.15L245.87 6.15Q245.43 6.10 245.16 6.09L245.16 6.09L245.16 6.09Q244.89 6.08 244.68 6.08L244.68 6.08L244.68 6.08Q243.91 6.08 243.27 6.15L243.27 6.15L243.27 6.15Q242.63 6.23 242.05 6.31L242.05 6.31L242.05 6.31Q241.96 6.44 241.86 6.64L241.86 6.64L241.86 6.64Q241.75 6.83 241.58 7.18L241.58 7.18L241.58 7.18Q241.42 7.53 241.17 8.06L241.17 8.06L241.17 8.06Q240.93 8.60 240.58 9.39L240.58 9.39L240.58 9.39Q241.11 9.31 241.58 9.26L241.58 9.26L241.58 9.26Q242.05 9.21 242.37 9.21ZM272.09 7.46L272.09 7.46L272.09 7.46Q272.09 8.33 271.61 9.01L271.61 9.01L271.61 9.01Q271.14 9.69 270.31 10.14L270.31 10.14L270.31 10.14Q270.84 10.50 271.16 11.03L271.16 11.03L271.16 11.03Q271.47 11.55 271.47 12.18L271.47 12.18L271.47 12.18Q271.47 12.94 271.02 13.67L271.02 13.67L271.02 13.67Q270.56 14.41 269.81 14.97L269.81 14.97L269.81 14.97Q269.05 15.54 268.09 15.89L268.09 15.89L268.09 15.89Q267.12 16.24 266.11 16.24L266.11 16.24L266.11 16.24Q265.02 16.24 264.20 15.83L264.20 15.83L264.20 15.83Q263.38 15.41 262.92 14.66L262.92 14.66L262.92 14.66Q263.06 14.24 263.29 13.62L263.29 13.62L263.29 13.62Q263.52 12.99 263.80 12.30L263.80 12.30L263.80 12.30Q264.08 11.61 264.37 10.92L264.37 10.92L264.37 10.92Q264.66 10.23 264.91 9.69L264.91 9.69L264.91 9.69Q265.44 8.50 265.86 7.71L265.86 7.71L265.86 7.71Q266.28 6.93 266.63 6.47L266.63 6.47L266.63 6.47Q265.86 6.71 265.23 7.01L265.23 7.01L265.23 7.01Q264.60 7.31 264.31 7.59L264.31 7.59L264.31 7.59Q264.18 7.50 264.05 7.34L264.05 7.34L264.05 7.34Q263.91 7.17 263.79 6.96L263.79 6.96L263.79 6.96Q263.68 6.76 263.60 6.55L263.60 6.55L263.60 6.55Q263.52 6.34 263.51 6.17L263.51 6.17L263.51 6.17Q263.87 5.92 264.45 5.69L264.45 5.69L264.45 5.69Q265.03 5.46 265.72 5.29L265.72 5.29L265.72 5.29Q266.41 5.12 267.13 5.03L267.13 5.03L267.13 5.03Q267.85 4.93 268.51 4.93L268.51 4.93L268.51 4.93Q270.19 4.93 271.14 5.60L271.14 5.60L271.14 5.60Q272.09 6.27 272.09 7.46ZM266.76 10.81L266.76 10.81L266.76 10.81Q266.49 10.68 266.27 10.43L266.27 10.43L266.27 10.43Q265.94 11.14 265.66 11.83L265.66 11.83L265.66 11.83Q265.37 12.52 265.15 13.10L265.15 13.10L265.15 13.10Q264.92 13.69 264.78 14.13L264.78 14.13L264.78 14.13Q264.64 14.56 264.63 14.76L264.63 14.76L264.63 14.76Q264.82 14.87 265.10 14.92L265.10 14.92L265.10 14.92Q265.37 14.98 265.78 14.98L265.78 14.98L265.78 14.98Q266.73 14.98 267.60 14.71L267.60 14.71L267.60 14.71Q268.46 14.45 269.12 13.99L269.12 13.99L269.12 13.99Q269.78 13.54 270.17 12.95L270.17 12.95L270.17 12.95Q270.56 12.36 270.56 11.72L270.56 11.72L270.56 11.72Q270.56 10.79 269.77 10.39L269.77 10.39L269.77 10.39Q268.67 10.84 267.30 10.84L267.30 10.84L267.30 10.84Q267.11 10.84 267.00 10.84L267.00 10.84L267.00 10.84Q266.90 10.84 266.76 10.81ZM269.47 5.95L269.47 5.95L269.47 5.95Q269.18 5.95 268.85 5.98L268.85 5.98L268.85 5.98Q268.52 6.02 268.16 6.09L268.16 6.09L268.16 6.09Q268.21 6.15 268.25 6.21L268.25 6.21L268.25 6.21Q268.28 6.27 268.31 6.34L268.31 6.34L268.31 6.34Q268.18 6.51 268.00 6.83L268.00 6.83L268.00 6.83Q267.82 7.15 267.60 7.58L267.60 7.58L267.60 7.58Q267.37 8.01 267.13 8.53L267.13 8.53L267.13 8.53Q266.88 9.04 266.63 9.59L266.63 9.59L266.63 9.59Q266.87 9.53 267.21 9.50L267.21 9.50L267.21 9.50Q267.55 9.46 267.89 9.46L267.89 9.46L267.89 9.46Q268.07 9.46 268.25 9.48L268.25 9.48L268.25 9.48Q268.42 9.49 268.59 9.52L268.59 9.52L268.59 9.52Q269.26 9.41 269.80 9.19L269.80 9.19L269.80 9.19Q270.34 8.97 270.73 8.69L270.73 8.69L270.73 8.69Q271.12 8.40 271.33 8.05L271.33 8.05L271.33 8.05Q271.54 7.70 271.54 7.31L271.54 7.31L271.54 7.31Q271.54 6.64 271.01 6.29L271.01 6.29L271.01 6.29Q270.48 5.95 269.47 5.95ZM285.22 9.21L285.22 9.21L285.22 9.21Q285.68 9.21 285.94 9.46L285.94 9.46L285.94 9.46Q286.20 9.72 286.20 10.16L286.20 10.16L286.20 10.16Q286.20 10.28 286.18 10.39L286.18 10.39L286.18 10.39Q286.16 10.51 286.13 10.60L286.13 10.60L286.13 10.60Q285.95 10.57 285.73 10.55L285.73 10.55L285.73 10.55Q285.50 10.53 285.19 10.53L285.19 10.53L285.19 10.53Q284.59 10.53 283.98 10.63L283.98 10.63L283.98 10.63Q283.36 10.74 282.80 10.81L282.80 10.81L282.80 10.81Q282.48 11.55 282.21 12.24L282.21 12.24L282.21 12.24Q281.95 12.94 281.76 13.51L281.76 13.51L281.76 13.51Q281.57 14.08 281.46 14.50L281.46 14.50L281.46 14.50Q281.36 14.92 281.34 15.13L281.34 15.13L281.34 15.13Q282.48 14.90 283.63 14.73L283.63 14.73L283.63 14.73Q284.79 14.56 286.06 14.48L286.06 14.48L286.06 14.48Q286.22 14.71 286.32 14.99L286.32 14.99L286.32 14.99Q286.43 15.27 286.43 15.60L286.43 15.60L286.43 15.60Q286.43 15.68 286.43 15.78L286.43 15.78L286.43 15.78Q286.43 15.88 286.40 15.97L286.40 15.97L286.40 15.97Q286.01 15.96 285.57 15.95L285.57 15.95L285.57 15.95Q285.14 15.95 284.44 15.95L284.44 15.95L284.44 15.95Q283.98 15.95 283.56 15.97L283.56 15.97L283.56 15.97Q283.15 15.99 282.73 16.03L282.73 16.03L282.73 16.03Q282.31 16.07 281.84 16.14L281.84 16.14L281.84 16.14Q281.37 16.21 280.78 16.31L280.78 16.31L280.78 16.31Q280.14 16.06 279.54 15.08L279.54 15.08L279.54 15.08Q279.78 14.57 280.20 13.54L280.20 13.54L280.20 13.54Q280.63 12.52 281.29 10.79L281.29 10.79L281.29 10.79Q280.66 10.60 280.46 10.09L280.46 10.09L280.46 10.09Q280.53 10.02 280.87 9.92L280.87 9.92L280.87 9.92Q281.20 9.81 281.69 9.70L281.69 9.70L281.69 9.70Q281.90 9.16 282.05 8.75L282.05 8.75L282.05 8.75Q282.20 8.34 282.31 7.99L282.31 7.99L282.31 7.99Q282.42 7.63 282.51 7.29L282.51 7.29L282.51 7.29Q282.60 6.94 282.69 6.54L282.69 6.54L282.69 6.54Q282.20 6.51 281.92 6.27L281.92 6.27L281.92 6.27Q281.64 6.02 281.64 5.63L281.64 5.63L281.64 5.63Q281.64 5.52 281.67 5.36L281.67 5.36L281.67 5.36Q281.71 5.21 281.75 5.10L281.75 5.10L281.75 5.10Q282.03 5.14 282.29 5.15L282.29 5.15L282.29 5.15Q282.55 5.17 282.97 5.17L282.97 5.17L282.97 5.17Q283.85 5.17 284.62 5.12L284.62 5.12L284.62 5.12Q285.39 5.07 286.01 5.01L286.01 5.01L286.01 5.01Q286.64 4.96 287.08 4.91L287.08 4.91L287.08 4.91Q287.53 4.86 287.77 4.86L287.77 4.86L287.77 4.86Q288.09 4.86 288.34 5.19L288.34 5.19L288.34 5.19Q288.60 5.53 288.72 6.15L288.72 6.15L288.72 6.15Q288.29 6.10 288.01 6.09L288.01 6.09L288.01 6.09Q287.74 6.08 287.53 6.08L287.53 6.08L287.53 6.08Q286.76 6.08 286.12 6.15L286.12 6.15L286.12 6.15Q285.49 6.23 284.90 6.31L284.90 6.31L284.90 6.31Q284.82 6.44 284.71 6.64L284.71 6.64L284.71 6.64Q284.61 6.83 284.44 7.18L284.44 7.18L284.44 7.18Q284.27 7.53 284.02 8.06L284.02 8.06L284.02 8.06Q283.78 8.60 283.43 9.39L283.43 9.39L283.43 9.39Q283.96 9.31 284.43 9.26L284.43 9.26L284.43 9.26Q284.90 9.21 285.22 9.21ZM304.09 5.74L304.09 5.74L304.09 5.74Q304.14 5.98 304.16 6.07L304.16 6.07L304.16 6.07Q304.18 6.16 304.18 6.31L304.18 6.31L304.18 6.31Q304.18 6.78 303.97 7.18L303.97 7.18L303.97 7.18Q303.77 7.57 303.42 7.74L303.42 7.74L303.42 7.74Q303.14 7.36 302.74 7.09L302.74 7.09L302.74 7.09Q302.33 6.82 301.85 6.64L301.85 6.64L301.85 6.64Q301.36 6.47 300.85 6.38L300.85 6.38L300.85 6.38Q300.33 6.30 299.84 6.30L299.84 6.30L299.84 6.30Q299.35 6.30 298.92 6.38L298.92 6.38L298.92 6.38Q298.49 6.45 298.16 6.59L298.16 6.59L298.16 6.59Q297.84 6.72 297.65 6.92L297.65 6.92L297.65 6.92Q297.46 7.11 297.46 7.36L297.46 7.36L297.46 7.36Q297.50 7.67 297.84 7.99L297.84 7.99L297.84 7.99Q298.17 8.30 298.66 8.60L298.66 8.60L298.66 8.60Q299.15 8.90 299.75 9.20L299.75 9.20L299.75 9.20Q300.34 9.49 300.92 9.76L300.92 9.76L300.92 9.76Q301.63 10.09 302.15 10.38L302.15 10.38L302.15 10.38Q302.67 10.67 303.00 11.01L303.00 11.01L303.00 11.01Q303.34 11.35 303.51 11.79L303.51 11.79L303.51 11.79Q303.67 12.22 303.67 12.84L303.67 12.84L303.67 12.84Q303.67 13.55 303.44 14.18L303.44 14.18L303.44 14.18Q303.20 14.80 302.74 15.26L302.74 15.26L302.74 15.26Q302.29 15.72 301.64 15.98L301.64 15.98L301.64 15.98Q301.00 16.24 300.20 16.24L300.20 16.24L300.20 16.24Q299.42 16.24 298.51 16.00L298.51 16.00L298.51 16.00Q297.60 15.76 296.81 15.35L296.81 15.35L296.81 15.35Q296.02 14.94 295.49 14.40L295.49 14.40L295.49 14.40Q294.97 13.86 294.97 13.26L294.97 13.26L294.97 13.26Q294.97 12.98 295.13 12.54L295.13 12.54L295.13 12.54Q295.29 12.11 295.71 11.63L295.71 11.63L295.71 11.63Q295.75 12.05 296.16 12.63L296.16 12.63L296.16 12.63Q296.58 13.20 297.40 13.69L297.40 13.69L297.40 13.69Q298.17 14.14 298.99 14.34L298.99 14.34L298.99 14.34Q299.81 14.55 300.52 14.55L300.52 14.55L300.52 14.55Q301.31 14.55 301.80 14.35L301.80 14.35L301.80 14.35Q302.29 14.15 302.57 13.88L302.57 13.88L302.57 13.88Q302.85 13.61 302.96 13.33L302.96 13.33L302.96 13.33Q303.07 13.05 303.09 12.88L303.09 12.88L303.09 12.88Q303.07 12.60 302.83 12.34L302.83 12.34L302.83 12.34Q302.58 12.08 302.17 11.84L302.17 11.84L302.17 11.84Q301.76 11.59 301.21 11.34L301.21 11.34L301.21 11.34Q300.66 11.09 300.08 10.84L300.08 10.84L300.08 10.84Q299.19 10.44 298.56 10.10L298.56 10.10L298.56 10.10Q297.92 9.76 297.51 9.40L297.51 9.40L297.51 9.40Q297.09 9.04 296.90 8.65L296.90 8.65L296.90 8.65Q296.72 8.26 296.72 7.76L296.72 7.76L296.72 7.76Q296.72 6.97 297.19 6.27L297.19 6.27L297.19 6.27Q297.67 5.57 298.56 5.21L298.56 5.21L298.56 5.21Q299.01 5.01 299.52 4.93L299.52 4.93L299.52 4.93Q300.03 4.84 300.52 4.84L300.52 4.84L300.52 4.84Q301.45 4.84 302.33 5.10L302.33 5.10L302.33 5.10Q303.21 5.35 304.09 5.74ZM314.08 6.69L314.08 6.69L314.08 6.69Q313.52 6.69 313.21 6.38L313.21 6.38L313.21 6.38Q312.91 6.06 312.91 5.61L312.91 5.61L312.91 5.61Q312.91 5.50 312.95 5.35L312.95 5.35L312.95 5.35Q312.98 5.19 313.04 5.08L313.04 5.08L313.04 5.08Q313.22 5.17 313.58 5.20L313.58 5.20L313.58 5.20Q313.94 5.24 314.41 5.24L314.41 5.24L314.41 5.24Q315.13 5.24 316.03 5.17L316.03 5.17L316.03 5.17Q316.93 5.11 317.76 5.04L317.76 5.04L317.76 5.04Q318.58 4.97 319.21 4.91L319.21 4.91L319.21 4.91Q319.84 4.84 320.03 4.84L320.03 4.84L320.03 4.84Q320.54 4.84 320.77 5.23L320.77 5.23L320.77 5.23Q321.01 5.61 321.12 6.26L321.12 6.26L321.12 6.26Q320.75 6.23 320.40 6.21L320.40 6.21L320.40 6.21Q320.04 6.19 319.79 6.19L319.79 6.19L319.79 6.19Q319.34 6.19 318.88 6.22L318.88 6.22L318.88 6.22Q318.43 6.24 317.97 6.30L317.97 6.30L317.97 6.30Q317.77 6.71 317.53 7.26L317.53 7.26L317.53 7.26Q317.30 7.81 317.06 8.41L317.06 8.41L317.06 8.41Q316.83 9.02 316.62 9.61L316.62 9.61L316.62 9.61Q316.41 10.21 316.26 10.68L316.26 10.68L316.26 10.68Q315.95 11.61 315.72 12.39L315.72 12.39L315.72 12.39Q315.49 13.17 315.31 13.85L315.31 13.85L315.31 13.85Q315.14 14.53 315.01 15.15L315.01 15.15L315.01 15.15Q314.89 15.76 314.79 16.35L314.79 16.35L314.79 16.35Q313.85 16.21 313.22 15.18L313.22 15.18L313.22 15.18Q313.33 14.74 313.49 14.23L313.49 14.23L313.49 14.23Q313.66 13.72 313.87 13.07L313.87 13.07L313.87 13.07Q314.09 12.42 314.38 11.59L314.38 11.59L314.38 11.59Q314.68 10.77 315.06 9.72L315.06 9.72L315.06 9.72Q315.20 9.32 315.35 8.90L315.35 8.90L315.35 8.90Q315.50 8.47 315.65 8.05L315.65 8.05L315.65 8.05Q315.80 7.63 315.92 7.24L315.92 7.24L315.92 7.24Q316.04 6.85 316.12 6.52L316.12 6.52L316.12 6.52Q315.53 6.59 315.01 6.64L315.01 6.64L315.01 6.64Q314.48 6.69 314.08 6.69ZM337.44 12.43L337.44 12.43L337.44 12.43Q337.44 11.45 337.67 10.51L337.67 10.51L337.67 10.51Q337.90 9.56 338.32 8.71L338.32 8.71L338.32 8.71Q338.74 7.87 339.32 7.16L339.32 7.16L339.32 7.16Q339.91 6.45 340.60 5.94L340.60 5.94L340.60 5.94Q341.29 5.42 342.08 5.13L342.08 5.13L342.08 5.13Q342.86 4.84 343.69 4.84L343.69 4.84L343.69 4.84Q344.65 4.84 345.19 5.25L345.19 5.25L345.19 5.25Q345.73 5.66 345.73 6.38L345.73 6.38L345.73 6.38Q345.73 6.66 345.65 6.96L345.65 6.96L345.65 6.96Q345.58 7.25 345.43 7.54L345.43 7.54L345.43 7.54Q345.28 7.83 345.09 8.09L345.09 8.09L345.09 8.09Q344.89 8.36 344.65 8.55L344.65 8.55L344.65 8.55Q344.29 8.50 344.02 8.22L344.02 8.22L344.02 8.22Q343.76 7.95 343.69 7.59L343.69 7.59L343.69 7.59Q344.18 7.18 344.46 6.74L344.46 6.74L344.46 6.74Q344.75 6.30 344.75 5.94L344.75 5.94L344.75 5.94Q344.75 5.32 343.98 5.32L343.98 5.32L343.98 5.32Q343.66 5.32 343.31 5.45L343.31 5.45L343.31 5.45Q342.97 5.59 342.62 5.82L342.62 5.82L342.62 5.82Q342.27 6.06 341.94 6.40L341.94 6.40L341.94 6.40Q341.61 6.73 341.33 7.14L341.33 7.14L341.33 7.14Q339.39 9.94 339.39 12.87L339.39 12.87L339.39 12.87Q339.39 13.90 339.71 14.53L339.71 14.53L339.71 14.53Q340.03 15.16 340.56 15.27L340.56 15.27L340.56 15.27Q341.17 15.13 342.09 14.50L342.09 14.50L342.09 14.50Q343.01 13.87 344.11 12.87L344.11 12.87L344.11 12.87Q344.25 13.01 344.27 13.16L344.27 13.16L344.27 13.16Q343.87 13.69 343.43 14.18L343.43 14.18L343.43 14.18Q343.00 14.67 342.57 15.08L342.57 15.08L342.57 15.08Q342.15 15.48 341.73 15.79L341.73 15.79L341.73 15.79Q341.32 16.10 340.97 16.27L340.97 16.27L340.97 16.27Q339.23 16.24 338.34 15.27L338.34 15.27L338.34 15.27Q337.44 14.31 337.44 12.43ZM357.78 14.36L357.78 14.36L357.78 14.36Q357.78 13.78 357.98 12.85L357.98 12.85L357.98 12.85Q358.18 11.93 358.50 10.88L358.50 10.88L358.50 10.88Q357.57 10.95 356.64 11.06L356.64 11.06L356.64 11.06Q355.71 11.17 355.03 11.19L355.03 11.19L355.03 11.19Q354.40 12.66 354.02 13.89L354.02 13.89L354.02 13.89Q353.65 15.13 353.44 16.31L353.44 16.31L353.44 16.31Q352.91 16.18 352.56 15.87L352.56 15.87L352.56 15.87Q352.21 15.55 351.92 15.08L351.92 15.08L351.92 15.08Q352.03 14.85 352.18 14.50L352.18 14.50L352.18 14.50Q352.32 14.15 352.53 13.66L352.53 13.66L352.53 13.66Q352.73 13.16 352.99 12.50L352.99 12.50L352.99 12.50Q353.25 11.83 353.58 10.95L353.58 10.95L353.58 10.95Q353.12 10.75 352.97 10.40L352.97 10.40L352.97 10.40Q353.04 10.35 353.28 10.28L353.28 10.28L353.28 10.28Q353.53 10.22 353.89 10.15L353.89 10.15L354.07 9.70L354.07 9.70Q354.37 8.95 354.56 8.43L354.56 8.43L354.56 8.43Q354.75 7.91 354.88 7.41L354.88 7.41L354.88 7.41Q355.01 6.92 355.13 6.31L355.13 6.31L355.13 6.31Q355.25 5.71 355.42 4.79L355.42 4.79L355.42 4.79Q356.01 4.90 356.49 5.31L356.49 5.31L356.49 5.31Q356.97 5.71 357.32 6.29L357.32 6.29L357.32 6.29Q357.20 6.45 357.01 6.79L357.01 6.79L357.01 6.79Q356.83 7.13 356.61 7.59L356.61 7.59L356.61 7.59Q356.40 8.06 356.15 8.64L356.15 8.64L356.15 8.64Q355.89 9.23 355.60 9.87L355.60 9.87L355.60 9.87Q356.47 9.76 357.36 9.66L357.36 9.66L357.36 9.66Q358.25 9.56 358.93 9.52L358.93 9.52L358.93 9.52Q359.18 8.79 359.46 8.10L359.46 8.10L359.46 8.10Q359.73 7.41 360.00 6.83L360.00 6.83L360.00 6.83Q360.26 6.26 360.51 5.82L360.51 5.82L360.51 5.82Q360.75 5.39 360.95 5.18L360.95 5.18L360.95 5.18Q361.09 5.19 361.32 5.29L361.32 5.29L361.32 5.29Q361.55 5.38 361.79 5.50L361.79 5.50L361.79 5.50Q362.03 5.63 362.22 5.78L362.22 5.78L362.22 5.78Q362.42 5.92 362.49 6.05L362.49 6.05L362.49 6.05Q362.24 6.29 361.98 6.66L361.98 6.66L361.98 6.66Q361.73 7.04 361.49 7.53L361.49 7.53L361.49 7.53Q361.24 8.02 361.00 8.60L361.00 8.60L361.00 8.60Q360.77 9.17 360.56 9.79L360.56 9.79L360.56 9.79Q360.84 10.04 360.84 10.42L360.84 10.42L360.84 10.42Q360.84 10.68 360.72 10.91L360.72 10.91L360.72 10.91Q360.60 10.88 360.47 10.87L360.47 10.87L360.47 10.87Q360.35 10.86 360.21 10.85L360.21 10.85L360.21 10.85Q359.97 11.61 359.77 12.35L359.77 12.35L359.77 12.35Q359.58 13.09 359.44 13.76L359.44 13.76L359.44 13.76Q359.31 14.43 359.23 14.99L359.23 14.99L359.23 14.99Q359.16 15.55 359.16 15.93L359.16 15.93L359.16 15.93Q359.16 16.07 359.16 16.16L359.16 16.16L359.16 16.16Q359.17 16.24 359.18 16.30L359.18 16.30L359.18 16.30Q358.88 16.28 358.74 16.19L358.74 16.19L358.74 16.19Q358.60 16.10 358.53 16.00L358.53 16.00L358.53 16.00Q358.46 15.89 358.40 15.79L358.40 15.79L358.40 15.79Q358.34 15.68 358.22 15.62L358.22 15.62L358.22 15.62Q358.12 15.58 358.04 15.43L358.04 15.43L358.04 15.43Q357.95 15.27 357.90 15.08L357.90 15.08L357.90 15.08Q357.84 14.88 357.81 14.69L357.81 14.69L357.81 14.69Q357.78 14.49 357.78 14.36ZM375.23 4.98L375.23 4.98L375.23 4.98Q375.49 5.10 375.77 5.27L375.77 5.27L375.77 5.27Q376.05 5.45 376.29 5.63L376.29 5.63L376.29 5.63Q376.53 5.81 376.69 5.98L376.69 5.98L376.69 5.98Q376.85 6.16 376.87 6.27L376.87 6.27L376.87 6.27Q376.63 6.22 376.39 6.20L376.39 6.20L376.39 6.20Q376.15 6.17 375.96 6.17L375.96 6.17L375.96 6.17Q375.33 6.17 374.70 6.48L374.70 6.48L374.70 6.48Q374.08 6.79 373.52 7.32L373.52 7.32L373.52 7.32Q372.96 7.85 372.48 8.57L372.48 8.57L372.48 8.57Q372.01 9.28 371.66 10.09L371.66 10.09L371.66 10.09Q371.32 10.91 371.13 11.77L371.13 11.77L371.13 11.77Q370.93 12.64 370.93 13.48L370.93 13.48L370.93 13.48Q370.93 14.57 371.29 15.11L371.29 15.11L371.29 15.11Q371.66 15.64 372.36 15.64L372.36 15.64L372.36 15.64Q372.69 15.64 373.09 15.51L373.09 15.51L373.09 15.51Q373.48 15.37 373.88 15.13L373.88 15.13L373.88 15.13Q374.29 14.90 374.68 14.56L374.68 14.56L374.68 14.56Q375.07 14.22 375.41 13.82L375.41 13.82L375.41 13.82Q375.90 13.23 376.29 12.48L376.29 12.48L376.29 12.48Q376.68 11.73 376.96 10.89L376.96 10.89L376.96 10.89Q377.23 10.05 377.38 9.16L377.38 9.16L377.38 9.16Q377.52 8.27 377.52 7.42L377.52 7.42L377.52 7.42Q377.52 7.08 377.51 6.85L377.51 6.85L377.51 6.85Q377.50 6.62 377.47 6.46L377.47 6.46L377.47 6.46Q377.45 6.30 377.44 6.20L377.44 6.20L377.44 6.20Q377.43 6.10 377.41 6.03L377.41 6.03L377.41 6.03Q377.58 6.12 377.78 6.24L377.78 6.24L377.78 6.24Q377.99 6.36 378.16 6.59L378.16 6.59L378.16 6.59Q378.34 6.82 378.45 7.20L378.45 7.20L378.45 7.20Q378.57 7.57 378.57 8.18L378.57 8.18L378.57 8.18Q378.57 9.16 378.34 10.10L378.34 10.10L378.34 10.10Q378.11 11.05 377.70 11.90L377.70 11.90L377.70 11.90Q377.29 12.75 376.73 13.50L376.73 13.50L376.73 13.50Q376.17 14.24 375.52 14.80L375.52 14.80L375.52 14.80Q374.68 15.54 373.73 15.95L373.73 15.95L373.73 15.95Q372.78 16.35 371.90 16.35L371.90 16.35L371.90 16.35Q370.61 16.35 369.93 15.53L369.93 15.53L369.93 15.53Q369.25 14.71 369.25 13.12L369.25 13.12L369.25 13.12Q369.25 12.26 369.44 11.31L369.44 11.31L369.44 11.31Q369.63 10.36 369.97 9.44L369.97 9.44L369.97 9.44Q370.31 8.51 370.79 7.68L370.79 7.68L370.79 7.68Q371.27 6.85 371.83 6.21L371.83 6.21L371.83 6.21Q372.40 5.57 373.05 5.19L373.05 5.19L373.05 5.19Q373.70 4.82 374.39 4.82L374.39 4.82L374.39 4.82Q374.61 4.82 374.81 4.85L374.81 4.85L374.81 4.85Q375.00 4.89 375.23 4.98ZM386.32 14.38L386.32 14.38L386.32 14.38Q386.32 13.87 386.48 13.07L386.48 13.07L386.48 13.07Q386.64 12.26 386.90 11.33L386.90 11.33L386.90 11.33Q387.16 10.40 387.49 9.43L387.49 9.43L387.49 9.43Q387.83 8.46 388.18 7.60L388.18 7.60L388.18 7.60Q388.53 6.75 388.86 6.10L388.86 6.10L388.86 6.10Q389.20 5.46 389.47 5.18L389.47 5.18L389.47 5.18Q389.61 5.19 389.84 5.29L389.84 5.29L389.84 5.29Q390.07 5.38 390.31 5.50L390.31 5.50L390.31 5.50Q390.54 5.63 390.74 5.78L390.74 5.78L390.74 5.78Q390.94 5.92 390.99 6.05L390.99 6.05L390.99 6.05Q390.59 6.41 390.19 7.15L390.19 7.15L390.19 7.15Q389.79 7.88 389.42 8.82L389.42 8.82L389.42 8.82Q389.05 9.76 388.72 10.80L388.72 10.80L388.72 10.80Q388.40 11.84 388.16 12.82L388.16 12.82L388.16 12.82Q387.93 13.80 387.79 14.64L387.79 14.64L387.79 14.64Q387.66 15.48 387.66 16.00L387.66 16.00L387.66 16.00Q387.66 16.24 387.70 16.30L387.70 16.30L387.70 16.30Q387.39 16.28 387.25 16.19L387.25 16.19L387.25 16.19Q387.11 16.10 387.04 16.00L387.04 16.00L387.04 16.00Q386.96 15.89 386.90 15.79L386.90 15.79L386.90 15.79Q386.83 15.68 386.71 15.62L386.71 15.62L386.71 15.62Q386.61 15.58 386.54 15.43L386.54 15.43L386.54 15.43Q386.47 15.27 386.42 15.09L386.42 15.09L386.42 15.09Q386.37 14.90 386.34 14.70L386.34 14.70L386.34 14.70Q386.32 14.50 386.32 14.38ZM397.88 12.43L397.88 12.43L397.88 12.43Q397.88 11.45 398.11 10.51L398.11 10.51L398.11 10.51Q398.34 9.56 398.76 8.71L398.76 8.71L398.76 8.71Q399.18 7.87 399.76 7.16L399.76 7.16L399.76 7.16Q400.34 6.45 401.04 5.94L401.04 5.94L401.04 5.94Q401.73 5.42 402.51 5.13L402.51 5.13L402.51 5.13Q403.30 4.84 404.12 4.84L404.12 4.84L404.12 4.84Q405.09 4.84 405.63 5.25L405.63 5.25L405.63 5.25Q406.17 5.66 406.17 6.38L406.17 6.38L406.17 6.38Q406.17 6.66 406.09 6.96L406.09 6.96L406.09 6.96Q406.01 7.25 405.87 7.54L405.87 7.54L405.87 7.54Q405.72 7.83 405.52 8.09L405.52 8.09L405.52 8.09Q405.33 8.36 405.09 8.55L405.09 8.55L405.09 8.55Q404.73 8.50 404.46 8.22L404.46 8.22L404.46 8.22Q404.19 7.95 404.12 7.59L404.12 7.59L404.12 7.59Q404.61 7.18 404.90 6.74L404.90 6.74L404.90 6.74Q405.19 6.30 405.19 5.94L405.19 5.94L405.19 5.94Q405.19 5.32 404.42 5.32L404.42 5.32L404.42 5.32Q404.10 5.32 403.75 5.45L403.75 5.45L403.75 5.45Q403.41 5.59 403.06 5.82L403.06 5.82L403.06 5.82Q402.71 6.06 402.38 6.40L402.38 6.40L402.38 6.40Q402.05 6.73 401.77 7.14L401.77 7.14L401.77 7.14Q399.83 9.94 399.83 12.87L399.83 12.87L399.83 12.87Q399.83 13.90 400.15 14.53L400.15 14.53L400.15 14.53Q400.47 15.16 401.00 15.27L401.00 15.27L401.00 15.27Q401.60 15.13 402.53 14.50L402.53 14.50L402.53 14.50Q403.45 13.87 404.54 12.87L404.54 12.87L404.54 12.87Q404.68 13.01 404.71 13.16L404.71 13.16L404.71 13.16Q404.31 13.69 403.87 14.18L403.87 14.18L403.87 14.18Q403.44 14.67 403.01 15.08L403.01 15.08L403.01 15.08Q402.58 15.48 402.17 15.79L402.17 15.79L402.17 15.79Q401.76 16.10 401.41 16.27L401.41 16.27L401.41 16.27Q399.67 16.24 398.78 15.27L398.78 15.27L398.78 15.27Q397.88 14.31 397.88 12.43ZM418.47 9.21L418.47 9.21L418.47 9.21Q418.94 9.21 419.19 9.46L419.19 9.46L419.19 9.46Q419.45 9.72 419.45 10.16L419.45 10.16L419.45 10.16Q419.45 10.28 419.43 10.39L419.43 10.39L419.43 10.39Q419.41 10.51 419.38 10.60L419.38 10.60L419.38 10.60Q419.20 10.57 418.98 10.55L418.98 10.55L418.98 10.55Q418.75 10.53 418.45 10.53L418.45 10.53L418.45 10.53Q417.84 10.53 417.23 10.63L417.23 10.63L417.23 10.63Q416.61 10.74 416.05 10.81L416.05 10.81L416.05 10.81Q415.73 11.55 415.46 12.24L415.46 12.24L415.46 12.24Q415.20 12.94 415.01 13.51L415.01 13.51L415.01 13.51Q414.82 14.08 414.72 14.50L414.72 14.50L414.72 14.50Q414.61 14.92 414.60 15.13L414.60 15.13L414.60 15.13Q415.73 14.90 416.89 14.73L416.89 14.73L416.89 14.73Q418.04 14.56 419.31 14.48L419.31 14.48L419.31 14.48Q419.47 14.71 419.57 14.99L419.57 14.99L419.57 14.99Q419.68 15.27 419.68 15.60L419.68 15.60L419.68 15.60Q419.68 15.68 419.68 15.78L419.68 15.78L419.68 15.78Q419.68 15.88 419.65 15.97L419.65 15.97L419.65 15.97Q419.26 15.96 418.82 15.95L418.82 15.95L418.82 15.95Q418.39 15.95 417.69 15.95L417.69 15.95L417.69 15.95Q417.23 15.95 416.81 15.97L416.81 15.97L416.81 15.97Q416.40 15.99 415.98 16.03L415.98 16.03L415.98 16.03Q415.56 16.07 415.09 16.14L415.09 16.14L415.09 16.14Q414.62 16.21 414.04 16.31L414.04 16.31L414.04 16.31Q413.39 16.06 412.79 15.08L412.79 15.08L412.79 15.08Q413.03 14.57 413.46 13.54L413.46 13.54L413.46 13.54Q413.88 12.52 414.54 10.79L414.54 10.79L414.54 10.79Q413.91 10.60 413.71 10.09L413.71 10.09L413.71 10.09Q413.78 10.02 414.12 9.92L414.12 9.92L414.12 9.92Q414.46 9.81 414.95 9.70L414.95 9.70L414.95 9.70Q415.16 9.16 415.30 8.75L415.30 8.75L415.30 8.75Q415.45 8.34 415.56 7.99L415.56 7.99L415.56 7.99Q415.67 7.63 415.77 7.29L415.77 7.29L415.77 7.29Q415.86 6.94 415.94 6.54L415.94 6.54L415.94 6.54Q415.45 6.51 415.17 6.27L415.17 6.27L415.17 6.27Q414.89 6.02 414.89 5.63L414.89 5.63L414.89 5.63Q414.89 5.52 414.93 5.36L414.93 5.36L414.93 5.36Q414.96 5.21 415.00 5.10L415.00 5.10L415.00 5.10Q415.28 5.14 415.54 5.15L415.54 5.15L415.54 5.15Q415.80 5.17 416.22 5.17L416.22 5.17L416.22 5.17Q417.10 5.17 417.87 5.12L417.87 5.12L417.87 5.12Q418.64 5.07 419.27 5.01L419.27 5.01L419.27 5.01Q419.89 4.96 420.34 4.91L420.34 4.91L420.34 4.91Q420.78 4.86 421.02 4.86L421.02 4.86L421.02 4.86Q421.34 4.86 421.60 5.19L421.60 5.19L421.60 5.19Q421.85 5.53 421.97 6.15L421.97 6.15L421.97 6.15Q421.54 6.10 421.27 6.09L421.27 6.09L421.27 6.09Q420.99 6.08 420.78 6.08L420.78 6.08L420.78 6.08Q420.01 6.08 419.38 6.15L419.38 6.15L419.38 6.15Q418.74 6.23 418.15 6.31L418.15 6.31L418.15 6.31Q418.07 6.44 417.96 6.64L417.96 6.64L417.96 6.64Q417.86 6.83 417.69 7.18L417.69 7.18L417.69 7.18Q417.52 7.53 417.28 8.06L417.28 8.06L417.28 8.06Q417.03 8.60 416.68 9.39L416.68 9.39L416.68 9.39Q417.21 9.31 417.68 9.26L417.68 9.26L417.68 9.26Q418.15 9.21 418.47 9.21Z"></path></g></svg>