<svg xmlns="http://www.w3.org/2000/svg" class="font" viewBox="0 0 300 300"><rect width="300" height="300" x="0" y="0" fill="transparent" class="logo-background-square"/><defs><linearGradient id="7b31ae9d-aea8-410c-acb2-97a00d171c47" x1="0%" x2="100%" y1="0%" y2="0%" gradientTransform="rotate(25)"><stop offset="0%" stop-color="#5106FF" stop-opacity="1"/><stop offset="100%" stop-color="#61CBF2" stop-opacity="1"/></linearGradient></defs><g id="b65bd7c9-c773-4feb-ad74-80834f667fb3" fill="url(#7b31ae9d-aea8-410c-acb2-97a00d171c47)" transform="matrix(5.5055056316426665,0,0,5.5055056316426665,33.39339297950583,92.16466533476833)"><path d="M7.32 14.35L7.32 13.03L2.77 13.03L2.77 10.05L7.15 10.05L7.15 8.74L2.77 8.74L2.77 5.89L7.32 5.89L7.32 4.58L1.20 4.58L1.20 14.35ZM15.72 14.35L15.72 13.12L11.19 13.12L15.58 8.47L15.58 7.13L9.63 7.13L9.63 8.36L13.87 8.36L9.48 13.01L9.48 14.35ZM17.91 17.15L19.43 17.15L19.43 13.12L19.52 13.12C19.94 13.99 20.64 14.52 21.70 14.52C23.39 14.52 24.49 13.22 24.49 10.74C24.49 8.26 23.39 6.96 21.70 6.96C20.64 6.96 19.94 7.49 19.52 8.36L19.43 8.36L19.43 7.13L17.91 7.13ZM21.07 13.27C20.19 13.27 19.43 12.82 19.43 11.94L19.43 9.53C19.43 8.65 20.19 8.20 21.07 8.20C22.22 8.20 22.88 8.97 22.88 10.15L22.88 11.33C22.88 12.50 22.22 13.27 21.07 13.27ZM29.85 5.81C30.60 5.81 30.88 5.45 30.88 4.98L30.88 4.69C30.88 4.23 30.60 3.86 29.83 3.86C29.08 3.86 28.80 4.23 28.80 4.69L28.80 4.98C28.80 5.45 29.08 5.81 29.85 5.81ZM26.61 14.35L32.91 14.35L32.91 13.12L30.60 13.12L30.60 7.13L26.61 7.13L26.61 8.36L29.08 8.36L29.08 13.12L26.61 13.12ZM37.95 14.52C39.44 14.52 40.45 13.86 40.94 13.02L39.98 12.18C39.58 12.85 38.91 13.29 37.98 13.29C36.74 13.29 35.98 12.49 35.98 11.35L35.98 11.12L41.16 11.12L41.16 10.54C41.16 8.41 39.87 6.96 37.84 6.96C35.78 6.96 34.44 8.43 34.44 10.75C34.44 13.05 35.74 14.52 37.95 14.52ZM37.84 8.12C38.91 8.12 39.61 8.86 39.61 10.00L39.61 10.14L35.98 10.14L35.98 10.04C35.98 8.92 36.75 8.12 37.84 8.12Z"/></g></svg>