<svg data-v-423bf9ae="" xmlns="http://www.w3.org/2000/svg" viewBox="0 0 160.1388891239552 60" class="font"><!----><!----><!----><g data-v-423bf9ae="" id="0e81e2b7-91aa-4b59-a593-e6746e3407cc" fill="black" transform="matrix(4.629629616002596,0,0,4.629629616002596,-4.02777662071999,-13.88888837117063)"><path d="M7.31 9.16L7.31 9.16Q7.31 9.55 7.25 9.94L7.25 9.94L1.97 9.94L1.97 9.94Q2.07 11.00 2.68 11.59L2.68 11.59L2.68 11.59Q3.29 12.18 4.26 12.18L4.26 12.18L4.26 12.18Q5.03 12.18 5.54 11.91L5.54 11.91L5.54 11.91Q6.05 11.65 6.23 11.14L6.23 11.14L7.17 11.63L7.17 11.63Q6.75 12.38 6.05 12.77L6.05 12.77L6.05 12.77Q5.35 13.16 4.26 13.16L4.26 13.16L4.26 13.16Q2.67 13.16 1.77 12.19L1.77 12.19L1.77 12.19Q0.87 11.23 0.87 9.52L0.87 9.52L0.87 9.52Q0.87 7.81 1.73 6.85L1.73 6.85L1.73 6.85Q2.59 5.88 4.17 5.88L4.17 5.88L4.17 5.88Q5.15 5.88 5.87 6.31L5.87 6.31L5.87 6.31Q6.58 6.75 6.94 7.49L6.94 7.49L6.94 7.49Q7.31 8.23 7.31 9.16L7.31 9.16ZM4.17 6.86L4.17 6.86Q3.25 6.86 2.68 7.41L2.68 7.41L2.68 7.41Q2.11 7.95 1.99 8.95L1.99 8.95L6.23 8.95L6.23 8.95Q6.12 7.97 5.59 7.41L5.59 7.41L5.59 7.41Q5.05 6.86 4.17 6.86L4.17 6.86ZM8.93 13.02L8.93 12.17L12.60 7.87L13.48 6.96L12.24 6.99L8.97 6.99L8.97 6.02L14.73 6.02L14.73 6.87L11.06 11.17L10.19 12.08L11.55 12.05L14.84 12.05L14.84 13.02L8.93 13.02ZM20.36 5.88L20.36 5.88Q21.83 5.88 22.69 6.85L22.69 6.85L22.69 6.85Q23.55 7.83 23.55 9.52L23.55 9.52L23.55 9.52Q23.55 11.21 22.69 12.19L22.69 12.19L22.69 12.19Q21.83 13.16 20.36 13.16L20.36 13.16L20.36 13.16Q19.59 13.16 18.98 12.82L18.98 12.82L18.98 12.82Q18.37 12.49 18.03 11.93L18.03 11.93L18.03 15.96L16.91 15.96L16.91 6.02L17.89 6.02L17.96 7.24L17.96 7.24Q18.27 6.62 18.91 6.25L18.91 6.25L18.91 6.25Q19.54 5.88 20.36 5.88L20.36 5.88ZM20.23 12.18L20.23 12.18Q21.25 12.18 21.84 11.46L21.84 11.46L21.84 11.46Q22.43 10.74 22.43 9.52L22.43 9.52L22.43 9.52Q22.43 8.30 21.84 7.58L21.84 7.58L21.84 7.58Q21.25 6.86 20.23 6.86L20.23 6.86L20.23 6.86Q19.22 6.86 18.63 7.56L18.63 7.56L18.63 7.56Q18.03 8.26 18.03 9.44L18.03 9.44L18.03 9.60L18.03 9.60Q18.03 10.78 18.63 11.48L18.63 11.48L18.63 11.48Q19.22 12.18 20.23 12.18L20.23 12.18ZM26.29 4.68L26.29 4.68Q25.91 4.68 25.68 4.44L25.68 4.44L25.68 4.44Q25.45 4.21 25.45 3.84L25.45 3.84L25.45 3.84Q25.45 3.46 25.68 3.23L25.68 3.23L25.68 3.23Q25.91 3.00 26.29 3.00L26.29 3.00L26.29 3.00Q26.67 3.00 26.90 3.23L26.90 3.23L26.90 3.23Q27.13 3.46 27.13 3.84L27.13 3.84L27.13 3.84Q27.13 4.21 26.90 4.44L26.90 4.44L26.90 4.44Q26.67 4.68 26.29 4.68L26.29 4.68ZM26.85 6.02L26.85 13.02L25.73 13.02L25.73 6.02L26.85 6.02ZM35.46 9.16L35.46 9.16Q35.46 9.55 35.41 9.94L35.41 9.94L30.13 9.94L30.13 9.94Q30.23 11.00 30.84 11.59L30.84 11.59L30.84 11.59Q31.44 12.18 32.41 12.18L32.41 12.18L32.41 12.18Q33.18 12.18 33.69 11.91L33.69 11.91L33.69 11.91Q34.20 11.65 34.38 11.14L34.38 11.14L35.32 11.63L35.32 11.63Q34.90 12.38 34.20 12.77L34.20 12.77L34.20 12.77Q33.50 13.16 32.41 13.16L32.41 13.16L32.41 13.16Q30.83 13.16 29.93 12.19L29.93 12.19L29.93 12.19Q29.02 11.23 29.02 9.52L29.02 9.52L29.02 9.52Q29.02 7.81 29.88 6.85L29.88 6.85L29.88 6.85Q30.74 5.88 32.33 5.88L32.33 5.88L32.33 5.88Q33.31 5.88 34.02 6.31L34.02 6.31L34.02 6.31Q34.73 6.75 35.10 7.49L35.10 7.49L35.10 7.49Q35.46 8.23 35.46 9.16L35.46 9.16ZM32.33 6.86L32.33 6.86Q31.40 6.86 30.84 7.41L30.84 7.41L30.84 7.41Q30.27 7.95 30.14 8.95L30.14 8.95L34.38 8.95L34.38 8.95Q34.27 7.97 33.74 7.41L33.74 7.41L33.74 7.41Q33.21 6.86 32.33 6.86L32.33 6.86Z"></path></g><!----><!----></svg>