<svg width="1200" height="675" viewBox="0 0 1200 675" fill="none" xmlns="http://www.w3.org/2000/svg">
<rect width="1200" height="675" fill="#1E1E1E"/>
<rect width="1200" height="675" fill="#2C2C2C"/>
<path d="M1119.81 253.374C1119.81 234.72 1097.85 218.177 1064.07 208.078C1072.2 173.775 1068.65 146.484 1052.48 137.252C1048.52 135.051 1044.04 133.93 1039.51 134.003C1024.43 134.003 1005.36 144.535 986.104 162.756C966.848 144.67 947.836 134.192 932.778 134.192C928.174 134.091 923.627 135.232 919.616 137.496C903.529 146.755 900.198 173.883 908.215 208.024C874.605 218.069 852.75 234.476 852.696 253.049C852.642 271.622 874.687 288.246 908.458 298.317C900.334 332.647 903.854 359.911 920.05 369.144C923.999 371.357 928.468 372.479 932.995 372.393C948.107 372.393 967.173 361.861 986.429 343.64C1005.66 361.725 1024.67 372.203 1039.75 372.203C1044.36 372.288 1048.9 371.148 1052.92 368.9C1069 359.641 1072.31 332.512 1064.32 298.507C1097.93 288.327 1119.78 271.92 1119.81 253.374ZM998.507 168.875C1020.69 149.029 1034.55 146.89 1039.48 146.89C1041.77 146.817 1044.03 147.359 1046.04 148.461C1053.78 152.874 1056.87 168.442 1054.41 189.072C1053.77 194.341 1052.87 199.573 1051.7 204.748C1040.47 202.141 1029.09 200.268 1017.63 199.144C1010.8 189.565 1003.34 180.448 995.312 171.853C996.314 170.851 997.397 169.849 998.507 168.875ZM931.37 268.725C933.482 272.786 935.73 276.847 938.059 280.935C940.388 285.024 942.826 289.166 945.534 293.254C938.195 292.198 931.072 290.872 924.302 289.301C926.197 282.425 928.608 275.656 931.37 268.725ZM923.868 217.175C930.72 215.578 937.897 214.251 945.345 213.222C942.636 217.229 940.307 221.345 937.87 225.65C935.432 229.954 933.293 233.772 931.208 237.887C928.445 230.848 925.999 223.944 923.868 217.175ZM937.978 253.293C941.336 246.199 945.029 239.106 949.055 232.012C953.117 224.919 957.477 218.015 961.973 211.409C969.854 210.813 977.979 210.488 986.347 210.515C994.716 210.542 1002.6 210.84 1010.42 211.463C1014.92 218.015 1019.23 225 1023.29 231.904C1027.35 238.808 1031.09 246.037 1034.45 253.103C1031.11 260.196 1027.4 267.317 1023.4 274.356C1019.39 281.396 1014.97 288.381 1010.48 294.987C1002.6 295.61 994.472 295.908 986.104 295.908C977.735 295.908 969.854 295.556 962.027 294.933C957.532 288.381 953.198 281.558 949.136 274.492C945.074 267.425 941.472 260.359 938.087 253.293H937.978ZM1026.97 213.304C1034.34 214.333 1041.46 215.659 1048.2 217.229C1046.2 223.917 1043.82 230.767 1041.05 237.671C1038.91 233.609 1036.69 229.548 1034.34 225.46C1031.98 221.372 1029.49 217.257 1027.08 213.304H1026.97ZM1034.45 280.773C1036.77 276.676 1039 272.588 1041.11 268.508C1043.82 275.548 1046.52 282.479 1048.42 289.247C1041.6 290.845 1034.42 292.144 1026.97 293.173C1029.59 289.166 1032.12 285.033 1034.55 280.773H1034.45ZM986.158 181.058C991.033 186.256 995.826 191.888 1000.51 197.925C995.88 197.736 991.141 197.601 986.347 197.601C981.554 197.601 976.652 197.601 971.912 197.925C976.543 191.915 981.283 186.256 986.158 181.058ZM926.089 148.569C928.144 147.476 930.453 146.953 932.778 147.053C937.658 147.256 942.443 148.463 946.834 150.6C956.759 155.277 965.896 161.47 973.916 168.956L977.085 171.853C969.134 180.385 961.752 189.429 954.986 198.927C943.458 200.044 932.014 201.907 920.727 204.505C919.535 199.252 918.56 194.108 918.018 189.153C915.202 168.712 918.452 153.117 926.062 148.677L926.089 148.569ZM911.762 285.836C906.674 284.283 901.666 282.476 896.759 280.421C877.53 272.299 865.614 261.875 865.614 252.968C865.614 244.06 877.585 233.691 896.786 225.704C901.606 223.708 906.523 221.955 911.519 220.451C914.904 231.668 919.03 242.648 923.868 253.32C919.133 263.885 915.089 274.746 911.762 285.836ZM974.052 337.548C951.871 357.393 938.005 359.505 933.049 359.505C930.763 359.581 928.499 359.039 926.495 357.935C918.75 353.522 915.662 337.954 918.127 317.323C918.756 312.063 919.66 306.84 920.835 301.674C932.061 304.26 943.441 306.122 954.905 307.252C961.725 316.837 969.18 325.955 977.22 334.543L974.052 337.548ZM986.429 325.337C981.554 320.139 976.76 314.508 972.048 308.47C976.706 308.687 981.445 308.795 986.239 308.795C991.033 308.795 995.934 308.795 1000.67 308.497C995.989 314.508 991.222 320.139 986.401 325.337H986.429ZM1046.5 357.827C1044.44 358.952 1042.12 359.504 1039.78 359.424C1034.85 359.424 1020.82 357.258 998.724 337.494L995.555 334.597C1003.5 326.064 1010.87 317.02 1017.63 307.522C1029.17 306.422 1040.62 304.558 1051.91 301.945C1053.11 307.198 1054.05 312.342 1054.62 317.296C1057.3 337.71 1054.19 353.305 1046.47 357.718L1046.5 357.827ZM1075.75 280.827C1071.12 282.722 1066.21 284.482 1061.01 286.052C1057.61 274.837 1053.48 263.857 1048.64 253.184C1053.39 242.631 1057.46 231.778 1060.8 220.695C1065.89 222.248 1070.89 224.055 1075.8 226.11C1095 234.232 1106.94 244.656 1106.92 253.563C1106.89 262.471 1094.95 272.732 1075.72 280.719L1075.75 280.827ZM986.158 278.066C991.075 278.071 995.883 276.618 999.975 273.892C1004.07 271.165 1007.26 267.287 1009.14 262.748C1011.03 258.208 1011.53 253.211 1010.57 248.389C1009.62 243.567 1007.26 239.136 1003.78 235.656C1000.31 232.176 995.883 229.804 991.062 228.84C986.24 227.876 981.241 228.362 976.696 230.239C972.151 232.115 968.264 235.296 965.528 239.381C962.792 243.465 961.329 248.269 961.323 253.184C961.316 256.449 961.953 259.683 963.198 262.702C964.443 265.72 966.271 268.464 968.578 270.775C970.885 273.086 973.625 274.919 976.641 276.171C979.658 277.422 982.892 278.066 986.158 278.066ZM820.955 103.409V402.987H1151.55V103.409H820.955ZM1138.63 390.099H833.901V116.323H1138.63V390.099ZM908.431 298.317C900.307 332.647 903.827 359.911 920.023 369.144C923.972 371.357 928.441 372.479 932.968 372.393C948.08 372.393 967.146 361.861 986.401 343.64C1005.63 361.725 1024.64 372.203 1039.73 372.203C1044.33 372.288 1048.87 371.148 1052.89 368.9C1068.98 359.641 1072.28 332.512 1064.29 298.507C1097.9 288.435 1119.75 272.028 1119.78 253.482C1119.81 234.936 1097.82 218.285 1064.05 208.187C1072.17 173.883 1068.62 146.593 1052.46 137.36C1048.49 135.159 1044.02 134.039 1039.48 134.111C1024.4 134.111 1005.33 144.643 986.076 162.864C966.821 144.779 947.809 134.301 932.751 134.301C928.147 134.199 923.6 135.34 919.589 137.604C903.502 146.863 900.171 173.992 908.188 208.133C874.578 218.177 852.723 234.584 852.669 253.157C852.615 271.73 874.687 288.191 908.458 298.317H908.431ZM973.998 337.548C951.817 357.393 937.951 359.505 932.995 359.505C930.709 359.581 928.444 359.039 926.441 357.935C918.696 353.522 915.608 337.954 918.073 317.323C918.702 312.063 919.606 306.84 920.781 301.674C932.007 304.26 943.386 306.122 954.85 307.252C961.67 316.837 969.126 325.955 977.166 334.543L973.998 337.548ZM1041.13 237.671C1039 233.609 1036.77 229.548 1034.42 225.46C1032.06 221.372 1029.54 217.338 1027.05 213.304C1034.42 214.333 1041.54 215.659 1048.28 217.229C1046.31 223.917 1043.92 230.767 1041.16 237.671H1041.13ZM1048.5 289.112C1041.68 290.709 1034.5 292.009 1027.05 293.038C1029.6 289.031 1032.09 284.897 1034.53 280.638C1036.96 276.378 1039.18 272.29 1041.19 268.373C1044.03 275.548 1046.5 282.425 1048.45 289.247L1048.5 289.112ZM1034.39 252.968C1031.06 260.061 1027.35 267.182 1023.34 274.221C1019.33 281.26 1014.92 288.245 1010.42 294.852C1002.54 295.474 994.418 295.772 986.049 295.772C977.681 295.772 969.8 295.42 961.973 294.797C957.477 288.246 953.144 281.423 949.082 274.356C945.02 267.29 941.309 260.224 937.924 253.157C941.282 246.064 944.974 238.97 949.001 231.877C953.063 224.783 957.423 217.879 961.919 211.273C969.8 210.678 977.925 210.353 986.293 210.38C994.662 210.407 1002.54 210.705 1010.37 211.327C1014.86 217.879 1019.17 224.864 1023.23 231.768C1027.3 238.672 1031.06 246.037 1034.42 253.103L1034.39 252.968ZM945.534 293.254C938.195 292.198 931.072 290.872 924.302 289.301C926.306 282.641 928.716 275.764 931.478 268.86C933.591 272.921 935.839 276.983 938.168 281.071C940.497 285.159 942.826 289.166 945.534 293.254ZM937.978 225.568C935.622 229.63 933.401 233.691 931.316 237.806C928.481 230.821 925.999 223.944 923.868 217.175C930.72 215.578 937.897 214.251 945.345 213.222C942.826 217.229 940.416 221.372 937.978 225.568ZM986.401 325.337C981.527 320.139 976.733 314.508 972.021 308.47C976.679 308.687 981.418 308.795 986.212 308.795C991.005 308.795 995.907 308.795 1000.65 308.497C995.989 314.508 991.222 320.139 986.401 325.337ZM1046.47 357.827C1044.42 358.952 1042.1 359.504 1039.75 359.424C1034.82 359.424 1020.8 357.258 998.697 337.494L995.528 334.597C1003.47 326.064 1010.84 317.02 1017.6 307.522C1029.14 306.422 1040.59 304.558 1051.89 301.945C1053.08 307.198 1054.03 312.342 1054.59 317.296C1057.3 337.71 1054.19 353.305 1046.47 357.718V357.827ZM1060.77 220.668C1065.86 222.221 1070.87 224.028 1075.77 226.083C1094.97 234.205 1106.92 244.629 1106.89 253.536C1106.86 262.444 1094.95 272.921 1075.72 280.908C1071.09 282.804 1066.19 284.563 1060.99 286.134C1057.59 274.918 1053.45 263.938 1048.61 253.265C1053.38 242.642 1057.44 231.716 1060.77 220.56V220.668ZM998.48 168.983C1020.66 149.138 1034.53 146.999 1039.46 146.999C1041.74 146.925 1044.01 147.468 1046.01 148.569C1053.76 152.982 1056.84 168.55 1054.38 189.18C1053.75 194.449 1052.84 199.681 1051.67 204.857C1040.45 202.249 1029.07 200.377 1017.6 199.252C1010.77 189.673 1003.32 180.556 995.284 171.961C996.314 170.851 997.397 169.849 998.507 168.875L998.48 168.983ZM986.158 181.058C991.033 186.256 995.826 191.888 1000.51 197.925C995.88 197.736 991.141 197.601 986.347 197.601C981.554 197.601 976.652 197.601 971.912 197.925C976.543 191.915 981.283 186.256 986.158 181.058ZM926.089 148.569C928.144 147.476 930.453 146.953 932.778 147.053C937.658 147.256 942.443 148.463 946.834 150.6C956.759 155.277 965.896 161.47 973.916 168.956L977.085 171.853C969.134 180.385 961.752 189.429 954.986 198.927C943.458 200.044 932.014 201.907 920.727 204.505C919.535 199.252 918.56 194.108 918.018 189.153C915.202 168.712 918.452 153.117 926.062 148.677L926.089 148.569ZM896.786 225.704C901.606 223.708 906.523 221.955 911.519 220.451C914.904 231.668 919.03 242.648 923.868 253.32C919.115 263.875 915.054 274.727 911.708 285.809C906.62 284.256 901.612 282.449 896.705 280.394C877.476 272.272 865.56 261.848 865.56 252.941C865.56 244.033 877.585 233.691 896.786 225.704ZM986.158 228.411C981.241 228.406 976.432 229.858 972.341 232.585C968.249 235.311 965.059 239.19 963.172 243.729C961.285 248.269 960.787 253.265 961.741 258.088C962.695 262.91 965.059 267.341 968.532 270.821C972.005 274.301 976.432 276.673 981.254 277.637C986.075 278.601 991.075 278.114 995.62 276.238C1000.16 274.362 1004.05 271.181 1006.79 267.096C1009.52 263.012 1010.99 258.208 1010.99 253.293C1011.02 250.016 1010.39 246.767 1009.16 243.733C1007.92 240.699 1006.09 237.94 1003.79 235.614C1001.48 233.289 998.731 231.443 995.705 230.184C992.68 228.924 989.435 228.276 986.158 228.276V228.411ZM986.158 228.411C981.241 228.406 976.432 229.858 972.341 232.585C968.249 235.311 965.059 239.19 963.172 243.729C961.285 248.269 960.787 253.265 961.741 258.088C962.695 262.91 965.059 267.341 968.532 270.821C972.005 274.301 976.432 276.673 981.254 277.637C986.075 278.601 991.075 278.114 995.62 276.238C1000.16 274.362 1004.05 271.181 1006.79 267.096C1009.52 263.012 1010.99 258.208 1010.99 253.293C1011.02 250.016 1010.39 246.767 1009.16 243.733C1007.92 240.699 1006.09 237.94 1003.79 235.614C1001.48 233.289 998.731 231.443 995.705 230.184C992.68 228.924 989.435 228.276 986.158 228.276V228.411ZM986.158 228.411C981.241 228.406 976.432 229.858 972.341 232.585C968.249 235.311 965.059 239.19 963.172 243.729C961.285 248.269 960.787 253.265 961.741 258.088C962.695 262.91 965.059 267.341 968.532 270.821C972.005 274.301 976.432 276.673 981.254 277.637C986.075 278.601 991.075 278.114 995.62 276.238C1000.16 274.362 1004.05 271.181 1006.79 267.096C1009.52 263.012 1010.99 258.208 1010.99 253.293C1011.02 250.016 1010.39 246.767 1009.16 243.733C1007.92 240.699 1006.09 237.94 1003.79 235.614C1001.48 233.289 998.731 231.443 995.705 230.184C992.68 228.924 989.435 228.276 986.158 228.276V228.411ZM1119.81 253.428C1119.81 234.774 1097.85 218.231 1064.07 208.133C1072.2 173.829 1068.65 146.538 1052.48 137.306C1048.52 135.105 1044.04 133.984 1039.51 134.057C1024.43 134.057 1005.36 144.589 986.104 162.81C966.848 144.724 947.836 134.247 932.778 134.247C928.174 134.145 923.627 135.286 919.616 137.55C903.529 146.809 900.198 173.938 908.215 208.078C874.605 218.123 852.75 234.53 852.696 253.103C852.642 271.676 874.687 288.3 908.458 298.371C900.334 332.702 903.854 359.965 920.05 369.198C923.999 371.411 928.468 372.533 932.995 372.447C948.107 372.447 967.173 361.915 986.429 343.694C1005.66 361.779 1024.67 372.257 1039.75 372.257C1044.36 372.342 1048.9 371.202 1052.92 368.954C1069 359.695 1072.31 332.566 1064.32 298.561C1097.93 288.327 1119.78 271.92 1119.81 253.374V253.428ZM998.507 168.875C1020.69 149.029 1034.55 146.89 1039.48 146.89C1041.77 146.817 1044.03 147.359 1046.04 148.461C1053.78 152.874 1056.87 168.442 1054.41 189.072C1053.77 194.341 1052.87 199.573 1051.7 204.748C1040.47 202.141 1029.09 200.268 1017.63 199.144C1010.8 189.565 1003.34 180.448 995.312 171.853C996.314 170.851 997.397 169.849 998.507 168.875ZM931.37 268.725C933.482 272.786 935.73 276.847 938.059 280.935C940.388 285.024 942.826 289.166 945.534 293.254C938.195 292.198 931.072 290.872 924.302 289.301C926.197 282.425 928.608 275.656 931.37 268.725ZM923.868 217.175C930.72 215.578 937.897 214.251 945.345 213.222C942.636 217.229 940.307 221.345 937.87 225.65C935.432 229.954 933.293 233.772 931.208 237.887C928.445 230.848 925.999 223.944 923.868 217.175ZM937.978 253.293C941.336 246.199 945.029 239.106 949.055 232.012C953.117 224.919 957.477 218.015 961.973 211.409C969.854 210.813 977.979 210.488 986.347 210.515C994.716 210.542 1002.6 210.84 1010.42 211.463C1014.92 218.015 1019.23 225 1023.29 231.904C1027.35 238.808 1031.09 246.037 1034.45 253.103C1031.11 260.196 1027.4 267.317 1023.4 274.356C1019.39 281.396 1014.97 288.381 1010.48 294.987C1002.6 295.61 994.472 295.908 986.104 295.908C977.735 295.908 969.854 295.556 962.027 294.933C957.532 288.381 953.198 281.558 949.136 274.492C945.074 267.425 941.472 260.359 938.087 253.293H937.978ZM1026.97 213.304C1034.34 214.333 1041.46 215.659 1048.2 217.229C1046.2 223.917 1043.82 230.767 1041.05 237.671C1038.91 233.609 1036.69 229.548 1034.34 225.46C1031.98 221.372 1029.49 217.257 1027.08 213.304H1026.97ZM1034.45 280.773C1036.77 276.676 1039 272.588 1041.11 268.508C1043.82 275.548 1046.52 282.479 1048.42 289.247C1041.6 290.845 1034.42 292.144 1026.97 293.173C1029.59 289.166 1032.12 285.033 1034.55 280.773H1034.45ZM986.158 181.058C991.033 186.256 995.826 191.888 1000.51 197.925C995.88 197.736 991.141 197.601 986.347 197.601C981.554 197.601 976.652 197.601 971.912 197.925C976.543 191.915 981.283 186.256 986.158 181.058ZM926.089 148.569C928.144 147.476 930.453 146.953 932.778 147.053C937.658 147.256 942.443 148.463 946.834 150.6C956.759 155.277 965.896 161.47 973.916 168.956L977.085 171.853C969.134 180.385 961.752 189.429 954.986 198.927C943.458 200.044 932.014 201.907 920.727 204.505C919.535 199.252 918.56 194.108 918.018 189.153C915.202 168.712 918.452 153.117 926.062 148.677L926.089 148.569ZM911.762 285.836C906.674 284.283 901.666 282.476 896.759 280.421C877.53 272.299 865.614 261.875 865.614 252.968C865.614 244.06 877.585 233.691 896.786 225.704C901.606 223.708 906.523 221.955 911.519 220.451C914.904 231.668 919.03 242.648 923.868 253.32C919.133 263.885 915.089 274.746 911.762 285.836ZM974.052 337.548C951.871 357.393 938.005 359.505 933.049 359.505C930.763 359.581 928.499 359.039 926.495 357.935C918.75 353.522 915.662 337.954 918.127 317.323C918.756 312.063 919.66 306.84 920.835 301.674C932.061 304.26 943.441 306.122 954.905 307.252C961.725 316.837 969.18 325.955 977.22 334.543L974.052 337.548ZM986.429 325.337C981.554 320.139 976.76 314.508 972.048 308.47C976.706 308.687 981.445 308.795 986.239 308.795C991.033 308.795 995.934 308.795 1000.67 308.497C995.989 314.508 991.222 320.139 986.401 325.337H986.429ZM1046.5 357.827C1044.44 358.952 1042.12 359.504 1039.78 359.424C1034.85 359.424 1020.82 357.258 998.724 337.494L995.555 334.597C1003.5 326.064 1010.87 317.02 1017.63 307.522C1029.17 306.422 1040.62 304.558 1051.91 301.945C1053.11 307.198 1054.05 312.342 1054.62 317.296C1057.3 337.71 1054.19 353.305 1046.47 357.718L1046.5 357.827ZM1075.75 280.827C1071.12 282.722 1066.21 284.482 1061.01 286.052C1057.61 274.837 1053.48 263.857 1048.64 253.184C1053.39 242.631 1057.46 231.778 1060.8 220.695C1065.89 222.248 1070.89 224.055 1075.8 226.11C1095 234.232 1106.94 244.656 1106.92 253.563C1106.89 262.471 1094.95 272.732 1075.72 280.719L1075.75 280.827ZM986.158 278.066C991.075 278.071 995.883 276.618 999.975 273.892C1004.07 271.165 1007.26 267.287 1009.14 262.748C1011.03 258.208 1011.53 253.211 1010.57 248.389C1009.62 243.567 1007.26 239.136 1003.78 235.656C1000.31 232.176 995.883 229.804 991.062 228.84C986.24 227.876 981.241 228.362 976.696 230.239C972.151 232.115 968.264 235.296 965.528 239.381C962.792 243.465 961.329 248.269 961.323 253.184C961.316 256.449 961.953 259.683 963.198 262.702C964.443 265.72 966.271 268.464 968.578 270.775C970.885 273.086 973.625 274.919 976.641 276.171C979.658 277.422 982.892 278.066 986.158 278.066ZM798.423 425.621V125.935L785.45 138.93V438.535H1115.99L1128.94 425.621H798.423Z" fill="#09D3AC"/>
<path d="M244.722 101V66.8182H256.672C259.053 66.8182 261.017 67.2299 262.564 68.0533C264.11 68.8655 265.262 69.9615 266.019 71.3413C266.775 72.7099 267.154 74.2287 267.154 75.8977C267.154 77.3665 266.892 78.5793 266.369 79.5362C265.857 80.4931 265.179 81.2498 264.333 81.8061C263.498 82.3625 262.592 82.7741 261.612 83.0412V83.375C262.658 83.4418 263.71 83.8089 264.767 84.4766C265.824 85.1442 266.708 86.1011 267.421 87.3473C268.133 88.5935 268.489 90.1179 268.489 91.9205C268.489 93.634 268.099 95.1751 267.32 96.5437C266.542 97.9123 265.312 98.9972 263.632 99.7983C261.952 100.599 259.765 101 257.073 101H244.722ZM248.861 97.3281H257.073C259.776 97.3281 261.696 96.8052 262.831 95.7592C263.977 94.7022 264.55 93.4226 264.55 91.9205C264.55 90.7633 264.255 89.6951 263.665 88.7159C263.076 87.7256 262.235 86.9356 261.145 86.3459C260.055 85.745 258.764 85.4446 257.273 85.4446H248.861V97.3281ZM248.861 81.8395H256.538C257.785 81.8395 258.909 81.5947 259.91 81.1051C260.922 80.6155 261.724 79.9257 262.313 79.0355C262.914 78.1454 263.215 77.0994 263.215 75.8977C263.215 74.3956 262.692 73.1216 261.646 72.0756C260.6 71.0186 258.942 70.4901 256.672 70.4901H248.861V81.8395ZM285.505 101.534C283.034 101.534 280.904 100.989 279.112 99.8984C277.332 98.7969 275.958 97.2614 274.99 95.2919C274.033 93.3113 273.554 91.008 273.554 88.3821C273.554 85.7562 274.033 83.4418 274.99 81.4389C275.958 79.425 277.304 77.8561 279.029 76.7322C280.765 75.5973 282.79 75.0298 285.104 75.0298C286.439 75.0298 287.758 75.2524 289.06 75.6974C290.361 76.1425 291.546 76.8658 292.615 77.8672C293.683 78.8575 294.534 80.1705 295.168 81.8061C295.803 83.4418 296.12 85.4557 296.12 87.848V89.517H276.358V86.1122H292.114C292.114 84.6657 291.825 83.375 291.246 82.2401C290.679 81.1051 289.866 80.2094 288.809 79.5529C287.763 78.8964 286.528 78.5682 285.104 78.5682C283.535 78.5682 282.178 78.9576 281.032 79.7365C279.897 80.5043 279.023 81.5057 278.411 82.7408C277.799 83.9759 277.493 85.3 277.493 86.7131V88.983C277.493 90.919 277.827 92.5603 278.495 93.9066C279.173 95.2418 280.114 96.2599 281.315 96.9609C282.517 97.6508 283.913 97.9957 285.505 97.9957C286.539 97.9957 287.474 97.8511 288.309 97.5618C289.154 97.2614 289.883 96.8163 290.495 96.2266C291.107 95.6257 291.58 94.8802 291.914 93.9901L295.719 95.0582C295.318 96.349 294.645 97.4839 293.7 98.4631C292.754 99.4311 291.585 100.188 290.195 100.733C288.804 101.267 287.24 101.534 285.505 101.534ZM313.261 75.3636V78.7017H299.975V75.3636H313.261ZM303.847 69.2216H307.786V93.6562C307.786 94.7689 307.948 95.6035 308.27 96.1598C308.604 96.705 309.027 97.0722 309.539 97.2614C310.062 97.4394 310.612 97.5284 311.191 97.5284C311.625 97.5284 311.981 97.5062 312.259 97.4616C312.537 97.406 312.76 97.3615 312.927 97.3281L313.728 100.866C313.461 100.967 313.088 101.067 312.61 101.167C312.131 101.278 311.525 101.334 310.79 101.334C309.678 101.334 308.587 101.095 307.519 100.616C306.462 100.138 305.583 99.4089 304.882 98.4297C304.192 97.4505 303.847 96.2154 303.847 94.7244V69.2216ZM330.335 75.3636V78.7017H317.049V75.3636H330.335ZM320.921 69.2216H324.86V93.6562C324.86 94.7689 325.022 95.6035 325.344 96.1598C325.678 96.705 326.101 97.0722 326.613 97.2614C327.136 97.4394 327.687 97.5284 328.265 97.5284C328.699 97.5284 329.055 97.5062 329.333 97.4616C329.612 97.406 329.834 97.3615 330.001 97.3281L330.802 100.866C330.535 100.967 330.162 101.067 329.684 101.167C329.205 101.278 328.599 101.334 327.865 101.334C326.752 101.334 325.662 101.095 324.593 100.616C323.536 100.138 322.657 99.4089 321.956 98.4297C321.266 97.4505 320.921 96.2154 320.921 94.7244V69.2216ZM346.733 101.534C344.263 101.534 342.132 100.989 340.341 99.8984C338.56 98.7969 337.186 97.2614 336.218 95.2919C335.261 93.3113 334.783 91.008 334.783 88.3821C334.783 85.7562 335.261 83.4418 336.218 81.4389C337.186 79.425 338.533 77.8561 340.257 76.7322C341.993 75.5973 344.018 75.0298 346.333 75.0298C347.668 75.0298 348.986 75.2524 350.288 75.6974C351.59 76.1425 352.775 76.8658 353.843 77.8672C354.911 78.8575 355.763 80.1705 356.397 81.8061C357.031 83.4418 357.348 85.4557 357.348 87.848V89.517H337.587V86.1122H353.342C353.342 84.6657 353.053 83.375 352.475 82.2401C351.907 81.1051 351.095 80.2094 350.038 79.5529C348.992 78.8964 347.757 78.5682 346.333 78.5682C344.764 78.5682 343.406 78.9576 342.26 79.7365C341.125 80.5043 340.252 81.5057 339.64 82.7408C339.028 83.9759 338.722 85.3 338.722 86.7131V88.983C338.722 90.919 339.056 92.5603 339.723 93.9066C340.402 95.2418 341.342 96.2599 342.544 96.9609C343.746 97.6508 345.142 97.9957 346.733 97.9957C347.768 97.9957 348.703 97.8511 349.537 97.5618C350.383 97.2614 351.112 96.8163 351.724 96.2266C352.335 95.6257 352.808 94.8802 353.142 93.9901L356.948 95.0582C356.547 96.349 355.874 97.4839 354.928 98.4631C353.982 99.4311 352.814 100.188 351.423 100.733C350.032 101.267 348.469 101.534 346.733 101.534ZM363.34 101V75.3636H367.145V79.2358H367.412C367.88 77.9673 368.725 76.9381 369.949 76.1481C371.173 75.3581 372.553 74.9631 374.089 74.9631C374.378 74.9631 374.739 74.9686 375.173 74.9798C375.607 74.9909 375.936 75.0076 376.158 75.0298V79.0355C376.025 79.0021 375.719 78.9521 375.24 78.8853C374.773 78.8074 374.278 78.7685 373.755 78.7685C372.509 78.7685 371.396 79.0299 370.417 79.5529C369.449 80.0647 368.681 80.7769 368.113 81.6893C367.557 82.5906 367.279 83.6198 367.279 84.777V101H363.34ZM399.854 101L392.043 75.3636H396.182L401.724 94.9915H401.991L407.465 75.3636H411.671L417.079 94.9247H417.346L422.887 75.3636H427.026L419.215 101H415.343L409.735 81.3054H409.334L403.726 101H399.854ZM439.778 101.601C438.153 101.601 436.679 101.295 435.355 100.683C434.031 100.06 432.979 99.1641 432.2 97.9957C431.421 96.8163 431.032 95.392 431.032 93.723C431.032 92.2543 431.321 91.0637 431.9 90.1513C432.478 89.2277 433.252 88.5045 434.22 87.9815C435.188 87.4586 436.256 87.0691 437.424 86.8132C438.604 86.5462 439.789 86.3348 440.979 86.179C442.537 85.9787 443.8 85.8285 444.768 85.7283C445.747 85.6171 446.459 85.4335 446.904 85.1776C447.361 84.9216 447.589 84.4766 447.589 83.8423V83.7088C447.589 82.062 447.138 80.7824 446.237 79.87C445.347 78.9576 443.995 78.5014 442.181 78.5014C440.301 78.5014 438.826 78.9131 437.758 79.7365C436.69 80.5599 435.939 81.4389 435.505 82.3736L431.766 81.0384C432.434 79.4806 433.324 78.2678 434.437 77.3999C435.56 76.5208 436.784 75.9089 438.109 75.5639C439.444 75.2079 440.757 75.0298 442.047 75.0298C442.871 75.0298 443.817 75.13 444.885 75.3303C445.964 75.5194 447.004 75.9144 448.006 76.5153C449.018 77.1161 449.859 78.023 450.526 79.2358C451.194 80.4486 451.528 82.0732 451.528 84.1094V101H447.589V97.5284H447.388C447.121 98.0848 446.676 98.68 446.053 99.3143C445.43 99.9485 444.601 100.488 443.566 100.933C442.531 101.378 441.269 101.601 439.778 101.601ZM440.378 98.0625C441.936 98.0625 443.249 97.7565 444.317 97.1445C445.397 96.5326 446.209 95.7425 446.754 94.7745C447.31 93.8065 447.589 92.7884 447.589 91.7202V88.1151C447.422 88.3153 447.055 88.4989 446.487 88.6658C445.931 88.8216 445.285 88.9607 444.551 89.0831C443.828 89.1944 443.121 89.2945 442.431 89.3835C441.753 89.4614 441.202 89.5282 440.779 89.5838C439.755 89.7173 438.798 89.9343 437.908 90.2347C437.029 90.524 436.317 90.9635 435.772 91.5533C435.238 92.1319 434.971 92.9219 434.971 93.9233C434.971 95.2919 435.477 96.3267 436.49 97.0277C437.513 97.7176 438.81 98.0625 440.378 98.0625ZM460.336 110.614C459.668 110.614 459.073 110.558 458.55 110.447C458.027 110.347 457.665 110.246 457.465 110.146L458.467 106.675C459.423 106.92 460.269 107.009 461.004 106.942C461.738 106.875 462.389 106.547 462.956 105.957C463.535 105.378 464.063 104.438 464.542 103.136L465.276 101.134L455.796 75.3636H460.069L467.146 95.7926H467.413L474.489 75.3636H478.762L467.88 104.739C467.39 106.063 466.784 107.159 466.061 108.027C465.337 108.906 464.497 109.557 463.54 109.979C462.595 110.402 461.526 110.614 460.336 110.614ZM508.329 75.3636V78.7017H495.043V75.3636H508.329ZM498.916 69.2216H502.855V93.6562C502.855 94.7689 503.016 95.6035 503.339 96.1598C503.672 96.705 504.095 97.0722 504.607 97.2614C505.13 97.4394 505.681 97.5284 506.259 97.5284C506.693 97.5284 507.049 97.5062 507.328 97.4616C507.606 97.406 507.828 97.3615 507.995 97.3281L508.796 100.866C508.529 100.967 508.157 101.067 507.678 101.167C507.2 101.278 506.593 101.334 505.859 101.334C504.746 101.334 503.656 101.095 502.587 100.616C501.53 100.138 500.651 99.4089 499.95 98.4297C499.261 97.4505 498.916 96.2154 498.916 94.7244V69.2216ZM524.393 101.534C522.079 101.534 520.048 100.983 518.301 99.8817C516.566 98.7802 515.208 97.2391 514.229 95.2585C513.261 93.2779 512.777 90.9635 512.777 88.3153C512.777 85.6449 513.261 83.3138 514.229 81.3221C515.208 79.3304 516.566 77.7837 518.301 76.6822C520.048 75.5806 522.079 75.0298 524.393 75.0298C526.708 75.0298 528.733 75.5806 530.469 76.6822C532.216 77.7837 533.573 79.3304 534.541 81.3221C535.52 83.3138 536.01 85.6449 536.01 88.3153C536.01 90.9635 535.52 93.2779 534.541 95.2585C533.573 97.2391 532.216 98.7802 530.469 99.8817C528.733 100.983 526.708 101.534 524.393 101.534ZM524.393 97.9957C526.151 97.9957 527.598 97.5451 528.733 96.6438C529.868 95.7425 530.708 94.5575 531.253 93.0888C531.798 91.62 532.071 90.0289 532.071 88.3153C532.071 86.6018 531.798 85.0051 531.253 83.5252C530.708 82.0453 529.868 80.8492 528.733 79.9368C527.598 79.0244 526.151 78.5682 524.393 78.5682C522.635 78.5682 521.189 79.0244 520.054 79.9368C518.919 80.8492 518.079 82.0453 517.534 83.5252C516.988 85.0051 516.716 86.6018 516.716 88.3153C516.716 90.0289 516.988 91.62 517.534 93.0888C518.079 94.5575 518.919 95.7425 520.054 96.6438C521.189 97.5451 522.635 97.9957 524.393 97.9957Z" fill="white"/>
<path d="M251.211 284.9H266.692C284.922 284.9 294.038 292.057 294.038 306.37C294.038 311.945 292.267 316.917 288.727 321.286C285.186 325.58 279.611 327.727 272.003 327.727H270.76L295.168 359.819C296.072 361.175 296.524 362.004 296.524 362.305C296.524 363.435 295.996 364 294.942 364H292.682C291.702 364 290.987 363.699 290.535 363.096L264.432 328.744C263.603 327.539 263.189 326.559 263.189 325.806C263.189 323.395 264.507 322.19 267.144 322.19H272.116C275.28 322.19 277.992 321.663 280.252 320.608C282.512 319.553 284.169 318.197 285.224 316.54C287.333 313.301 288.388 309.948 288.388 306.483C288.388 295.861 281.118 290.55 266.579 290.55H252.115V361.74C252.115 362.343 251.889 362.87 251.437 363.322C251.06 363.774 250.533 364 249.855 364H248.725C248.047 364 247.482 363.774 247.03 363.322C246.653 362.87 246.465 362.343 246.465 361.74V290.211C246.465 288.177 246.766 286.783 247.369 286.03C248.047 285.277 249.327 284.9 251.211 284.9ZM307.062 284.9H346.499C347.101 284.9 347.629 285.126 348.081 285.578C348.533 286.03 348.759 286.557 348.759 287.16V288.177C348.759 288.855 348.533 289.42 348.081 289.872C347.629 290.249 347.101 290.437 346.499 290.437H308.192V358.463H346.499C347.101 358.463 347.629 358.689 348.081 359.141C348.533 359.518 348.759 360.045 348.759 360.723V361.74C348.759 362.343 348.533 362.87 348.081 363.322C347.629 363.774 347.101 364 346.499 364H306.949C305.141 364 303.935 363.623 303.333 362.87C302.805 362.041 302.542 360.911 302.542 359.48V289.307C302.542 287.8 302.881 286.708 303.559 286.03C304.237 285.277 305.404 284.9 307.062 284.9ZM314.972 320.156H339.154C339.832 320.156 340.359 320.382 340.736 320.834C341.188 321.286 341.414 321.813 341.414 322.416V323.433C341.414 324.94 340.66 325.693 339.154 325.693H314.972C313.465 325.693 312.712 324.94 312.712 323.433V322.416C312.712 321.813 312.9 321.286 313.277 320.834C313.729 320.382 314.294 320.156 314.972 320.156ZM379.834 287.838C380.512 285.804 381.943 284.787 384.128 284.787C386.388 284.787 387.894 285.842 388.648 287.951L414.638 360.949C414.713 361.175 414.751 361.439 414.751 361.74C414.751 363.247 413.997 364 412.491 364H411.135C410.155 364 409.44 363.51 408.988 362.531L384.354 292.358L359.607 362.531C359.155 363.51 358.439 364 357.46 364H356.104C354.597 364 353.844 363.247 353.844 361.74C353.844 361.439 353.881 361.175 353.957 360.949L379.834 287.838ZM374.523 329.196H394.072C394.674 329.196 395.202 329.422 395.654 329.874C396.106 330.251 396.332 330.778 396.332 331.456V332.473C396.332 333.151 396.106 333.716 395.654 334.168C395.202 334.545 394.674 334.733 394.072 334.733H374.523C373.091 334.733 372.376 333.98 372.376 332.473V331.456C372.376 329.949 373.091 329.196 374.523 329.196ZM437.112 287.16C439.824 285.879 442.197 285.088 444.231 284.787C446.341 284.41 448.375 284.222 450.333 284.222C452.367 284.222 454.401 284.41 456.435 284.787C458.469 285.088 460.692 285.804 463.102 286.934C465.588 287.989 467.811 289.382 469.769 291.115C471.728 292.772 473.461 295.108 474.967 298.121C476.474 301.059 477.416 304.487 477.792 308.404C477.792 310.061 477.039 310.89 475.532 310.89H474.515C473.159 310.89 472.406 310.212 472.255 308.856C471.879 305.692 471.088 302.905 469.882 300.494C468.677 298.083 467.283 296.238 465.701 294.957C464.119 293.676 462.311 292.622 460.277 291.793C457.264 290.512 454.439 289.872 451.802 289.872C449.241 289.872 447.094 290.023 445.361 290.324C443.704 290.625 441.821 291.266 439.711 292.245C437.602 293.224 435.756 294.543 434.174 296.2C432.592 297.782 431.236 300.042 430.106 302.98C429.052 305.918 428.524 309.308 428.524 313.15V335.298C428.524 339.14 429.127 342.53 430.332 345.468C431.538 348.406 432.969 350.704 434.626 352.361C436.359 353.943 438.355 355.224 440.615 356.203C444.231 357.785 447.621 358.576 450.785 358.576C453.949 358.576 456.624 358.312 458.808 357.785C461.068 357.182 463.291 356.165 465.475 354.734C470.146 351.796 472.481 346.334 472.481 338.349C472.481 337.068 472.67 336.24 473.046 335.863C473.498 335.486 474.063 335.298 474.741 335.298H475.645C477.152 335.298 477.905 336.051 477.905 337.558C477.905 342.153 477.152 346.184 475.645 349.649C474.214 353.114 472.519 355.751 470.56 357.559C468.602 359.292 466.304 360.685 463.667 361.74C459.599 363.322 456.021 364.113 452.932 364.113C449.919 364.113 447.282 363.925 445.022 363.548C442.838 363.171 440.352 362.343 437.564 361.062C434.852 359.781 432.442 358.162 430.332 356.203C428.298 354.244 426.566 351.495 425.134 347.954C423.703 344.338 422.987 340.232 422.987 335.637V312.698C422.987 307.952 423.665 303.771 425.021 300.155C426.453 296.539 428.148 293.789 430.106 291.906C432.14 289.947 434.476 288.365 437.112 287.16ZM509.483 293.488H510.613C512.12 293.488 512.873 294.204 512.873 295.635V361.74C512.873 362.343 512.647 362.87 512.195 363.322C511.819 363.774 511.291 364 510.613 364H509.483C508.805 364 508.24 363.774 507.788 363.322C507.412 362.87 507.223 362.343 507.223 361.74V295.635C507.223 294.204 507.977 293.488 509.483 293.488ZM485.075 284.9H535.247C535.925 284.9 536.453 285.126 536.829 285.578C537.281 286.03 537.507 286.557 537.507 287.16V288.403C537.507 289.759 536.754 290.437 535.247 290.437H485.075C483.569 290.437 482.815 289.759 482.815 288.403V287.16C482.815 286.557 483.041 286.03 483.493 285.578C483.945 285.126 484.473 284.9 485.075 284.9Z" fill="#09D3AC"/>
<path d="M285.131 181.37H272.159V167.834C272.159 166.142 271.877 165.061 271.313 164.591C270.843 164.027 269.762 163.745 268.07 163.745H260.879C259.187 163.745 258.059 164.027 257.495 164.591C256.931 165.061 256.649 166.142 256.649 167.834V228.041C256.649 229.733 256.931 230.861 257.495 231.425C258.059 231.895 259.187 232.13 260.879 232.13H268.07C269.762 232.13 270.843 231.895 271.313 231.425C271.877 230.861 272.159 229.733 272.159 228.041V214.646H285.131V229.592C285.131 237.958 280.713 242.141 271.877 242.141H256.931C248.189 242.141 243.818 237.958 243.818 229.592V166.142C243.818 157.87 248.189 153.734 256.931 153.734H271.877C280.713 153.734 285.131 157.87 285.131 166.142V181.37ZM310.363 206.327V242H297.673V153.734H326.578C335.32 153.734 339.691 157.87 339.691 166.142V193.778C339.691 200.922 336.542 205.011 330.244 206.045L344.203 242H330.526L317.272 206.327H310.363ZM310.363 164.027V196.175H322.771C324.463 196.175 325.591 195.94 326.155 195.47C326.719 194.906 327.001 193.778 327.001 192.086V168.116C327.001 166.424 326.719 165.343 326.155 164.873C325.591 164.309 324.463 164.027 322.771 164.027H310.363ZM366.409 231.707H391.93V242H353.578V153.734H390.943V164.027H366.409V191.24H386.713V201.533H366.409V231.707ZM434.339 242L430.814 221.555H412.202L408.959 242H396.269L411.92 153.734H430.391L447.17 242H434.339ZM413.753 211.262H429.122L421.085 164.732L413.753 211.262ZM491.834 153.734V164.027H477.029V242H464.339V164.027H449.534V153.734H491.834ZM512.641 231.707H538.162V242H499.81V153.734H537.175V164.027H512.641V191.24H532.945V201.533H512.641V231.707Z" fill="white"/>
<path d="M322.838 536L317.837 507H291.438L286.838 536H268.838L291.038 410.8H317.238L341.038 536H322.838ZM293.638 492.4H315.438L304.038 426.4L293.638 492.4ZM353.791 410.8H394.791C407.191 410.8 413.391 416.667 413.391 428.4V470C413.391 481.733 407.191 487.6 394.791 487.6H371.791V536H353.791V410.8ZM395.391 467.2V431.2C395.391 428.8 394.991 427.267 394.191 426.6C393.391 425.8 391.791 425.4 389.391 425.4H371.791V473.2H389.391C391.791 473.2 393.391 472.8 394.191 472C394.991 471.2 395.391 469.6 395.391 467.2ZM429.377 410.8H470.377C482.777 410.8 488.977 416.667 488.977 428.4V470C488.977 481.733 482.777 487.6 470.377 487.6H447.377V536H429.377V410.8ZM470.977 467.2V431.2C470.977 428.8 470.577 427.267 469.777 426.6C468.977 425.8 467.377 425.4 464.977 425.4H447.377V473.2H464.977C467.377 473.2 468.977 472.8 469.777 472C470.577 471.2 470.977 469.6 470.977 467.2Z" fill="white"/>
</svg>
