<svg width="1200" height="675" viewBox="0 0 1200 675" fill="none" xmlns="http://www.w3.org/2000/svg">
<g id="Twitter post - 1">
<rect width="1200" height="675" fill="#444444"/>
<rect id="Rectangle 1" y="536" width="1200" height="139" fill="white"/>
<path id="BINARY SEARCH" d="M482.52 600.4C482.52 601.173 482.4 601.867 482.16 602.48C481.947 603.093 481.64 603.64 481.24 604.12C480.84 604.6 480.373 605.027 479.84 605.4C479.307 605.773 478.72 606.12 478.08 606.44C478.373 606.547 478.72 606.72 479.12 606.96C479.52 607.173 479.907 607.48 480.28 607.88C480.653 608.28 480.96 608.8 481.2 609.44C481.467 610.053 481.6 610.813 481.6 611.72C481.6 612.92 481.347 614.027 480.84 615.04C480.333 616.053 479.573 616.933 478.56 617.68C477.573 618.4 476.347 618.973 474.88 619.4C473.44 619.8 471.773 620 469.88 620H458L463.4 594.6H473.92C474.96 594.6 475.987 594.68 477 594.84C478.04 594.973 478.96 595.253 479.76 595.68C480.587 596.107 481.253 596.707 481.76 597.48C482.267 598.227 482.52 599.2 482.52 600.4ZM471.64 605.24C472.227 605.24 472.72 605.067 473.12 604.72C473.547 604.373 473.893 603.947 474.16 603.44C474.427 602.907 474.627 602.347 474.76 601.76C474.893 601.147 474.96 600.6 474.96 600.12C474.96 599.347 474.773 598.693 474.4 598.16C474.053 597.6 473.493 597.32 472.72 597.32H471.52L469.8 605.24H471.64ZM468.76 617.48C469.56 617.48 470.227 617.253 470.76 616.8C471.293 616.347 471.733 615.787 472.08 615.12C472.427 614.453 472.667 613.76 472.8 613.04C472.96 612.293 473.04 611.64 473.04 611.08C473.04 610.147 472.84 609.413 472.44 608.88C472.067 608.32 471.453 608.04 470.6 608.04H469.12L467.16 617.48H468.76ZM491.523 620H482.883L488.283 594.6H496.963L491.523 620ZM517.25 620H507.89L503.45 601.64L499.53 620H495.93L501.33 594.6H510.89L515.09 613.2L519.05 594.6H522.73L517.25 620ZM543.832 620H534.472L533.912 613.64H526.512L523.672 620H519.792L531.592 594.6H541.072L543.832 620ZM527.832 610.72H533.632L532.712 599.84L527.832 610.72ZM570.654 600.64C570.654 602.213 570.214 603.667 569.334 605C568.454 606.333 567.001 607.347 564.974 608.04L569.614 620H560.694L557.174 608.92H556.734L554.374 620H545.734L551.134 594.6H561.654C562.881 594.6 564.041 594.68 565.134 594.84C566.228 594.973 567.174 595.267 567.974 595.72C568.801 596.147 569.454 596.76 569.934 597.56C570.414 598.333 570.654 599.36 570.654 600.64ZM559.134 606.36C559.828 606.36 560.414 606.133 560.894 605.68C561.401 605.2 561.801 604.627 562.094 603.96C562.414 603.293 562.641 602.587 562.774 601.84C562.908 601.067 562.974 600.4 562.974 599.84C562.974 599.147 562.854 598.56 562.614 598.08C562.374 597.573 561.854 597.32 561.054 597.32H559.254L557.254 606.36H559.134ZM585.044 610.4L583.004 620H574.324L576.524 609.72L572.604 594.6H582.204L584.924 604.64L590.924 594.6H595.244L585.044 610.4ZM614.619 601.96C614.699 601.56 614.739 601.013 614.739 600.32C614.739 599.92 614.713 599.533 614.659 599.16C614.606 598.76 614.513 598.413 614.379 598.12C614.246 597.8 614.046 597.56 613.779 597.4C613.513 597.213 613.166 597.12 612.739 597.12C612.259 597.12 611.819 597.227 611.419 597.44C611.019 597.653 610.659 597.933 610.339 598.28C610.046 598.6 609.806 598.987 609.619 599.44C609.459 599.867 609.379 600.32 609.379 600.8C609.379 601.493 609.553 602.027 609.899 602.4C610.273 602.773 610.753 603.08 611.339 603.32C611.926 603.56 612.593 603.76 613.339 603.92C614.086 604.08 614.859 604.267 615.659 604.48C616.326 604.667 616.993 604.907 617.659 605.2C618.326 605.493 618.913 605.893 619.419 606.4C619.953 606.88 620.379 607.52 620.699 608.32C621.019 609.093 621.179 610.067 621.179 611.24C621.179 612.92 620.846 614.333 620.179 615.48C619.513 616.627 618.593 617.56 617.419 618.28C616.246 619 614.846 619.52 613.219 619.84C611.619 620.16 609.873 620.32 607.979 620.32C606.059 620.32 604.486 620.2 603.259 619.96C602.059 619.693 601.113 619.413 600.419 619.12C599.593 618.773 598.979 618.373 598.579 617.92L599.939 612.44H606.979C606.953 612.68 606.926 613.013 606.899 613.44C606.873 613.84 606.859 614.16 606.859 614.4C606.859 614.72 606.899 615.053 606.979 615.4C607.059 615.747 607.179 616.067 607.339 616.36C607.526 616.653 607.779 616.893 608.099 617.08C608.419 617.267 608.819 617.36 609.299 617.36C609.833 617.36 610.299 617.24 610.699 617C611.126 616.76 611.473 616.467 611.739 616.12C612.033 615.747 612.246 615.347 612.379 614.92C612.539 614.467 612.619 614.027 612.619 613.6C612.619 613.013 612.473 612.52 612.179 612.12C611.913 611.72 611.539 611.387 611.059 611.12C610.579 610.827 610.019 610.587 609.379 610.4C608.766 610.187 608.126 609.973 607.459 609.76C606.819 609.573 606.139 609.347 605.419 609.08C604.726 608.813 604.086 608.44 603.499 607.96C602.913 607.48 602.419 606.88 602.019 606.16C601.646 605.413 601.459 604.467 601.459 603.32C601.459 601.613 601.886 600.187 602.739 599.04C603.619 597.867 604.713 596.92 606.019 596.2C607.353 595.48 608.806 594.973 610.379 594.68C611.953 594.36 613.446 594.2 614.859 594.2C616.726 594.2 618.326 594.427 619.659 594.88C621.019 595.307 622.046 595.813 622.739 596.4L621.259 601.96H614.619ZM627.736 594.6H644.576L643.936 597.64H635.776L634.096 605.36H640.936L640.296 608.36H633.456L631.616 616.92H639.776L639.176 620H622.336L627.736 594.6ZM664.613 620H655.253L654.693 613.64H647.293L644.453 620H640.573L652.373 594.6H661.853L664.613 620ZM648.613 610.72H654.413L653.493 599.84L648.613 610.72ZM691.436 600.64C691.436 602.213 690.996 603.667 690.116 605C689.236 606.333 687.782 607.347 685.756 608.04L690.396 620H681.476L677.956 608.92H677.516L675.156 620H666.516L671.916 594.6H682.436C683.662 594.6 684.822 594.68 685.916 594.84C687.009 594.973 687.956 595.267 688.756 595.72C689.582 596.147 690.236 596.76 690.716 597.56C691.196 598.333 691.436 599.36 691.436 600.64ZM679.916 606.36C680.609 606.36 681.196 606.133 681.676 605.68C682.182 605.2 682.582 604.627 682.876 603.96C683.196 603.293 683.422 602.587 683.556 601.84C683.689 601.067 683.756 600.4 683.756 599.84C683.756 599.147 683.636 598.56 683.396 598.08C683.156 597.573 682.636 597.32 681.836 597.32H680.036L678.036 606.36H679.916ZM713.958 617.84C713.292 618.16 712.598 618.48 711.878 618.8C711.185 619.093 710.438 619.36 709.638 619.6C708.838 619.813 707.958 619.987 706.998 620.12C706.065 620.253 705.038 620.32 703.918 620.32C700.345 620.32 697.585 619.52 695.638 617.92C693.718 616.32 692.758 613.653 692.758 609.92C692.758 607.76 693.092 605.733 693.758 603.84C694.425 601.92 695.412 600.253 696.718 598.84C698.025 597.4 699.638 596.267 701.558 595.44C703.478 594.613 705.678 594.2 708.158 594.2C709.332 594.2 710.398 594.28 711.358 594.44C712.345 594.6 713.225 594.813 713.998 595.08C714.798 595.32 715.505 595.587 716.118 595.88C716.758 596.173 717.332 596.453 717.838 596.72L716.398 604.16H709.198C709.225 603.893 709.252 603.547 709.278 603.12C709.332 602.693 709.372 602.267 709.398 601.84C709.425 601.387 709.452 600.947 709.478 600.52C709.505 600.093 709.518 599.733 709.518 599.44C709.518 599.227 709.505 598.987 709.478 598.72C709.452 598.427 709.385 598.147 709.278 597.88C709.172 597.613 708.998 597.4 708.758 597.24C708.545 597.053 708.252 596.96 707.878 596.96C707.185 596.96 706.545 597.253 705.958 597.84C705.398 598.4 704.892 599.16 704.438 600.12C703.985 601.053 703.585 602.12 703.238 603.32C702.892 604.52 702.598 605.747 702.358 607C702.145 608.227 701.972 609.44 701.838 610.64C701.732 611.84 701.678 612.893 701.678 613.8C701.678 614.067 701.692 614.4 701.718 614.8C701.745 615.2 701.825 615.587 701.958 615.96C702.092 616.333 702.292 616.653 702.558 616.92C702.852 617.187 703.238 617.32 703.718 617.32C704.545 617.32 705.345 616.813 706.118 615.8C706.892 614.76 707.572 612.92 708.158 610.28H715.558L713.958 617.84ZM739.145 620H730.505L732.905 608.68H727.985L725.585 620H716.945L722.345 594.6H731.025L728.665 605.64H733.545L735.905 594.6H744.625L739.145 620Z" fill="black"/>
<g id="array">
<g id="block 1">
<rect id="block" x="200" y="117" width="75" height="75" fill="white"/>
<path id="1" d="M231.88 146.72C233.533 146.48 235.027 145.987 236.36 145.24C237.72 144.493 238.8 143.613 239.6 142.6H245.72L240.28 168H231.64L235.6 149.4H231.28L231.88 146.72Z" fill="black"/>
</g>
<g id="block 2">
<rect id="block_2" x="321" y="117" width="75" height="75" fill="white"/>
<path id="2" d="M350.76 164.08C352.6 163.493 354.387 162.76 356.12 161.88C357.853 160.973 359.4 159.893 360.76 158.64C362.12 157.36 363.2 155.88 364 154.2C364.827 152.52 365.24 150.587 365.24 148.4C365.24 147.333 365.133 146.507 364.92 145.92C364.707 145.333 364.333 145.04 363.8 145.04C363.32 145.04 362.867 145.267 362.44 145.72C362.04 146.173 361.667 146.747 361.32 147.44C361 148.133 360.693 148.907 360.4 149.76C360.133 150.613 359.907 151.44 359.72 152.24H352.48L353.8 146.24C355.293 144.96 356.867 143.973 358.52 143.28C360.173 142.56 362.04 142.2 364.12 142.2C365.4 142.2 366.6 142.347 367.72 142.64C368.867 142.933 369.853 143.4 370.68 144.04C371.533 144.653 372.2 145.44 372.68 146.4C373.187 147.333 373.44 148.453 373.44 149.76C373.44 150.747 373.267 151.72 372.92 152.68C372.6 153.64 372.013 154.64 371.16 155.68C370.333 156.693 369.2 157.76 367.76 158.88C366.347 159.973 364.547 161.16 362.36 162.44H371.28L370.48 168H349.88L350.76 164.08Z" fill="black"/>
</g>
<g id="block 3">
<rect id="block_3" x="442" y="117" width="75" height="75" fill="white"/>
<path id="3" d="M480.36 168.32C478.467 168.32 476.8 168.08 475.36 167.6C473.92 167.093 472.533 166.213 471.2 164.96L472.48 158.96H479.24C479.24 158.933 479.213 159.027 479.16 159.24C479.133 159.453 479.093 159.733 479.04 160.08C479.013 160.427 478.973 160.813 478.92 161.24C478.893 161.667 478.88 162.08 478.88 162.48C478.88 163.573 479.013 164.36 479.28 164.84C479.573 165.293 479.973 165.52 480.48 165.52C481.04 165.52 481.56 165.333 482.04 164.96C482.547 164.587 482.973 164.12 483.32 163.56C483.667 163 483.933 162.387 484.12 161.72C484.333 161.027 484.44 160.36 484.44 159.72C484.44 158.493 484.12 157.587 483.48 157C482.867 156.387 482.107 156.08 481.2 156.08C481.28 155.573 481.373 155.12 481.48 154.72C481.56 154.373 481.627 154.067 481.68 153.8C481.76 153.507 481.8 153.347 481.8 153.32C482.68 153.32 483.413 153.187 484 152.92C484.613 152.627 485.107 152.24 485.48 151.76C485.88 151.253 486.16 150.667 486.32 150C486.48 149.307 486.56 148.573 486.56 147.8C486.56 147.48 486.533 147.16 486.48 146.84C486.453 146.493 486.387 146.187 486.28 145.92C486.173 145.627 486.013 145.4 485.8 145.24C485.613 145.053 485.347 144.96 485 144.96C484.28 144.96 483.573 145.387 482.88 146.24C482.213 147.093 481.613 148.547 481.08 150.6H474.2L475.4 144.96C476.2 144.453 477.12 144 478.16 143.6C479.04 143.253 480.093 142.933 481.32 142.64C482.573 142.347 484 142.2 485.6 142.2C486.64 142.2 487.68 142.293 488.72 142.48C489.76 142.64 490.693 142.947 491.52 143.4C492.373 143.853 493.053 144.467 493.56 145.24C494.093 146.013 494.36 147 494.36 148.2C494.36 149.107 494.2 149.907 493.88 150.6C493.587 151.267 493.147 151.867 492.56 152.4C491.973 152.933 491.267 153.413 490.44 153.84C489.64 154.267 488.72 154.667 487.68 155.04C488.48 155.12 489.227 155.28 489.92 155.52C490.613 155.76 491.213 156.093 491.72 156.52C492.253 156.947 492.667 157.467 492.96 158.08C493.28 158.693 493.44 159.427 493.44 160.28C493.44 161.427 493.133 162.493 492.52 163.48C491.907 164.467 491.027 165.32 489.88 166.04C488.76 166.76 487.387 167.32 485.76 167.72C484.16 168.12 482.36 168.32 480.36 168.32Z" fill="black"/>
</g>
<g id="block 4">
<rect id="block_4" x="563" y="117" width="75" height="75" fill="white"/>
<path id="4" d="M609.72 168H601.08L602.4 161.6H591.96L592.96 156.92L604.88 142.6H615.2L611.8 158.24H615.44L614.72 161.6H611.08L609.72 168ZM603.12 158.24L605.52 147.12L596.64 158.24H603.12Z" fill="black"/>
</g>
<g id="block 5">
<rect id="block_5" x="684" y="117" width="75" height="75" fill="white"/>
<path id="5" d="M734.64 148.12H723.08L722.4 151.56C723.013 151.267 723.68 151.027 724.4 150.84C725.147 150.627 726.027 150.52 727.04 150.52C728.64 150.52 729.973 150.747 731.04 151.2C732.107 151.653 732.96 152.253 733.6 153C734.267 153.747 734.733 154.587 735 155.52C735.293 156.427 735.44 157.333 735.44 158.24C735.44 159.68 735.133 161.013 734.52 162.24C733.933 163.467 733.08 164.533 731.96 165.44C730.867 166.347 729.52 167.053 727.92 167.56C726.32 168.067 724.52 168.32 722.52 168.32C721.747 168.32 721 168.267 720.28 168.16C719.56 168.08 718.853 167.92 718.16 167.68C717.493 167.413 716.813 167.067 716.12 166.64C715.453 166.213 714.76 165.653 714.04 164.96L715.2 159.4H721.52C721.467 159.8 721.427 160.147 721.4 160.44C721.373 160.733 721.36 161.2 721.36 161.84C721.36 163.173 721.533 164.12 721.88 164.68C722.227 165.24 722.72 165.52 723.36 165.52C724.027 165.52 724.6 165.267 725.08 164.76C725.56 164.253 725.947 163.627 726.24 162.88C726.533 162.107 726.747 161.28 726.88 160.4C727.013 159.52 727.08 158.693 727.08 157.92C727.08 157.387 727.04 156.88 726.96 156.4C726.88 155.893 726.747 155.453 726.56 155.08C726.373 154.707 726.12 154.413 725.8 154.2C725.48 153.96 725.08 153.84 724.6 153.84C724.12 153.84 723.613 153.987 723.08 154.28C722.547 154.573 722.027 155.147 721.52 156H716.6L719.48 142.6H735.8L734.64 148.12Z" fill="black"/>
</g>
<g id="block 6">
<rect id="block_6" x="805" y="117" width="75" height="75" fill="white"/>
<path id="6" d="M850.6 142.2C851.107 142.2 851.68 142.227 852.32 142.28C852.987 142.333 853.653 142.427 854.32 142.56C855.013 142.667 855.68 142.827 856.32 143.04C856.987 143.227 857.573 143.48 858.08 143.8L856.8 149.4H850.6C850.627 149.107 850.653 148.827 850.68 148.56C850.707 148.293 850.72 148.013 850.72 147.72C850.72 147.027 850.64 146.4 850.48 145.84C850.32 145.253 850.013 144.96 849.56 144.96C849.24 144.96 848.867 145.133 848.44 145.48C848.013 145.827 847.573 146.373 847.12 147.12C846.667 147.867 846.24 148.827 845.84 150C845.44 151.173 845.107 152.573 844.84 154.2H845.24C846.013 153.347 846.96 152.693 848.08 152.24C849.227 151.787 850.4 151.56 851.6 151.56C853.653 151.56 855.12 152.187 856 153.44C856.88 154.667 857.32 156.347 857.32 158.48C857.32 160.107 857.067 161.52 856.56 162.72C856.053 163.893 855.24 164.92 854.12 165.8C853.16 166.547 851.947 167.16 850.48 167.64C849.04 168.093 847.333 168.32 845.36 168.32C843.947 168.32 842.64 168.173 841.44 167.88C840.267 167.56 839.24 167.027 838.36 166.28C837.507 165.507 836.84 164.48 836.36 163.2C835.88 161.893 835.64 160.253 835.64 158.28C835.64 156.173 835.933 154.147 836.52 152.2C837.133 150.253 838.053 148.547 839.28 147.08C840.507 145.587 842.053 144.4 843.92 143.52C845.813 142.64 848.04 142.2 850.6 142.2ZM845.16 165.6C845.8 165.6 846.36 165.307 846.84 164.72C847.32 164.133 847.707 163.413 848 162.56C848.293 161.707 848.507 160.8 848.64 159.84C848.8 158.853 848.88 157.973 848.88 157.2C848.88 156.56 848.8 156.067 848.64 155.72C848.507 155.373 848.173 155.2 847.64 155.2C846.92 155.2 846.307 155.507 845.8 156.12C845.293 156.707 844.867 157.427 844.52 158.28C844.2 159.107 843.96 159.973 843.8 160.88C843.667 161.787 843.6 162.547 843.6 163.16C843.6 163.907 843.72 164.507 843.96 164.96C844.2 165.387 844.6 165.6 845.16 165.6Z" fill="black"/>
</g>
<g id="block 7">
<rect id="block_7" x="926" y="117" width="75" height="75" fill="white"/>
<path id="7" d="M978.12 146.48C976.307 147.333 974.733 148.52 973.4 150.04C972.067 151.533 970.973 153.24 970.12 155.16C969.267 157.08 968.627 159.147 968.2 161.36C967.8 163.547 967.6 165.76 967.6 168H958.96C958.96 167.333 959.04 166.507 959.2 165.52C959.36 164.507 959.613 163.4 959.96 162.2C960.307 161 960.76 159.747 961.32 158.44C961.88 157.133 962.56 155.853 963.36 154.6C964.16 153.347 965.093 152.16 966.16 151.04C967.227 149.92 968.44 148.947 969.8 148.12H957.64L958.84 142.6H979L978.12 146.48Z" fill="black"/>
</g>
<g id="block 9">
<rect id="block_8" x="200" y="210" width="75" height="75" fill="#FF0000"/>
<path id="1_2" d="M231.88 239.72C233.533 239.48 235.027 238.987 236.36 238.24C237.72 237.493 238.8 236.613 239.6 235.6H245.72L240.28 261H231.64L235.6 242.4H231.28L231.88 239.72Z" fill="white"/>
</g>
<g id="block 10">
<rect id="block_9" x="321" y="210" width="75" height="75" fill="#FF0000"/>
<path id="2_2" d="M350.76 257.08C352.6 256.493 354.387 255.76 356.12 254.88C357.853 253.973 359.4 252.893 360.76 251.64C362.12 250.36 363.2 248.88 364 247.2C364.827 245.52 365.24 243.587 365.24 241.4C365.24 240.333 365.133 239.507 364.92 238.92C364.707 238.333 364.333 238.04 363.8 238.04C363.32 238.04 362.867 238.267 362.44 238.72C362.04 239.173 361.667 239.747 361.32 240.44C361 241.133 360.693 241.907 360.4 242.76C360.133 243.613 359.907 244.44 359.72 245.24H352.48L353.8 239.24C355.293 237.96 356.867 236.973 358.52 236.28C360.173 235.56 362.04 235.2 364.12 235.2C365.4 235.2 366.6 235.347 367.72 235.64C368.867 235.933 369.853 236.4 370.68 237.04C371.533 237.653 372.2 238.44 372.68 239.4C373.187 240.333 373.44 241.453 373.44 242.76C373.44 243.747 373.267 244.72 372.92 245.68C372.6 246.64 372.013 247.64 371.16 248.68C370.333 249.693 369.2 250.76 367.76 251.88C366.347 252.973 364.547 254.16 362.36 255.44H371.28L370.48 261H349.88L350.76 257.08Z" fill="white"/>
</g>
<g id="block 11">
<rect id="block_10" x="442" y="210" width="75" height="75" fill="#FF0000"/>
<path id="3_2" d="M480.36 261.32C478.467 261.32 476.8 261.08 475.36 260.6C473.92 260.093 472.533 259.213 471.2 257.96L472.48 251.96H479.24C479.24 251.933 479.213 252.027 479.16 252.24C479.133 252.453 479.093 252.733 479.04 253.08C479.013 253.427 478.973 253.813 478.92 254.24C478.893 254.667 478.88 255.08 478.88 255.48C478.88 256.573 479.013 257.36 479.28 257.84C479.573 258.293 479.973 258.52 480.48 258.52C481.04 258.52 481.56 258.333 482.04 257.96C482.547 257.587 482.973 257.12 483.32 256.56C483.667 256 483.933 255.387 484.12 254.72C484.333 254.027 484.44 253.36 484.44 252.72C484.44 251.493 484.12 250.587 483.48 250C482.867 249.387 482.107 249.08 481.2 249.08C481.28 248.573 481.373 248.12 481.48 247.72C481.56 247.373 481.627 247.067 481.68 246.8C481.76 246.507 481.8 246.347 481.8 246.32C482.68 246.32 483.413 246.187 484 245.92C484.613 245.627 485.107 245.24 485.48 244.76C485.88 244.253 486.16 243.667 486.32 243C486.48 242.307 486.56 241.573 486.56 240.8C486.56 240.48 486.533 240.16 486.48 239.84C486.453 239.493 486.387 239.187 486.28 238.92C486.173 238.627 486.013 238.4 485.8 238.24C485.613 238.053 485.347 237.96 485 237.96C484.28 237.96 483.573 238.387 482.88 239.24C482.213 240.093 481.613 241.547 481.08 243.6H474.2L475.4 237.96C476.2 237.453 477.12 237 478.16 236.6C479.04 236.253 480.093 235.933 481.32 235.64C482.573 235.347 484 235.2 485.6 235.2C486.64 235.2 487.68 235.293 488.72 235.48C489.76 235.64 490.693 235.947 491.52 236.4C492.373 236.853 493.053 237.467 493.56 238.24C494.093 239.013 494.36 240 494.36 241.2C494.36 242.107 494.2 242.907 493.88 243.6C493.587 244.267 493.147 244.867 492.56 245.4C491.973 245.933 491.267 246.413 490.44 246.84C489.64 247.267 488.72 247.667 487.68 248.04C488.48 248.12 489.227 248.28 489.92 248.52C490.613 248.76 491.213 249.093 491.72 249.52C492.253 249.947 492.667 250.467 492.96 251.08C493.28 251.693 493.44 252.427 493.44 253.28C493.44 254.427 493.133 255.493 492.52 256.48C491.907 257.467 491.027 258.32 489.88 259.04C488.76 259.76 487.387 260.32 485.76 260.72C484.16 261.12 482.36 261.32 480.36 261.32Z" fill="white"/>
</g>
<g id="block 12">
<rect id="block_11" x="563" y="210" width="75" height="75" fill="#FF0000"/>
<path id="4_2" d="M609.72 261H601.08L602.4 254.6H591.96L592.96 249.92L604.88 235.6H615.2L611.8 251.24H615.44L614.72 254.6H611.08L609.72 261ZM603.12 251.24L605.52 240.12L596.64 251.24H603.12Z" fill="white"/>
</g>
<g id="block 13">
<rect id="block_12" x="684" y="210" width="75" height="75" fill="white"/>
<path id="5_2" d="M734.64 241.12H723.08L722.4 244.56C723.013 244.267 723.68 244.027 724.4 243.84C725.147 243.627 726.027 243.52 727.04 243.52C728.64 243.52 729.973 243.747 731.04 244.2C732.107 244.653 732.96 245.253 733.6 246C734.267 246.747 734.733 247.587 735 248.52C735.293 249.427 735.44 250.333 735.44 251.24C735.44 252.68 735.133 254.013 734.52 255.24C733.933 256.467 733.08 257.533 731.96 258.44C730.867 259.347 729.52 260.053 727.92 260.56C726.32 261.067 724.52 261.32 722.52 261.32C721.747 261.32 721 261.267 720.28 261.16C719.56 261.08 718.853 260.92 718.16 260.68C717.493 260.413 716.813 260.067 716.12 259.64C715.453 259.213 714.76 258.653 714.04 257.96L715.2 252.4H721.52C721.467 252.8 721.427 253.147 721.4 253.44C721.373 253.733 721.36 254.2 721.36 254.84C721.36 256.173 721.533 257.12 721.88 257.68C722.227 258.24 722.72 258.52 723.36 258.52C724.027 258.52 724.6 258.267 725.08 257.76C725.56 257.253 725.947 256.627 726.24 255.88C726.533 255.107 726.747 254.28 726.88 253.4C727.013 252.52 727.08 251.693 727.08 250.92C727.08 250.387 727.04 249.88 726.96 249.4C726.88 248.893 726.747 248.453 726.56 248.08C726.373 247.707 726.12 247.413 725.8 247.2C725.48 246.96 725.08 246.84 724.6 246.84C724.12 246.84 723.613 246.987 723.08 247.28C722.547 247.573 722.027 248.147 721.52 249H716.6L719.48 235.6H735.8L734.64 241.12Z" fill="black"/>
</g>
<g id="block 14">
<rect id="block_13" x="805" y="210" width="75" height="75" fill="white"/>
<path id="6_2" d="M850.6 235.2C851.107 235.2 851.68 235.227 852.32 235.28C852.987 235.333 853.653 235.427 854.32 235.56C855.013 235.667 855.68 235.827 856.32 236.04C856.987 236.227 857.573 236.48 858.08 236.8L856.8 242.4H850.6C850.627 242.107 850.653 241.827 850.68 241.56C850.707 241.293 850.72 241.013 850.72 240.72C850.72 240.027 850.64 239.4 850.48 238.84C850.32 238.253 850.013 237.96 849.56 237.96C849.24 237.96 848.867 238.133 848.44 238.48C848.013 238.827 847.573 239.373 847.12 240.12C846.667 240.867 846.24 241.827 845.84 243C845.44 244.173 845.107 245.573 844.84 247.2H845.24C846.013 246.347 846.96 245.693 848.08 245.24C849.227 244.787 850.4 244.56 851.6 244.56C853.653 244.56 855.12 245.187 856 246.44C856.88 247.667 857.32 249.347 857.32 251.48C857.32 253.107 857.067 254.52 856.56 255.72C856.053 256.893 855.24 257.92 854.12 258.8C853.16 259.547 851.947 260.16 850.48 260.64C849.04 261.093 847.333 261.32 845.36 261.32C843.947 261.32 842.64 261.173 841.44 260.88C840.267 260.56 839.24 260.027 838.36 259.28C837.507 258.507 836.84 257.48 836.36 256.2C835.88 254.893 835.64 253.253 835.64 251.28C835.64 249.173 835.933 247.147 836.52 245.2C837.133 243.253 838.053 241.547 839.28 240.08C840.507 238.587 842.053 237.4 843.92 236.52C845.813 235.64 848.04 235.2 850.6 235.2ZM845.16 258.6C845.8 258.6 846.36 258.307 846.84 257.72C847.32 257.133 847.707 256.413 848 255.56C848.293 254.707 848.507 253.8 848.64 252.84C848.8 251.853 848.88 250.973 848.88 250.2C848.88 249.56 848.8 249.067 848.64 248.72C848.507 248.373 848.173 248.2 847.64 248.2C846.92 248.2 846.307 248.507 845.8 249.12C845.293 249.707 844.867 250.427 844.52 251.28C844.2 252.107 843.96 252.973 843.8 253.88C843.667 254.787 843.6 255.547 843.6 256.16C843.6 256.907 843.72 257.507 843.96 257.96C844.2 258.387 844.6 258.6 845.16 258.6Z" fill="black"/>
</g>
<g id="block 15">
<rect id="block_14" x="926" y="210" width="75" height="75" fill="white"/>
<path id="7_2" d="M978.12 239.48C976.307 240.333 974.733 241.52 973.4 243.04C972.067 244.533 970.973 246.24 970.12 248.16C969.267 250.08 968.627 252.147 968.2 254.36C967.8 256.547 967.6 258.76 967.6 261H958.96C958.96 260.333 959.04 259.507 959.2 258.52C959.36 257.507 959.613 256.4 959.96 255.2C960.307 254 960.76 252.747 961.32 251.44C961.88 250.133 962.56 248.853 963.36 247.6C964.16 246.347 965.093 245.16 966.16 244.04C967.227 242.92 968.44 241.947 969.8 241.12H957.64L958.84 235.6H979L978.12 239.48Z" fill="black"/>
</g>
<g id="block 16">
<rect id="block_15" x="200" y="303" width="75" height="75" fill="#FF0000"/>
<path id="1_3" d="M231.88 332.72C233.533 332.48 235.027 331.987 236.36 331.24C237.72 330.493 238.8 329.613 239.6 328.6H245.72L240.28 354H231.64L235.6 335.4H231.28L231.88 332.72Z" fill="white"/>
</g>
<g id="block 17">
<rect id="block_16" x="321" y="303" width="75" height="75" fill="#FF0000"/>
<path id="2_3" d="M350.76 350.08C352.6 349.493 354.387 348.76 356.12 347.88C357.853 346.973 359.4 345.893 360.76 344.64C362.12 343.36 363.2 341.88 364 340.2C364.827 338.52 365.24 336.587 365.24 334.4C365.24 333.333 365.133 332.507 364.92 331.92C364.707 331.333 364.333 331.04 363.8 331.04C363.32 331.04 362.867 331.267 362.44 331.72C362.04 332.173 361.667 332.747 361.32 333.44C361 334.133 360.693 334.907 360.4 335.76C360.133 336.613 359.907 337.44 359.72 338.24H352.48L353.8 332.24C355.293 330.96 356.867 329.973 358.52 329.28C360.173 328.56 362.04 328.2 364.12 328.2C365.4 328.2 366.6 328.347 367.72 328.64C368.867 328.933 369.853 329.4 370.68 330.04C371.533 330.653 372.2 331.44 372.68 332.4C373.187 333.333 373.44 334.453 373.44 335.76C373.44 336.747 373.267 337.72 372.92 338.68C372.6 339.64 372.013 340.64 371.16 341.68C370.333 342.693 369.2 343.76 367.76 344.88C366.347 345.973 364.547 347.16 362.36 348.44H371.28L370.48 354H349.88L350.76 350.08Z" fill="white"/>
</g>
<g id="block 18">
<rect id="block_17" x="442" y="303" width="75" height="75" fill="#FF0000"/>
<path id="3_3" d="M480.36 354.32C478.467 354.32 476.8 354.08 475.36 353.6C473.92 353.093 472.533 352.213 471.2 350.96L472.48 344.96H479.24C479.24 344.933 479.213 345.027 479.16 345.24C479.133 345.453 479.093 345.733 479.04 346.08C479.013 346.427 478.973 346.813 478.92 347.24C478.893 347.667 478.88 348.08 478.88 348.48C478.88 349.573 479.013 350.36 479.28 350.84C479.573 351.293 479.973 351.52 480.48 351.52C481.04 351.52 481.56 351.333 482.04 350.96C482.547 350.587 482.973 350.12 483.32 349.56C483.667 349 483.933 348.387 484.12 347.72C484.333 347.027 484.44 346.36 484.44 345.72C484.44 344.493 484.12 343.587 483.48 343C482.867 342.387 482.107 342.08 481.2 342.08C481.28 341.573 481.373 341.12 481.48 340.72C481.56 340.373 481.627 340.067 481.68 339.8C481.76 339.507 481.8 339.347 481.8 339.32C482.68 339.32 483.413 339.187 484 338.92C484.613 338.627 485.107 338.24 485.48 337.76C485.88 337.253 486.16 336.667 486.32 336C486.48 335.307 486.56 334.573 486.56 333.8C486.56 333.48 486.533 333.16 486.48 332.84C486.453 332.493 486.387 332.187 486.28 331.92C486.173 331.627 486.013 331.4 485.8 331.24C485.613 331.053 485.347 330.96 485 330.96C484.28 330.96 483.573 331.387 482.88 332.24C482.213 333.093 481.613 334.547 481.08 336.6H474.2L475.4 330.96C476.2 330.453 477.12 330 478.16 329.6C479.04 329.253 480.093 328.933 481.32 328.64C482.573 328.347 484 328.2 485.6 328.2C486.64 328.2 487.68 328.293 488.72 328.48C489.76 328.64 490.693 328.947 491.52 329.4C492.373 329.853 493.053 330.467 493.56 331.24C494.093 332.013 494.36 333 494.36 334.2C494.36 335.107 494.2 335.907 493.88 336.6C493.587 337.267 493.147 337.867 492.56 338.4C491.973 338.933 491.267 339.413 490.44 339.84C489.64 340.267 488.72 340.667 487.68 341.04C488.48 341.12 489.227 341.28 489.92 341.52C490.613 341.76 491.213 342.093 491.72 342.52C492.253 342.947 492.667 343.467 492.96 344.08C493.28 344.693 493.44 345.427 493.44 346.28C493.44 347.427 493.133 348.493 492.52 349.48C491.907 350.467 491.027 351.32 489.88 352.04C488.76 352.76 487.387 353.32 485.76 353.72C484.16 354.12 482.36 354.32 480.36 354.32Z" fill="white"/>
</g>
<g id="block 19">
<rect id="block_18" x="563" y="303" width="75" height="75" fill="#FF0000"/>
<path id="4_3" d="M609.72 354H601.08L602.4 347.6H591.96L592.96 342.92L604.88 328.6H615.2L611.8 344.24H615.44L614.72 347.6H611.08L609.72 354ZM603.12 344.24L605.52 333.12L596.64 344.24H603.12Z" fill="white"/>
</g>
<g id="block 20">
<rect id="block_19" x="684" y="303" width="75" height="75" fill="white"/>
<path id="5_3" d="M734.64 334.12H723.08L722.4 337.56C723.013 337.267 723.68 337.027 724.4 336.84C725.147 336.627 726.027 336.52 727.04 336.52C728.64 336.52 729.973 336.747 731.04 337.2C732.107 337.653 732.96 338.253 733.6 339C734.267 339.747 734.733 340.587 735 341.52C735.293 342.427 735.44 343.333 735.44 344.24C735.44 345.68 735.133 347.013 734.52 348.24C733.933 349.467 733.08 350.533 731.96 351.44C730.867 352.347 729.52 353.053 727.92 353.56C726.32 354.067 724.52 354.32 722.52 354.32C721.747 354.32 721 354.267 720.28 354.16C719.56 354.08 718.853 353.92 718.16 353.68C717.493 353.413 716.813 353.067 716.12 352.64C715.453 352.213 714.76 351.653 714.04 350.96L715.2 345.4H721.52C721.467 345.8 721.427 346.147 721.4 346.44C721.373 346.733 721.36 347.2 721.36 347.84C721.36 349.173 721.533 350.12 721.88 350.68C722.227 351.24 722.72 351.52 723.36 351.52C724.027 351.52 724.6 351.267 725.08 350.76C725.56 350.253 725.947 349.627 726.24 348.88C726.533 348.107 726.747 347.28 726.88 346.4C727.013 345.52 727.08 344.693 727.08 343.92C727.08 343.387 727.04 342.88 726.96 342.4C726.88 341.893 726.747 341.453 726.56 341.08C726.373 340.707 726.12 340.413 725.8 340.2C725.48 339.96 725.08 339.84 724.6 339.84C724.12 339.84 723.613 339.987 723.08 340.28C722.547 340.573 722.027 341.147 721.52 342H716.6L719.48 328.6H735.8L734.64 334.12Z" fill="black"/>
</g>
<g id="block 23">
<rect id="block_20" x="684" y="396" width="75" height="75" fill="#00FF00"/>
<path id="5_4" d="M734.64 427.12H723.08L722.4 430.56C723.013 430.267 723.68 430.027 724.4 429.84C725.147 429.627 726.027 429.52 727.04 429.52C728.64 429.52 729.973 429.747 731.04 430.2C732.107 430.653 732.96 431.253 733.6 432C734.267 432.747 734.733 433.587 735 434.52C735.293 435.427 735.44 436.333 735.44 437.24C735.44 438.68 735.133 440.013 734.52 441.24C733.933 442.467 733.08 443.533 731.96 444.44C730.867 445.347 729.52 446.053 727.92 446.56C726.32 447.067 724.52 447.32 722.52 447.32C721.747 447.32 721 447.267 720.28 447.16C719.56 447.08 718.853 446.92 718.16 446.68C717.493 446.413 716.813 446.067 716.12 445.64C715.453 445.213 714.76 444.653 714.04 443.96L715.2 438.4H721.52C721.467 438.8 721.427 439.147 721.4 439.44C721.373 439.733 721.36 440.2 721.36 440.84C721.36 442.173 721.533 443.12 721.88 443.68C722.227 444.24 722.72 444.52 723.36 444.52C724.027 444.52 724.6 444.267 725.08 443.76C725.56 443.253 725.947 442.627 726.24 441.88C726.533 441.107 726.747 440.28 726.88 439.4C727.013 438.52 727.08 437.693 727.08 436.92C727.08 436.387 727.04 435.88 726.96 435.4C726.88 434.893 726.747 434.453 726.56 434.08C726.373 433.707 726.12 433.413 725.8 433.2C725.48 432.96 725.08 432.84 724.6 432.84C724.12 432.84 723.613 432.987 723.08 433.28C722.547 433.573 722.027 434.147 721.52 435H716.6L719.48 421.6H735.8L734.64 427.12Z" fill="black"/>
</g>
<g id="block 21">
<rect id="block_21" x="805" y="303" width="75" height="75" fill="#FF0000"/>
<path id="6_3" d="M850.6 328.2C851.107 328.2 851.68 328.227 852.32 328.28C852.987 328.333 853.653 328.427 854.32 328.56C855.013 328.667 855.68 328.827 856.32 329.04C856.987 329.227 857.573 329.48 858.08 329.8L856.8 335.4H850.6C850.627 335.107 850.653 334.827 850.68 334.56C850.707 334.293 850.72 334.013 850.72 333.72C850.72 333.027 850.64 332.4 850.48 331.84C850.32 331.253 850.013 330.96 849.56 330.96C849.24 330.96 848.867 331.133 848.44 331.48C848.013 331.827 847.573 332.373 847.12 333.12C846.667 333.867 846.24 334.827 845.84 336C845.44 337.173 845.107 338.573 844.84 340.2H845.24C846.013 339.347 846.96 338.693 848.08 338.24C849.227 337.787 850.4 337.56 851.6 337.56C853.653 337.56 855.12 338.187 856 339.44C856.88 340.667 857.32 342.347 857.32 344.48C857.32 346.107 857.067 347.52 856.56 348.72C856.053 349.893 855.24 350.92 854.12 351.8C853.16 352.547 851.947 353.16 850.48 353.64C849.04 354.093 847.333 354.32 845.36 354.32C843.947 354.32 842.64 354.173 841.44 353.88C840.267 353.56 839.24 353.027 838.36 352.28C837.507 351.507 836.84 350.48 836.36 349.2C835.88 347.893 835.64 346.253 835.64 344.28C835.64 342.173 835.933 340.147 836.52 338.2C837.133 336.253 838.053 334.547 839.28 333.08C840.507 331.587 842.053 330.4 843.92 329.52C845.813 328.64 848.04 328.2 850.6 328.2ZM845.16 351.6C845.8 351.6 846.36 351.307 846.84 350.72C847.32 350.133 847.707 349.413 848 348.56C848.293 347.707 848.507 346.8 848.64 345.84C848.8 344.853 848.88 343.973 848.88 343.2C848.88 342.56 848.8 342.067 848.64 341.72C848.507 341.373 848.173 341.2 847.64 341.2C846.92 341.2 846.307 341.507 845.8 342.12C845.293 342.707 844.867 343.427 844.52 344.28C844.2 345.107 843.96 345.973 843.8 346.88C843.667 347.787 843.6 348.547 843.6 349.16C843.6 349.907 843.72 350.507 843.96 350.96C844.2 351.387 844.6 351.6 845.16 351.6Z" fill="white"/>
</g>
<g id="block 22">
<rect id="block_22" x="926" y="303" width="75" height="75" fill="#FF0000"/>
<path id="7_3" d="M978.12 332.48C976.307 333.333 974.733 334.52 973.4 336.04C972.067 337.533 970.973 339.24 970.12 341.16C969.267 343.08 968.627 345.147 968.2 347.36C967.8 349.547 967.6 351.76 967.6 354H958.96C958.96 353.333 959.04 352.507 959.2 351.52C959.36 350.507 959.613 349.4 959.96 348.2C960.307 347 960.76 345.747 961.32 344.44C961.88 343.133 962.56 341.853 963.36 340.6C964.16 339.347 965.093 338.16 966.16 337.04C967.227 335.92 968.44 334.947 969.8 334.12H957.64L958.84 328.6H979L978.12 332.48Z" fill="white"/>
</g>
</g>
</g>
</svg>
