<svg width="1200" height="675" viewBox="0 0 1200 675" fill="none" xmlns="http://www.w3.org/2000/svg">
<rect width="1200" height="675" fill="url(#paint0_linear_7_2)"/>
<rect x="13" y="21" width="525" height="69" rx="10" fill="white"/>
<path d="M33.5284 70V40.9091H39.679V52.9119H52.1648V40.9091H58.3011V70H52.1648V57.983H39.679V70H33.5284ZM73.1165 70.4261C70.91 70.4261 69.0019 69.9574 67.392 69.0199C65.7917 68.0729 64.5559 66.7566 63.6847 65.071C62.8134 63.3759 62.3778 61.411 62.3778 59.1761C62.3778 56.9223 62.8134 54.9527 63.6847 53.267C64.5559 51.572 65.7917 50.2557 67.392 49.3182C69.0019 48.3712 70.91 47.8977 73.1165 47.8977C75.3229 47.8977 77.2263 48.3712 78.8267 49.3182C80.4366 50.2557 81.6771 51.572 82.5483 53.267C83.4195 54.9527 83.8551 56.9223 83.8551 59.1761C83.8551 61.411 83.4195 63.3759 82.5483 65.071C81.6771 66.7566 80.4366 68.0729 78.8267 69.0199C77.2263 69.9574 75.3229 70.4261 73.1165 70.4261ZM73.1449 65.7386C74.1487 65.7386 74.9867 65.4545 75.6591 64.8864C76.3314 64.3087 76.8381 63.5227 77.179 62.5284C77.5294 61.5341 77.7045 60.4025 77.7045 59.1335C77.7045 57.8646 77.5294 56.733 77.179 55.7386C76.8381 54.7443 76.3314 53.9583 75.6591 53.3807C74.9867 52.803 74.1487 52.5142 73.1449 52.5142C72.1316 52.5142 71.2794 52.803 70.5881 53.3807C69.9063 53.9583 69.3902 54.7443 69.0398 55.7386C68.6989 56.733 68.5284 57.8646 68.5284 59.1335C68.5284 60.4025 68.6989 61.5341 69.0398 62.5284C69.3902 63.5227 69.9063 64.3087 70.5881 64.8864C71.2794 65.4545 72.1316 65.7386 73.1449 65.7386ZM91.5469 70L85.6094 48.1818H91.7315L95.1122 62.8409H95.3111L98.8338 48.1818H104.842L108.422 62.7557H108.607L111.93 48.1818H118.038L112.115 70H105.709L101.959 56.2784H101.689L97.9389 70H91.5469ZM142.129 48.1818V52.7273H128.99V48.1818H142.129ZM131.973 42.9545H138.024V63.2955C138.024 63.8542 138.109 64.2898 138.28 64.6023C138.45 64.9053 138.687 65.1184 138.99 65.2415C139.303 65.3646 139.662 65.4261 140.07 65.4261C140.354 65.4261 140.638 65.4025 140.922 65.3551C141.206 65.2983 141.424 65.2557 141.575 65.2273L142.527 69.7301C142.224 69.8248 141.798 69.9337 141.249 70.0568C140.699 70.1894 140.032 70.2699 139.246 70.2983C137.787 70.3551 136.509 70.161 135.411 69.7159C134.321 69.2708 133.474 68.5795 132.868 67.642C132.262 66.7045 131.964 65.5208 131.973 64.0909V42.9545ZM155.695 70.4261C153.488 70.4261 151.58 69.9574 149.97 69.0199C148.37 68.0729 147.134 66.7566 146.263 65.071C145.392 63.3759 144.956 61.411 144.956 59.1761C144.956 56.9223 145.392 54.9527 146.263 53.267C147.134 51.572 148.37 50.2557 149.97 49.3182C151.58 48.3712 153.488 47.8977 155.695 47.8977C157.901 47.8977 159.804 48.3712 161.405 49.3182C163.015 50.2557 164.255 51.572 165.126 53.267C165.998 54.9527 166.433 56.9223 166.433 59.1761C166.433 61.411 165.998 63.3759 165.126 65.071C164.255 66.7566 163.015 68.0729 161.405 69.0199C159.804 69.9574 157.901 70.4261 155.695 70.4261ZM155.723 65.7386C156.727 65.7386 157.565 65.4545 158.237 64.8864C158.91 64.3087 159.416 63.5227 159.757 62.5284C160.107 61.5341 160.283 60.4025 160.283 59.1335C160.283 57.8646 160.107 56.733 159.757 55.7386C159.416 54.7443 158.91 53.9583 158.237 53.3807C157.565 52.803 156.727 52.5142 155.723 52.5142C154.71 52.5142 153.857 52.803 153.166 53.3807C152.484 53.9583 151.968 54.7443 151.618 55.7386C151.277 56.733 151.107 57.8646 151.107 59.1335C151.107 60.4025 151.277 61.5341 151.618 62.5284C151.968 63.5227 152.484 64.3087 153.166 64.8864C153.857 65.4545 154.71 65.7386 155.723 65.7386ZM186.288 70L177.964 40.9091H184.683L189.498 61.1222H189.739L195.052 40.9091H200.805L206.103 61.1648H206.359L211.174 40.9091H217.893L209.569 70H203.575L198.035 50.9801H197.808L192.282 70H186.288ZM219.704 70V48.1818H225.57V51.9886H225.798C226.195 50.6345 226.863 49.6117 227.8 48.9205C228.738 48.2197 229.817 47.8693 231.039 47.8693C231.342 47.8693 231.669 47.8883 232.019 47.9261C232.37 47.964 232.677 48.0161 232.942 48.0824V53.4517C232.658 53.3665 232.265 53.2907 231.763 53.2244C231.262 53.1581 230.802 53.125 230.386 53.125C229.496 53.125 228.7 53.3191 227.999 53.7074C227.308 54.0862 226.759 54.6165 226.352 55.2983C225.954 55.9801 225.755 56.7661 225.755 57.6562V70H219.704ZM236.071 70V48.1818H242.122V70H236.071ZM239.111 45.3693C238.211 45.3693 237.439 45.071 236.795 44.4744C236.161 43.8684 235.844 43.1439 235.844 42.3011C235.844 41.4678 236.161 40.7528 236.795 40.1562C237.439 39.5502 238.211 39.2472 239.111 39.2472C240.01 39.2472 240.777 39.5502 241.412 40.1562C242.056 40.7528 242.378 41.4678 242.378 42.3011C242.378 43.1439 242.056 43.8684 241.412 44.4744C240.777 45.071 240.01 45.3693 239.111 45.3693ZM258.575 48.1818V52.7273H245.435V48.1818H258.575ZM248.418 42.9545H254.469V63.2955C254.469 63.8542 254.555 64.2898 254.725 64.6023C254.896 64.9053 255.132 65.1184 255.435 65.2415C255.748 65.3646 256.108 65.4261 256.515 65.4261C256.799 65.4261 257.083 65.4025 257.367 65.3551C257.651 65.2983 257.869 65.2557 258.021 65.2273L258.972 69.7301C258.669 69.8248 258.243 69.9337 257.694 70.0568C257.145 70.1894 256.477 70.2699 255.691 70.2983C254.233 70.3551 252.954 70.161 251.856 69.7159C250.767 69.2708 249.919 68.5795 249.313 67.642C248.707 66.7045 248.409 65.5208 248.418 64.0909V42.9545ZM272.225 70.4261C269.981 70.4261 268.049 69.9716 266.43 69.0625C264.82 68.1439 263.579 66.8466 262.708 65.1705C261.837 63.4848 261.401 61.4915 261.401 59.1903C261.401 56.946 261.837 54.9763 262.708 53.2812C263.579 51.5862 264.806 50.2652 266.387 49.3182C267.978 48.3712 269.844 47.8977 271.984 47.8977C273.423 47.8977 274.763 48.1297 276.004 48.5938C277.254 49.0483 278.343 49.7348 279.271 50.6534C280.208 51.572 280.937 52.7273 281.458 54.1193C281.979 55.5019 282.239 57.1212 282.239 58.9773V60.6392H263.816V56.8892H276.543C276.543 56.018 276.354 55.2462 275.975 54.5739C275.596 53.9015 275.071 53.3759 274.398 52.9972C273.736 52.6089 272.964 52.4148 272.083 52.4148C271.165 52.4148 270.35 52.6278 269.64 53.054C268.939 53.4706 268.39 54.0341 267.992 54.7443C267.594 55.4451 267.391 56.2263 267.381 57.0881V60.6534C267.381 61.733 267.58 62.6657 267.978 63.4517C268.385 64.2377 268.958 64.8438 269.697 65.2699C270.435 65.696 271.311 65.9091 272.325 65.9091C272.997 65.9091 273.612 65.8144 274.171 65.625C274.73 65.4356 275.208 65.1515 275.606 64.7727C276.004 64.3939 276.307 63.9299 276.515 63.3807L282.112 63.75C281.827 65.0947 281.245 66.2689 280.364 67.2727C279.493 68.267 278.366 69.0436 276.984 69.6023C275.611 70.1515 274.024 70.4261 272.225 70.4261ZM321.227 51.0938H315.006C314.892 50.2888 314.66 49.5739 314.31 48.9489C313.959 48.3144 313.509 47.7746 312.96 47.3295C312.411 46.8845 311.777 46.5436 311.057 46.3068C310.347 46.0701 309.575 45.9517 308.741 45.9517C307.236 45.9517 305.924 46.3258 304.807 47.0739C303.689 47.8125 302.823 48.892 302.207 50.3125C301.592 51.7235 301.284 53.4375 301.284 55.4545C301.284 57.5284 301.592 59.2708 302.207 60.6818C302.832 62.0928 303.704 63.1581 304.821 63.8778C305.938 64.5975 307.231 64.9574 308.699 64.9574C309.523 64.9574 310.285 64.8485 310.986 64.6307C311.696 64.4129 312.326 64.0956 312.875 63.679C313.424 63.2528 313.879 62.7367 314.239 62.1307C314.608 61.5246 314.864 60.8333 315.006 60.0568L321.227 60.0852C321.066 61.4205 320.664 62.7083 320.02 63.9489C319.385 65.1799 318.528 66.2831 317.449 67.2585C316.379 68.2244 315.1 68.9915 313.614 69.5597C312.136 70.1184 310.465 70.3977 308.599 70.3977C306.005 70.3977 303.685 69.8106 301.639 68.6364C299.603 67.4621 297.993 65.7623 296.81 63.5369C295.635 61.3116 295.048 58.6174 295.048 55.4545C295.048 52.2822 295.645 49.5833 296.838 47.358C298.031 45.1326 299.651 43.4375 301.696 42.2727C303.741 41.0985 306.043 40.5114 308.599 40.5114C310.285 40.5114 311.848 40.7481 313.287 41.2216C314.736 41.6951 316.019 42.3864 317.136 43.2955C318.254 44.1951 319.163 45.2983 319.864 46.6051C320.574 47.9119 321.028 49.4081 321.227 51.0938ZM331.575 40.9091V70H325.524V40.9091H331.575ZM346.366 70.4261C344.121 70.4261 342.19 69.9716 340.57 69.0625C338.96 68.1439 337.72 66.8466 336.849 65.1705C335.978 63.4848 335.542 61.4915 335.542 59.1903C335.542 56.946 335.978 54.9763 336.849 53.2812C337.72 51.5862 338.946 50.2652 340.528 49.3182C342.119 48.3712 343.984 47.8977 346.124 47.8977C347.564 47.8977 348.904 48.1297 350.144 48.5938C351.394 49.0483 352.483 49.7348 353.411 50.6534C354.349 51.572 355.078 52.7273 355.599 54.1193C356.12 55.5019 356.38 57.1212 356.38 58.9773V60.6392H337.957V56.8892H350.684C350.684 56.018 350.495 55.2462 350.116 54.5739C349.737 53.9015 349.211 53.3759 348.539 52.9972C347.876 52.6089 347.104 52.4148 346.224 52.4148C345.305 52.4148 344.491 52.6278 343.781 53.054C343.08 53.4706 342.531 54.0341 342.133 54.7443C341.735 55.4451 341.531 56.2263 341.522 57.0881V60.6534C341.522 61.733 341.721 62.6657 342.119 63.4517C342.526 64.2377 343.099 64.8438 343.837 65.2699C344.576 65.696 345.452 65.9091 346.465 65.9091C347.138 65.9091 347.753 65.8144 348.312 65.625C348.871 65.4356 349.349 65.1515 349.746 64.7727C350.144 64.3939 350.447 63.9299 350.656 63.3807L356.252 63.75C355.968 65.0947 355.386 66.2689 354.505 67.2727C353.634 68.267 352.507 69.0436 351.124 69.6023C349.751 70.1515 348.165 70.4261 346.366 70.4261ZM366.55 70.4119C365.158 70.4119 363.918 70.1705 362.829 69.6875C361.74 69.1951 360.878 68.4706 360.244 67.5142C359.619 66.5483 359.306 65.3456 359.306 63.9062C359.306 62.6941 359.529 61.6761 359.974 60.8523C360.419 60.0284 361.025 59.3655 361.792 58.8636C362.559 58.3617 363.43 57.983 364.406 57.7273C365.39 57.4716 366.423 57.2917 367.502 57.1875C368.771 57.0549 369.794 56.9318 370.57 56.8182C371.347 56.6951 371.91 56.5152 372.261 56.2784C372.611 56.0417 372.786 55.6913 372.786 55.2273V55.142C372.786 54.2424 372.502 53.5464 371.934 53.054C371.375 52.5616 370.58 52.3153 369.548 52.3153C368.459 52.3153 367.592 52.5568 366.948 53.0398C366.304 53.5133 365.878 54.1098 365.67 54.8295L360.073 54.375C360.357 53.0492 360.916 51.9034 361.749 50.9375C362.583 49.9621 363.657 49.214 364.974 48.6932C366.299 48.1629 367.834 47.8977 369.576 47.8977C370.788 47.8977 371.948 48.0398 373.056 48.3239C374.174 48.608 375.163 49.0483 376.025 49.6449C376.896 50.2415 377.583 51.0085 378.085 51.946C378.586 52.8741 378.837 53.9867 378.837 55.2841V70H373.099V66.9744H372.928C372.578 67.6562 372.109 68.2576 371.522 68.7784C370.935 69.2898 370.229 69.6922 369.406 69.9858C368.582 70.2699 367.63 70.4119 366.55 70.4119ZM368.283 66.2358C369.174 66.2358 369.96 66.0606 370.641 65.7102C371.323 65.3504 371.858 64.8674 372.246 64.2614C372.635 63.6553 372.829 62.9687 372.829 62.2017V59.8864C372.639 60.0095 372.379 60.1231 372.048 60.2273C371.726 60.322 371.361 60.4119 370.954 60.4972C370.547 60.5729 370.139 60.6439 369.732 60.7102C369.325 60.767 368.956 60.8191 368.624 60.8665C367.914 60.9706 367.294 61.1364 366.763 61.3636C366.233 61.5909 365.821 61.8987 365.528 62.2869C365.234 62.6657 365.087 63.1392 365.087 63.7074C365.087 64.5312 365.386 65.161 365.982 65.5966C366.588 66.0227 367.355 66.2358 368.283 66.2358ZM389.583 57.3864V70H383.532V48.1818H389.299V52.0312H389.555C390.038 50.7623 390.847 49.7585 391.984 49.0199C393.12 48.2718 394.498 47.8977 396.117 47.8977C397.632 47.8977 398.953 48.2292 400.08 48.892C401.207 49.5549 402.083 50.5019 402.708 51.733C403.333 52.9545 403.646 54.4129 403.646 56.108V70H397.594V57.1875C397.604 55.8523 397.263 54.8106 396.572 54.0625C395.88 53.3049 394.929 52.9261 393.717 52.9261C392.902 52.9261 392.183 53.1013 391.558 53.4517C390.942 53.8021 390.459 54.3134 390.109 54.9858C389.768 55.6487 389.593 56.4489 389.583 57.3864ZM443.454 51.0938H437.232C437.119 50.2888 436.887 49.5739 436.536 48.9489C436.186 48.3144 435.736 47.7746 435.187 47.3295C434.638 46.8845 434.003 46.5436 433.283 46.3068C432.573 46.0701 431.801 45.9517 430.968 45.9517C429.462 45.9517 428.151 46.3258 427.033 47.0739C425.916 47.8125 425.049 48.892 424.434 50.3125C423.818 51.7235 423.511 53.4375 423.511 55.4545C423.511 57.5284 423.818 59.2708 424.434 60.6818C425.059 62.0928 425.93 63.1581 427.048 63.8778C428.165 64.5975 429.458 64.9574 430.925 64.9574C431.749 64.9574 432.512 64.8485 433.212 64.6307C433.923 64.4129 434.552 64.0956 435.102 63.679C435.651 63.2528 436.105 62.7367 436.465 62.1307C436.835 61.5246 437.09 60.8333 437.232 60.0568L443.454 60.0852C443.293 61.4205 442.89 62.7083 442.246 63.9489C441.612 65.1799 440.755 66.2831 439.675 67.2585C438.605 68.2244 437.327 68.9915 435.84 69.5597C434.363 70.1184 432.692 70.3977 430.826 70.3977C428.231 70.3977 425.911 69.8106 423.866 68.6364C421.83 67.4621 420.22 65.7623 419.036 63.5369C417.862 61.3116 417.275 58.6174 417.275 55.4545C417.275 52.2822 417.871 49.5833 419.065 47.358C420.258 45.1326 421.877 43.4375 423.923 42.2727C425.968 41.0985 428.269 40.5114 430.826 40.5114C432.512 40.5114 434.074 40.7481 435.513 41.2216C436.962 41.6951 438.246 42.3864 439.363 43.2955C440.48 44.1951 441.389 45.2983 442.09 46.6051C442.8 47.9119 443.255 49.4081 443.454 51.0938ZM457.609 70.4261C455.402 70.4261 453.494 69.9574 451.884 69.0199C450.284 68.0729 449.048 66.7566 448.177 65.071C447.306 63.3759 446.87 61.411 446.87 59.1761C446.87 56.9223 447.306 54.9527 448.177 53.267C449.048 51.572 450.284 50.2557 451.884 49.3182C453.494 48.3712 455.402 47.8977 457.609 47.8977C459.815 47.8977 461.719 48.3712 463.319 49.3182C464.929 50.2557 466.169 51.572 467.04 53.267C467.912 54.9527 468.347 56.9223 468.347 59.1761C468.347 61.411 467.912 63.3759 467.04 65.071C466.169 66.7566 464.929 68.0729 463.319 69.0199C461.719 69.9574 459.815 70.4261 457.609 70.4261ZM457.637 65.7386C458.641 65.7386 459.479 65.4545 460.151 64.8864C460.824 64.3087 461.33 63.5227 461.671 62.5284C462.022 61.5341 462.197 60.4025 462.197 59.1335C462.197 57.8646 462.022 56.733 461.671 55.7386C461.33 54.7443 460.824 53.9583 460.151 53.3807C459.479 52.803 458.641 52.5142 457.637 52.5142C456.624 52.5142 455.772 52.803 455.08 53.3807C454.398 53.9583 453.882 54.7443 453.532 55.7386C453.191 56.733 453.021 57.8646 453.021 59.1335C453.021 60.4025 453.191 61.5341 453.532 62.5284C453.882 63.5227 454.398 64.3087 455.08 64.8864C455.772 65.4545 456.624 65.7386 457.637 65.7386ZM480.322 70.3551C478.665 70.3551 477.164 69.929 475.819 69.0767C474.484 68.215 473.423 66.9508 472.637 65.2841C471.861 63.608 471.472 61.553 471.472 59.1193C471.472 56.6193 471.875 54.5407 472.68 52.8835C473.485 51.2169 474.555 49.9716 475.89 49.1477C477.235 48.3144 478.707 47.8977 480.308 47.8977C481.529 47.8977 482.547 48.1061 483.362 48.5227C484.185 48.9299 484.848 49.4413 485.35 50.0568C485.862 50.6629 486.25 51.2595 486.515 51.8466H486.7V40.9091H492.737V70H486.771V66.5057H486.515C486.231 67.1117 485.828 67.7131 485.308 68.3097C484.796 68.8968 484.129 69.3845 483.305 69.7727C482.49 70.161 481.496 70.3551 480.322 70.3551ZM482.239 65.5398C483.215 65.5398 484.039 65.2746 484.711 64.7443C485.393 64.2045 485.914 63.4517 486.273 62.4858C486.643 61.5199 486.827 60.3883 486.827 59.0909C486.827 57.7936 486.647 56.6667 486.288 55.7102C485.928 54.7538 485.407 54.0152 484.725 53.4943C484.043 52.9735 483.215 52.7131 482.239 52.7131C481.245 52.7131 480.407 52.983 479.725 53.5227C479.043 54.0625 478.527 54.8106 478.177 55.767C477.826 56.7235 477.651 57.8314 477.651 59.0909C477.651 60.3598 477.826 61.482 478.177 62.4574C478.537 63.4233 479.053 64.1809 479.725 64.7301C480.407 65.2699 481.245 65.5398 482.239 65.5398ZM507.655 70.4261C505.411 70.4261 503.479 69.9716 501.859 69.0625C500.25 68.1439 499.009 66.8466 498.138 65.1705C497.267 63.4848 496.831 61.4915 496.831 59.1903C496.831 56.946 497.267 54.9763 498.138 53.2812C499.009 51.5862 500.235 50.2652 501.817 49.3182C503.408 48.3712 505.273 47.8977 507.413 47.8977C508.853 47.8977 510.193 48.1297 511.433 48.5938C512.683 49.0483 513.772 49.7348 514.7 50.6534C515.638 51.572 516.367 52.7273 516.888 54.1193C517.409 55.5019 517.669 57.1212 517.669 58.9773V60.6392H499.246V56.8892H511.973C511.973 56.018 511.784 55.2462 511.405 54.5739C511.026 53.9015 510.5 53.3759 509.828 52.9972C509.165 52.6089 508.393 52.4148 507.513 52.4148C506.594 52.4148 505.78 52.6278 505.07 53.054C504.369 53.4706 503.82 54.0341 503.422 54.7443C503.024 55.4451 502.821 56.2263 502.811 57.0881V60.6534C502.811 61.733 503.01 62.6657 503.408 63.4517C503.815 64.2377 504.388 64.8438 505.126 65.2699C505.865 65.696 506.741 65.9091 507.754 65.9091C508.427 65.9091 509.042 65.8144 509.601 65.625C510.16 65.4356 510.638 65.1515 511.036 64.7727C511.433 64.3939 511.736 63.9299 511.945 63.3807L517.541 63.75C517.257 65.0947 516.675 66.2689 515.794 67.2727C514.923 68.267 513.796 69.0436 512.413 69.6023C511.04 70.1515 509.454 70.4261 507.655 70.4261Z" fill="black"/>
<path d="M55.5284 568V538.909H74.7898V543.98H61.679V550.912H73.5114V555.983H61.679V568H55.5284ZM87.0696 568.426C84.8632 568.426 82.955 567.957 81.3452 567.02C79.7448 566.073 78.509 564.757 77.6378 563.071C76.7666 561.376 76.331 559.411 76.331 557.176C76.331 554.922 76.7666 552.953 77.6378 551.267C78.509 549.572 79.7448 548.256 81.3452 547.318C82.955 546.371 84.8632 545.898 87.0696 545.898C89.276 545.898 91.1795 546.371 92.7798 547.318C94.3897 548.256 95.6302 549.572 96.5014 551.267C97.3726 552.953 97.8082 554.922 97.8082 557.176C97.8082 559.411 97.3726 561.376 96.5014 563.071C95.6302 564.757 94.3897 566.073 92.7798 567.02C91.1795 567.957 89.276 568.426 87.0696 568.426ZM87.098 563.739C88.1018 563.739 88.9399 563.455 89.6122 562.886C90.2846 562.309 90.7912 561.523 91.1321 560.528C91.4825 559.534 91.6577 558.402 91.6577 557.134C91.6577 555.865 91.4825 554.733 91.1321 553.739C90.7912 552.744 90.2846 551.958 89.6122 551.381C88.9399 550.803 88.1018 550.514 87.098 550.514C86.0848 550.514 85.2325 550.803 84.5412 551.381C83.8594 551.958 83.3433 552.744 82.9929 553.739C82.652 554.733 82.4815 555.865 82.4815 557.134C82.4815 558.402 82.652 559.534 82.9929 560.528C83.3433 561.523 83.8594 562.309 84.5412 562.886C85.2325 563.455 86.0848 563.739 87.098 563.739ZM101.743 568V546.182H107.609V549.989H107.837C108.234 548.634 108.902 547.612 109.839 546.92C110.777 546.22 111.857 545.869 113.078 545.869C113.381 545.869 113.708 545.888 114.058 545.926C114.409 545.964 114.716 546.016 114.982 546.082V551.452C114.697 551.366 114.304 551.291 113.803 551.224C113.301 551.158 112.841 551.125 112.425 551.125C111.535 551.125 110.739 551.319 110.038 551.707C109.347 552.086 108.798 552.616 108.391 553.298C107.993 553.98 107.794 554.766 107.794 555.656V568H101.743ZM127.482 568V538.909H138.959C141.165 538.909 143.045 539.33 144.598 540.173C146.151 541.007 147.335 542.167 148.149 543.653C148.973 545.131 149.385 546.835 149.385 548.767C149.385 550.699 148.968 552.403 148.135 553.881C147.302 555.358 146.094 556.509 144.513 557.332C142.941 558.156 141.037 558.568 138.803 558.568H131.487V553.639H137.808C138.992 553.639 139.967 553.436 140.734 553.028C141.511 552.612 142.089 552.039 142.467 551.31C142.856 550.571 143.05 549.723 143.05 548.767C143.05 547.801 142.856 546.958 142.467 546.239C142.089 545.509 141.511 544.946 140.734 544.548C139.958 544.141 138.973 543.938 137.78 543.938H133.632V568H127.482ZM157.002 576.182C156.235 576.182 155.515 576.12 154.843 575.997C154.18 575.884 153.631 575.737 153.195 575.557L154.559 571.04C155.269 571.258 155.908 571.376 156.477 571.395C157.054 571.414 157.551 571.281 157.968 570.997C158.394 570.713 158.74 570.23 159.005 569.548L159.36 568.625L151.533 546.182H157.897L162.414 562.205H162.641L167.201 546.182H173.607L165.127 570.358C164.72 571.532 164.166 572.555 163.465 573.426C162.774 574.307 161.898 574.984 160.837 575.457C159.777 575.94 158.498 576.182 157.002 576.182ZM188.309 546.182V550.727H175.17V546.182H188.309ZM178.153 540.955H184.204V561.295C184.204 561.854 184.289 562.29 184.46 562.602C184.63 562.905 184.867 563.118 185.17 563.241C185.482 563.365 185.842 563.426 186.249 563.426C186.533 563.426 186.817 563.402 187.102 563.355C187.386 563.298 187.603 563.256 187.755 563.227L188.707 567.73C188.404 567.825 187.978 567.934 187.428 568.057C186.879 568.189 186.211 568.27 185.425 568.298C183.967 568.355 182.689 568.161 181.59 567.716C180.501 567.271 179.654 566.58 179.048 565.642C178.442 564.705 178.143 563.521 178.153 562.091V540.955ZM198.771 555.386V568H192.719V538.909H198.6V550.031H198.856C199.348 548.743 200.144 547.735 201.242 547.006C202.341 546.267 203.719 545.898 205.376 545.898C206.891 545.898 208.212 546.229 209.339 546.892C210.475 547.545 211.356 548.488 211.981 549.719C212.615 550.94 212.928 552.403 212.918 554.108V568H206.867V555.188C206.877 553.843 206.536 552.796 205.844 552.048C205.163 551.3 204.206 550.926 202.975 550.926C202.151 550.926 201.422 551.101 200.788 551.452C200.163 551.802 199.67 552.313 199.31 552.986C198.96 553.649 198.78 554.449 198.771 555.386ZM227.538 568.426C225.332 568.426 223.424 567.957 221.814 567.02C220.214 566.073 218.978 564.757 218.107 563.071C217.235 561.376 216.8 559.411 216.8 557.176C216.8 554.922 217.235 552.953 218.107 551.267C218.978 549.572 220.214 548.256 221.814 547.318C223.424 546.371 225.332 545.898 227.538 545.898C229.745 545.898 231.648 546.371 233.249 547.318C234.858 548.256 236.099 549.572 236.97 551.267C237.841 552.953 238.277 554.922 238.277 557.176C238.277 559.411 237.841 561.376 236.97 563.071C236.099 564.757 234.858 566.073 233.249 567.02C231.648 567.957 229.745 568.426 227.538 568.426ZM227.567 563.739C228.571 563.739 229.409 563.455 230.081 562.886C230.753 562.309 231.26 561.523 231.601 560.528C231.951 559.534 232.126 558.402 232.126 557.134C232.126 555.865 231.951 554.733 231.601 553.739C231.26 552.744 230.753 551.958 230.081 551.381C229.409 550.803 228.571 550.514 227.567 550.514C226.554 550.514 225.701 550.803 225.01 551.381C224.328 551.958 223.812 552.744 223.462 553.739C223.121 554.733 222.95 555.865 222.95 557.134C222.95 558.402 223.121 559.534 223.462 560.528C223.812 561.523 224.328 562.309 225.01 562.886C225.701 563.455 226.554 563.739 227.567 563.739ZM248.263 555.386V568H242.212V546.182H247.979V550.031H248.234C248.717 548.762 249.527 547.759 250.663 547.02C251.8 546.272 253.178 545.898 254.797 545.898C256.312 545.898 257.633 546.229 258.76 546.892C259.887 547.555 260.763 548.502 261.388 549.733C262.013 550.955 262.325 552.413 262.325 554.108V568H256.274V555.188C256.284 553.852 255.943 552.811 255.251 552.062C254.56 551.305 253.608 550.926 252.396 550.926C251.582 550.926 250.862 551.101 250.237 551.452C249.622 551.802 249.139 552.313 248.788 552.986C248.447 553.649 248.272 554.449 248.263 555.386ZM286.778 568H276.466V538.909H286.864C289.79 538.909 292.309 539.491 294.42 540.656C296.532 541.812 298.156 543.473 299.293 545.642C300.438 547.811 301.011 550.405 301.011 553.426C301.011 556.456 300.438 559.061 299.293 561.239C298.156 563.417 296.523 565.088 294.392 566.253C292.271 567.418 289.733 568 286.778 568ZM282.616 562.73H286.523C288.341 562.73 289.87 562.408 291.111 561.764C292.361 561.111 293.298 560.102 293.923 558.739C294.558 557.366 294.875 555.595 294.875 553.426C294.875 551.277 294.558 549.52 293.923 548.156C293.298 546.793 292.366 545.789 291.125 545.145C289.884 544.501 288.355 544.179 286.537 544.179H282.616V562.73ZM315.397 568.426C313.153 568.426 311.221 567.972 309.602 567.062C307.992 566.144 306.751 564.847 305.88 563.17C305.009 561.485 304.573 559.491 304.573 557.19C304.573 554.946 305.009 552.976 305.88 551.281C306.751 549.586 307.978 548.265 309.559 547.318C311.15 546.371 313.015 545.898 315.156 545.898C316.595 545.898 317.935 546.13 319.175 546.594C320.425 547.048 321.514 547.735 322.442 548.653C323.38 549.572 324.109 550.727 324.63 552.119C325.151 553.502 325.411 555.121 325.411 556.977V558.639H306.988V554.889H319.715C319.715 554.018 319.526 553.246 319.147 552.574C318.768 551.902 318.243 551.376 317.57 550.997C316.907 550.609 316.136 550.415 315.255 550.415C314.336 550.415 313.522 550.628 312.812 551.054C312.111 551.471 311.562 552.034 311.164 552.744C310.766 553.445 310.563 554.226 310.553 555.088V558.653C310.553 559.733 310.752 560.666 311.15 561.452C311.557 562.238 312.13 562.844 312.869 563.27C313.607 563.696 314.483 563.909 315.496 563.909C316.169 563.909 316.784 563.814 317.343 563.625C317.902 563.436 318.38 563.152 318.778 562.773C319.175 562.394 319.478 561.93 319.687 561.381L325.283 561.75C324.999 563.095 324.417 564.269 323.536 565.273C322.665 566.267 321.538 567.044 320.156 567.602C318.782 568.152 317.196 568.426 315.397 568.426ZM349.115 546.182L341.487 568H334.669L327.041 546.182H333.433L337.964 561.793H338.192L342.709 546.182H349.115ZM361.452 568.426C359.207 568.426 357.276 567.972 355.656 567.062C354.046 566.144 352.806 564.847 351.935 563.17C351.063 561.485 350.628 559.491 350.628 557.19C350.628 554.946 351.063 552.976 351.935 551.281C352.806 549.586 354.032 548.265 355.614 547.318C357.205 546.371 359.07 545.898 361.21 545.898C362.65 545.898 363.99 546.13 365.23 546.594C366.48 547.048 367.569 547.735 368.497 548.653C369.435 549.572 370.164 550.727 370.685 552.119C371.205 553.502 371.466 555.121 371.466 556.977V558.639H353.043V554.889H365.77C365.77 554.018 365.58 553.246 365.202 552.574C364.823 551.902 364.297 551.376 363.625 550.997C362.962 550.609 362.19 550.415 361.31 550.415C360.391 550.415 359.577 550.628 358.866 551.054C358.166 551.471 357.616 552.034 357.219 552.744C356.821 553.445 356.617 554.226 356.608 555.088V558.653C356.608 559.733 356.807 560.666 357.205 561.452C357.612 562.238 358.185 562.844 358.923 563.27C359.662 563.696 360.538 563.909 361.551 563.909C362.223 563.909 362.839 563.814 363.398 563.625C363.956 563.436 364.435 563.152 364.832 562.773C365.23 562.394 365.533 561.93 365.741 561.381L371.338 561.75C371.054 563.095 370.472 564.269 369.591 565.273C368.72 566.267 367.593 567.044 366.21 567.602C364.837 568.152 363.251 568.426 361.452 568.426ZM381.466 538.909V568H375.415V538.909H381.466ZM396.171 568.426C393.965 568.426 392.057 567.957 390.447 567.02C388.846 566.073 387.611 564.757 386.739 563.071C385.868 561.376 385.433 559.411 385.433 557.176C385.433 554.922 385.868 552.953 386.739 551.267C387.611 549.572 388.846 548.256 390.447 547.318C392.057 546.371 393.965 545.898 396.171 545.898C398.378 545.898 400.281 546.371 401.881 547.318C403.491 548.256 404.732 549.572 405.603 551.267C406.474 552.953 406.91 554.922 406.91 557.176C406.91 559.411 406.474 561.376 405.603 563.071C404.732 564.757 403.491 566.073 401.881 567.02C400.281 567.957 398.378 568.426 396.171 568.426ZM396.2 563.739C397.203 563.739 398.041 563.455 398.714 562.886C399.386 562.309 399.893 561.523 400.234 560.528C400.584 559.534 400.759 558.402 400.759 557.134C400.759 555.865 400.584 554.733 400.234 553.739C399.893 552.744 399.386 551.958 398.714 551.381C398.041 550.803 397.203 550.514 396.2 550.514C395.186 550.514 394.334 550.803 393.643 551.381C392.961 551.958 392.445 552.744 392.094 553.739C391.754 554.733 391.583 555.865 391.583 557.134C391.583 558.402 391.754 559.534 392.094 560.528C392.445 561.523 392.961 562.309 393.643 562.886C394.334 563.455 395.186 563.739 396.2 563.739ZM410.844 576.182V546.182H416.81V549.847H417.08C417.345 549.259 417.729 548.663 418.231 548.057C418.742 547.441 419.405 546.93 420.219 546.523C421.043 546.106 422.066 545.898 423.288 545.898C424.879 545.898 426.346 546.314 427.691 547.148C429.036 547.972 430.111 549.217 430.915 550.884C431.72 552.541 432.123 554.619 432.123 557.119C432.123 559.553 431.73 561.608 430.944 563.284C430.167 564.951 429.107 566.215 427.762 567.077C426.427 567.929 424.931 568.355 423.273 568.355C422.099 568.355 421.1 568.161 420.276 567.773C419.462 567.384 418.794 566.897 418.273 566.31C417.753 565.713 417.355 565.112 417.08 564.506H416.896V576.182H410.844ZM416.768 557.091C416.768 558.388 416.948 559.52 417.308 560.486C417.667 561.452 418.188 562.205 418.87 562.744C419.552 563.275 420.38 563.54 421.356 563.54C422.341 563.54 423.174 563.27 423.856 562.73C424.538 562.181 425.054 561.423 425.404 560.457C425.764 559.482 425.944 558.36 425.944 557.091C425.944 555.831 425.769 554.723 425.418 553.767C425.068 552.811 424.552 552.062 423.87 551.523C423.188 550.983 422.35 550.713 421.356 550.713C420.371 550.713 419.538 550.973 418.856 551.494C418.183 552.015 417.667 552.754 417.308 553.71C416.948 554.667 416.768 555.794 416.768 557.091ZM446.1 568.426C443.856 568.426 441.924 567.972 440.305 567.062C438.695 566.144 437.454 564.847 436.583 563.17C435.712 561.485 435.276 559.491 435.276 557.19C435.276 554.946 435.712 552.976 436.583 551.281C437.454 549.586 438.681 548.265 440.262 547.318C441.853 546.371 443.719 545.898 445.859 545.898C447.298 545.898 448.638 546.13 449.879 546.594C451.129 547.048 452.218 547.735 453.146 548.653C454.083 549.572 454.812 550.727 455.333 552.119C455.854 553.502 456.114 555.121 456.114 556.977V558.639H437.691V554.889H450.418C450.418 554.018 450.229 553.246 449.85 552.574C449.471 551.902 448.946 551.376 448.273 550.997C447.611 550.609 446.839 550.415 445.958 550.415C445.04 550.415 444.225 550.628 443.515 551.054C442.814 551.471 442.265 552.034 441.867 552.744C441.469 553.445 441.266 554.226 441.256 555.088V558.653C441.256 559.733 441.455 560.666 441.853 561.452C442.26 562.238 442.833 562.844 443.572 563.27C444.31 563.696 445.186 563.909 446.2 563.909C446.872 563.909 447.487 563.814 448.046 563.625C448.605 563.436 449.083 563.152 449.481 562.773C449.879 562.394 450.182 561.93 450.39 561.381L455.987 561.75C455.702 563.095 455.12 564.269 454.239 565.273C453.368 566.267 452.241 567.044 450.859 567.602C449.486 568.152 447.899 568.426 446.1 568.426ZM460.063 568V546.182H465.93V549.989H466.157C466.555 548.634 467.222 547.612 468.16 546.92C469.097 546.22 470.177 545.869 471.398 545.869C471.701 545.869 472.028 545.888 472.379 545.926C472.729 545.964 473.037 546.016 473.302 546.082V551.452C473.018 551.366 472.625 551.291 472.123 551.224C471.621 551.158 471.162 551.125 470.745 551.125C469.855 551.125 469.059 551.319 468.359 551.707C467.667 552.086 467.118 552.616 466.711 553.298C466.313 553.98 466.114 554.766 466.114 555.656V568H460.063ZM494.584 552.403L489.044 552.744C488.949 552.271 488.746 551.845 488.433 551.466C488.121 551.078 487.709 550.77 487.197 550.543C486.696 550.306 486.094 550.188 485.393 550.188C484.456 550.188 483.665 550.386 483.021 550.784C482.377 551.172 482.055 551.693 482.055 552.347C482.055 552.867 482.264 553.308 482.68 553.668C483.097 554.027 483.812 554.316 484.825 554.534L488.774 555.33C490.895 555.765 492.477 556.466 493.518 557.432C494.56 558.398 495.081 559.667 495.081 561.239C495.081 562.669 494.66 563.923 493.817 565.003C492.983 566.082 491.838 566.925 490.379 567.531C488.93 568.128 487.259 568.426 485.365 568.426C482.477 568.426 480.176 567.825 478.462 566.622C476.757 565.41 475.758 563.762 475.464 561.679L481.416 561.366C481.596 562.247 482.032 562.92 482.723 563.384C483.414 563.838 484.3 564.065 485.379 564.065C486.44 564.065 487.292 563.862 487.936 563.455C488.589 563.038 488.921 562.503 488.93 561.849C488.921 561.3 488.689 560.85 488.234 560.5C487.78 560.14 487.079 559.866 486.132 559.676L482.354 558.923C480.223 558.497 478.637 557.759 477.595 556.707C476.563 555.656 476.047 554.316 476.047 552.688C476.047 551.286 476.426 550.079 477.183 549.065C477.95 548.052 479.025 547.271 480.408 546.722C481.8 546.172 483.429 545.898 485.294 545.898C488.05 545.898 490.218 546.48 491.8 547.645C493.391 548.81 494.319 550.396 494.584 552.403Z" fill="white"/>
<path d="M880.167 41.1556C740.625 41.1556 749.339 101.686 749.339 101.686L749.495 164.395H882.656V183.223H696.604C696.604 183.223 607.311 173.094 607.311 313.931C607.311 454.769 685.248 449.774 685.248 449.774H731.761V384.42C731.761 384.42 729.253 306.462 808.453 306.462H940.525C940.525 306.462 1014.73 307.662 1014.73 234.728V114.134C1014.73 114.134 1025.99 41.1556 880.167 41.1556ZM806.741 83.3246C819.99 83.3246 830.698 94.0355 830.698 107.288C830.698 120.54 819.99 131.251 806.741 131.251C793.493 131.251 782.785 120.54 782.785 107.288C782.785 94.0355 793.493 83.3246 806.741 83.3246Z" fill="url(#paint1_linear_7_2)"/>
<path d="M884.13 588.119C1023.67 588.119 1014.96 527.589 1014.96 527.589L1014.8 464.88H881.641V446.052H1067.69C1067.69 446.052 1156.98 456.181 1156.98 315.343C1156.99 174.506 1079.05 179.5 1079.05 179.5H1032.54V244.854C1032.54 244.854 1035.04 322.812 955.844 322.812H823.772C823.772 322.812 749.569 321.613 749.569 394.546V515.14C749.569 515.14 738.302 588.119 884.13 588.119ZM957.555 545.95C944.306 545.95 933.598 535.239 933.598 521.987C933.598 508.735 944.306 498.024 957.555 498.024C970.803 498.024 981.511 508.735 981.511 521.987C981.511 535.239 970.803 545.95 957.555 545.95Z" fill="url(#paint2_linear_7_2)"/>
<defs>
<linearGradient id="paint0_linear_7_2" x1="823" y1="337" x2="2.25039e-05" y2="337" gradientUnits="userSpaceOnUse">
<stop stop-color="#6724D4"/>
<stop offset="1" stop-color="#336CF7"/>
</linearGradient>
<linearGradient id="paint1_linear_7_2" x1="5889.78" y1="4960.94" x2="33137.1" y2="31928.9" gradientUnits="userSpaceOnUse">
<stop stop-color="#387EB8"/>
<stop offset="1" stop-color="#366994"/>
</linearGradient>
<linearGradient id="paint2_linear_7_2" x1="8546.09" y1="8588.97" x2="37806.4" y2="36242" gradientUnits="userSpaceOnUse">
<stop stop-color="#FFE052"/>
<stop offset="1" stop-color="#FFC331"/>
</linearGradient>
</defs>
</svg>
