<svg width="1200" height="675" viewBox="0 0 1200 675" fill="none" xmlns="http://www.w3.org/2000/svg">
<rect width="1200" height="675" fill="#1E1E1E"/>
<g clip-path="url(#clip0_104_2)">
<rect width="1200" height="675" fill="white"/>
<rect width="600" height="675" fill="#2CC4F5"/>
<rect x="600" width="600" height="675" fill="#535353"/>
<g clip-path="url(#clip1_104_2)">
<path d="M428.93 574.592L382.178 561.663L371.759 445.256H486.241L475.811 561.645L428.93 574.592Z" fill="#264DE4"/>
<path d="M466.882 554.234L475.795 454.773H429V564.696L466.882 554.234Z" fill="#2965F1"/>
<path d="M395.644 497.947L396.928 512.224H429V497.947H395.644ZM393.062 469.051L394.365 483.328H429V469.051H393.062ZM429 535.026L428.937 535.043L412.976 530.749L411.955 519.363H397.568L399.576 541.78L428.934 549.898L429 549.88V535.026Z" fill="#EBEBEB"/>
<path d="M462.265 497.947L464.852 469.051H428.951V483.328H449.145L447.841 497.947H428.951V512.224H446.599L444.935 530.741L428.95 535.038V549.891L458.331 541.78L458.547 539.368L461.915 501.781L462.265 497.947Z" fill="white"/>
</g>
<path d="M814.819 511.717C813.349 508.542 810.868 505.944 807.764 504.33C805.888 503.158 803.851 502.265 801.717 501.679C803.259 496.035 801.072 491.541 797.998 488.185C793.453 483.266 788.727 482.551 788.727 482.551C790.359 479.457 790.853 475.889 790.097 472.473C789.321 468.754 786.993 465.559 783.688 463.685C780.563 461.84 776.713 460.933 772.763 460.187C770.868 459.845 762.876 458.726 759.56 454.141C756.89 450.422 756.809 443.73 756.084 441.724C755.358 439.719 752.677 440.565 749.805 442.49C746.449 444.768 739.495 451.954 736.814 459.18C735.043 463.624 734.595 468.485 735.524 473.178C733.367 473.531 731.261 474.156 729.266 475.043C729.104 475.043 728.943 475.143 728.772 475.214C725.748 476.464 719.268 482.269 718.694 491.188C718.482 494.342 718.885 497.497 719.873 500.5C717.666 501.074 715.539 501.941 713.564 503.09C711.256 504.078 709.15 505.489 707.366 507.252C705.401 509.681 703.97 512.493 703.183 515.516C701.358 522.178 702.076 529.28 705.199 535.441C707.013 538.938 709.291 542.163 711.992 545.035C720.609 553.894 735.484 557.24 747.265 559.145C761.566 561.503 776.542 560.676 789.926 555.113C810.001 546.829 815.343 533.506 816.129 529.747C817.873 521.432 815.736 513.602 814.819 511.717Z" fill="#885742"/>
<path d="M783.133 529.616C781.551 530.422 779.938 531.148 778.316 531.793C777.227 532.226 776.129 532.619 775.02 532.972C773.912 533.335 772.793 533.647 771.664 533.98C769.407 534.544 767.109 534.957 764.791 535.199C763.037 535.39 761.264 535.481 759.5 535.481C754.844 535.481 750.208 534.826 745.723 533.556L744.252 533.113C741.786 532.328 739.378 531.371 737.046 530.251L735.645 529.555C736.471 532.931 738.054 536.075 740.275 538.748C742.496 541.422 745.297 543.554 748.464 544.985C751.921 546.587 755.69 547.404 759.5 547.383C763.35 547.414 767.159 546.628 770.677 545.055C773.871 543.651 776.686 541.507 778.89 538.802C781.094 536.097 782.624 532.907 783.355 529.495L783.133 529.616Z" fill="#35220B"/>
<path d="M780.856 526.703C773.801 527.943 766.655 528.537 759.5 528.487C752.345 528.527 745.199 527.933 738.144 526.703C737.794 526.635 737.432 526.654 737.091 526.759C736.75 526.864 736.44 527.051 736.188 527.304C735.936 527.557 735.75 527.868 735.647 528.209C735.543 528.551 735.525 528.913 735.595 529.263V529.515C742.974 533.373 751.173 535.402 759.5 535.431C761.264 535.431 763.037 535.34 764.791 535.149C767.109 534.907 769.407 534.494 771.664 533.929C772.793 533.647 773.912 533.335 775.02 532.921C776.129 532.508 777.227 532.176 778.316 531.742C779.949 531.067 781.551 530.341 783.133 529.565L783.355 529.444L783.415 529.172C783.587 527.973 782.75 526.864 781.541 526.693C781.313 526.661 781.082 526.665 780.856 526.703Z" fill="white"/>
<path d="M775.756 518.53C782.658 518.53 788.253 512.935 788.253 506.033C788.253 499.131 782.658 493.536 775.756 493.536C768.854 493.536 763.259 499.131 763.259 506.033C763.259 512.935 768.854 518.53 775.756 518.53Z" fill="white"/>
<path d="M775.756 511.898C778.945 511.898 781.531 509.272 781.531 506.033C781.531 502.793 778.945 500.167 775.756 500.167C772.567 500.167 769.981 502.793 769.981 506.033C769.981 509.272 772.567 511.898 775.756 511.898Z" fill="#35220B"/>
<path d="M743.244 518.53C750.146 518.53 755.741 512.935 755.741 506.033C755.741 499.131 750.146 493.536 743.244 493.536C736.342 493.536 730.747 499.131 730.747 506.033C730.747 512.935 736.342 518.53 743.244 518.53Z" fill="white"/>
<path d="M743.244 511.898C746.433 511.898 749.019 509.272 749.019 506.033C749.019 502.793 746.433 500.167 743.244 500.167C740.055 500.167 737.469 502.793 737.469 506.033C737.469 509.272 740.055 511.898 743.244 511.898Z" fill="#35220B"/>
<path d="M174.58 237.66C170.14 237.66 166.4 235.8 163.36 232.08C160.32 228.36 158.8 223.8 158.8 218.4C158.8 211.8 160.62 206.24 164.26 201.72C167.94 197.2 172.44 194.94 177.76 194.94C179.84 194.94 181.76 195.16 183.52 195.6C185.32 196 186.6 196.42 187.36 196.86L188.44 197.52L184.36 205.86C183.44 205.06 182.14 204.32 180.46 203.64C178.78 202.92 177.26 202.56 175.9 202.56C173.14 202.56 170.92 203.7 169.24 205.98C167.6 208.26 166.78 211.52 166.78 215.76C166.78 219.96 167.64 223.42 169.36 226.14C171.08 228.82 173.42 230.16 176.38 230.16C178.3 230.16 180.04 229.56 181.6 228.36C183.16 227.16 184.26 225.56 184.9 223.56L189.88 226.44C188.56 229.96 186.54 232.72 183.82 234.72C181.1 236.68 178.02 237.66 174.58 237.66ZM211.647 195C216.367 195 220.247 196.8 223.287 200.4C226.367 204 227.907 208.58 227.907 214.14C227.907 221.18 226.087 226.86 222.447 231.18C218.807 235.5 214.027 237.66 208.107 237.66C203.507 237.66 199.647 235.82 196.527 232.14C193.407 228.42 191.847 223.84 191.847 218.4C191.847 211.6 193.707 206 197.427 201.6C201.147 197.2 205.887 195 211.647 195ZM219.747 217.5C219.747 207.38 216.427 202.32 209.787 202.32C206.747 202.32 204.347 203.46 202.587 205.74C200.867 207.98 200.007 211.36 200.007 215.88C200.007 220.36 200.927 224.06 202.767 226.98C204.647 229.86 207.107 231.3 210.147 231.3C213.227 231.3 215.587 230.08 217.227 227.64C218.907 225.16 219.747 221.78 219.747 217.5ZM246.815 237.66C243.975 237.66 239.875 237.44 234.515 237L235.235 222.42L234.515 195.6H250.535C255.935 195.6 260.155 197.22 263.195 200.46C266.235 203.7 267.755 208.2 267.755 213.96C267.755 221.24 265.875 227.02 262.115 231.3C258.355 235.54 253.255 237.66 246.815 237.66ZM248.375 202.08C245.735 202.08 243.875 202.1 242.795 202.14L242.195 221.4L242.615 231.12C245.975 231.36 248.235 231.48 249.395 231.48C252.555 231.48 255.035 230.2 256.835 227.64C258.675 225.08 259.595 221.36 259.595 216.48C259.595 211.6 258.695 207.98 256.895 205.62C255.135 203.26 252.295 202.08 248.375 202.08ZM274.359 237L275.079 222.42L274.359 195.6H296.859L296.199 202.02H282.699L282.339 212.64H294.339L293.679 219H282.099L282.039 221.4L282.459 230.64H296.979L296.319 237H274.359Z" fill="white"/>
<path d="M174.845 274.07C182.592 274.07 188.761 274.291 193.354 274.734V283.2C193.354 285.69 193.077 287.488 192.524 288.595C191.583 288.374 190.477 288.263 189.204 288.263C188.374 288.263 187.24 288.318 185.801 288.429C184.252 288.54 183.145 288.595 182.481 288.595L182.398 293.575C182.343 294.682 182.315 296.314 182.315 298.472C182.315 302.235 182.426 307.934 182.647 315.57C182.702 317.451 182.758 319.803 182.813 322.625C182.868 325.447 182.896 328.739 182.896 332.502C182.675 333.055 181.485 333.332 179.327 333.332L176.09 333.249C174.541 333.138 173.434 333.083 172.77 333.083C171.276 333.083 170.003 333.221 168.952 333.498C168.509 333.221 168.288 332.64 168.288 331.755C168.288 330.704 168.343 329.127 168.454 327.024L168.537 322.293V311.337C168.537 301.654 168.454 294.35 168.288 289.425C167.624 289.093 166.822 288.844 165.881 288.678C164.94 288.457 164.055 288.346 163.225 288.346L159.158 288.429C158.383 288.429 157.858 288.152 157.581 287.599C157.36 286.99 157.249 286.133 157.249 285.026L157.332 282.868V278.801C157.332 278.524 157.332 277.971 157.332 277.141C157.332 276.256 157.387 275.426 157.498 274.651H157.415L157.83 274.153L174.845 274.07ZM192.192 287.682C192.413 285.69 192.524 283.421 192.524 280.876C192.524 278.607 192.496 276.892 192.441 275.73C186.576 275.177 179.521 274.9 171.276 274.9L158.245 274.983C158.024 275.868 157.913 277.999 157.913 281.374C157.913 284.639 158.107 286.658 158.494 287.433C159.158 287.599 159.933 287.682 160.818 287.682L164.138 287.599C165.245 287.599 166.379 287.765 167.541 288.097C168.703 288.429 169.284 288.927 169.284 289.591C169.284 291.251 169.256 292.634 169.201 293.741L169.118 299.302C169.118 301.847 169.173 305.665 169.284 310.756L169.367 322.21C169.367 322.763 169.312 323.87 169.201 325.53C169.09 327.522 169.035 329.016 169.035 330.012C169.035 330.731 169.09 331.589 169.201 332.585C169.976 332.419 171.138 332.336 172.687 332.336C173.96 332.336 174.928 332.364 175.592 332.419L178.497 332.502C179.77 332.502 180.932 332.391 181.983 332.17C181.651 323.981 181.485 313.661 181.485 301.211V292.413V289.674C181.485 289.397 181.485 289.148 181.485 288.927C181.54 288.65 181.596 288.457 181.651 288.346V288.429C181.651 287.765 183.837 287.433 188.208 287.433C189.979 287.433 191.307 287.516 192.192 287.682ZM181.817 288.014L181.9 287.931L181.734 288.18L181.817 288.014ZM233.141 332.502L232.809 332.917C231.481 333.249 229.738 333.415 227.58 333.415L222.268 333.332C222.102 333.387 221.88 333.415 221.604 333.415C221.272 333.415 221.023 333.36 220.857 333.249C220.746 333.194 220.663 333.138 220.608 333.083C220.165 330.095 219.944 326.166 219.944 321.297C219.944 320.799 219.916 319.388 219.861 317.064C219.805 314.74 219.639 312.527 219.363 310.424C217.813 310.147 216.43 310.009 215.213 310.009C213.663 310.009 212.059 310.175 210.399 310.507C210.177 312.056 210.067 313.827 210.067 315.819C210.067 316.981 210.122 318.779 210.233 321.214C210.343 323.649 210.399 325.447 210.399 326.609C210.399 328.933 210.26 330.925 209.984 332.585C209.873 332.585 209.818 332.64 209.818 332.751C209.043 333.249 208.019 333.498 206.747 333.498C206.027 333.498 204.948 333.387 203.51 333.166C202.071 332.945 201.103 332.834 200.605 332.834C199.885 332.834 199.194 332.972 198.53 333.249C197.589 332.917 197.119 329.791 197.119 323.87V319.056C197.119 315.238 197.008 309.566 196.787 302.041C196.565 294.516 196.455 288.816 196.455 284.943C196.455 283.449 196.482 281.429 196.538 278.884C196.593 276.283 196.648 274.983 196.704 274.983V275.066L197.119 274.568C197.672 274.568 198.198 274.596 198.696 274.651C199.249 274.706 199.83 274.734 200.439 274.734L202.846 274.651C203.952 274.54 204.782 274.485 205.336 274.485C207.051 274.485 208.047 274.734 208.324 275.232C208.6 277.058 208.794 279.022 208.905 281.125C209.015 283.228 209.071 284.556 209.071 285.109C209.181 289.702 209.43 293.132 209.818 295.401H209.735L209.984 296.729C211.09 296.95 212.363 297.061 213.802 297.061C215.296 297.061 216.817 296.923 218.367 296.646C218.754 291.5 218.948 287.046 218.948 283.283C218.948 280.682 218.865 278.054 218.699 275.398C219.197 274.9 220.359 274.485 222.185 274.153C224.011 273.821 225.643 273.655 227.082 273.655C228.078 273.655 228.88 273.766 229.489 273.987H230.485C230.485 273.987 230.623 274.125 230.9 274.402L233.141 332.502ZM229.489 332.419C230.429 332.419 231.37 332.336 232.311 332.17L230.07 274.817C229.682 274.817 229.35 274.789 229.074 274.734C225.754 274.734 222.572 275.038 219.529 275.647C219.695 278.137 219.778 280.627 219.778 283.117C219.778 287.046 219.584 291.666 219.197 296.978C218.92 297.255 218.782 297.393 218.782 297.393H218.948C218.505 297.393 217.564 297.476 216.126 297.642C214.742 297.808 213.636 297.891 212.806 297.891C211.422 297.891 210.233 297.642 209.237 297.144C208.849 294.654 208.545 290.947 208.324 286.022C208.102 281.374 207.826 277.888 207.494 275.564C207.106 275.509 206.525 275.481 205.751 275.481C205.087 275.481 204.091 275.536 202.763 275.647C201.435 275.758 200.494 275.813 199.941 275.813C199 275.813 198.198 275.702 197.534 275.481C197.368 279.465 197.285 283.421 197.285 287.35C197.285 295.595 197.34 302.843 197.451 309.096C197.617 315.293 197.921 321.38 198.364 327.356C198.364 328.075 198.391 328.629 198.447 329.016C198.447 330.51 198.502 331.617 198.613 332.336C199.221 332.17 199.802 332.087 200.356 332.087C201.02 332.087 202.071 332.198 203.51 332.419C204.838 332.64 205.861 332.751 206.581 332.751C207.577 332.751 208.434 332.557 209.154 332.17C209.43 330.51 209.569 328.463 209.569 326.028L209.486 320.799C209.375 318.475 209.32 316.732 209.32 315.57C209.32 313.523 209.43 311.697 209.652 310.092C210.094 309.871 211.007 309.649 212.391 309.428C213.774 309.207 215.157 309.096 216.541 309.096C218.256 309.096 219.418 309.317 220.027 309.76C220.193 309.926 220.331 310.756 220.442 312.25C220.552 313.744 220.608 314.878 220.608 315.653C220.608 319.416 220.635 322.57 220.691 325.115C220.801 327.605 221.023 330.095 221.355 332.585H221.853C222.572 332.364 223.54 332.253 224.758 332.253C225.754 332.253 226.528 332.281 227.082 332.336L229.489 332.419ZM254.059 274.651C254.059 279.022 254.031 282.868 253.976 286.188C253.92 289.508 253.865 292.247 253.81 294.405C253.588 303.148 253.478 309.732 253.478 314.159C253.478 321.518 253.644 327.66 253.976 332.585C253.478 333.083 252.841 333.415 252.067 333.581C251.292 333.802 250.324 333.913 249.162 333.913C248.055 333.913 246.45 333.802 244.348 333.581C243.794 333.526 243.186 333.47 242.522 333.415C241.913 333.36 241.277 333.332 240.613 333.332C239.783 333.332 239.174 333.415 238.787 333.581L238.04 333.249C238.261 329.044 238.372 324.34 238.372 319.139C238.372 314.27 238.289 309.428 238.123 304.614C238.067 302.954 238.012 300.907 237.957 298.472C237.901 295.982 237.874 293.077 237.874 289.757C237.874 286.99 237.957 284.196 238.123 281.374C238.344 276.781 238.676 274.264 239.119 273.821C240.668 273.821 242.217 273.904 243.767 274.07C244.32 274.125 244.984 274.181 245.759 274.236C246.533 274.291 247.446 274.319 248.498 274.319L253.644 274.236L254.059 274.651ZM252.648 314.242C252.648 309.926 252.675 306.136 252.731 302.871C252.786 299.606 252.841 296.895 252.897 294.737C253.118 285.994 253.229 279.437 253.229 275.066L248.415 275.149C247.751 275.149 246.948 275.121 246.008 275.066C245.122 275.011 244.458 274.955 244.016 274.9C242.522 274.734 241.028 274.651 239.534 274.651C239.036 278.856 238.787 283.726 238.787 289.259C238.787 292.192 238.814 294.792 238.87 297.061C238.925 299.274 238.98 301.1 239.036 302.539C239.202 306.91 239.285 311.337 239.285 315.819C239.285 320.799 239.146 326.471 238.87 332.834C239.644 332.723 240.336 332.668 240.945 332.668C241.609 332.668 242.826 332.723 244.597 332.834C246.478 332.945 247.889 333 248.83 333C249.438 333 250.296 332.889 251.403 332.668C252.011 332.502 252.592 332.419 253.146 332.419C252.814 327.55 252.648 321.491 252.648 314.242ZM288.152 294.737C286.216 294.737 284.334 294.488 282.508 293.99L282.259 293.492C282.315 293.271 282.342 292.994 282.342 292.662C282.342 291.334 281.817 290.255 280.765 289.425C279.714 288.595 278.524 288.18 277.196 288.18C275.979 288.18 274.9 288.567 273.959 289.342C273.019 290.117 272.548 291.223 272.548 292.662C272.548 294.156 272.991 295.18 273.876 295.733C274.817 296.231 276.117 296.591 277.777 296.812C278.552 296.923 279.133 297.033 279.52 297.144C284.5 298.472 288.401 300.851 291.223 304.282C294.101 307.713 295.539 311.586 295.539 315.902C295.539 319.665 294.709 322.929 293.049 325.696C291.389 328.407 289.148 330.455 286.326 331.838C283.56 333.221 280.544 333.913 277.279 333.913C273.959 333.913 270.778 333.249 267.734 331.921C264.691 330.593 262.201 328.684 260.264 326.194C258.328 323.704 257.359 320.771 257.359 317.396C257.359 316.4 257.581 315.791 258.023 315.57C258.466 315.349 259.296 315.238 260.513 315.238H264.165C268.26 315.238 270.501 315.432 270.888 315.819C270.999 317.368 271.608 318.586 272.714 319.471C273.821 320.301 275.094 320.716 276.532 320.716C277.86 320.716 278.995 320.356 279.935 319.637C280.876 318.862 281.346 317.783 281.346 316.4C281.346 313.965 280.378 312.25 278.441 311.254C276.56 310.258 273.987 309.483 270.722 308.93C270.612 308.875 269.754 308.681 268.149 308.349C266.379 307.906 264.719 306.91 263.169 305.361C261.675 303.756 260.458 301.903 259.517 299.8C258.632 297.697 258.189 295.733 258.189 293.907C258.189 290.31 258.992 287.046 260.596 284.113C262.201 281.125 264.47 278.773 267.402 277.058C270.335 275.343 273.766 274.485 277.694 274.485C280.793 274.485 283.726 275.038 286.492 276.145C289.314 277.252 291.583 278.939 293.298 281.208C295.069 283.421 295.954 286.133 295.954 289.342C295.954 290.227 295.844 291.666 295.622 293.658C294.903 294.377 292.413 294.737 288.152 294.737ZM288.318 293.99C289.757 293.99 291.915 293.769 294.792 293.326C295.069 291.777 295.207 290.393 295.207 289.176C295.207 286.243 294.35 283.726 292.634 281.623C290.919 279.52 288.678 277.943 285.911 276.892C283.2 275.785 280.378 275.232 277.445 275.232C273.904 275.232 270.722 276.062 267.9 277.722C265.134 279.327 262.948 281.54 261.343 284.362C259.794 287.129 259.019 290.144 259.019 293.409C259.019 295.124 259.407 297.006 260.181 299.053C260.956 301.1 262.035 302.926 263.418 304.531C264.857 306.08 266.462 307.076 268.232 307.519C268.841 307.685 269.809 307.879 271.137 308.1C273.406 308.543 275.287 309.013 276.781 309.511C278.275 309.954 279.548 310.728 280.599 311.835C281.706 312.942 282.259 314.463 282.259 316.4C282.259 318.005 281.678 319.277 280.516 320.218C279.354 321.103 277.999 321.546 276.449 321.546C274.845 321.546 273.406 321.076 272.133 320.135C270.861 319.194 270.169 317.894 270.058 316.234C268.177 316.234 266.766 316.206 265.825 316.151L261.509 316.068C260.015 316.068 258.909 316.123 258.189 316.234C258.189 319.665 259.047 322.653 260.762 325.198C262.533 327.743 264.857 329.68 267.734 331.008C270.667 332.336 273.849 333 277.279 333C280.378 333 283.255 332.364 285.911 331.091C288.567 329.763 290.698 327.826 292.302 325.281C293.907 322.68 294.709 319.582 294.709 315.985C294.709 312.444 293.686 309.207 291.638 306.274C289.646 303.341 286.88 301.017 283.338 299.302C282.785 299.025 282.038 298.804 281.097 298.638C280.212 298.417 279.631 298.278 279.354 298.223C276.864 297.78 274.955 297.199 273.627 296.48C272.355 295.761 271.718 294.516 271.718 292.745C271.718 291.03 272.244 289.729 273.295 288.844C274.402 287.903 275.675 287.433 277.113 287.433C278.718 287.433 280.129 287.903 281.346 288.844C282.619 289.785 283.255 290.974 283.255 292.413L283.172 293.243C284.832 293.741 286.548 293.99 288.318 293.99Z" fill="black"/>
<path d="M951.54 195.48L950.76 221.4L951.42 235.68L944.34 237.18L926.46 208.26V221.4L927.3 237H919.8L920.52 222.42L919.8 195.78L927 195.42L944.82 224.76L944.22 196.38L951.54 195.48ZM977.967 195C982.687 195 986.567 196.8 989.607 200.4C992.687 204 994.227 208.58 994.227 214.14C994.227 221.18 992.407 226.86 988.767 231.18C985.127 235.5 980.347 237.66 974.427 237.66C969.827 237.66 965.967 235.82 962.847 232.14C959.727 228.42 958.167 223.84 958.167 218.4C958.167 211.6 960.027 206 963.747 201.6C967.467 197.2 972.207 195 977.967 195ZM986.067 217.5C986.067 207.38 982.747 202.32 976.107 202.32C973.067 202.32 970.667 203.46 968.907 205.74C967.187 207.98 966.327 211.36 966.327 215.88C966.327 220.36 967.247 224.06 969.087 226.98C970.967 229.86 973.427 231.3 976.467 231.3C979.547 231.3 981.907 230.08 983.547 227.64C985.227 225.16 986.067 221.78 986.067 217.5ZM996.035 202.5L996.695 195.6H1025.2L1024.54 202.5L1014.1 201.6L1013.86 221.4L1014.58 237H1006.18L1006.9 222.42L1006.66 201.66L996.035 202.5Z" fill="white"/>
<path d="M917.845 274.07C925.592 274.07 931.761 274.291 936.354 274.734V283.2C936.354 285.69 936.077 287.488 935.524 288.595C934.583 288.374 933.477 288.263 932.204 288.263C931.374 288.263 930.24 288.318 928.801 288.429C927.252 288.54 926.145 288.595 925.481 288.595L925.398 293.575C925.343 294.682 925.315 296.314 925.315 298.472C925.315 302.235 925.426 307.934 925.647 315.57C925.702 317.451 925.758 319.803 925.813 322.625C925.868 325.447 925.896 328.739 925.896 332.502C925.675 333.055 924.485 333.332 922.327 333.332L919.09 333.249C917.541 333.138 916.434 333.083 915.77 333.083C914.276 333.083 913.003 333.221 911.952 333.498C911.509 333.221 911.288 332.64 911.288 331.755C911.288 330.704 911.343 329.127 911.454 327.024L911.537 322.293V311.337C911.537 301.654 911.454 294.35 911.288 289.425C910.624 289.093 909.822 288.844 908.881 288.678C907.94 288.457 907.055 288.346 906.225 288.346L902.158 288.429C901.383 288.429 900.858 288.152 900.581 287.599C900.36 286.99 900.249 286.133 900.249 285.026L900.332 282.868V278.801C900.332 278.524 900.332 277.971 900.332 277.141C900.332 276.256 900.387 275.426 900.498 274.651H900.415L900.83 274.153L917.845 274.07ZM935.192 287.682C935.413 285.69 935.524 283.421 935.524 280.876C935.524 278.607 935.496 276.892 935.441 275.73C929.576 275.177 922.521 274.9 914.276 274.9L901.245 274.983C901.024 275.868 900.913 277.999 900.913 281.374C900.913 284.639 901.107 286.658 901.494 287.433C902.158 287.599 902.933 287.682 903.818 287.682L907.138 287.599C908.245 287.599 909.379 287.765 910.541 288.097C911.703 288.429 912.284 288.927 912.284 289.591C912.284 291.251 912.256 292.634 912.201 293.741L912.118 299.302C912.118 301.847 912.173 305.665 912.284 310.756L912.367 322.21C912.367 322.763 912.312 323.87 912.201 325.53C912.09 327.522 912.035 329.016 912.035 330.012C912.035 330.731 912.09 331.589 912.201 332.585C912.976 332.419 914.138 332.336 915.687 332.336C916.96 332.336 917.928 332.364 918.592 332.419L921.497 332.502C922.77 332.502 923.932 332.391 924.983 332.17C924.651 323.981 924.485 313.661 924.485 301.211V292.413V289.674C924.485 289.397 924.485 289.148 924.485 288.927C924.54 288.65 924.596 288.457 924.651 288.346V288.429C924.651 287.765 926.837 287.433 931.208 287.433C932.979 287.433 934.307 287.516 935.192 287.682ZM924.817 288.014L924.9 287.931L924.734 288.18L924.817 288.014ZM976.141 332.502L975.809 332.917C974.481 333.249 972.738 333.415 970.58 333.415L965.268 333.332C965.102 333.387 964.88 333.415 964.604 333.415C964.272 333.415 964.023 333.36 963.857 333.249C963.746 333.194 963.663 333.138 963.608 333.083C963.165 330.095 962.944 326.166 962.944 321.297C962.944 320.799 962.916 319.388 962.861 317.064C962.805 314.74 962.639 312.527 962.363 310.424C960.813 310.147 959.43 310.009 958.213 310.009C956.663 310.009 955.059 310.175 953.399 310.507C953.177 312.056 953.067 313.827 953.067 315.819C953.067 316.981 953.122 318.779 953.233 321.214C953.343 323.649 953.399 325.447 953.399 326.609C953.399 328.933 953.26 330.925 952.984 332.585C952.873 332.585 952.818 332.64 952.818 332.751C952.043 333.249 951.019 333.498 949.747 333.498C949.027 333.498 947.948 333.387 946.51 333.166C945.071 332.945 944.103 332.834 943.605 332.834C942.885 332.834 942.194 332.972 941.53 333.249C940.589 332.917 940.119 329.791 940.119 323.87V319.056C940.119 315.238 940.008 309.566 939.787 302.041C939.565 294.516 939.455 288.816 939.455 284.943C939.455 283.449 939.482 281.429 939.538 278.884C939.593 276.283 939.648 274.983 939.704 274.983V275.066L940.119 274.568C940.672 274.568 941.198 274.596 941.696 274.651C942.249 274.706 942.83 274.734 943.439 274.734L945.846 274.651C946.952 274.54 947.782 274.485 948.336 274.485C950.051 274.485 951.047 274.734 951.324 275.232C951.6 277.058 951.794 279.022 951.905 281.125C952.015 283.228 952.071 284.556 952.071 285.109C952.181 289.702 952.43 293.132 952.818 295.401H952.735L952.984 296.729C954.09 296.95 955.363 297.061 956.802 297.061C958.296 297.061 959.817 296.923 961.367 296.646C961.754 291.5 961.948 287.046 961.948 283.283C961.948 280.682 961.865 278.054 961.699 275.398C962.197 274.9 963.359 274.485 965.185 274.153C967.011 273.821 968.643 273.655 970.082 273.655C971.078 273.655 971.88 273.766 972.489 273.987H973.485C973.485 273.987 973.623 274.125 973.9 274.402L976.141 332.502ZM972.489 332.419C973.429 332.419 974.37 332.336 975.311 332.17L973.07 274.817C972.682 274.817 972.35 274.789 972.074 274.734C968.754 274.734 965.572 275.038 962.529 275.647C962.695 278.137 962.778 280.627 962.778 283.117C962.778 287.046 962.584 291.666 962.197 296.978C961.92 297.255 961.782 297.393 961.782 297.393H961.948C961.505 297.393 960.564 297.476 959.126 297.642C957.742 297.808 956.636 297.891 955.806 297.891C954.422 297.891 953.233 297.642 952.237 297.144C951.849 294.654 951.545 290.947 951.324 286.022C951.102 281.374 950.826 277.888 950.494 275.564C950.106 275.509 949.525 275.481 948.751 275.481C948.087 275.481 947.091 275.536 945.763 275.647C944.435 275.758 943.494 275.813 942.941 275.813C942 275.813 941.198 275.702 940.534 275.481C940.368 279.465 940.285 283.421 940.285 287.35C940.285 295.595 940.34 302.843 940.451 309.096C940.617 315.293 940.921 321.38 941.364 327.356C941.364 328.075 941.391 328.629 941.447 329.016C941.447 330.51 941.502 331.617 941.613 332.336C942.221 332.17 942.802 332.087 943.356 332.087C944.02 332.087 945.071 332.198 946.51 332.419C947.838 332.64 948.861 332.751 949.581 332.751C950.577 332.751 951.434 332.557 952.154 332.17C952.43 330.51 952.569 328.463 952.569 326.028L952.486 320.799C952.375 318.475 952.32 316.732 952.32 315.57C952.32 313.523 952.43 311.697 952.652 310.092C953.094 309.871 954.007 309.649 955.391 309.428C956.774 309.207 958.157 309.096 959.541 309.096C961.256 309.096 962.418 309.317 963.027 309.76C963.193 309.926 963.331 310.756 963.442 312.25C963.552 313.744 963.608 314.878 963.608 315.653C963.608 319.416 963.635 322.57 963.691 325.115C963.801 327.605 964.023 330.095 964.355 332.585H964.853C965.572 332.364 966.54 332.253 967.758 332.253C968.754 332.253 969.528 332.281 970.082 332.336L972.489 332.419ZM997.059 274.651C997.059 279.022 997.031 282.868 996.976 286.188C996.92 289.508 996.865 292.247 996.81 294.405C996.588 303.148 996.478 309.732 996.478 314.159C996.478 321.518 996.644 327.66 996.976 332.585C996.478 333.083 995.841 333.415 995.067 333.581C994.292 333.802 993.324 333.913 992.162 333.913C991.055 333.913 989.45 333.802 987.348 333.581C986.794 333.526 986.186 333.47 985.522 333.415C984.913 333.36 984.277 333.332 983.613 333.332C982.783 333.332 982.174 333.415 981.787 333.581L981.04 333.249C981.261 329.044 981.372 324.34 981.372 319.139C981.372 314.27 981.289 309.428 981.123 304.614C981.067 302.954 981.012 300.907 980.957 298.472C980.901 295.982 980.874 293.077 980.874 289.757C980.874 286.99 980.957 284.196 981.123 281.374C981.344 276.781 981.676 274.264 982.119 273.821C983.668 273.821 985.217 273.904 986.767 274.07C987.32 274.125 987.984 274.181 988.759 274.236C989.533 274.291 990.446 274.319 991.498 274.319L996.644 274.236L997.059 274.651ZM995.648 314.242C995.648 309.926 995.675 306.136 995.731 302.871C995.786 299.606 995.841 296.895 995.897 294.737C996.118 285.994 996.229 279.437 996.229 275.066L991.415 275.149C990.751 275.149 989.948 275.121 989.008 275.066C988.122 275.011 987.458 274.955 987.016 274.9C985.522 274.734 984.028 274.651 982.534 274.651C982.036 278.856 981.787 283.726 981.787 289.259C981.787 292.192 981.814 294.792 981.87 297.061C981.925 299.274 981.98 301.1 982.036 302.539C982.202 306.91 982.285 311.337 982.285 315.819C982.285 320.799 982.146 326.471 981.87 332.834C982.644 332.723 983.336 332.668 983.945 332.668C984.609 332.668 985.826 332.723 987.597 332.834C989.478 332.945 990.889 333 991.83 333C992.438 333 993.296 332.889 994.403 332.668C995.011 332.502 995.592 332.419 996.146 332.419C995.814 327.55 995.648 321.491 995.648 314.242ZM1031.15 294.737C1029.22 294.737 1027.33 294.488 1025.51 293.99L1025.26 293.492C1025.31 293.271 1025.34 292.994 1025.34 292.662C1025.34 291.334 1024.82 290.255 1023.77 289.425C1022.71 288.595 1021.52 288.18 1020.2 288.18C1018.98 288.18 1017.9 288.567 1016.96 289.342C1016.02 290.117 1015.55 291.223 1015.55 292.662C1015.55 294.156 1015.99 295.18 1016.88 295.733C1017.82 296.231 1019.12 296.591 1020.78 296.812C1021.55 296.923 1022.13 297.033 1022.52 297.144C1027.5 298.472 1031.4 300.851 1034.22 304.282C1037.1 307.713 1038.54 311.586 1038.54 315.902C1038.54 319.665 1037.71 322.929 1036.05 325.696C1034.39 328.407 1032.15 330.455 1029.33 331.838C1026.56 333.221 1023.54 333.913 1020.28 333.913C1016.96 333.913 1013.78 333.249 1010.73 331.921C1007.69 330.593 1005.2 328.684 1003.26 326.194C1001.33 323.704 1000.36 320.771 1000.36 317.396C1000.36 316.4 1000.58 315.791 1001.02 315.57C1001.47 315.349 1002.3 315.238 1003.51 315.238H1007.17C1011.26 315.238 1013.5 315.432 1013.89 315.819C1014 317.368 1014.61 318.586 1015.71 319.471C1016.82 320.301 1018.09 320.716 1019.53 320.716C1020.86 320.716 1021.99 320.356 1022.94 319.637C1023.88 318.862 1024.35 317.783 1024.35 316.4C1024.35 313.965 1023.38 312.25 1021.44 311.254C1019.56 310.258 1016.99 309.483 1013.72 308.93C1013.61 308.875 1012.75 308.681 1011.15 308.349C1009.38 307.906 1007.72 306.91 1006.17 305.361C1004.68 303.756 1003.46 301.903 1002.52 299.8C1001.63 297.697 1001.19 295.733 1001.19 293.907C1001.19 290.31 1001.99 287.046 1003.6 284.113C1005.2 281.125 1007.47 278.773 1010.4 277.058C1013.33 275.343 1016.77 274.485 1020.69 274.485C1023.79 274.485 1026.73 275.038 1029.49 276.145C1032.31 277.252 1034.58 278.939 1036.3 281.208C1038.07 283.421 1038.95 286.133 1038.95 289.342C1038.95 290.227 1038.84 291.666 1038.62 293.658C1037.9 294.377 1035.41 294.737 1031.15 294.737ZM1031.32 293.99C1032.76 293.99 1034.91 293.769 1037.79 293.326C1038.07 291.777 1038.21 290.393 1038.21 289.176C1038.21 286.243 1037.35 283.726 1035.63 281.623C1033.92 279.52 1031.68 277.943 1028.91 276.892C1026.2 275.785 1023.38 275.232 1020.45 275.232C1016.9 275.232 1013.72 276.062 1010.9 277.722C1008.13 279.327 1005.95 281.54 1004.34 284.362C1002.79 287.129 1002.02 290.144 1002.02 293.409C1002.02 295.124 1002.41 297.006 1003.18 299.053C1003.96 301.1 1005.03 302.926 1006.42 304.531C1007.86 306.08 1009.46 307.076 1011.23 307.519C1011.84 307.685 1012.81 307.879 1014.14 308.1C1016.41 308.543 1018.29 309.013 1019.78 309.511C1021.28 309.954 1022.55 310.728 1023.6 311.835C1024.71 312.942 1025.26 314.463 1025.26 316.4C1025.26 318.005 1024.68 319.277 1023.52 320.218C1022.35 321.103 1021 321.546 1019.45 321.546C1017.84 321.546 1016.41 321.076 1015.13 320.135C1013.86 319.194 1013.17 317.894 1013.06 316.234C1011.18 316.234 1009.77 316.206 1008.83 316.151L1004.51 316.068C1003.02 316.068 1001.91 316.123 1001.19 316.234C1001.19 319.665 1002.05 322.653 1003.76 325.198C1005.53 327.743 1007.86 329.68 1010.73 331.008C1013.67 332.336 1016.85 333 1020.28 333C1023.38 333 1026.26 332.364 1028.91 331.091C1031.57 329.763 1033.7 327.826 1035.3 325.281C1036.91 322.68 1037.71 319.582 1037.71 315.985C1037.71 312.444 1036.69 309.207 1034.64 306.274C1032.65 303.341 1029.88 301.017 1026.34 299.302C1025.78 299.025 1025.04 298.804 1024.1 298.638C1023.21 298.417 1022.63 298.278 1022.35 298.223C1019.86 297.78 1017.96 297.199 1016.63 296.48C1015.35 295.761 1014.72 294.516 1014.72 292.745C1014.72 291.03 1015.24 289.729 1016.3 288.844C1017.4 287.903 1018.67 287.433 1020.11 287.433C1021.72 287.433 1023.13 287.903 1024.35 288.844C1025.62 289.785 1026.26 290.974 1026.26 292.413L1026.17 293.243C1027.83 293.741 1029.55 293.99 1031.32 293.99Z" fill="black"/>
<path d="M218.5 361C218.5 359.619 217.381 358.5 216 358.5C214.619 358.5 213.5 359.619 213.5 361L218.5 361ZM338.857 510.674C339.781 509.648 339.699 508.068 338.674 507.143L321.962 492.077C320.937 491.153 319.356 491.235 318.432 492.26C317.507 493.286 317.589 494.867 318.615 495.791L333.469 509.183L320.077 524.038C319.153 525.063 319.235 526.644 320.26 527.568C321.286 528.493 322.867 528.411 323.791 527.385L338.857 510.674ZM213.5 361C213.5 435.394 233.403 473.875 259.312 493.312C285.105 512.662 316.176 512.582 337.129 511.497L336.871 506.503C315.991 507.585 286.561 507.504 262.313 489.313C238.18 471.208 218.5 434.606 218.5 361L213.5 361Z" fill="black"/>
<path d="M976.5 351.5C976.5 350.119 975.381 349 974 349C972.619 349 971.5 350.119 971.5 351.5H976.5ZM863.732 517.232C862.756 518.209 862.756 519.791 863.732 520.768L879.642 536.678C880.618 537.654 882.201 537.654 883.178 536.678C884.154 535.701 884.154 534.118 883.178 533.142L869.036 519L883.178 504.858C884.154 503.882 884.154 502.299 883.178 501.322C882.201 500.346 880.618 500.346 879.642 501.322L863.732 517.232ZM971.5 351.5C971.5 435.078 955.378 476.063 934.511 496.266C913.703 516.413 887.607 516.5 865.5 516.5V521.5C887.393 521.5 915.547 521.587 937.989 499.859C960.372 478.187 976.5 435.422 976.5 351.5H971.5Z" fill="black"/>
</g>
<defs>
<clipPath id="clip0_104_2">
<rect width="1200" height="675" fill="white"/>
</clipPath>
<clipPath id="clip1_104_2">
<rect width="114" height="130" fill="white" transform="translate(372 445)"/>
</clipPath>
</defs>
</svg>
