<svg xmlns="http://www.w3.org/2000/svg" width="1200" height="675" fill="none" viewBox="0 0 1200 675"><rect width="1200" height="675" fill="#fff"/><g clip-path="url(#clip0_8_2)"><path fill="#23224C" d="M499.127 333.067C490.127 333.174 481.552 330.125 475.819 324.778V354.391H458.231V281.343H474.11L474.706 289.372C480.339 283.355 489.412 279.821 499.041 279.898C516.802 279.898 529.778 291.349 529.778 306.482C529.778 321.616 516.802 333.067 499.041 333.067H499.127ZM493.666 289.965C483.421 289.965 475.051 296.15 475.051 306.482C475.051 316.815 483.335 323.067 493.666 323.067C503.998 323.067 512.282 316.881 512.282 306.482C512.276 296.083 503.912 289.965 493.666 289.965ZM596.043 331.683L595.447 323.654C589.78 329.666 580.668 333.18 571.026 333.062C553.351 333.062 540.289 321.677 540.289 306.477C540.289 291.277 553.351 279.892 571.026 279.892C580.244 279.892 589.979 283.182 595.361 289.367L596.043 281.338H611.922V331.612L596.043 331.683ZM576.486 289.965C566.241 289.965 557.871 296.15 557.871 306.482C557.871 316.815 566.241 323.067 576.486 323.067C586.732 323.067 595.102 316.881 595.102 306.482C595.102 296.083 586.818 289.965 576.486 289.965ZM673.316 331.683V303.847C673.316 293.974 668.876 290.751 660.937 290.751C652.566 290.751 643.52 296.609 643.52 303.581V331.678H625.932V281.338H641.983L642.752 290.618C647.755 283.994 656.967 279.928 666.914 279.959C684.331 279.959 690.825 289.239 690.825 301.676V331.683H673.316ZM755.195 331.683L754.512 323.72C748.846 329.732 739.734 333.246 730.091 333.128C712.417 333.128 699.354 321.744 699.354 306.61C699.354 291.476 712.417 280.025 730.091 280.025C738.886 280.025 747.852 282.788 753.399 288.253V261.735H770.988V331.688H755.195V331.683ZM735.645 289.965C725.399 289.965 717.029 296.15 717.029 306.482C717.029 316.815 725.485 323.067 735.731 323.067C745.977 323.067 754.347 316.881 754.347 306.549C754.347 296.216 746.063 289.965 735.731 289.965H735.645ZM836.994 331.683L836.398 323.654C830.765 329.671 821.692 333.205 812.063 333.128C794.302 333.128 781.326 321.677 781.326 306.544C781.326 291.41 794.302 279.959 812.063 279.959C821.281 279.959 830.931 283.248 836.398 289.367L836.994 281.338H852.873V331.678H836.994V331.683ZM817.444 289.965C807.199 289.965 798.915 296.15 798.828 306.549C798.742 316.948 807.199 323.067 817.444 323.067C827.69 323.067 836.06 316.881 836.06 306.482C836.06 296.083 827.776 290.031 817.444 290.031V289.965ZM891.728 333.333C882.51 333.266 873.484 331.285 865.604 327.607L868.507 318.327C875.339 321.749 883.279 323.72 891.477 323.92C898.395 323.92 903.26 322.275 903.26 318.061C903.26 314.44 898.309 313.194 889.343 311.544C873.292 308.914 867.572 302.33 867.572 295.225C867.572 287.329 875.598 279.826 893.273 279.826C904.029 279.826 913.426 283.447 915.474 284.433L912.571 293.249C906.852 290.618 900.364 289.168 893.703 289.035C886.619 289.035 883.113 290.879 883.113 293.902C883.113 297.325 887.639 298.836 894.638 300.088C911.888 302.917 918.8 309.103 918.8 315.88C918.794 326.683 908.548 333.333 891.728 333.333ZM314.699 246.995H335.277V279.898H314.699V246.995ZM314.699 314.639H335.277V347.542H314.699V314.639Z"/><path fill="#FEC902" d="M314.699 289.505H335.277V305.037H314.699V289.505Z"/><path fill="#23224C" d="M281.656 274.039H302.233V383.474H281.656V274.039ZM347.06 341.755H367.637V374.658H347.06V341.755ZM347.06 274.106H367.637V307.008H347.06V274.106Z"/><path fill="#E21A84" d="M347.06 316.616H367.637V332.148H347.06V316.616Z"/><path fill="#23224C" d="M379.42 238.44H399.998V347.874H379.42V238.44Z"/></g><path fill="#000" d="M250.161 113V76.6364H264.507C267.265 76.6364 269.615 77.1631 271.556 78.2166C273.497 79.2583 274.977 80.7083 275.995 82.5668C277.025 84.4134 277.54 86.544 277.54 88.9588C277.54 91.3736 277.019 93.5043 275.977 95.3509C274.936 97.1974 273.426 98.6357 271.45 99.6655C269.485 100.695 267.105 101.21 264.312 101.21H255.168V95.049H263.069C264.549 95.049 265.768 94.7945 266.727 94.2855C267.697 93.7647 268.419 93.0485 268.893 92.1371C269.378 91.2138 269.621 90.1544 269.621 88.9588C269.621 87.7514 269.378 86.6979 268.893 85.7983C268.419 84.8868 267.697 84.1825 266.727 83.6854C265.756 83.1764 264.525 82.9219 263.033 82.9219H257.849V113H250.161ZM280.403 76.6364H289.014L297.306 92.2969H297.661L305.953 76.6364H314.565L301.301 100.145V113H293.666V100.145L280.403 76.6364ZM319.674 82.9751V76.6364H349.539V82.9751H338.406V113H330.807V82.9751H319.674ZM354.457 113V76.6364H362.146V91.6399H377.753V76.6364H385.423V113H377.753V97.9787H362.146V113H354.457ZM425.178 94.8182C425.178 98.7836 424.427 102.157 422.923 104.939C421.432 107.721 419.396 109.845 416.815 111.313C414.247 112.769 411.358 113.497 408.151 113.497C404.919 113.497 402.019 112.763 399.45 111.295C396.882 109.828 394.852 107.703 393.36 104.921C391.869 102.139 391.123 98.7718 391.123 94.8182C391.123 90.8527 391.869 87.4792 393.36 84.6974C394.852 81.9157 396.882 79.7969 399.45 78.3409C402.019 76.8731 404.919 76.1392 408.151 76.1392C411.358 76.1392 414.247 76.8731 416.815 78.3409C419.396 79.7969 421.432 81.9157 422.923 84.6974C424.427 87.4792 425.178 90.8527 425.178 94.8182ZM417.384 94.8182C417.384 92.2495 416.999 90.0833 416.229 88.3196C415.472 86.5559 414.401 85.2183 413.016 84.3068C411.631 83.3954 410.009 82.9396 408.151 82.9396C406.292 82.9396 404.67 83.3954 403.286 84.3068C401.901 85.2183 400.823 86.5559 400.054 88.3196C399.296 90.0833 398.918 92.2495 398.918 94.8182C398.918 97.3868 399.296 99.553 400.054 101.317C400.823 103.08 401.901 104.418 403.286 105.33C404.67 106.241 406.292 106.697 408.151 106.697C410.009 106.697 411.631 106.241 413.016 105.33C414.401 104.418 415.472 103.08 416.229 101.317C416.999 99.553 417.384 97.3868 417.384 94.8182ZM461.289 76.6364V113H454.648L438.828 90.1129H438.562V113H430.873V76.6364H437.621L453.317 99.5057H453.636V76.6364H461.289ZM479.213 113V76.6364H503.29V82.9751H486.901V91.6399H501.692V97.9787H486.901V113H479.213ZM541.877 94.8182C541.877 98.7836 541.126 102.157 539.623 104.939C538.131 107.721 536.095 109.845 533.515 111.313C530.946 112.769 528.058 113.497 524.85 113.497C521.618 113.497 518.718 112.763 516.15 111.295C513.581 109.828 511.551 107.703 510.059 104.921C508.568 102.139 507.822 98.7718 507.822 94.8182C507.822 90.8527 508.568 87.4792 510.059 84.6974C511.551 81.9157 513.581 79.7969 516.15 78.3409C518.718 76.8731 521.618 76.1392 524.85 76.1392C528.058 76.1392 530.946 76.8731 533.515 78.3409C536.095 79.7969 538.131 81.9157 539.623 84.6974C541.126 87.4792 541.877 90.8527 541.877 94.8182ZM534.083 94.8182C534.083 92.2495 533.698 90.0833 532.929 88.3196C532.171 86.5559 531.1 85.2183 529.715 84.3068C528.33 83.3954 526.708 82.9396 524.85 82.9396C522.991 82.9396 521.37 83.3954 519.985 84.3068C518.6 85.2183 517.523 86.5559 516.753 88.3196C515.996 90.0833 515.617 92.2495 515.617 94.8182C515.617 97.3868 515.996 99.553 516.753 101.317C517.523 103.08 518.6 104.418 519.985 105.33C521.37 106.241 522.991 106.697 524.85 106.697C526.708 106.697 528.33 106.241 529.715 105.33C531.1 104.418 532.171 103.08 532.929 101.317C533.698 99.553 534.083 97.3868 534.083 94.8182ZM547.573 113V76.6364H561.919C564.665 76.6364 567.009 77.1276 568.95 78.1101C570.904 79.0807 572.389 80.4598 573.407 82.2472C574.437 84.0227 574.952 86.112 574.952 88.5149C574.952 90.9297 574.431 93.0071 573.389 94.7472C572.348 96.4754 570.838 97.8011 568.862 98.7244C566.897 99.6477 564.517 100.109 561.724 100.109H552.118V93.9304H560.481C561.949 93.9304 563.168 93.7292 564.139 93.3267C565.109 92.9242 565.831 92.3205 566.305 91.5156C566.79 90.7107 567.033 89.7105 567.033 88.5149C567.033 87.3075 566.79 86.2895 566.305 85.4609C565.831 84.6323 565.103 84.005 564.121 83.5788C563.15 83.1409 561.925 82.9219 560.445 82.9219H555.261V113H547.573ZM567.21 96.4517L576.248 113H567.761L558.919 96.4517H567.21ZM604.848 113H591.957V76.6364H604.955C608.612 76.6364 611.761 77.3643 614.401 78.8203C617.04 80.2644 619.07 82.3419 620.491 85.0526C621.923 87.7633 622.639 91.0066 622.639 94.7827C622.639 98.5705 621.923 101.826 620.491 104.548C619.07 107.271 617.028 109.36 614.365 110.816C611.714 112.272 608.541 113 604.848 113ZM599.646 106.413H604.528C606.801 106.413 608.713 106.01 610.263 105.205C611.826 104.388 612.998 103.128 613.779 101.423C614.572 99.7069 614.969 97.4934 614.969 94.7827C614.969 92.0956 614.572 89.8999 613.779 88.1953C612.998 86.4908 611.832 85.236 610.281 84.4311C608.731 83.6262 606.819 83.2237 604.546 83.2237H599.646V106.413ZM632.551 113H624.313L636.866 76.6364H646.774L659.309 113H651.07L641.962 84.946H641.678L632.551 113ZM632.036 98.7067H651.497V104.708H632.036V98.7067ZM657.858 82.9751V76.6364H687.723V82.9751H676.59V113H668.99V82.9751H657.858ZM694.465 113H686.227L698.78 76.6364H708.688L721.223 113H712.985L703.876 84.946H703.592L694.465 113ZM693.95 98.7067H713.411V104.708H693.95V98.7067ZM756.899 87.0945C756.757 85.6622 756.147 84.5495 755.07 83.7564C753.993 82.9633 752.531 82.5668 750.684 82.5668C749.43 82.5668 748.37 82.7443 747.506 83.0994C746.642 83.4427 745.979 83.9221 745.517 84.5376C745.068 85.1532 744.843 85.8516 744.843 86.6328C744.819 87.2839 744.955 87.852 745.251 88.3374C745.559 88.8227 745.979 89.2429 746.512 89.598C747.044 89.9413 747.66 90.2431 748.358 90.5036C749.057 90.7521 749.802 90.9652 750.596 91.1428L753.863 91.924C755.449 92.2791 756.905 92.7526 758.23 93.3445C759.556 93.9363 760.704 94.6643 761.675 95.5284C762.646 96.3925 763.397 97.4105 763.93 98.5824C764.475 99.7543 764.753 101.098 764.765 102.613C764.753 104.838 764.185 106.768 763.06 108.401C761.947 110.023 760.337 111.284 758.23 112.183C756.135 113.071 753.608 113.515 750.649 113.515C747.713 113.515 745.156 113.065 742.978 112.165C740.812 111.266 739.119 109.934 737.9 108.17C736.693 106.395 736.06 104.199 736 101.583H743.44C743.523 102.802 743.872 103.82 744.488 104.637C745.115 105.442 745.949 106.052 746.991 106.466C748.045 106.868 749.234 107.07 750.56 107.07C751.862 107.07 752.993 106.88 753.951 106.501C754.922 106.123 755.674 105.596 756.206 104.921C756.739 104.246 757.005 103.471 757.005 102.595C757.005 101.778 756.763 101.092 756.277 100.536C755.804 99.9792 755.105 99.5057 754.182 99.1151C753.271 98.7244 752.152 98.3693 750.826 98.0497L746.867 97.0554C743.801 96.3097 741.38 95.1437 739.605 93.5575C737.829 91.9714 736.947 89.8348 736.959 87.1477C736.947 84.946 737.533 83.0225 738.717 81.3771C739.913 79.7318 741.552 78.4474 743.635 77.5241C745.719 76.6009 748.086 76.1392 750.738 76.1392C753.436 76.1392 755.792 76.6009 757.804 77.5241C759.828 78.4474 761.403 79.7318 762.527 81.3771C763.652 83.0225 764.232 84.9283 764.267 87.0945H756.899ZM802.02 89.3672H794.243C794.101 88.361 793.811 87.4673 793.373 86.6861C792.935 85.893 792.373 85.2183 791.687 84.6619C791 84.1056 790.207 83.6794 789.307 83.3835C788.42 83.0876 787.455 82.9396 786.413 82.9396C784.531 82.9396 782.892 83.4072 781.495 84.3423C780.098 85.2656 779.015 86.6151 778.246 88.3906C777.476 90.1544 777.091 92.2969 777.091 94.8182C777.091 97.4105 777.476 99.5885 778.246 101.352C779.027 103.116 780.116 104.448 781.513 105.347C782.909 106.247 784.525 106.697 786.36 106.697C787.39 106.697 788.343 106.561 789.219 106.288C790.106 106.016 790.894 105.62 791.58 105.099C792.267 104.566 792.835 103.921 793.285 103.163C793.746 102.406 794.066 101.542 794.243 100.571L802.02 100.607C801.819 102.276 801.316 103.885 800.511 105.436C799.718 106.975 798.647 108.354 797.297 109.573C795.96 110.781 794.362 111.739 792.503 112.45C790.657 113.148 788.568 113.497 786.236 113.497C782.992 113.497 780.092 112.763 777.535 111.295C774.99 109.828 772.978 107.703 771.498 104.921C770.031 102.139 769.297 98.7718 769.297 94.8182C769.297 90.8527 770.042 87.4792 771.534 84.6974C773.025 81.9157 775.05 79.7969 777.606 78.3409C780.163 76.8731 783.04 76.1392 786.236 76.1392C788.343 76.1392 790.296 76.4351 792.095 77.027C793.906 77.6188 795.51 78.483 796.907 79.6193C798.304 80.7438 799.44 82.1229 800.316 83.7564C801.204 85.3899 801.772 87.2602 802.02 89.3672ZM815.222 76.6364V113H807.534V76.6364H815.222ZM821.547 113V76.6364H846.05V82.9751H829.235V91.6399H844.789V97.9787H829.235V106.661H846.121V113H821.547ZM882.578 76.6364V113H875.937L860.117 90.1129H859.851V113H852.162V76.6364H858.91L874.606 99.5057H874.925V76.6364H882.578ZM921.015 89.3672H913.238C913.096 88.361 912.806 87.4673 912.368 86.6861C911.93 85.893 911.367 85.2183 910.681 84.6619C909.994 84.1056 909.201 83.6794 908.301 83.3835C907.414 83.0876 906.449 82.9396 905.407 82.9396C903.525 82.9396 901.886 83.4072 900.489 84.3423C899.092 85.2656 898.009 86.6151 897.24 88.3906C896.47 90.1544 896.086 92.2969 896.086 94.8182C896.086 97.4105 896.47 99.5885 897.24 101.352C898.021 103.116 899.11 104.448 900.507 105.347C901.904 106.247 903.519 106.697 905.354 106.697C906.384 106.697 907.337 106.561 908.213 106.288C909.1 106.016 909.888 105.62 910.574 105.099C911.261 104.566 911.829 103.921 912.279 103.163C912.74 102.406 913.06 101.542 913.238 100.571L921.015 100.607C920.813 102.276 920.31 103.885 919.505 105.436C918.712 106.975 917.641 108.354 916.292 109.573C914.954 110.781 913.356 111.739 911.498 112.45C909.651 113.148 907.562 113.497 905.23 113.497C901.986 113.497 899.086 112.763 896.529 111.295C893.984 109.828 891.972 107.703 890.493 104.921C889.025 102.139 888.291 98.7718 888.291 94.8182C888.291 90.8527 889.037 87.4792 890.528 84.6974C892.02 81.9157 894.044 79.7969 896.6 78.3409C899.157 76.8731 902.034 76.1392 905.23 76.1392C907.337 76.1392 909.29 76.4351 911.089 77.027C912.9 77.6188 914.504 78.483 915.901 79.6193C917.298 80.7438 918.434 82.1229 919.31 83.7564C920.198 85.3899 920.766 87.2602 921.015 89.3672ZM926.528 113V76.6364H951.031V82.9751H934.216V91.6399H949.77V97.9787H934.216V106.661H951.102V113H926.528Z"/><path fill="#000" d="M434.346 545L423.941 508.636H432.339L438.359 533.903H438.661L445.301 508.636H452.492L459.115 533.956H459.435L465.454 508.636H473.852L463.447 545H455.955L449.03 521.225H448.746L441.839 545H434.346ZM485.655 508.636V545H477.967V508.636H485.655ZM490.596 514.975V508.636H520.461V514.975H509.328V545H501.729V514.975H490.596ZM525.379 545V508.636H533.067V523.64H548.675V508.636H556.345V545H548.675V529.979H533.067V545H525.379ZM574.256 545V508.636H588.603C591.361 508.636 593.711 509.163 595.652 510.217C597.593 511.258 599.073 512.708 600.091 514.567C601.121 516.413 601.635 518.544 601.635 520.959C601.635 523.374 601.115 525.504 600.073 527.351C599.031 529.197 597.522 530.636 595.545 531.665C593.58 532.695 591.201 533.21 588.407 533.21H579.263V527.049H587.165C588.644 527.049 589.863 526.795 590.822 526.286C591.793 525.765 592.515 525.049 592.988 524.137C593.474 523.214 593.716 522.154 593.716 520.959C593.716 519.751 593.474 518.698 592.988 517.798C592.515 516.887 591.793 516.183 590.822 515.685C589.852 515.176 588.621 514.922 587.129 514.922H581.944V545H574.256ZM608.698 545H600.459L613.012 508.636H622.92L635.456 545H627.217L618.108 516.946H617.824L608.698 545ZM608.183 530.707H627.643V536.708H608.183V530.707ZM670.248 508.636V545H663.607L647.787 522.113H647.521V545H639.832V508.636H646.58L662.276 531.506H662.595V508.636H670.248ZM689.491 545H676.6V508.636H689.597C693.255 508.636 696.403 509.364 699.043 510.82C701.683 512.264 703.713 514.342 705.133 517.053C706.566 519.763 707.282 523.007 707.282 526.783C707.282 530.571 706.566 533.826 705.133 536.548C703.713 539.271 701.671 541.36 699.008 542.816C696.356 544.272 693.184 545 689.491 545ZM684.288 538.413H689.171C691.444 538.413 693.355 538.01 694.906 537.205C696.469 536.388 697.64 535.128 698.422 533.423C699.215 531.707 699.611 529.493 699.611 526.783C699.611 524.096 699.215 521.9 698.422 520.195C697.64 518.491 696.474 517.236 694.924 516.431C693.373 515.626 691.461 515.224 689.189 515.224H684.288V538.413ZM717.194 545H708.955L721.509 508.636H731.416L743.952 545H735.713L726.604 516.946H726.32L717.194 545ZM716.679 530.707H736.139V536.708H716.679V530.707ZM767.225 519.094C767.083 517.662 766.473 516.549 765.396 515.756C764.319 514.963 762.857 514.567 761.01 514.567C759.756 514.567 758.696 514.744 757.832 515.099C756.968 515.443 756.305 515.922 755.844 516.538C755.394 517.153 755.169 517.852 755.169 518.633C755.145 519.284 755.281 519.852 755.577 520.337C755.885 520.823 756.305 521.243 756.838 521.598C757.371 521.941 757.986 522.243 758.684 522.504C759.383 522.752 760.129 522.965 760.922 523.143L764.189 523.924C765.775 524.279 767.231 524.753 768.557 525.344C769.882 525.936 771.031 526.664 772.001 527.528C772.972 528.393 773.724 529.411 774.256 530.582C774.801 531.754 775.079 533.098 775.091 534.613C775.079 536.838 774.511 538.768 773.386 540.401C772.273 542.023 770.664 543.284 768.557 544.183C766.461 545.071 763.934 545.515 760.975 545.515C758.039 545.515 755.483 545.065 753.305 544.165C751.138 543.266 749.446 541.934 748.226 540.17C747.019 538.395 746.386 536.199 746.327 533.583H753.766C753.849 534.802 754.198 535.82 754.814 536.637C755.441 537.442 756.276 538.052 757.317 538.466C758.371 538.868 759.56 539.07 760.886 539.07C762.188 539.07 763.319 538.88 764.278 538.501C765.248 538.123 766 537.596 766.532 536.921C767.065 536.246 767.331 535.471 767.331 534.595C767.331 533.778 767.089 533.092 766.604 532.536C766.13 531.979 765.432 531.506 764.508 531.115C763.597 530.724 762.478 530.369 761.153 530.05L757.193 529.055C754.127 528.31 751.706 527.144 749.931 525.558C748.155 523.971 747.273 521.835 747.285 519.148C747.273 516.946 747.859 515.022 749.043 513.377C750.239 511.732 751.878 510.447 753.961 509.524C756.045 508.601 758.412 508.139 761.064 508.139C763.763 508.139 766.118 508.601 768.131 509.524C770.155 510.447 771.729 511.732 772.854 513.377C773.978 515.022 774.558 516.928 774.594 519.094H767.225Z"/><defs><clipPath id="clip0_8_2"><rect width="637" height="145" fill="#fff" transform="translate(282 238)"/></clipPath></defs></svg>