<svg width="1200" height="675" viewBox="0 0 1200 675" fill="none" xmlns="http://www.w3.org/2000/svg">
<rect width="1200" height="675" fill="#1E1E1E"/>
<rect width="1200" height="675" fill="#2C2C2C"/>
<path d="M587.637 277.188C607.783 277.188 624.115 260.856 624.115 240.709C624.115 220.563 607.783 204.231 587.637 204.231C567.49 204.231 551.158 220.563 551.158 240.709C551.158 260.856 567.49 277.188 587.637 277.188Z" fill="#00D8FF"/>
<path d="M587.637 324.276C536.407 324.276 491.644 318.245 458.145 306.763C436.417 299.351 417.96 289.469 404.807 278.205C390.855 266.288 383.443 253.281 383.443 240.709C383.443 216.584 409.894 192.967 454.293 177.562C490.627 164.918 538.005 157.869 587.564 157.869C636.251 157.869 682.975 164.7 719.091 177.199C740.237 184.465 758.04 193.912 770.684 204.376C784.418 215.857 791.685 228.429 791.685 240.709C791.685 265.779 762.109 291.14 714.44 306.909C680.723 318.099 635.669 324.276 587.637 324.276ZM587.637 175.309C540.621 175.309 494.115 182.14 460.107 193.985C419.268 208.227 400.956 227.702 400.956 240.709C400.956 254.225 420.649 275.517 463.813 290.268C495.495 301.095 538.369 306.836 587.637 306.836C633.853 306.836 676.944 301.023 708.99 290.341C753.825 275.444 774.317 254.153 774.317 240.709C774.317 233.806 769.085 225.667 759.566 217.747C748.593 208.591 732.607 200.234 713.495 193.621C679.124 181.849 634.434 175.309 587.637 175.309Z" fill="#00D8FF"/>
<path d="M504.869 422.521C497.457 422.521 490.917 420.923 485.395 417.725C464.539 405.663 457.273 370.928 466.065 324.785C473.259 286.925 490.845 242.453 515.624 199.507C539.967 157.361 569.179 120.301 598.028 95.2307C614.887 80.552 631.963 69.7973 647.369 64.1293C664.155 57.9527 678.688 57.9527 689.297 64.0567C711.025 76.5553 718.219 114.923 708.045 164.046C700.851 198.926 683.702 241 659.722 282.638C634.143 326.965 606.53 362.717 579.861 386.043C562.567 401.157 544.763 412.203 528.486 417.943C519.984 420.995 511.991 422.521 504.869 422.521ZM523.109 203.867L530.666 208.227C507.195 248.921 489.827 292.593 483.142 328.055C475.076 370.565 482.851 396.143 494.042 402.611C496.803 404.209 500.437 405.081 504.869 405.081C519.33 405.081 542.075 395.925 568.38 372.963C593.595 350.945 619.973 316.646 644.607 273.991C667.715 233.951 684.138 193.694 690.969 160.631C700.488 114.342 692.277 86.002 680.577 79.244C674.619 75.8287 664.954 76.2647 653.327 80.552C639.884 85.4933 624.697 95.158 609.437 108.456C582.041 132.291 554.065 167.752 530.666 208.3L523.109 203.867Z" fill="#00D8FF"/>
<path d="M670.404 422.739C650.639 422.739 625.569 410.822 599.409 388.295C570.197 363.153 540.476 325.729 515.624 282.783C491.208 240.637 473.768 196.819 466.429 159.25C462.141 137.305 461.342 117.176 464.103 100.971C467.155 83.3133 474.349 70.742 485.031 64.5653C506.686 51.994 543.528 64.9287 581.024 98.2827C607.62 121.899 635.524 157.797 659.577 199.362C685.228 243.689 702.45 285.472 709.281 320.207C713.713 342.733 714.44 363.661 711.315 380.665C707.973 398.759 700.415 411.621 689.515 417.943C684.065 421.141 677.598 422.739 670.404 422.739ZM530.739 274.063C554.283 314.757 583.495 351.599 610.817 375.07C643.59 403.265 669.605 409.369 680.868 402.829C692.567 396.071 701.142 368.385 692.277 323.622C685.737 290.777 669.241 250.81 644.535 208.155C621.354 168.115 594.685 133.744 569.47 111.363C534.154 79.9707 505.523 72.922 493.824 79.68C487.865 83.0953 483.433 91.7427 481.325 103.951C478.927 118.048 479.654 136.069 483.578 155.907C490.554 191.587 507.267 233.515 530.739 274.063Z" fill="#00D8FF"/>
<rect x="35" y="504" width="473" height="109" fill="url(#paint0_linear_12_2)"/>
<path d="M92.1186 525.545H105.957V568.053C105.957 572.825 104.817 577.001 102.538 580.581C100.279 584.161 97.1151 586.952 93.0455 588.955C88.9759 590.936 84.2351 591.927 78.8232 591.927C73.3899 591.927 68.6385 590.936 64.5689 588.955C60.4993 586.952 57.3352 584.161 55.0767 580.581C52.8182 577.001 51.6889 572.825 51.6889 568.053V525.545H65.5277V566.87C65.5277 569.363 66.071 571.579 67.1577 573.518C68.2656 575.457 69.821 576.98 71.8239 578.088C73.8267 579.196 76.1598 579.75 78.8232 579.75C81.5078 579.75 83.8409 579.196 85.8224 578.088C87.8253 576.98 89.37 575.457 90.4567 573.518C91.5646 571.579 92.1186 569.363 92.1186 566.87V525.545ZM117.343 591V525.545H131.182V579.59H159.243V591H117.343ZM157.741 536.955V525.545H211.498V536.955H191.459V591H177.78V536.955H157.741ZM234.19 525.545V591H220.351V525.545H234.19ZM245.576 525.545H262.642L280.668 569.523H281.435L299.461 525.545H316.527V591H303.104V548.397H302.561L285.622 590.68H276.481L259.542 548.237H258.999V591H245.576V525.545ZM339.211 591H324.382L346.977 525.545H364.811L387.375 591H372.546L356.15 540.503H355.639L339.211 591ZM338.284 565.272H373.313V576.075H338.284V565.272ZM384.762 536.955V525.545H438.52V536.955H418.48V591H404.801V536.955H384.762ZM447.373 591V525.545H491.478V536.955H461.211V552.552H489.208V563.962H461.211V579.59H491.605V591H447.373Z" fill="white"/>
<rect x="692" y="503" width="473" height="109" fill="url(#paint1_linear_12_2)"/>
<path d="M803.441 548.461H789.442C789.187 546.65 788.665 545.041 787.876 543.635C787.088 542.207 786.076 540.993 784.84 539.991C783.604 538.99 782.177 538.223 780.558 537.69C778.96 537.158 777.223 536.891 775.348 536.891C771.96 536.891 769.009 537.733 766.495 539.416C763.981 541.078 762.031 543.507 760.646 546.703C759.261 549.878 758.569 553.734 758.569 558.273C758.569 562.939 759.261 566.859 760.646 570.034C762.053 573.209 764.013 575.606 766.527 577.225C769.041 578.844 771.95 579.654 775.252 579.654C777.106 579.654 778.821 579.409 780.398 578.919C781.996 578.429 783.413 577.715 784.648 576.778C785.884 575.819 786.907 574.658 787.717 573.294C788.548 571.93 789.123 570.375 789.442 568.628L803.441 568.692C803.079 571.696 802.173 574.594 800.724 577.385C799.297 580.155 797.369 582.637 794.94 584.832C792.532 587.005 789.656 588.731 786.31 590.009C782.987 591.266 779.226 591.895 775.028 591.895C769.19 591.895 763.97 590.574 759.368 587.932C754.787 585.29 751.165 581.465 748.501 576.458C745.859 571.451 744.538 565.389 744.538 558.273C744.538 551.135 745.881 545.062 748.565 540.055C751.25 535.048 754.893 531.234 759.496 528.614C764.098 525.972 769.276 524.651 775.028 524.651C778.821 524.651 782.337 525.183 785.575 526.249C788.835 527.314 791.722 528.869 794.237 530.915C796.751 532.939 798.796 535.421 800.373 538.362C801.971 541.302 802.994 544.668 803.441 548.461ZM873.514 558.273C873.514 565.411 872.161 571.483 869.455 576.49C866.77 581.497 863.105 585.322 858.461 587.964C853.837 590.585 848.638 591.895 842.864 591.895C837.047 591.895 831.827 590.574 827.203 587.932C822.58 585.29 818.926 581.465 816.241 576.458C813.556 571.451 812.214 565.389 812.214 558.273C812.214 551.135 813.556 545.062 816.241 540.055C818.926 535.048 822.58 531.234 827.203 528.614C831.827 525.972 837.047 524.651 842.864 524.651C848.638 524.651 853.837 525.972 858.461 528.614C863.105 531.234 866.77 535.048 869.455 540.055C872.161 545.062 873.514 551.135 873.514 558.273ZM859.483 558.273C859.483 553.649 858.791 549.75 857.406 546.575C856.042 543.401 854.114 540.993 851.621 539.352C849.128 537.712 846.209 536.891 842.864 536.891C839.519 536.891 836.6 537.712 834.107 539.352C831.614 540.993 829.675 543.401 828.29 546.575C826.926 549.75 826.245 553.649 826.245 558.273C826.245 562.896 826.926 566.795 828.29 569.97C829.675 573.145 831.614 575.553 834.107 577.193C836.6 578.834 839.519 579.654 842.864 579.654C846.209 579.654 849.128 578.834 851.621 577.193C854.114 575.553 856.042 573.145 857.406 569.97C858.791 566.795 859.483 562.896 859.483 558.273ZM924.195 525.545H938.034V568.053C938.034 572.825 936.894 577.001 934.614 580.581C932.355 584.161 929.191 586.952 925.122 588.955C921.052 590.936 916.311 591.927 910.899 591.927C905.466 591.927 900.715 590.936 896.645 588.955C892.575 586.952 889.411 584.161 887.153 580.581C884.894 577.001 883.765 572.825 883.765 568.053V525.545H897.604V566.87C897.604 569.363 898.147 571.579 899.234 573.518C900.342 575.457 901.897 576.98 903.9 578.088C905.903 579.196 908.236 579.75 910.899 579.75C913.584 579.75 915.917 579.196 917.899 578.088C919.901 576.98 921.446 575.457 922.533 573.518C923.641 571.579 924.195 569.363 924.195 566.87V525.545ZM949.419 591V525.545H975.243C980.186 525.545 984.405 526.43 987.9 528.198C991.415 529.945 994.089 532.428 995.922 535.645C997.775 538.841 998.702 542.602 998.702 546.927C998.702 551.273 997.765 555.013 995.89 558.145C994.015 561.256 991.298 563.642 987.74 565.304C984.203 566.966 979.92 567.797 974.892 567.797H957.601V556.675H972.654C975.297 556.675 977.491 556.312 979.238 555.588C980.985 554.864 982.285 553.777 983.137 552.328C984.011 550.879 984.448 549.079 984.448 546.927C984.448 544.754 984.011 542.921 983.137 541.43C982.285 539.938 980.975 538.809 979.206 538.042C977.459 537.254 975.254 536.859 972.591 536.859H963.258V591H949.419ZM984.767 561.213L1001.04 591H985.758L969.842 561.213H984.767ZM1043.99 544.37C1043.73 541.792 1042.64 539.789 1040.7 538.362C1038.76 536.934 1036.13 536.22 1032.8 536.22C1030.55 536.22 1028.64 536.54 1027.08 537.179C1025.53 537.797 1024.33 538.66 1023.5 539.768C1022.69 540.876 1022.29 542.133 1022.29 543.539C1022.25 544.711 1022.49 545.734 1023.02 546.607C1023.58 547.481 1024.33 548.237 1025.29 548.876C1026.25 549.494 1027.36 550.038 1028.62 550.506C1029.87 550.954 1031.22 551.337 1032.64 551.657L1038.52 553.063C1041.38 553.702 1044 554.555 1046.39 555.62C1048.77 556.685 1050.84 557.996 1052.59 559.551C1054.33 561.107 1055.69 562.939 1056.65 565.048C1057.63 567.158 1058.13 569.576 1058.15 572.303C1058.13 576.309 1057.1 579.782 1055.08 582.722C1053.08 585.641 1050.18 587.911 1046.39 589.53C1042.62 591.128 1038.07 591.927 1032.74 591.927C1027.46 591.927 1022.85 591.117 1018.93 589.498C1015.03 587.879 1011.99 585.482 1009.79 582.307C1007.62 579.111 1006.48 575.158 1006.37 570.45H1019.76C1019.91 572.644 1020.54 574.477 1021.65 575.947C1022.78 577.396 1024.28 578.493 1026.16 579.239C1028.05 579.963 1030.19 580.325 1032.58 580.325C1034.92 580.325 1036.96 579.984 1038.68 579.303C1040.43 578.621 1041.78 577.673 1042.74 576.458C1043.7 575.244 1044.18 573.848 1044.18 572.271C1044.18 570.801 1043.74 569.565 1042.87 568.564C1042.02 567.562 1040.76 566.71 1039.1 566.007C1037.46 565.304 1035.45 564.665 1033.06 564.089L1025.93 562.3C1020.41 560.957 1016.06 558.859 1012.86 556.004C1009.66 553.148 1008.08 549.303 1008.1 544.466C1008.08 540.503 1009.13 537.04 1011.26 534.079C1013.41 531.117 1016.37 528.805 1020.12 527.143C1023.87 525.482 1028.13 524.651 1032.9 524.651C1037.76 524.651 1042 525.482 1045.62 527.143C1049.26 528.805 1052.1 531.117 1054.12 534.079C1056.15 537.04 1057.19 540.471 1057.25 544.37H1043.99ZM1067.46 591V525.545H1111.56V536.955H1081.3V552.552H1109.29V563.962H1081.3V579.59H1111.69V591H1067.46Z" fill="white"/>
<defs>
<linearGradient id="paint0_linear_12_2" x1="35" y1="558" x2="508" y2="558" gradientUnits="userSpaceOnUse">
<stop stop-color="#00D8FF"/>
<stop offset="1" stop-color="#0085FF"/>
</linearGradient>
<linearGradient id="paint1_linear_12_2" x1="692" y1="557" x2="1165" y2="557" gradientUnits="userSpaceOnUse">
<stop stop-color="#00D8FF"/>
<stop offset="1" stop-color="#0085FF"/>
</linearGradient>
</defs>
</svg>
