<svg width="1200" height="675" viewBox="0 0 1200 675" fill="none" xmlns="http://www.w3.org/2000/svg">
<rect width="1200" height="675" fill="white"/>
<path d="M306.5 386.8C334.225 386.8 356.7 364.325 356.7 336.6C356.7 308.875 334.225 286.4 306.5 286.4C278.775 286.4 256.3 308.875 256.3 336.6C256.3 364.325 278.775 386.8 306.5 386.8Z" fill="#00D8FF"/>
<path d="M306.5 451.6C236 451.6 174.4 443.3 128.3 427.5C98.4 417.3 73 403.7 54.9 388.2C35.7 371.8 25.5 353.9 25.5 336.6C25.5 303.4 61.9 270.9 123 249.7C173 232.3 238.2 222.6 306.4 222.6C373.4 222.6 437.7 232 487.4 249.2C516.5 259.2 541 272.2 558.4 286.6C577.3 302.4 587.3 319.7 587.3 336.6C587.3 371.1 546.6 406 481 427.7C434.6 443.1 372.6 451.6 306.5 451.6ZM306.5 246.6C241.8 246.6 177.8 256 131 272.3C74.8 291.9 49.6 318.7 49.6 336.6C49.6 355.2 76.7 384.5 136.1 404.8C179.7 419.7 238.7 427.6 306.5 427.6C370.1 427.6 429.4 419.6 473.5 404.9C535.2 384.4 563.4 355.1 563.4 336.6C563.4 327.1 556.2 315.9 543.1 305C528 292.4 506 280.9 479.7 271.8C432.4 255.6 370.9 246.6 306.5 246.6Z" fill="#00D8FF"/>
<path d="M192.6 586.8C182.4 586.8 173.4 584.6 165.8 580.2C137.1 563.6 127.1 515.8 139.2 452.3C149.1 400.2 173.3 339 207.4 279.9C240.9 221.9 281.1 170.9 320.8 136.4C344 116.2 367.5 101.4 388.7 93.6C411.8 85.1 431.8 85.1 446.4 93.5C476.3 110.7 486.2 163.5 472.2 231.1C462.3 279.1 438.7 337 405.7 394.3C370.5 455.3 332.5 504.5 295.8 536.6C272 557.4 247.5 572.6 225.1 580.5C213.4 584.7 202.4 586.8 192.6 586.8ZM217.7 285.9L228.1 291.9C195.8 347.9 171.9 408 162.7 456.8C151.6 515.3 162.3 550.5 177.7 559.4C181.5 561.6 186.5 562.8 192.6 562.8C212.5 562.8 243.8 550.2 280 518.6C314.7 488.3 351 441.1 384.9 382.4C416.7 327.3 439.3 271.9 448.7 226.4C461.8 162.7 450.5 123.7 434.4 114.4C426.2 109.7 412.9 110.3 396.9 116.2C378.4 123 357.5 136.3 336.5 154.6C298.8 187.4 260.3 236.2 228.1 292L217.7 285.9Z" fill="#00D8FF"/>
<path d="M420.4 587.1C393.2 587.1 358.7 570.7 322.7 539.7C282.5 505.1 241.6 453.6 207.4 394.5C173.8 336.5 149.8 276.2 139.7 224.5C133.8 194.3 132.7 166.6 136.5 144.3C140.7 120 150.6 102.7 165.3 94.2C195.1 76.9 245.8 94.7 297.4 140.6C334 173.1 372.4 222.5 405.5 279.7C440.8 340.7 464.5 398.2 473.9 446C480 477 481 505.8 476.7 529.2C472.1 554.1 461.7 571.8 446.7 580.5C439.2 584.9 430.3 587.1 420.4 587.1ZM228.2 382.5C260.6 438.5 300.8 489.2 338.4 521.5C383.5 560.3 419.3 568.7 434.8 559.7C450.9 550.4 462.7 512.3 450.5 450.7C441.5 405.5 418.8 350.5 384.8 291.8C352.9 236.7 316.2 189.4 281.5 158.6C232.9 115.4 193.5 105.7 177.4 115C169.2 119.7 163.1 131.6 160.2 148.4C156.9 167.8 157.9 192.6 163.3 219.9C172.9 269 195.9 326.7 228.2 382.5Z" fill="#00D8FF"/>
<path d="M798.689 175V109.545H824.513C829.456 109.545 833.675 110.43 837.169 112.198C840.685 113.945 843.359 116.428 845.191 119.645C847.045 122.841 847.972 126.602 847.972 130.927C847.972 135.273 847.034 139.013 845.159 142.145C843.284 145.256 840.567 147.642 837.009 149.304C833.472 150.966 829.19 151.797 824.161 151.797H806.871V140.675H821.924C824.566 140.675 826.761 140.312 828.508 139.588C830.255 138.864 831.555 137.777 832.407 136.328C833.281 134.879 833.717 133.079 833.717 130.927C833.717 128.754 833.281 126.921 832.407 125.43C831.555 123.938 830.244 122.809 828.476 122.042C826.729 121.254 824.523 120.859 821.86 120.859H812.528V175H798.689ZM834.037 145.213L850.305 175H835.028L819.112 145.213H834.037ZM857.751 175V109.545H901.857V120.955H871.59V136.552H899.587V147.962H871.59V163.59H901.984V175H857.751ZM924.141 175H909.311L931.907 109.545H949.741L972.305 175H957.475L941.08 124.503H940.568L924.141 175ZM923.214 149.272H958.242V160.075H923.214V149.272ZM1034.86 132.461H1020.86C1020.6 130.65 1020.08 129.041 1019.29 127.635C1018.51 126.207 1017.49 124.993 1016.26 123.991C1015.02 122.99 1013.59 122.223 1011.98 121.69C1010.38 121.158 1008.64 120.891 1006.77 120.891C1003.38 120.891 1000.43 121.733 997.913 123.416C995.399 125.078 993.449 127.507 992.064 130.703C990.679 133.878 989.987 137.734 989.987 142.273C989.987 146.939 990.679 150.859 992.064 154.034C993.471 157.209 995.431 159.606 997.945 161.225C1000.46 162.844 1003.37 163.654 1006.67 163.654C1008.52 163.654 1010.24 163.409 1011.82 162.919C1013.41 162.429 1014.83 161.715 1016.07 160.778C1017.3 159.819 1018.32 158.658 1019.13 157.294C1019.97 155.93 1020.54 154.375 1020.86 152.628L1034.86 152.692C1034.5 155.696 1033.59 158.594 1032.14 161.385C1030.71 164.155 1028.79 166.637 1026.36 168.832C1023.95 171.005 1021.07 172.731 1017.73 174.009C1014.4 175.266 1010.64 175.895 1006.45 175.895C1000.61 175.895 995.388 174.574 990.786 171.932C986.205 169.29 982.583 165.465 979.919 160.458C977.277 155.451 975.956 149.389 975.956 142.273C975.956 135.135 977.299 129.062 979.983 124.055C982.668 119.048 986.311 115.234 990.914 112.614C995.516 109.972 1000.69 108.651 1006.45 108.651C1010.24 108.651 1013.75 109.183 1016.99 110.249C1020.25 111.314 1023.14 112.869 1025.65 114.915C1028.17 116.939 1030.21 119.421 1031.79 122.362C1033.39 125.302 1034.41 128.668 1034.86 132.461ZM1042.29 120.955V109.545H1096.05V120.955H1076.01V175H1062.33V120.955H1042.29Z" fill="#00D8FF"/>
<path d="M787.689 587V521.545H801.528V548.552H829.621V521.545H843.428V587H829.621V559.962H801.528V587H787.689ZM914.987 554.273C914.987 561.411 913.634 567.483 910.928 572.49C908.243 577.497 904.578 581.322 899.933 583.964C895.31 586.585 890.111 587.895 884.337 587.895C878.52 587.895 873.3 586.574 868.676 583.932C864.053 581.29 860.398 577.465 857.714 572.458C855.029 567.451 853.687 561.389 853.687 554.273C853.687 547.135 855.029 541.062 857.714 536.055C860.398 531.048 864.053 527.234 868.676 524.614C873.3 521.972 878.52 520.651 884.337 520.651C890.111 520.651 895.31 521.972 899.933 524.614C904.578 527.234 908.243 531.048 910.928 536.055C913.634 541.062 914.987 547.135 914.987 554.273ZM900.956 554.273C900.956 549.649 900.263 545.75 898.879 542.575C897.515 539.401 895.587 536.993 893.094 535.352C890.601 533.712 887.682 532.891 884.337 532.891C880.991 532.891 878.072 533.712 875.58 535.352C873.087 536.993 871.148 539.401 869.763 542.575C868.399 545.75 867.717 549.649 867.717 554.273C867.717 558.896 868.399 562.795 869.763 565.97C871.148 569.145 873.087 571.553 875.58 573.193C878.072 574.834 880.991 575.654 884.337 575.654C887.682 575.654 890.601 574.834 893.094 573.193C895.587 571.553 897.515 569.145 898.879 565.97C900.263 562.795 900.956 558.896 900.956 554.273ZM985.387 554.273C985.387 561.411 984.034 567.483 981.328 572.49C978.643 577.497 974.979 581.322 970.334 583.964C965.71 586.585 960.511 587.895 954.737 587.895C948.92 587.895 943.7 586.574 939.077 583.932C934.453 581.29 930.799 577.465 928.114 572.458C925.43 567.451 924.087 561.389 924.087 554.273C924.087 547.135 925.43 541.062 928.114 536.055C930.799 531.048 934.453 527.234 939.077 524.614C943.7 521.972 948.92 520.651 954.737 520.651C960.511 520.651 965.71 521.972 970.334 524.614C974.979 527.234 978.643 531.048 981.328 536.055C984.034 541.062 985.387 547.135 985.387 554.273ZM971.356 554.273C971.356 549.649 970.664 545.75 969.279 542.575C967.915 539.401 965.987 536.993 963.494 535.352C961.001 533.712 958.082 532.891 954.737 532.891C951.392 532.891 948.473 533.712 945.98 535.352C943.487 536.993 941.548 539.401 940.163 542.575C938.8 545.75 938.118 549.649 938.118 554.273C938.118 558.896 938.8 562.795 940.163 565.97C941.548 569.145 943.487 571.553 945.98 573.193C948.473 574.834 951.392 575.654 954.737 575.654C958.082 575.654 961.001 574.834 963.494 573.193C965.987 571.553 967.915 569.145 969.279 565.97C970.664 562.795 971.356 558.896 971.356 554.273ZM995.638 587V521.545H1009.48V550.406H1010.34L1033.89 521.545H1050.48L1026.19 550.853L1050.77 587H1034.21L1016.28 560.089L1009.48 568.399V587H995.638ZM1092.67 540.37C1092.41 537.792 1091.32 535.789 1089.38 534.362C1087.44 532.934 1084.81 532.22 1081.48 532.22C1079.22 532.22 1077.32 532.54 1075.76 533.179C1074.21 533.797 1073.01 534.66 1072.18 535.768C1071.37 536.876 1070.97 538.133 1070.97 539.539C1070.93 540.711 1071.17 541.734 1071.7 542.607C1072.26 543.481 1073.01 544.237 1073.97 544.876C1074.93 545.494 1076.04 546.038 1077.3 546.506C1078.55 546.954 1079.9 547.337 1081.32 547.657L1087.2 549.063C1090.06 549.702 1092.68 550.555 1095.07 551.62C1097.45 552.685 1099.52 553.996 1101.27 555.551C1103.01 557.107 1104.37 558.939 1105.33 561.048C1106.31 563.158 1106.81 565.576 1106.83 568.303C1106.81 572.309 1105.78 575.782 1103.76 578.722C1101.76 581.641 1098.86 583.911 1095.07 585.53C1091.3 587.128 1086.75 587.927 1081.42 587.927C1076.14 587.927 1071.53 587.117 1067.61 585.498C1063.71 583.879 1060.67 581.482 1058.47 578.307C1056.3 575.111 1055.16 571.158 1055.05 566.45H1068.44C1068.59 568.644 1069.22 570.477 1070.33 571.947C1071.46 573.396 1072.96 574.493 1074.84 575.239C1076.73 575.963 1078.87 576.325 1081.26 576.325C1083.6 576.325 1085.64 575.984 1087.36 575.303C1089.11 574.621 1090.46 573.673 1091.42 572.458C1092.38 571.244 1092.86 569.848 1092.86 568.271C1092.86 566.801 1092.42 565.565 1091.55 564.564C1090.7 563.562 1089.44 562.71 1087.78 562.007C1086.14 561.304 1084.13 560.665 1081.74 560.089L1074.61 558.3C1069.09 556.957 1064.74 554.859 1061.54 552.004C1058.34 549.148 1056.76 545.303 1056.78 540.466C1056.76 536.503 1057.81 533.04 1059.94 530.079C1062.09 527.117 1065.05 524.805 1068.8 523.143C1072.55 521.482 1076.81 520.651 1081.58 520.651C1086.44 520.651 1090.68 521.482 1094.3 523.143C1097.94 524.805 1100.78 527.117 1102.8 530.079C1104.82 533.04 1105.87 536.471 1105.93 540.37H1092.67Z" fill="#00D8FF"/>
<path d="M828.92 325L841.932 299.261V299.034H826.932V295.909H845.568V299.205L832.614 325H828.92ZM862.17 325V303.182H865.408V306.591H865.692C866.147 305.426 866.881 304.522 867.894 303.878C868.907 303.224 870.124 302.898 871.545 302.898C872.984 302.898 874.182 303.224 875.138 303.878C876.104 304.522 876.857 305.426 877.397 306.591H877.624C878.183 305.464 879.021 304.569 880.138 303.906C881.256 303.234 882.596 302.898 884.158 302.898C886.109 302.898 887.705 303.509 888.945 304.73C890.186 305.942 890.806 307.831 890.806 310.398V325H887.454V310.398C887.454 308.788 887.013 307.637 886.133 306.946C885.252 306.255 884.215 305.909 883.022 305.909C881.488 305.909 880.299 306.373 879.457 307.301C878.614 308.22 878.192 309.384 878.192 310.795V325H874.783V310.057C874.783 308.816 874.381 307.817 873.576 307.06C872.771 306.293 871.734 305.909 870.465 305.909C869.594 305.909 868.78 306.141 868.022 306.605C867.274 307.069 866.668 307.713 866.204 308.537C865.749 309.351 865.522 310.294 865.522 311.364V325H862.17ZM905.799 325.455C903.829 325.455 902.101 324.986 900.614 324.048C899.137 323.111 897.982 321.799 897.148 320.114C896.325 318.428 895.913 316.458 895.913 314.205C895.913 311.932 896.325 309.948 897.148 308.253C897.982 306.558 899.137 305.241 900.614 304.304C902.101 303.366 903.829 302.898 905.799 302.898C907.769 302.898 909.492 303.366 910.969 304.304C912.456 305.241 913.612 306.558 914.435 308.253C915.269 309.948 915.685 311.932 915.685 314.205C915.685 316.458 915.269 318.428 914.435 320.114C913.612 321.799 912.456 323.111 910.969 324.048C909.492 324.986 907.769 325.455 905.799 325.455ZM905.799 322.443C907.295 322.443 908.526 322.06 909.492 321.293C910.458 320.526 911.173 319.517 911.637 318.267C912.101 317.017 912.333 315.663 912.333 314.205C912.333 312.746 912.101 311.387 911.637 310.128C911.173 308.868 910.458 307.85 909.492 307.074C908.526 306.297 907.295 305.909 905.799 305.909C904.303 305.909 903.072 306.297 902.106 307.074C901.14 307.85 900.425 308.868 899.961 310.128C899.497 311.387 899.265 312.746 899.265 314.205C899.265 315.663 899.497 317.017 899.961 318.267C900.425 319.517 901.14 320.526 902.106 321.293C903.072 322.06 904.303 322.443 905.799 322.443ZM936.257 308.068L933.246 308.92C933.056 308.419 932.777 307.931 932.408 307.457C932.048 306.974 931.555 306.577 930.93 306.264C930.305 305.952 929.505 305.795 928.53 305.795C927.195 305.795 926.082 306.103 925.192 306.719C924.311 307.325 923.871 308.097 923.871 309.034C923.871 309.867 924.174 310.526 924.78 311.009C925.386 311.491 926.333 311.894 927.621 312.216L930.859 313.011C932.81 313.485 934.264 314.209 935.22 315.185C936.177 316.151 936.655 317.396 936.655 318.92C936.655 320.17 936.295 321.288 935.575 322.273C934.865 323.258 933.871 324.034 932.592 324.602C931.314 325.17 929.827 325.455 928.132 325.455C925.907 325.455 924.065 324.972 922.607 324.006C921.148 323.04 920.225 321.629 919.837 319.773L923.018 318.977C923.321 320.152 923.894 321.032 924.737 321.619C925.589 322.206 926.702 322.5 928.075 322.5C929.638 322.5 930.878 322.169 931.797 321.506C932.725 320.833 933.189 320.028 933.189 319.091C933.189 318.333 932.924 317.699 932.393 317.188C931.863 316.667 931.049 316.278 929.95 316.023L926.314 315.17C924.316 314.697 922.848 313.963 921.911 312.969C920.982 311.965 920.518 310.71 920.518 309.205C920.518 307.973 920.864 306.884 921.555 305.938C922.256 304.991 923.208 304.247 924.411 303.707C925.623 303.168 926.996 302.898 928.53 302.898C930.689 302.898 932.384 303.371 933.615 304.318C934.856 305.265 935.736 306.515 936.257 308.068ZM951.19 303.182V306.023H939.883V303.182H951.19ZM943.178 297.955H946.531V318.75C946.531 319.697 946.668 320.407 946.942 320.881C947.227 321.345 947.586 321.657 948.022 321.818C948.467 321.97 948.936 322.045 949.428 322.045C949.798 322.045 950.101 322.027 950.337 321.989C950.574 321.941 950.763 321.903 950.906 321.875L951.587 324.886C951.36 324.972 951.043 325.057 950.636 325.142C950.228 325.237 949.712 325.284 949.087 325.284C948.14 325.284 947.212 325.08 946.303 324.673C945.404 324.266 944.656 323.646 944.059 322.812C943.472 321.979 943.178 320.928 943.178 319.659V297.955ZM981.232 316.08V303.182H984.585V325H981.232V321.307H981.005C980.494 322.415 979.698 323.357 978.619 324.134C977.539 324.901 976.175 325.284 974.528 325.284C973.164 325.284 971.952 324.986 970.891 324.389C969.831 323.783 968.997 322.874 968.391 321.662C967.785 320.44 967.482 318.902 967.482 317.045V303.182H970.835V316.818C970.835 318.409 971.28 319.678 972.17 320.625C973.069 321.572 974.215 322.045 975.607 322.045C976.441 322.045 977.288 321.832 978.15 321.406C979.021 320.98 979.75 320.327 980.337 319.446C980.934 318.565 981.232 317.443 981.232 316.08ZM1006.18 308.068L1003.17 308.92C1002.98 308.419 1002.7 307.931 1002.33 307.457C1001.97 306.974 1001.48 306.577 1000.85 306.264C1000.23 305.952 999.427 305.795 998.452 305.795C997.116 305.795 996.004 306.103 995.114 306.719C994.233 307.325 993.793 308.097 993.793 309.034C993.793 309.867 994.096 310.526 994.702 311.009C995.308 311.491 996.255 311.894 997.543 312.216L1000.78 313.011C1002.73 313.485 1004.19 314.209 1005.14 315.185C1006.1 316.151 1006.58 317.396 1006.58 318.92C1006.58 320.17 1006.22 321.288 1005.5 322.273C1004.79 323.258 1003.79 324.034 1002.51 324.602C1001.24 325.17 999.749 325.455 998.054 325.455C995.829 325.455 993.987 324.972 992.528 324.006C991.07 323.04 990.147 321.629 989.759 319.773L992.94 318.977C993.243 320.152 993.816 321.032 994.659 321.619C995.511 322.206 996.624 322.5 997.997 322.5C999.56 322.5 1000.8 322.169 1001.72 321.506C1002.65 320.833 1003.11 320.028 1003.11 319.091C1003.11 318.333 1002.85 317.699 1002.32 317.188C1001.79 316.667 1000.97 316.278 999.872 316.023L996.236 315.17C994.238 314.697 992.77 313.963 991.832 312.969C990.904 311.965 990.44 310.71 990.44 309.205C990.44 307.973 990.786 306.884 991.477 305.938C992.178 304.991 993.13 304.247 994.332 303.707C995.545 303.168 996.918 302.898 998.452 302.898C1000.61 302.898 1002.31 303.371 1003.54 304.318C1004.78 305.265 1005.66 306.515 1006.18 308.068ZM1020.77 325.455C1018.67 325.455 1016.85 324.991 1015.33 324.062C1013.82 323.125 1012.65 321.818 1011.82 320.142C1011.01 318.456 1010.6 316.496 1010.6 314.261C1010.6 312.027 1011.01 310.057 1011.82 308.352C1012.65 306.638 1013.79 305.303 1015.26 304.347C1016.74 303.381 1018.46 302.898 1020.43 302.898C1021.57 302.898 1022.69 303.087 1023.8 303.466C1024.9 303.845 1025.91 304.46 1026.82 305.312C1027.73 306.155 1028.46 307.273 1029 308.665C1029.53 310.057 1029.8 311.771 1029.8 313.807V315.227H1012.99V312.33H1026.4C1026.4 311.098 1026.15 310 1025.66 309.034C1025.17 308.068 1024.48 307.306 1023.58 306.747C1022.69 306.188 1021.64 305.909 1020.43 305.909C1019.09 305.909 1017.94 306.241 1016.96 306.903C1016 307.557 1015.25 308.409 1014.73 309.46C1014.21 310.511 1013.95 311.638 1013.95 312.841V314.773C1013.95 316.42 1014.24 317.817 1014.8 318.963C1015.38 320.099 1016.18 320.966 1017.21 321.562C1018.23 322.15 1019.42 322.443 1020.77 322.443C1021.65 322.443 1022.45 322.32 1023.16 322.074C1023.88 321.818 1024.5 321.439 1025.02 320.938C1025.54 320.426 1025.94 319.792 1026.23 319.034L1029.46 319.943C1029.12 321.042 1028.55 322.008 1027.75 322.841C1026.94 323.665 1025.95 324.309 1024.76 324.773C1023.58 325.227 1022.25 325.455 1020.77 325.455ZM1043.14 325.455C1041.32 325.455 1039.72 324.995 1038.33 324.077C1036.94 323.149 1035.85 321.842 1035.06 320.156C1034.27 318.461 1033.88 316.458 1033.88 314.148C1033.88 311.856 1034.27 309.867 1035.06 308.182C1035.85 306.496 1036.94 305.194 1038.34 304.276C1039.74 303.357 1041.36 302.898 1043.2 302.898C1044.62 302.898 1045.74 303.134 1046.57 303.608C1047.4 304.072 1048.03 304.602 1048.47 305.199C1048.91 305.786 1049.26 306.269 1049.51 306.648H1049.79V295.909H1053.14V325H1049.9V321.648H1049.51C1049.26 322.045 1048.91 322.547 1048.46 323.153C1048 323.75 1047.35 324.285 1046.51 324.759C1045.67 325.223 1044.54 325.455 1043.14 325.455ZM1043.6 322.443C1044.94 322.443 1046.08 322.093 1047.01 321.392C1047.93 320.682 1048.64 319.702 1049.12 318.452C1049.61 317.192 1049.85 315.739 1049.85 314.091C1049.85 312.462 1049.61 311.037 1049.14 309.815C1048.66 308.584 1047.96 307.628 1047.03 306.946C1046.11 306.255 1044.96 305.909 1043.6 305.909C1042.18 305.909 1040.99 306.274 1040.05 307.003C1039.11 307.723 1038.4 308.703 1037.93 309.943C1037.47 311.174 1037.23 312.557 1037.23 314.091C1037.23 315.644 1037.47 317.055 1037.94 318.324C1038.43 319.583 1039.14 320.587 1040.07 321.335C1041.02 322.074 1042.2 322.443 1043.6 322.443ZM828.068 373V351.182H831.307V354.477H831.534C831.932 353.398 832.652 352.522 833.693 351.849C834.735 351.177 835.909 350.841 837.216 350.841C837.462 350.841 837.77 350.846 838.139 350.855C838.509 350.865 838.788 350.879 838.977 350.898V354.307C838.864 354.278 838.603 354.236 838.196 354.179C837.798 354.113 837.377 354.08 836.932 354.08C835.871 354.08 834.924 354.302 834.091 354.747C833.267 355.183 832.614 355.789 832.131 356.565C831.657 357.332 831.42 358.208 831.42 359.193V373H828.068ZM851.435 373.455C849.332 373.455 847.519 372.991 845.994 372.062C844.479 371.125 843.31 369.818 842.486 368.142C841.671 366.456 841.264 364.496 841.264 362.261C841.264 360.027 841.671 358.057 842.486 356.352C843.31 354.638 844.455 353.303 845.923 352.347C847.401 351.381 849.124 350.898 851.094 350.898C852.23 350.898 853.352 351.087 854.46 351.466C855.568 351.845 856.577 352.46 857.486 353.312C858.395 354.155 859.119 355.273 859.659 356.665C860.199 358.057 860.469 359.771 860.469 361.807V363.227H843.651V360.33H857.06C857.06 359.098 856.813 358 856.321 357.034C855.838 356.068 855.147 355.306 854.247 354.747C853.357 354.188 852.306 353.909 851.094 353.909C849.759 353.909 848.603 354.241 847.628 354.903C846.662 355.557 845.919 356.409 845.398 357.46C844.877 358.511 844.616 359.638 844.616 360.841V362.773C844.616 364.42 844.901 365.817 845.469 366.963C846.046 368.099 846.847 368.966 847.869 369.562C848.892 370.15 850.08 370.443 851.435 370.443C852.315 370.443 853.111 370.32 853.821 370.074C854.541 369.818 855.161 369.439 855.682 368.938C856.203 368.426 856.605 367.792 856.889 367.034L860.128 367.943C859.787 369.042 859.214 370.008 858.409 370.841C857.604 371.665 856.61 372.309 855.426 372.773C854.242 373.227 852.912 373.455 851.435 373.455ZM871.989 373.511C870.606 373.511 869.351 373.251 868.224 372.73C867.098 372.2 866.203 371.438 865.54 370.443C864.877 369.439 864.545 368.227 864.545 366.807C864.545 365.557 864.792 364.544 865.284 363.767C865.777 362.981 866.435 362.366 867.259 361.92C868.082 361.475 868.991 361.144 869.986 360.926C870.99 360.699 871.998 360.519 873.011 360.386C874.337 360.216 875.412 360.088 876.236 360.003C877.069 359.908 877.675 359.752 878.054 359.534C878.442 359.316 878.636 358.937 878.636 358.398V358.284C878.636 356.883 878.253 355.794 877.486 355.017C876.728 354.241 875.578 353.852 874.034 353.852C872.434 353.852 871.179 354.203 870.27 354.903C869.361 355.604 868.722 356.352 868.352 357.148L865.17 356.011C865.739 354.686 866.496 353.653 867.443 352.915C868.4 352.167 869.441 351.646 870.568 351.352C871.705 351.049 872.822 350.898 873.92 350.898C874.621 350.898 875.426 350.983 876.335 351.153C877.254 351.314 878.139 351.651 878.991 352.162C879.853 352.673 880.568 353.445 881.136 354.477C881.705 355.509 881.989 356.892 881.989 358.625V373H878.636V370.045H878.466C878.239 370.519 877.86 371.026 877.33 371.565C876.799 372.105 876.094 372.564 875.213 372.943C874.332 373.322 873.258 373.511 871.989 373.511ZM872.5 370.5C873.826 370.5 874.943 370.24 875.852 369.719C876.771 369.198 877.462 368.526 877.926 367.702C878.4 366.878 878.636 366.011 878.636 365.102V362.034C878.494 362.205 878.182 362.361 877.699 362.503C877.225 362.635 876.676 362.754 876.051 362.858C875.436 362.953 874.834 363.038 874.247 363.114C873.67 363.18 873.201 363.237 872.841 363.284C871.97 363.398 871.155 363.582 870.398 363.838C869.65 364.084 869.044 364.458 868.58 364.96C868.125 365.453 867.898 366.125 867.898 366.977C867.898 368.142 868.329 369.023 869.19 369.619C870.062 370.206 871.165 370.5 872.5 370.5ZM896.971 373.455C894.925 373.455 893.164 372.972 891.687 372.006C890.21 371.04 889.073 369.709 888.278 368.014C887.482 366.319 887.085 364.383 887.085 362.205C887.085 359.989 887.492 358.033 888.306 356.338C889.13 354.634 890.276 353.303 891.744 352.347C893.221 351.381 894.944 350.898 896.914 350.898C898.448 350.898 899.831 351.182 901.062 351.75C902.293 352.318 903.301 353.114 904.087 354.136C904.873 355.159 905.361 356.352 905.55 357.716H902.198C901.942 356.722 901.374 355.841 900.494 355.074C899.622 354.297 898.448 353.909 896.971 353.909C895.664 353.909 894.518 354.25 893.533 354.932C892.558 355.604 891.796 356.556 891.246 357.787C890.707 359.009 890.437 360.443 890.437 362.091C890.437 363.777 890.702 365.244 891.232 366.494C891.772 367.744 892.53 368.715 893.505 369.406C894.49 370.098 895.645 370.443 896.971 370.443C897.842 370.443 898.633 370.292 899.343 369.989C900.053 369.686 900.655 369.25 901.147 368.682C901.639 368.114 901.99 367.432 902.198 366.636H905.55C905.361 367.924 904.892 369.084 904.144 370.116C903.406 371.139 902.425 371.954 901.204 372.56C899.992 373.156 898.581 373.455 896.971 373.455ZM919.94 351.182V354.023H908.633V351.182H919.94ZM911.928 345.955H915.281V366.75C915.281 367.697 915.418 368.407 915.692 368.881C915.977 369.345 916.336 369.657 916.772 369.818C917.217 369.97 917.686 370.045 918.178 370.045C918.548 370.045 918.851 370.027 919.087 369.989C919.324 369.941 919.513 369.903 919.656 369.875L920.337 372.886C920.11 372.972 919.793 373.057 919.386 373.142C918.978 373.237 918.462 373.284 917.837 373.284C916.89 373.284 915.962 373.08 915.053 372.673C914.154 372.266 913.406 371.646 912.809 370.812C912.222 369.979 911.928 368.928 911.928 367.659V345.955ZM939.585 359.875V373H936.232V343.909H939.585V354.591H939.869C940.38 353.464 941.147 352.569 942.17 351.906C943.202 351.234 944.575 350.898 946.289 350.898C947.776 350.898 949.078 351.196 950.195 351.793C951.313 352.38 952.179 353.284 952.795 354.506C953.42 355.718 953.732 357.261 953.732 359.136V373H950.38V359.364C950.38 357.631 949.93 356.291 949.031 355.344C948.14 354.387 946.905 353.909 945.323 353.909C944.225 353.909 943.24 354.141 942.369 354.605C941.507 355.069 940.825 355.746 940.323 356.636C939.831 357.527 939.585 358.606 939.585 359.875ZM968.729 373.455C966.759 373.455 965.031 372.986 963.544 372.048C962.067 371.111 960.911 369.799 960.078 368.114C959.254 366.428 958.842 364.458 958.842 362.205C958.842 359.932 959.254 357.948 960.078 356.253C960.911 354.558 962.067 353.241 963.544 352.304C965.031 351.366 966.759 350.898 968.729 350.898C970.698 350.898 972.422 351.366 973.899 352.304C975.386 353.241 976.541 354.558 977.365 356.253C978.198 357.948 978.615 359.932 978.615 362.205C978.615 364.458 978.198 366.428 977.365 368.114C976.541 369.799 975.386 371.111 973.899 372.048C972.422 372.986 970.698 373.455 968.729 373.455ZM968.729 370.443C970.225 370.443 971.456 370.06 972.422 369.293C973.388 368.526 974.103 367.517 974.567 366.267C975.031 365.017 975.263 363.663 975.263 362.205C975.263 360.746 975.031 359.387 974.567 358.128C974.103 356.868 973.388 355.85 972.422 355.074C971.456 354.297 970.225 353.909 968.729 353.909C967.232 353.909 966.001 354.297 965.036 355.074C964.07 355.85 963.355 356.868 962.891 358.128C962.427 359.387 962.195 360.746 962.195 362.205C962.195 363.663 962.427 365.017 962.891 366.267C963.355 367.517 964.07 368.526 965.036 369.293C966.001 370.06 967.232 370.443 968.729 370.443ZM992.596 373.455C990.626 373.455 988.898 372.986 987.411 372.048C985.934 371.111 984.779 369.799 983.945 368.114C983.121 366.428 982.71 364.458 982.71 362.205C982.71 359.932 983.121 357.948 983.945 356.253C984.779 354.558 985.934 353.241 987.411 352.304C988.898 351.366 990.626 350.898 992.596 350.898C994.566 350.898 996.289 351.366 997.766 352.304C999.253 353.241 1000.41 354.558 1001.23 356.253C1002.07 357.948 1002.48 359.932 1002.48 362.205C1002.48 364.458 1002.07 366.428 1001.23 368.114C1000.41 369.799 999.253 371.111 997.766 372.048C996.289 372.986 994.566 373.455 992.596 373.455ZM992.596 370.443C994.092 370.443 995.323 370.06 996.289 369.293C997.255 368.526 997.97 367.517 998.434 366.267C998.898 365.017 999.13 363.663 999.13 362.205C999.13 360.746 998.898 359.387 998.434 358.128C997.97 356.868 997.255 355.85 996.289 355.074C995.323 354.297 994.092 353.909 992.596 353.909C991.1 353.909 989.869 354.297 988.903 355.074C987.937 355.85 987.222 356.868 986.758 358.128C986.294 359.387 986.062 360.746 986.062 362.205C986.062 363.663 986.294 365.017 986.758 366.267C987.222 367.517 987.937 368.526 988.903 369.293C989.869 370.06 991.1 370.443 992.596 370.443ZM1010.72 365.045L1010.67 360.898H1011.35L1020.89 351.182H1025.04L1014.87 361.466H1014.59L1010.72 365.045ZM1007.6 373V343.909H1010.95V373H1007.6ZM1021.46 373L1012.94 362.205L1015.33 359.875L1025.72 373H1021.46ZM1044.81 356.068L1041.8 356.92C1041.61 356.419 1041.33 355.931 1040.96 355.457C1040.6 354.974 1040.11 354.577 1039.49 354.264C1038.86 353.952 1038.06 353.795 1037.08 353.795C1035.75 353.795 1034.64 354.103 1033.75 354.719C1032.87 355.325 1032.43 356.097 1032.43 357.034C1032.43 357.867 1032.73 358.526 1033.33 359.009C1033.94 359.491 1034.89 359.894 1036.18 360.216L1039.41 361.011C1041.36 361.485 1042.82 362.209 1043.77 363.185C1044.73 364.151 1045.21 365.396 1045.21 366.92C1045.21 368.17 1044.85 369.288 1044.13 370.273C1043.42 371.258 1042.43 372.034 1041.15 372.602C1039.87 373.17 1038.38 373.455 1036.69 373.455C1034.46 373.455 1032.62 372.972 1031.16 372.006C1029.7 371.04 1028.78 369.629 1028.39 367.773L1031.57 366.977C1031.88 368.152 1032.45 369.032 1033.29 369.619C1034.14 370.206 1035.26 370.5 1036.63 370.5C1038.19 370.5 1039.43 370.169 1040.35 369.506C1041.28 368.833 1041.74 368.028 1041.74 367.091C1041.74 366.333 1041.48 365.699 1040.95 365.188C1040.42 364.667 1039.6 364.278 1038.5 364.023L1034.87 363.17C1032.87 362.697 1031.4 361.963 1030.47 360.969C1029.54 359.965 1029.07 358.71 1029.07 357.205C1029.07 355.973 1029.42 354.884 1030.11 353.938C1030.81 352.991 1031.76 352.247 1032.97 351.707C1034.18 351.168 1035.55 350.898 1037.08 350.898C1039.24 350.898 1040.94 351.371 1042.17 352.318C1043.41 353.265 1044.29 354.515 1044.81 356.068Z" fill="black"/>
</svg>
