<?xml version="1.0" standalone="no"?>
<!DOCTYPE svg PUBLIC "-//W3C//DTD SVG 20010904//EN"
 "http://www.w3.org/TR/2001/REC-SVG-20010904/DTD/svg10.dtd">
<svg version="1.0" xmlns="http://www.w3.org/2000/svg"
 width="512.000000pt" height="512.000000pt" viewBox="0 0 512.000000 512.000000"
 preserveAspectRatio="xMidYMid meet">
<metadata>
Created by potrace 1.16, written by Peter Selinger 2001-2019
</metadata>
<g transform="translate(0.000000,512.000000) scale(0.100000,-0.100000)"
fill="#000000" stroke="none">
<path d="M2282 4384 c-386 -56 -752 -243 -1037 -529 -192 -193 -228 -277 -135
-315 39 -16 77 -1 107 43 13 17 45 56 71 86 l48 55 65 -39 c35 -21 66 -40 68
-41 2 -2 -17 -50 -43 -107 -36 -81 -96 -251 -132 -374 -2 -10 -43 -13 -159
-13 -85 0 -155 2 -155 5 0 2 16 41 36 86 39 88 39 114 2 149 -24 22 -59 26
-89 10 -21 -12 -53 -71 -94 -177 l-28 -73 -81 0 c-96 0 -151 -21 -187 -71 -23
-33 -24 -39 -27 -266 l-3 -231 -197 -4 c-220 -3 -244 -10 -290 -79 -20 -29
-23 -44 -20 -100 4 -69 5 -72 194 -324 l23 -30 -76 -100 c-143 -190 -146 -196
-141 -268 4 -73 29 -116 82 -141 30 -14 90 -16 489 -16 l455 0 58 -77 c73 -97
197 -227 294 -308 550 -458 1325 -554 1978 -244 254 120 506 326 676 551 l58
77 131 3 132 3 20 32 c20 32 21 32 103 33 75 0 82 -2 82 -19 0 -45 31 -51 243
-51 163 0 205 3 233 16 53 25 78 68 82 141 5 72 2 78 -141 268 l-76 100 23 30
c189 252 190 255 194 324 3 56 0 71 -20 100 -46 69 -70 76 -290 79 l-197 4 -3
231 c-3 227 -4 233 -27 266 -36 50 -91 71 -187 71 l-81 0 -28 73 c-61 158
-144 305 -253 450 -291 386 -727 644 -1204 712 -128 18 -419 18 -546 -1z m318
-166 c38 -40 89 -144 123 -253 27 -87 73 -286 83 -358 6 -44 6 -45 -26 -52
-42 -9 -397 -9 -439 0 -39 8 -39 9 -2 183 36 167 72 284 116 377 31 64 86 135
105 135 4 0 22 -15 40 -32z m-280 -11 c0 -2 -16 -42 -34 -89 -40 -98 -85 -262
-117 -425 -12 -62 -25 -113 -28 -113 -46 0 -413 109 -434 130 -24 22 220 288
338 367 97 65 275 149 275 130z m607 -47 c112 -53 192 -109 291 -204 93 -89
208 -234 195 -246 -21 -21 -388 -130 -434 -130 -3 0 -16 51 -28 113 -32 163
-77 327 -117 425 -18 47 -34 88 -34 90 0 7 47 -11 127 -48z m-1212 -172 c-31
-35 -77 -92 -102 -128 -25 -36 -50 -69 -54 -74 -10 -11 -102 42 -94 54 15 24
282 209 303 210 2 0 -22 -28 -53 -62z m2045 -383 c60 -97 125 -226 170 -342
22 -56 40 -104 40 -107 0 -13 -141 -6 -144 7 -39 132 -96 293 -131 372 -25 55
-45 102 -45 106 0 7 40 27 57 28 6 1 30 -28 53 -64z m-2031 -74 c58 -22 167
-54 241 -71 74 -18 140 -34 146 -35 7 -2 6 -38 -2 -116 -7 -63 -13 -124 -14
-136 l0 -23 -320 0 c-249 0 -320 3 -320 13 1 47 140 407 158 407 2 0 52 -18
111 -39z m1814 -39 c38 -83 117 -305 117 -328 0 -12 -54 -14 -320 -14 l-320 0
0 23 c-1 12 -7 73 -14 136 -8 78 -9 114 -2 116 6 1 72 17 146 35 74 17 180 49
235 70 55 21 105 38 111 39 6 0 27 -34 47 -77z m-699 -139 c3 -23 8 -78 12
-122 l7 -81 -303 0 -303 0 7 81 c4 44 9 99 12 122 l6 42 278 0 278 0 6 -42z
m1604 -795 l-3 -433 -473 -5 -474 -5 -19 -24 c-24 -30 -24 -62 0 -92 17 -21
30 -25 104 -29 l85 -5 -38 -116 c-55 -167 -119 -302 -139 -293 -94 40 -212 78
-336 109 -82 21 -152 39 -154 41 -2 2 2 62 9 134 l12 130 114 0 c110 0 113 1
133 26 27 34 27 64 0 98 l-20 26 -1292 2 -1292 3 -3 420 c-1 231 0 426 3 432
3 10 391 13 1895 13 l1890 0 -2 -432z m-3128 -688 c38 -129 76 -232 116 -312
19 -37 34 -69 34 -72 0 -2 -32 -23 -71 -46 l-72 -42 -41 47 c-87 100 -169 225
-230 350 -36 72 -68 140 -71 153 l-7 23 157 -3 157 -3 28 -95z m790 -30 c7
-72 11 -132 9 -134 -2 -2 -70 -20 -151 -40 -121 -30 -244 -70 -340 -111 -14
-6 -22 4 -44 52 -45 101 -81 195 -107 281 l-25 82 323 0 323 0 12 -130z m746
43 c-3 -48 -9 -104 -12 -125 -6 -35 -8 -37 -33 -31 -34 9 -468 9 -502 0 -25
-6 -27 -4 -33 31 -3 21 -9 77 -12 125 l-7 87 303 0 303 0 -7 -87z m1114 82 c0
-16 -77 -209 -107 -270 -42 -84 -130 -232 -143 -240 -8 -5 -70 20 -70 29 0 2
20 45 44 97 40 86 106 272 122 344 4 17 9 33 11 38 5 8 143 10 143 2z m-1155
-396 c7 -7 -50 -280 -81 -384 -47 -163 -131 -315 -173 -315 -66 0 -164 225
-224 517 -42 203 -44 181 11 186 60 6 460 2 467 -4z m-570 -457 c21 -64 48
-138 61 -163 l23 -47 -22 5 c-12 3 -71 29 -132 58 -118 57 -239 147 -320 237
-62 69 -155 192 -155 205 0 14 147 67 285 103 178 46 155 60 192 -123 17 -87
48 -211 68 -275z m950 383 c109 -32 225 -77 225 -88 0 -13 -93 -136 -155 -205
-81 -90 -202 -180 -320 -237 -60 -29 -120 -55 -131 -58 -21 -4 -21 -3 7 57 41
89 93 270 125 437 l28 146 81 -18 c44 -9 108 -25 140 -34z m-1610 -203 c16
-26 64 -88 107 -139 l77 -92 -75 44 c-77 46 -212 144 -233 169 -10 12 -4 19
31 40 24 14 48 26 53 26 6 0 23 -21 40 -48z"/>
<path d="M1422 2827 c-12 -13 -22 -35 -22 -49 0 -40 107 -331 126 -345 31 -23
80 -16 103 13 12 15 21 35 21 45 0 33 -103 314 -123 337 -27 30 -77 29 -105
-1z"/>
<path d="M1811 2833 c-22 -19 -181 -458 -181 -500 0 -28 31 -60 66 -69 55 -14
71 13 161 271 75 214 82 242 72 268 -20 48 -78 63 -118 30z"/>
<path d="M2007 2838 c-19 -14 -46 -82 -132 -330 -51 -150 -56 -171 -46 -197 7
-15 24 -33 37 -40 72 -32 90 -6 184 265 44 127 80 239 80 248 0 47 -83 83
-123 54z"/>
<path d="M2227 2838 c-40 -31 -38 -57 19 -224 34 -100 62 -165 75 -176 41 -35
110 -14 123 36 8 34 -96 335 -125 359 -25 20 -68 22 -92 5z"/>
<path d="M2603 2828 c-23 -27 -173 -452 -173 -492 0 -16 11 -38 26 -53 20 -20
31 -24 57 -19 17 4 37 12 45 19 17 18 172 462 172 496 0 61 -86 94 -127 49z"/>
<path d="M2801 2833 c-22 -19 -181 -455 -181 -498 0 -32 30 -64 67 -71 54 -10
71 18 155 261 77 220 81 235 79 268 -3 49 -78 74 -120 40z"/>
<path d="M3015 2825 c-14 -13 -25 -32 -25 -42 0 -31 106 -322 125 -343 24 -26
79 -26 105 0 28 28 25 61 -14 176 -75 222 -83 234 -141 234 -14 0 -37 -11 -50
-25z"/>
<path d="M3402 2832 c-21 -21 -175 -455 -175 -496 0 -30 41 -76 68 -76 33 0
65 25 81 64 35 87 154 439 154 456 0 9 -9 29 -21 44 -25 31 -79 36 -107 8z"/>
<path d="M3593 2828 c-25 -29 -173 -451 -173 -495 0 -60 84 -94 127 -50 17 17
173 465 173 497 0 61 -86 93 -127 48z"/>
</g>
</svg>
