<svg width="1200" height="675" viewBox="0 0 1200 675" fill="none" xmlns="http://www.w3.org/2000/svg">
<rect width="1200" height="675" fill="#1E1E1E"/>
<rect width="1200" height="675" fill="#FF5656"/>
<rect x="501" y="166" width="201" height="103" rx="13" fill="#56C2FF"/>
<path d="M550.074 239H544.534L560.557 195.364H566.011L582.034 239H576.494L563.455 202.267H563.114L550.074 239ZM552.119 221.955H574.449V226.642H552.119V221.955ZM588.831 239V195.364H603.575C606.999 195.364 609.797 195.982 611.97 197.217C614.158 198.439 615.777 200.094 616.828 202.182C617.879 204.27 618.405 206.599 618.405 209.17C618.405 211.741 617.879 214.078 616.828 216.18C615.791 218.283 614.186 219.959 612.013 221.209C609.839 222.445 607.055 223.062 603.661 223.062H593.092V218.375H603.49C605.834 218.375 607.716 217.97 609.136 217.161C610.557 216.351 611.587 215.257 612.226 213.879C612.879 212.487 613.206 210.918 613.206 209.17C613.206 207.423 612.879 205.861 612.226 204.483C611.587 203.105 610.55 202.026 609.115 201.244C607.68 200.449 605.777 200.051 603.405 200.051H594.115V239H588.831ZM626.917 239V195.364H641.661C645.085 195.364 647.883 195.982 650.056 197.217C652.244 198.439 653.863 200.094 654.914 202.182C655.965 204.27 656.491 206.599 656.491 209.17C656.491 211.741 655.965 214.078 654.914 216.18C653.877 218.283 652.272 219.959 650.099 221.209C647.925 222.445 645.141 223.062 641.746 223.062H631.178V218.375H641.576C643.92 218.375 645.802 217.97 647.222 217.161C648.643 216.351 649.673 215.257 650.312 213.879C650.965 212.487 651.292 210.918 651.292 209.17C651.292 207.423 650.965 205.861 650.312 204.483C649.673 203.105 648.636 202.026 647.201 201.244C645.766 200.449 643.863 200.051 641.491 200.051H632.201V239H626.917Z" fill="white"/>
<rect x="499" y="405" width="201" height="103" rx="13" fill="#56C2FF"/>
<path d="M534.284 478V434.364H539.568V453.795H562.835V434.364H568.119V478H562.835V458.483H539.568V478H534.284ZM591.738 478.682C588.585 478.682 585.864 477.986 583.577 476.594C581.305 475.188 579.55 473.227 578.315 470.713C577.093 468.185 576.482 465.244 576.482 461.892C576.482 458.54 577.093 455.585 578.315 453.028C579.55 450.457 581.269 448.455 583.471 447.02C585.687 445.571 588.272 444.847 591.227 444.847C592.931 444.847 594.614 445.131 596.276 445.699C597.938 446.267 599.451 447.19 600.815 448.469C602.178 449.733 603.265 451.409 604.075 453.497C604.884 455.585 605.289 458.156 605.289 461.21V463.341H580.062V458.994H600.175C600.175 457.148 599.806 455.5 599.067 454.051C598.343 452.602 597.306 451.459 595.957 450.621C594.621 449.783 593.045 449.364 591.227 449.364C589.224 449.364 587.491 449.861 586.028 450.855C584.579 451.835 583.464 453.114 582.683 454.69C581.901 456.267 581.511 457.957 581.511 459.761V462.659C581.511 465.131 581.937 467.226 582.789 468.945C583.656 470.649 584.856 471.949 586.39 472.844C587.924 473.724 589.707 474.165 591.738 474.165C593.059 474.165 594.252 473.98 595.317 473.611C596.397 473.227 597.327 472.659 598.109 471.906C598.89 471.139 599.494 470.187 599.92 469.051L604.778 470.415C604.266 472.062 603.407 473.511 602.2 474.761C600.992 475.997 599.501 476.963 597.725 477.659C595.95 478.341 593.954 478.682 591.738 478.682ZM617.967 434.364V478H612.938V434.364H617.967ZM632.205 434.364V478H627.176V434.364H632.205ZM654.71 478.682C651.756 478.682 649.163 477.979 646.933 476.572C644.717 475.166 642.984 473.199 641.734 470.67C640.499 468.142 639.881 465.187 639.881 461.807C639.881 458.398 640.499 455.422 641.734 452.879C642.984 450.337 644.717 448.362 646.933 446.956C649.163 445.55 651.756 444.847 654.71 444.847C657.665 444.847 660.25 445.55 662.466 446.956C664.696 448.362 666.429 450.337 667.665 452.879C668.915 455.422 669.54 458.398 669.54 461.807C669.54 465.187 668.915 468.142 667.665 470.67C666.429 473.199 664.696 475.166 662.466 476.572C660.25 477.979 657.665 478.682 654.71 478.682ZM654.71 474.165C656.955 474.165 658.801 473.589 660.25 472.439C661.699 471.288 662.771 469.776 663.467 467.901C664.163 466.026 664.511 463.994 664.511 461.807C664.511 459.619 664.163 457.581 663.467 455.692C662.771 453.803 661.699 452.276 660.25 451.111C658.801 449.946 656.955 449.364 654.71 449.364C652.466 449.364 650.619 449.946 649.17 451.111C647.722 452.276 646.649 453.803 645.953 455.692C645.257 457.581 644.909 459.619 644.909 461.807C644.909 463.994 645.257 466.026 645.953 467.901C646.649 469.776 647.722 471.288 649.17 472.439C650.619 473.589 652.466 474.165 654.71 474.165Z" fill="white"/>
<line x1="597.5" y1="405.017" x2="597.5" y2="268.983" stroke="white" stroke-width="4"/>
</svg>
