<svg xmlns="http://www.w3.org/2000/svg" width="1200" height="675" fill="none" viewBox="0 0 1200 675"><rect width="1200" height="675" fill="#1E1E1E"/><rect width="1200" height="675" fill="#FF5656"/><rect width="201" height="103" x="72" y="179" fill="#56C2FF" rx="13"/><path fill="#fff" d="M121.074 252H115.534L131.557 208.364H137.011L153.034 252H147.494L134.455 215.267H134.114L121.074 252ZM123.119 234.955H145.449V239.642H123.119V234.955ZM159.831 252V208.364H174.575C177.999 208.364 180.797 208.982 182.97 210.217C185.158 211.439 186.777 213.094 187.828 215.182C188.879 217.27 189.405 219.599 189.405 222.17C189.405 224.741 188.879 227.078 187.828 229.18C186.791 231.283 185.186 232.959 183.013 234.209C180.839 235.445 178.055 236.062 174.661 236.062H164.092V231.375H174.49C176.834 231.375 178.716 230.97 180.136 230.161C181.557 229.351 182.587 228.257 183.226 226.879C183.879 225.487 184.206 223.918 184.206 222.17C184.206 220.423 183.879 218.861 183.226 217.483C182.587 216.105 181.55 215.026 180.115 214.244C178.68 213.449 176.777 213.051 174.405 213.051H165.115V252H159.831ZM197.917 252V208.364H212.661C216.085 208.364 218.883 208.982 221.056 210.217C223.244 211.439 224.863 213.094 225.914 215.182C226.965 217.27 227.491 219.599 227.491 222.17C227.491 224.741 226.965 227.078 225.914 229.18C224.877 231.283 223.272 232.959 221.099 234.209C218.925 235.445 216.141 236.062 212.746 236.062H202.178V231.375H212.576C214.92 231.375 216.802 230.97 218.222 230.161C219.643 229.351 220.673 228.257 221.312 226.879C221.965 225.487 222.292 223.918 222.292 222.17C222.292 220.423 221.965 218.861 221.312 217.483C220.673 216.105 219.636 215.026 218.201 214.244C216.766 213.449 214.863 213.051 212.491 213.051H203.201V252H197.917Z"/><rect width="201" height="103" x="70" y="418" fill="#56C2FF" rx="13"/><path fill="#fff" d="M105.284 491V447.364H110.568V466.795H133.835V447.364H139.119V491H133.835V471.483H110.568V491H105.284ZM162.738 491.682C159.585 491.682 156.864 490.986 154.577 489.594C152.305 488.188 150.55 486.227 149.315 483.713C148.093 481.185 147.482 478.244 147.482 474.892C147.482 471.54 148.093 468.585 149.315 466.028C150.55 463.457 152.269 461.455 154.471 460.02C156.687 458.571 159.272 457.847 162.227 457.847C163.931 457.847 165.614 458.131 167.276 458.699C168.938 459.267 170.451 460.19 171.815 461.469C173.178 462.733 174.265 464.409 175.075 466.497C175.884 468.585 176.289 471.156 176.289 474.21V476.341H151.062V471.994H171.175C171.175 470.148 170.806 468.5 170.067 467.051C169.343 465.602 168.306 464.459 166.957 463.621C165.621 462.783 164.045 462.364 162.227 462.364C160.224 462.364 158.491 462.861 157.028 463.855C155.579 464.835 154.464 466.114 153.683 467.69C152.901 469.267 152.511 470.957 152.511 472.761V475.659C152.511 478.131 152.937 480.226 153.789 481.945C154.656 483.649 155.856 484.949 157.39 485.844C158.924 486.724 160.707 487.165 162.738 487.165C164.059 487.165 165.252 486.98 166.317 486.611C167.397 486.227 168.327 485.659 169.109 484.906C169.89 484.139 170.494 483.187 170.92 482.051L175.778 483.415C175.266 485.062 174.407 486.511 173.2 487.761C171.992 488.997 170.501 489.963 168.725 490.659C166.95 491.341 164.954 491.682 162.738 491.682ZM188.967 447.364V491H183.938V447.364H188.967ZM203.205 447.364V491H198.176V447.364H203.205ZM225.71 491.682C222.756 491.682 220.163 490.979 217.933 489.572C215.717 488.166 213.984 486.199 212.734 483.67C211.499 481.142 210.881 478.187 210.881 474.807C210.881 471.398 211.499 468.422 212.734 465.879C213.984 463.337 215.717 461.362 217.933 459.956C220.163 458.55 222.756 457.847 225.71 457.847C228.665 457.847 231.25 458.55 233.466 459.956C235.696 461.362 237.429 463.337 238.665 465.879C239.915 468.422 240.54 471.398 240.54 474.807C240.54 478.187 239.915 481.142 238.665 483.67C237.429 486.199 235.696 488.166 233.466 489.572C231.25 490.979 228.665 491.682 225.71 491.682ZM225.71 487.165C227.955 487.165 229.801 486.589 231.25 485.439C232.699 484.288 233.771 482.776 234.467 480.901C235.163 479.026 235.511 476.994 235.511 474.807C235.511 472.619 235.163 470.581 234.467 468.692C233.771 466.803 232.699 465.276 231.25 464.111C229.801 462.946 227.955 462.364 225.71 462.364C223.466 462.364 221.619 462.946 220.17 464.111C218.722 465.276 217.649 466.803 216.953 468.692C216.257 470.581 215.909 472.619 215.909 474.807C215.909 476.994 216.257 479.026 216.953 480.901C217.649 482.776 218.722 484.288 220.17 485.439C221.619 486.589 223.466 487.165 225.71 487.165Z"/><line x1="168.5" x2="168.5" y1="418.017" y2="281.983" stroke="#fff" stroke-width="4"/><path fill="#fff" d="M769.061 339.061C769.646 338.475 769.646 337.525 769.061 336.939L759.515 327.393C758.929 326.808 757.979 326.808 757.393 327.393C756.808 327.979 756.808 328.929 757.393 329.515L765.879 338L757.393 346.485C756.808 347.071 756.808 348.021 757.393 348.607C757.979 349.192 758.929 349.192 759.515 348.607L769.061 339.061ZM461 339.5H768V336.5H461V339.5Z"/><rect width="107" height="103" x="956" y="179" fill="#FFF84B" rx="15"/><path fill="#000" d="M992.307 245.455C990.489 245.455 988.884 244.995 987.491 244.077C986.099 243.149 985.01 241.842 984.224 240.156C983.438 238.461 983.045 236.458 983.045 234.148C983.045 231.856 983.438 229.867 984.224 228.182C985.01 226.496 986.104 225.194 987.506 224.276C988.907 223.357 990.527 222.898 992.364 222.898C993.784 222.898 994.906 223.134 995.73 223.608C996.563 224.072 997.198 224.602 997.634 225.199C998.079 225.786 998.424 226.269 998.67 226.648H998.955V215.909H1002.31V245H999.068V241.648H998.67C998.424 242.045 998.074 242.547 997.619 243.153C997.165 243.75 996.516 244.285 995.673 244.759C994.83 245.223 993.708 245.455 992.307 245.455ZM992.761 242.443C994.106 242.443 995.242 242.093 996.17 241.392C997.098 240.682 997.804 239.702 998.287 238.452C998.77 237.192 999.011 235.739 999.011 234.091C999.011 232.462 998.775 231.037 998.301 229.815C997.828 228.584 997.127 227.628 996.199 226.946C995.271 226.255 994.125 225.909 992.761 225.909C991.341 225.909 990.157 226.274 989.21 227.003C988.273 227.723 987.567 228.703 987.094 229.943C986.63 231.174 986.398 232.557 986.398 234.091C986.398 235.644 986.634 237.055 987.108 238.324C987.591 239.583 988.301 240.587 989.239 241.335C990.186 242.074 991.36 242.443 992.761 242.443ZM1008.91 245V223.182H1012.26V245H1008.91ZM1010.62 219.545C1009.96 219.545 1009.4 219.323 1008.93 218.878C1008.46 218.433 1008.23 217.898 1008.23 217.273C1008.23 216.648 1008.46 216.113 1008.93 215.668C1009.4 215.223 1009.96 215 1010.62 215C1011.27 215 1011.83 215.223 1012.29 215.668C1012.77 216.113 1013 216.648 1013 217.273C1013 217.898 1012.77 218.433 1012.29 218.878C1011.83 219.323 1011.27 219.545 1010.62 219.545ZM1036.25 223.182L1028.18 245H1024.77L1016.7 223.182H1020.34L1026.36 240.568H1026.59L1032.61 223.182H1036.25Z"/><rect width="107" height="103" x="956" y="418" fill="#FFF84B" rx="15"/><path fill="#000" d="M988.523 485V455.909H992.045V468.864H1007.56V455.909H1011.08V485H1007.56V471.989H992.045V485H988.523ZM1027.85 455.909V485H1024.33V459.602H1024.15L1017.05 464.318V460.739L1024.33 455.909H1027.85Z"/><line x1="1007" x2="1007" y1="418.033" y2="282" stroke="#fff" stroke-width="4"/><path fill="#fff" d="M504.716 46.9091L513.352 71.3977H513.693L522.33 46.9091H526.023L515.341 76H511.705L501.023 46.9091H504.716ZM530.099 76V54.1818H533.452V76H530.099ZM531.804 50.5455C531.151 50.5455 530.587 50.3229 530.114 49.8778C529.65 49.4328 529.418 48.8977 529.418 48.2727C529.418 47.6477 529.65 47.1127 530.114 46.6676C530.587 46.2225 531.151 46 531.804 46C532.457 46 533.016 46.2225 533.48 46.6676C533.954 47.1127 534.19 47.6477 534.19 48.2727C534.19 48.8977 533.954 49.4328 533.48 49.8778C533.016 50.3229 532.457 50.5455 531.804 50.5455ZM539.592 76V54.1818H542.83V57.4773H543.058C543.455 56.3977 544.175 55.5218 545.217 54.8494C546.258 54.1771 547.433 53.8409 548.739 53.8409C548.986 53.8409 549.293 53.8456 549.663 53.8551C550.032 53.8646 550.311 53.8788 550.501 53.8977V57.3068C550.387 57.2784 550.127 57.2358 549.719 57.179C549.322 57.1127 548.9 57.0795 548.455 57.0795C547.395 57.0795 546.448 57.3021 545.614 57.7472C544.79 58.1828 544.137 58.7888 543.654 59.5653C543.181 60.3324 542.944 61.2083 542.944 62.1932V76H539.592ZM565.33 54.1818V57.0227H554.023V54.1818H565.33ZM557.319 48.9545H560.671V69.75C560.671 70.697 560.808 71.4072 561.083 71.8807C561.367 72.3447 561.727 72.6572 562.163 72.8182C562.608 72.9697 563.076 73.0455 563.569 73.0455C563.938 73.0455 564.241 73.0265 564.478 72.9886C564.715 72.9413 564.904 72.9034 565.046 72.875L565.728 75.8864C565.501 75.9716 565.183 76.0568 564.776 76.142C564.369 76.2367 563.853 76.2841 563.228 76.2841C562.281 76.2841 561.353 76.0805 560.444 75.6733C559.544 75.2661 558.796 74.6458 558.2 73.8125C557.612 72.9792 557.319 71.928 557.319 70.6591V48.9545ZM584.123 67.0795V54.1818H587.475V76H584.123V72.3068H583.896C583.384 73.4148 582.589 74.357 581.509 75.1335C580.43 75.9006 579.066 76.2841 577.418 76.2841C576.055 76.2841 574.843 75.9858 573.782 75.3892C572.721 74.7831 571.888 73.8741 571.282 72.6619C570.676 71.4403 570.373 69.9015 570.373 68.0455V54.1818H573.725V67.8182C573.725 69.4091 574.17 70.678 575.06 71.625C575.96 72.572 577.106 73.0455 578.498 73.0455C579.331 73.0455 580.179 72.8324 581.04 72.4062C581.912 71.9801 582.641 71.3267 583.228 70.446C583.825 69.5653 584.123 68.4432 584.123 67.0795ZM600.036 76.5114C598.653 76.5114 597.398 76.2509 596.271 75.7301C595.144 75.1998 594.25 74.4375 593.587 73.4432C592.924 72.4394 592.592 71.2273 592.592 69.8068C592.592 68.5568 592.839 67.5436 593.331 66.767C593.823 65.9811 594.482 65.3655 595.305 64.9205C596.129 64.4754 597.038 64.1439 598.033 63.9261C599.036 63.6989 600.045 63.5189 601.058 63.3864C602.384 63.2159 603.459 63.0881 604.283 63.0028C605.116 62.9081 605.722 62.7519 606.101 62.5341C606.489 62.3163 606.683 61.9375 606.683 61.3977V61.2841C606.683 59.8826 606.3 58.7936 605.533 58.017C604.775 57.2405 603.625 56.8523 602.081 56.8523C600.481 56.8523 599.226 57.2027 598.317 57.9034C597.408 58.6042 596.768 59.3523 596.399 60.1477L593.217 59.0114C593.786 57.6856 594.543 56.6534 595.49 55.9148C596.446 55.1667 597.488 54.6458 598.615 54.3523C599.751 54.0492 600.869 53.8977 601.967 53.8977C602.668 53.8977 603.473 53.983 604.382 54.1534C605.301 54.3144 606.186 54.6506 607.038 55.1619C607.9 55.6733 608.615 56.4451 609.183 57.4773C609.751 58.5095 610.036 59.892 610.036 61.625V76H606.683V73.0455H606.513C606.286 73.5189 605.907 74.0256 605.376 74.5653C604.846 75.1051 604.141 75.5644 603.26 75.9432C602.379 76.322 601.304 76.5114 600.036 76.5114ZM600.547 73.5C601.873 73.5 602.99 73.2396 603.899 72.7188C604.818 72.1979 605.509 71.5256 605.973 70.7017C606.446 69.8778 606.683 69.0114 606.683 68.1023V65.0341C606.541 65.2045 606.229 65.3608 605.746 65.5028C605.272 65.6354 604.723 65.7538 604.098 65.858C603.482 65.9527 602.881 66.0379 602.294 66.1136C601.716 66.1799 601.248 66.2367 600.888 66.2841C600.017 66.3977 599.202 66.5824 598.445 66.8381C597.696 67.0843 597.09 67.4583 596.626 67.9602C596.172 68.4527 595.945 69.125 595.945 69.9773C595.945 71.142 596.375 72.0227 597.237 72.6193C598.108 73.2064 599.212 73.5 600.547 73.5ZM619.506 46.9091V76H616.154V46.9091H619.506ZM646.328 76H637.351V46.9091H646.726C649.548 46.9091 651.963 47.4915 653.97 48.6562C655.978 49.8116 657.517 51.4735 658.587 53.642C659.657 55.8011 660.192 58.3864 660.192 61.3977C660.192 64.428 659.652 67.0369 658.572 69.2244C657.493 71.4025 655.921 73.0786 653.857 74.2528C651.792 75.4176 649.283 76 646.328 76ZM640.874 72.875H646.101C648.506 72.875 650.5 72.411 652.081 71.483C653.662 70.5549 654.841 69.2339 655.618 67.5199C656.394 65.8059 656.783 63.7652 656.783 61.3977C656.783 59.0492 656.399 57.0275 655.632 55.3324C654.865 53.6278 653.719 52.321 652.195 51.4119C650.67 50.4934 648.771 50.0341 646.499 50.0341H640.874V72.875ZM690.646 61.4545C690.646 64.5227 690.092 67.1742 688.984 69.4091C687.876 71.6439 686.357 73.3674 684.425 74.5795C682.493 75.7917 680.286 76.3977 677.805 76.3977C675.324 76.3977 673.118 75.7917 671.186 74.5795C669.254 73.3674 667.734 71.6439 666.626 69.4091C665.518 67.1742 664.964 64.5227 664.964 61.4545C664.964 58.3864 665.518 55.7348 666.626 53.5C667.734 51.2652 669.254 49.5417 671.186 48.3295C673.118 47.1174 675.324 46.5114 677.805 46.5114C680.286 46.5114 682.493 47.1174 684.425 48.3295C686.357 49.5417 687.876 51.2652 688.984 53.5C690.092 55.7348 690.646 58.3864 690.646 61.4545ZM687.237 61.4545C687.237 58.9356 686.816 56.8097 685.973 55.0767C685.14 53.3438 684.008 52.0322 682.578 51.142C681.158 50.2519 679.567 49.8068 677.805 49.8068C676.044 49.8068 674.448 50.2519 673.018 51.142C671.598 52.0322 670.466 53.3438 669.624 55.0767C668.79 56.8097 668.374 58.9356 668.374 61.4545C668.374 63.9735 668.79 66.0994 669.624 67.8324C670.466 69.5653 671.598 70.8769 673.018 71.767C674.448 72.6572 676.044 73.1023 677.805 73.1023C679.567 73.1023 681.158 72.6572 682.578 71.767C684.008 70.8769 685.14 69.5653 685.973 67.8324C686.816 66.0994 687.237 63.9735 687.237 61.4545ZM696.57 46.9091H700.774L710.661 71.0568H711.001L720.888 46.9091H725.092V76H721.797V53.8977H721.513L712.422 76H709.24L700.149 53.8977H699.865V76H696.57V46.9091Z"/></svg>